<?xml version="1.0" encoding="utf-8" standalone="no"?>
<!DOCTYPE svg PUBLIC "-//W3C//DTD SVG 1.1//EN"
  "http://www.w3.org/Graphics/SVG/1.1/DTD/svg11.dtd">
<svg xmlns:xlink="http://www.w3.org/1999/xlink" width="531.529666pt" height="315.838125pt" viewBox="0 0 531.529666 315.838125" xmlns="http://www.w3.org/2000/svg" version="1.1">
 <metadata>
  <rdf:RDF xmlns:dc="http://purl.org/dc/elements/1.1/" xmlns:cc="http://creativecommons.org/ns#" xmlns:rdf="http://www.w3.org/1999/02/22-rdf-syntax-ns#">
   <cc:Work>
    <dc:type rdf:resource="http://purl.org/dc/dcmitype/StillImage"/>
    <dc:date>2026-03-13T09:13:30.932895</dc:date>
    <dc:format>image/svg+xml</dc:format>
    <dc:creator>
     <cc:Agent>
      <dc:title>Matplotlib v3.9.2, https://matplotlib.org/</dc:title>
     </cc:Agent>
    </dc:creator>
   </cc:Work>
  </rdf:RDF>
 </metadata>
 <defs>
  <style type="text/css">*{stroke-linejoin: round; stroke-linecap: butt}</style>
 </defs>
 <g id="figure_1">
  <g id="patch_1">
   <path d="M 0 315.838125 
L 531.529666 315.838125 
L 531.529666 0 
L 0 0 
z
" style="fill: #ffffff"/>
  </g>
  <g id="axes_1">
   <g id="patch_2">
    <path d="M 145.165291 85.316525 
L 397.941541 85.316525 
Q 398.952646 85.316525 398.952646 84.382125 
L 398.952646 42.334125 
Q 398.952646 41.399725 397.941541 41.399725 
L 145.165291 41.399725 
Q 144.154186 41.399725 144.154186 42.334125 
L 144.154186 84.382125 
Q 144.154186 85.316525 145.165291 85.316525 
z
" clip-path="url(#pe54e721c33)" style="fill: #fffde7; stroke: #e8833a; stroke-width: 1.2; stroke-linejoin: miter"/>
   </g>
   <g id="patch_3">
    <path d="M 44.054791 150.724525 
L 175.498441 150.724525 
Q 176.509546 150.724525 176.509546 149.790125 
L 176.509546 107.742125 
Q 176.509546 106.807725 175.498441 106.807725 
L 44.054791 106.807725 
Q 43.043686 106.807725 43.043686 107.742125 
L 43.043686 149.790125 
Q 43.043686 150.724525 44.054791 150.724525 
z
" clip-path="url(#pe54e721c33)" style="fill: #d6e9f8; stroke: #3b7dd8; stroke-width: 1.5; stroke-linejoin: miter"/>
   </g>
   <g id="patch_4">
    <path d="M 44.054791 216.132525 
L 175.498441 216.132525 
Q 176.509546 216.132525 176.509546 215.198125 
L 176.509546 168.478125 
Q 176.509546 167.543725 175.498441 167.543725 
L 44.054791 167.543725 
Q 43.043686 167.543725 43.043686 168.478125 
L 43.043686 215.198125 
Q 43.043686 216.132525 44.054791 216.132525 
z
" clip-path="url(#pe54e721c33)" style="fill: #ffffff; stroke: #3b7dd8; stroke-width: 1.2; stroke-linejoin: miter"/>
   </g>
   <g id="patch_5">
    <path d="M 44.054791 281.540525 
L 175.498441 281.540525 
Q 176.509546 281.540525 176.509546 280.606125 
L 176.509546 238.558125 
Q 176.509546 237.623725 175.498441 237.623725 
L 44.054791 237.623725 
Q 43.043686 237.623725 43.043686 238.558125 
L 43.043686 280.606125 
Q 43.043686 281.540525 44.054791 281.540525 
z
" clip-path="url(#pe54e721c33)" style="fill: #f5f5f5; stroke: #6c757d; stroke-width: 1.2; stroke-linejoin: miter"/>
   </g>
   <g id="patch_6">
    <path d="M 205.831591 150.724525 
L 337.275241 150.724525 
Q 338.286346 150.724525 338.286346 149.790125 
L 338.286346 107.742125 
Q 338.286346 106.807725 337.275241 106.807725 
L 205.831591 106.807725 
Q 204.820486 106.807725 204.820486 107.742125 
L 204.820486 149.790125 
Q 204.820486 150.724525 205.831591 150.724525 
z
" clip-path="url(#pe54e721c33)" style="fill: #d5ecd5; stroke: #4caf50; stroke-width: 1.5; stroke-linejoin: miter"/>
   </g>
   <g id="patch_7">
    <path d="M 205.831591 216.132525 
L 337.275241 216.132525 
Q 338.286346 216.132525 338.286346 215.198125 
L 338.286346 168.478125 
Q 338.286346 167.543725 337.275241 167.543725 
L 205.831591 167.543725 
Q 204.820486 167.543725 204.820486 168.478125 
L 204.820486 215.198125 
Q 204.820486 216.132525 205.831591 216.132525 
z
" clip-path="url(#pe54e721c33)" style="fill: #ffffff; stroke: #4caf50; stroke-width: 1.2; stroke-linejoin: miter"/>
   </g>
   <g id="patch_8">
    <path d="M 205.831591 281.540525 
L 337.275241 281.540525 
Q 338.286346 281.540525 338.286346 280.606125 
L 338.286346 238.558125 
Q 338.286346 237.623725 337.275241 237.623725 
L 205.831591 237.623725 
Q 204.820486 237.623725 204.820486 238.558125 
L 204.820486 280.606125 
Q 204.820486 281.540525 205.831591 281.540525 
z
" clip-path="url(#pe54e721c33)" style="fill: #f5f5f5; stroke: #6c757d; stroke-width: 1.2; stroke-linejoin: miter"/>
   </g>
   <g id="patch_9">
    <path d="M 367.608391 150.724525 
L 499.052041 150.724525 
Q 500.063146 150.724525 500.063146 149.790125 
L 500.063146 107.742125 
Q 500.063146 106.807725 499.052041 106.807725 
L 367.608391 106.807725 
Q 366.597286 106.807725 366.597286 107.742125 
L 366.597286 149.790125 
Q 366.597286 150.724525 367.608391 150.724525 
z
" clip-path="url(#pe54e721c33)" style="fill: #e8dff0; stroke: #8e6fbf; stroke-width: 1.5; stroke-linejoin: miter"/>
   </g>
   <g id="patch_10">
    <path d="M 367.608391 216.132525 
L 499.052041 216.132525 
Q 500.063146 216.132525 500.063146 215.198125 
L 500.063146 168.478125 
Q 500.063146 167.543725 499.052041 167.543725 
L 367.608391 167.543725 
Q 366.597286 167.543725 366.597286 168.478125 
L 366.597286 215.198125 
Q 366.597286 216.132525 367.608391 216.132525 
z
" clip-path="url(#pe54e721c33)" style="fill: #ffffff; stroke: #8e6fbf; stroke-width: 1.2; stroke-linejoin: miter"/>
   </g>
   <g id="patch_11">
    <path d="M 367.608391 281.540525 
L 499.052041 281.540525 
Q 500.063146 281.540525 500.063146 280.606125 
L 500.063146 238.558125 
Q 500.063146 237.623725 499.052041 237.623725 
L 367.608391 237.623725 
Q 366.597286 237.623725 366.597286 238.558125 
L 366.597286 280.606125 
Q 366.597286 281.540525 367.608391 281.540525 
z
" clip-path="url(#pe54e721c33)" style="fill: #f5f5f5; stroke: #6c757d; stroke-width: 1.2; stroke-linejoin: miter"/>
   </g>
   <g id="text_1">
    <!-- Unified Layer-7 Enrichment -->
    <g transform="translate(215.6544 60.915678) scale(0.082 -0.082)">
     <defs>
      <path id="DejaVuSans-55" d="M 556 4666 
L 1191 4666 
L 1191 1831 
Q 1191 1081 1462 751 
Q 1734 422 2344 422 
Q 2950 422 3222 751 
Q 3494 1081 3494 1831 
L 3494 4666 
L 4128 4666 
L 4128 1753 
Q 4128 841 3676 375 
Q 3225 -91 2344 -91 
Q 1459 -91 1007 375 
Q 556 841 556 1753 
L 556 4666 
z
" transform="scale(0.015625)"/>
      <path id="DejaVuSans-6e" d="M 3513 2113 
L 3513 0 
L 2938 0 
L 2938 2094 
Q 2938 2591 2744 2837 
Q 2550 3084 2163 3084 
Q 1697 3084 1428 2787 
Q 1159 2491 1159 1978 
L 1159 0 
L 581 0 
L 581 3500 
L 1159 3500 
L 1159 2956 
Q 1366 3272 1645 3428 
Q 1925 3584 2291 3584 
Q 2894 3584 3203 3211 
Q 3513 2838 3513 2113 
z
" transform="scale(0.015625)"/>
      <path id="DejaVuSans-69" d="M 603 3500 
L 1178 3500 
L 1178 0 
L 603 0 
L 603 3500 
z
M 603 4863 
L 1178 4863 
L 1178 4134 
L 603 4134 
L 603 4863 
z
" transform="scale(0.015625)"/>
      <path id="DejaVuSans-66" d="M 2375 4863 
L 2375 4384 
L 1825 4384 
Q 1516 4384 1395 4259 
Q 1275 4134 1275 3809 
L 1275 3500 
L 2222 3500 
L 2222 3053 
L 1275 3053 
L 1275 0 
L 697 0 
L 697 3053 
L 147 3053 
L 147 3500 
L 697 3500 
L 697 3744 
Q 697 4328 969 4595 
Q 1241 4863 1831 4863 
L 2375 4863 
z
" transform="scale(0.015625)"/>
      <path id="DejaVuSans-65" d="M 3597 1894 
L 3597 1613 
L 953 1613 
Q 991 1019 1311 708 
Q 1631 397 2203 397 
Q 2534 397 2845 478 
Q 3156 559 3463 722 
L 3463 178 
Q 3153 47 2828 -22 
Q 2503 -91 2169 -91 
Q 1331 -91 842 396 
Q 353 884 353 1716 
Q 353 2575 817 3079 
Q 1281 3584 2069 3584 
Q 2775 3584 3186 3129 
Q 3597 2675 3597 1894 
z
M 3022 2063 
Q 3016 2534 2758 2815 
Q 2500 3097 2075 3097 
Q 1594 3097 1305 2825 
Q 1016 2553 972 2059 
L 3022 2063 
z
" transform="scale(0.015625)"/>
      <path id="DejaVuSans-64" d="M 2906 2969 
L 2906 4863 
L 3481 4863 
L 3481 0 
L 2906 0 
L 2906 525 
Q 2725 213 2448 61 
Q 2172 -91 1784 -91 
Q 1150 -91 751 415 
Q 353 922 353 1747 
Q 353 2572 751 3078 
Q 1150 3584 1784 3584 
Q 2172 3584 2448 3432 
Q 2725 3281 2906 2969 
z
M 947 1747 
Q 947 1113 1208 752 
Q 1469 391 1925 391 
Q 2381 391 2643 752 
Q 2906 1113 2906 1747 
Q 2906 2381 2643 2742 
Q 2381 3103 1925 3103 
Q 1469 3103 1208 2742 
Q 947 2381 947 1747 
z
" transform="scale(0.015625)"/>
      <path id="DejaVuSans-20" transform="scale(0.015625)"/>
      <path id="DejaVuSans-4c" d="M 628 4666 
L 1259 4666 
L 1259 531 
L 3531 531 
L 3531 0 
L 628 0 
L 628 4666 
z
" transform="scale(0.015625)"/>
      <path id="DejaVuSans-61" d="M 2194 1759 
Q 1497 1759 1228 1600 
Q 959 1441 959 1056 
Q 959 750 1161 570 
Q 1363 391 1709 391 
Q 2188 391 2477 730 
Q 2766 1069 2766 1631 
L 2766 1759 
L 2194 1759 
z
M 3341 1997 
L 3341 0 
L 2766 0 
L 2766 531 
Q 2569 213 2275 61 
Q 1981 -91 1556 -91 
Q 1019 -91 701 211 
Q 384 513 384 1019 
Q 384 1609 779 1909 
Q 1175 2209 1959 2209 
L 2766 2209 
L 2766 2266 
Q 2766 2663 2505 2880 
Q 2244 3097 1772 3097 
Q 1472 3097 1187 3025 
Q 903 2953 641 2809 
L 641 3341 
Q 956 3463 1253 3523 
Q 1550 3584 1831 3584 
Q 2591 3584 2966 3190 
Q 3341 2797 3341 1997 
z
" transform="scale(0.015625)"/>
      <path id="DejaVuSans-79" d="M 2059 -325 
Q 1816 -950 1584 -1140 
Q 1353 -1331 966 -1331 
L 506 -1331 
L 506 -850 
L 844 -850 
Q 1081 -850 1212 -737 
Q 1344 -625 1503 -206 
L 1606 56 
L 191 3500 
L 800 3500 
L 1894 763 
L 2988 3500 
L 3597 3500 
L 2059 -325 
z
" transform="scale(0.015625)"/>
      <path id="DejaVuSans-72" d="M 2631 2963 
Q 2534 3019 2420 3045 
Q 2306 3072 2169 3072 
Q 1681 3072 1420 2755 
Q 1159 2438 1159 1844 
L 1159 0 
L 581 0 
L 581 3500 
L 1159 3500 
L 1159 2956 
Q 1341 3275 1631 3429 
Q 1922 3584 2338 3584 
Q 2397 3584 2469 3576 
Q 2541 3569 2628 3553 
L 2631 2963 
z
" transform="scale(0.015625)"/>
      <path id="DejaVuSans-2d" d="M 313 2009 
L 1997 2009 
L 1997 1497 
L 313 1497 
L 313 2009 
z
" transform="scale(0.015625)"/>
      <path id="DejaVuSans-37" d="M 525 4666 
L 3525 4666 
L 3525 4397 
L 1831 0 
L 1172 0 
L 2766 4134 
L 525 4134 
L 525 4666 
z
" transform="scale(0.015625)"/>
      <path id="DejaVuSans-45" d="M 628 4666 
L 3578 4666 
L 3578 4134 
L 1259 4134 
L 1259 2753 
L 3481 2753 
L 3481 2222 
L 1259 2222 
L 1259 531 
L 3634 531 
L 3634 0 
L 628 0 
L 628 4666 
z
" transform="scale(0.015625)"/>
      <path id="DejaVuSans-63" d="M 3122 3366 
L 3122 2828 
Q 2878 2963 2633 3030 
Q 2388 3097 2138 3097 
Q 1578 3097 1268 2742 
Q 959 2388 959 1747 
Q 959 1106 1268 751 
Q 1578 397 2138 397 
Q 2388 397 2633 464 
Q 2878 531 3122 666 
L 3122 134 
Q 2881 22 2623 -34 
Q 2366 -91 2075 -91 
Q 1284 -91 818 406 
Q 353 903 353 1747 
Q 353 2603 823 3093 
Q 1294 3584 2113 3584 
Q 2378 3584 2631 3529 
Q 2884 3475 3122 3366 
z
" transform="scale(0.015625)"/>
      <path id="DejaVuSans-68" d="M 3513 2113 
L 3513 0 
L 2938 0 
L 2938 2094 
Q 2938 2591 2744 2837 
Q 2550 3084 2163 3084 
Q 1697 3084 1428 2787 
Q 1159 2491 1159 1978 
L 1159 0 
L 581 0 
L 581 4863 
L 1159 4863 
L 1159 2956 
Q 1366 3272 1645 3428 
Q 1925 3584 2291 3584 
Q 2894 3584 3203 3211 
Q 3513 2838 3513 2113 
z
" transform="scale(0.015625)"/>
      <path id="DejaVuSans-6d" d="M 3328 2828 
Q 3544 3216 3844 3400 
Q 4144 3584 4550 3584 
Q 5097 3584 5394 3201 
Q 5691 2819 5691 2113 
L 5691 0 
L 5113 0 
L 5113 2094 
Q 5113 2597 4934 2840 
Q 4756 3084 4391 3084 
Q 3944 3084 3684 2787 
Q 3425 2491 3425 1978 
L 3425 0 
L 2847 0 
L 2847 2094 
Q 2847 2600 2669 2842 
Q 2491 3084 2119 3084 
Q 1678 3084 1418 2786 
Q 1159 2488 1159 1978 
L 1159 0 
L 581 0 
L 581 3500 
L 1159 3500 
L 1159 2956 
Q 1356 3278 1631 3431 
Q 1906 3584 2284 3584 
Q 2666 3584 2933 3390 
Q 3200 3197 3328 2828 
z
" transform="scale(0.015625)"/>
      <path id="DejaVuSans-74" d="M 1172 4494 
L 1172 3500 
L 2356 3500 
L 2356 3053 
L 1172 3053 
L 1172 1153 
Q 1172 725 1289 603 
Q 1406 481 1766 481 
L 2356 481 
L 2356 0 
L 1766 0 
Q 1100 0 847 248 
Q 594 497 594 1153 
L 594 3053 
L 172 3053 
L 172 3500 
L 594 3500 
L 594 4494 
L 1172 4494 
z
" transform="scale(0.015625)"/>
     </defs>
     <use xlink:href="#DejaVuSans-55"/>
     <use xlink:href="#DejaVuSans-6e" x="73.193359"/>
     <use xlink:href="#DejaVuSans-69" x="136.572266"/>
     <use xlink:href="#DejaVuSans-66" x="164.355469"/>
     <use xlink:href="#DejaVuSans-69" x="199.560547"/>
     <use xlink:href="#DejaVuSans-65" x="227.34375"/>
     <use xlink:href="#DejaVuSans-64" x="288.867188"/>
     <use xlink:href="#DejaVuSans-20" x="352.34375"/>
     <use xlink:href="#DejaVuSans-4c" x="384.130859"/>
     <use xlink:href="#DejaVuSans-61" x="439.84375"/>
     <use xlink:href="#DejaVuSans-79" x="501.123047"/>
     <use xlink:href="#DejaVuSans-65" x="560.302734"/>
     <use xlink:href="#DejaVuSans-72" x="621.826172"/>
     <use xlink:href="#DejaVuSans-2d" x="656.564453"/>
     <use xlink:href="#DejaVuSans-37" x="692.648438"/>
     <use xlink:href="#DejaVuSans-20" x="756.271484"/>
     <use xlink:href="#DejaVuSans-45" x="788.058594"/>
     <use xlink:href="#DejaVuSans-6e" x="851.242188"/>
     <use xlink:href="#DejaVuSans-72" x="914.621094"/>
     <use xlink:href="#DejaVuSans-69" x="955.734375"/>
     <use xlink:href="#DejaVuSans-63" x="983.517578"/>
     <use xlink:href="#DejaVuSans-68" x="1038.498047"/>
     <use xlink:href="#DejaVuSans-6d" x="1101.876953"/>
     <use xlink:href="#DejaVuSans-65" x="1199.289062"/>
     <use xlink:href="#DejaVuSans-6e" x="1260.8125"/>
     <use xlink:href="#DejaVuSans-74" x="1324.191406"/>
    </g>
    <!-- (pid, process, parent lineage, open_files, spawned_from_tmp) -->
    <g transform="translate(145.220244 70.097884) scale(0.082 -0.082)">
     <defs>
      <path id="DejaVuSans-28" d="M 1984 4856 
Q 1566 4138 1362 3434 
Q 1159 2731 1159 2009 
Q 1159 1288 1364 580 
Q 1569 -128 1984 -844 
L 1484 -844 
Q 1016 -109 783 600 
Q 550 1309 550 2009 
Q 550 2706 781 3412 
Q 1013 4119 1484 4856 
L 1984 4856 
z
" transform="scale(0.015625)"/>
      <path id="DejaVuSans-70" d="M 1159 525 
L 1159 -1331 
L 581 -1331 
L 581 3500 
L 1159 3500 
L 1159 2969 
Q 1341 3281 1617 3432 
Q 1894 3584 2278 3584 
Q 2916 3584 3314 3078 
Q 3713 2572 3713 1747 
Q 3713 922 3314 415 
Q 2916 -91 2278 -91 
Q 1894 -91 1617 61 
Q 1341 213 1159 525 
z
M 3116 1747 
Q 3116 2381 2855 2742 
Q 2594 3103 2138 3103 
Q 1681 3103 1420 2742 
Q 1159 2381 1159 1747 
Q 1159 1113 1420 752 
Q 1681 391 2138 391 
Q 2594 391 2855 752 
Q 3116 1113 3116 1747 
z
" transform="scale(0.015625)"/>
      <path id="DejaVuSans-2c" d="M 750 794 
L 1409 794 
L 1409 256 
L 897 -744 
L 494 -744 
L 750 256 
L 750 794 
z
" transform="scale(0.015625)"/>
      <path id="DejaVuSans-6f" d="M 1959 3097 
Q 1497 3097 1228 2736 
Q 959 2375 959 1747 
Q 959 1119 1226 758 
Q 1494 397 1959 397 
Q 2419 397 2687 759 
Q 2956 1122 2956 1747 
Q 2956 2369 2687 2733 
Q 2419 3097 1959 3097 
z
M 1959 3584 
Q 2709 3584 3137 3096 
Q 3566 2609 3566 1747 
Q 3566 888 3137 398 
Q 2709 -91 1959 -91 
Q 1206 -91 779 398 
Q 353 888 353 1747 
Q 353 2609 779 3096 
Q 1206 3584 1959 3584 
z
" transform="scale(0.015625)"/>
      <path id="DejaVuSans-73" d="M 2834 3397 
L 2834 2853 
Q 2591 2978 2328 3040 
Q 2066 3103 1784 3103 
Q 1356 3103 1142 2972 
Q 928 2841 928 2578 
Q 928 2378 1081 2264 
Q 1234 2150 1697 2047 
L 1894 2003 
Q 2506 1872 2764 1633 
Q 3022 1394 3022 966 
Q 3022 478 2636 193 
Q 2250 -91 1575 -91 
Q 1294 -91 989 -36 
Q 684 19 347 128 
L 347 722 
Q 666 556 975 473 
Q 1284 391 1588 391 
Q 1994 391 2212 530 
Q 2431 669 2431 922 
Q 2431 1156 2273 1281 
Q 2116 1406 1581 1522 
L 1381 1569 
Q 847 1681 609 1914 
Q 372 2147 372 2553 
Q 372 3047 722 3315 
Q 1072 3584 1716 3584 
Q 2034 3584 2315 3537 
Q 2597 3491 2834 3397 
z
" transform="scale(0.015625)"/>
      <path id="DejaVuSans-6c" d="M 603 4863 
L 1178 4863 
L 1178 0 
L 603 0 
L 603 4863 
z
" transform="scale(0.015625)"/>
      <path id="DejaVuSans-67" d="M 2906 1791 
Q 2906 2416 2648 2759 
Q 2391 3103 1925 3103 
Q 1463 3103 1205 2759 
Q 947 2416 947 1791 
Q 947 1169 1205 825 
Q 1463 481 1925 481 
Q 2391 481 2648 825 
Q 2906 1169 2906 1791 
z
M 3481 434 
Q 3481 -459 3084 -895 
Q 2688 -1331 1869 -1331 
Q 1566 -1331 1297 -1286 
Q 1028 -1241 775 -1147 
L 775 -588 
Q 1028 -725 1275 -790 
Q 1522 -856 1778 -856 
Q 2344 -856 2625 -561 
Q 2906 -266 2906 331 
L 2906 616 
Q 2728 306 2450 153 
Q 2172 0 1784 0 
Q 1141 0 747 490 
Q 353 981 353 1791 
Q 353 2603 747 3093 
Q 1141 3584 1784 3584 
Q 2172 3584 2450 3431 
Q 2728 3278 2906 2969 
L 2906 3500 
L 3481 3500 
L 3481 434 
z
" transform="scale(0.015625)"/>
      <path id="DejaVuSans-5f" d="M 3263 -1063 
L 3263 -1509 
L -63 -1509 
L -63 -1063 
L 3263 -1063 
z
" transform="scale(0.015625)"/>
      <path id="DejaVuSans-77" d="M 269 3500 
L 844 3500 
L 1563 769 
L 2278 3500 
L 2956 3500 
L 3675 769 
L 4391 3500 
L 4966 3500 
L 4050 0 
L 3372 0 
L 2619 2869 
L 1863 0 
L 1184 0 
L 269 3500 
z
" transform="scale(0.015625)"/>
      <path id="DejaVuSans-29" d="M 513 4856 
L 1013 4856 
Q 1481 4119 1714 3412 
Q 1947 2706 1947 2009 
Q 1947 1309 1714 600 
Q 1481 -109 1013 -844 
L 513 -844 
Q 928 -128 1133 580 
Q 1338 1288 1338 2009 
Q 1338 2731 1133 3434 
Q 928 4138 513 4856 
z
" transform="scale(0.015625)"/>
     </defs>
     <use xlink:href="#DejaVuSans-28"/>
     <use xlink:href="#DejaVuSans-70" x="39.013672"/>
     <use xlink:href="#DejaVuSans-69" x="102.490234"/>
     <use xlink:href="#DejaVuSans-64" x="130.273438"/>
     <use xlink:href="#DejaVuSans-2c" x="193.75"/>
     <use xlink:href="#DejaVuSans-20" x="225.537109"/>
     <use xlink:href="#DejaVuSans-70" x="257.324219"/>
     <use xlink:href="#DejaVuSans-72" x="320.800781"/>
     <use xlink:href="#DejaVuSans-6f" x="359.664062"/>
     <use xlink:href="#DejaVuSans-63" x="420.845703"/>
     <use xlink:href="#DejaVuSans-65" x="475.826172"/>
     <use xlink:href="#DejaVuSans-73" x="537.349609"/>
     <use xlink:href="#DejaVuSans-73" x="589.449219"/>
     <use xlink:href="#DejaVuSans-2c" x="641.548828"/>
     <use xlink:href="#DejaVuSans-20" x="673.335938"/>
     <use xlink:href="#DejaVuSans-70" x="705.123047"/>
     <use xlink:href="#DejaVuSans-61" x="768.599609"/>
     <use xlink:href="#DejaVuSans-72" x="829.878906"/>
     <use xlink:href="#DejaVuSans-65" x="868.742188"/>
     <use xlink:href="#DejaVuSans-6e" x="930.265625"/>
     <use xlink:href="#DejaVuSans-74" x="993.644531"/>
     <use xlink:href="#DejaVuSans-20" x="1032.853516"/>
     <use xlink:href="#DejaVuSans-6c" x="1064.640625"/>
     <use xlink:href="#DejaVuSans-69" x="1092.423828"/>
     <use xlink:href="#DejaVuSans-6e" x="1120.207031"/>
     <use xlink:href="#DejaVuSans-65" x="1183.585938"/>
     <use xlink:href="#DejaVuSans-61" x="1245.109375"/>
     <use xlink:href="#DejaVuSans-67" x="1306.388672"/>
     <use xlink:href="#DejaVuSans-65" x="1369.865234"/>
     <use xlink:href="#DejaVuSans-2c" x="1431.388672"/>
     <use xlink:href="#DejaVuSans-20" x="1463.175781"/>
     <use xlink:href="#DejaVuSans-6f" x="1494.962891"/>
     <use xlink:href="#DejaVuSans-70" x="1556.144531"/>
     <use xlink:href="#DejaVuSans-65" x="1619.621094"/>
     <use xlink:href="#DejaVuSans-6e" x="1681.144531"/>
     <use xlink:href="#DejaVuSans-5f" x="1744.523438"/>
     <use xlink:href="#DejaVuSans-66" x="1794.523438"/>
     <use xlink:href="#DejaVuSans-69" x="1829.728516"/>
     <use xlink:href="#DejaVuSans-6c" x="1857.511719"/>
     <use xlink:href="#DejaVuSans-65" x="1885.294922"/>
     <use xlink:href="#DejaVuSans-73" x="1946.818359"/>
     <use xlink:href="#DejaVuSans-2c" x="1998.917969"/>
     <use xlink:href="#DejaVuSans-20" x="2030.705078"/>
     <use xlink:href="#DejaVuSans-73" x="2062.492188"/>
     <use xlink:href="#DejaVuSans-70" x="2114.591797"/>
     <use xlink:href="#DejaVuSans-61" x="2178.068359"/>
     <use xlink:href="#DejaVuSans-77" x="2239.347656"/>
     <use xlink:href="#DejaVuSans-6e" x="2321.134766"/>
     <use xlink:href="#DejaVuSans-65" x="2384.513672"/>
     <use xlink:href="#DejaVuSans-64" x="2446.037109"/>
     <use xlink:href="#DejaVuSans-5f" x="2509.513672"/>
     <use xlink:href="#DejaVuSans-66" x="2559.513672"/>
     <use xlink:href="#DejaVuSans-72" x="2594.71875"/>
     <use xlink:href="#DejaVuSans-6f" x="2633.582031"/>
     <use xlink:href="#DejaVuSans-6d" x="2694.763672"/>
     <use xlink:href="#DejaVuSans-5f" x="2792.175781"/>
     <use xlink:href="#DejaVuSans-74" x="2842.175781"/>
     <use xlink:href="#DejaVuSans-6d" x="2881.384766"/>
     <use xlink:href="#DejaVuSans-70" x="2978.796875"/>
     <use xlink:href="#DejaVuSans-29" x="3042.273438"/>
    </g>
   </g>
   <g id="text_2">
    <!-- Linux -->
    <g transform="translate(96.978334 125.936461) scale(0.095 -0.095)">
     <defs>
      <path id="DejaVuSans-75" d="M 544 1381 
L 544 3500 
L 1119 3500 
L 1119 1403 
Q 1119 906 1312 657 
Q 1506 409 1894 409 
Q 2359 409 2629 706 
Q 2900 1003 2900 1516 
L 2900 3500 
L 3475 3500 
L 3475 0 
L 2900 0 
L 2900 538 
Q 2691 219 2414 64 
Q 2138 -91 1772 -91 
Q 1169 -91 856 284 
Q 544 659 544 1381 
z
M 1991 3584 
L 1991 3584 
z
" transform="scale(0.015625)"/>
      <path id="DejaVuSans-78" d="M 3513 3500 
L 2247 1797 
L 3578 0 
L 2900 0 
L 1881 1375 
L 863 0 
L 184 0 
L 1544 1831 
L 300 3500 
L 978 3500 
L 1906 2253 
L 2834 3500 
L 3513 3500 
z
" transform="scale(0.015625)"/>
     </defs>
     <use xlink:href="#DejaVuSans-4c"/>
     <use xlink:href="#DejaVuSans-69" x="55.712891"/>
     <use xlink:href="#DejaVuSans-6e" x="83.496094"/>
     <use xlink:href="#DejaVuSans-75" x="146.875"/>
     <use xlink:href="#DejaVuSans-78" x="210.253906"/>
    </g>
    <!-- (x86_64/aarch64) -->
    <g transform="translate(67.860834 136.574383) scale(0.095 -0.095)">
     <defs>
      <path id="DejaVuSans-38" d="M 2034 2216 
Q 1584 2216 1326 1975 
Q 1069 1734 1069 1313 
Q 1069 891 1326 650 
Q 1584 409 2034 409 
Q 2484 409 2743 651 
Q 3003 894 3003 1313 
Q 3003 1734 2745 1975 
Q 2488 2216 2034 2216 
z
M 1403 2484 
Q 997 2584 770 2862 
Q 544 3141 544 3541 
Q 544 4100 942 4425 
Q 1341 4750 2034 4750 
Q 2731 4750 3128 4425 
Q 3525 4100 3525 3541 
Q 3525 3141 3298 2862 
Q 3072 2584 2669 2484 
Q 3125 2378 3379 2068 
Q 3634 1759 3634 1313 
Q 3634 634 3220 271 
Q 2806 -91 2034 -91 
Q 1263 -91 848 271 
Q 434 634 434 1313 
Q 434 1759 690 2068 
Q 947 2378 1403 2484 
z
M 1172 3481 
Q 1172 3119 1398 2916 
Q 1625 2713 2034 2713 
Q 2441 2713 2670 2916 
Q 2900 3119 2900 3481 
Q 2900 3844 2670 4047 
Q 2441 4250 2034 4250 
Q 1625 4250 1398 4047 
Q 1172 3844 1172 3481 
z
" transform="scale(0.015625)"/>
      <path id="DejaVuSans-36" d="M 2113 2584 
Q 1688 2584 1439 2293 
Q 1191 2003 1191 1497 
Q 1191 994 1439 701 
Q 1688 409 2113 409 
Q 2538 409 2786 701 
Q 3034 994 3034 1497 
Q 3034 2003 2786 2293 
Q 2538 2584 2113 2584 
z
M 3366 4563 
L 3366 3988 
Q 3128 4100 2886 4159 
Q 2644 4219 2406 4219 
Q 1781 4219 1451 3797 
Q 1122 3375 1075 2522 
Q 1259 2794 1537 2939 
Q 1816 3084 2150 3084 
Q 2853 3084 3261 2657 
Q 3669 2231 3669 1497 
Q 3669 778 3244 343 
Q 2819 -91 2113 -91 
Q 1303 -91 875 529 
Q 447 1150 447 2328 
Q 447 3434 972 4092 
Q 1497 4750 2381 4750 
Q 2619 4750 2861 4703 
Q 3103 4656 3366 4563 
z
" transform="scale(0.015625)"/>
      <path id="DejaVuSans-34" d="M 2419 4116 
L 825 1625 
L 2419 1625 
L 2419 4116 
z
M 2253 4666 
L 3047 4666 
L 3047 1625 
L 3713 1625 
L 3713 1100 
L 3047 1100 
L 3047 0 
L 2419 0 
L 2419 1100 
L 313 1100 
L 313 1709 
L 2253 4666 
z
" transform="scale(0.015625)"/>
      <path id="DejaVuSans-2f" d="M 1625 4666 
L 2156 4666 
L 531 -594 
L 0 -594 
L 1625 4666 
z
" transform="scale(0.015625)"/>
     </defs>
     <use xlink:href="#DejaVuSans-28"/>
     <use xlink:href="#DejaVuSans-78" x="39.013672"/>
     <use xlink:href="#DejaVuSans-38" x="98.193359"/>
     <use xlink:href="#DejaVuSans-36" x="161.816406"/>
     <use xlink:href="#DejaVuSans-5f" x="225.439453"/>
     <use xlink:href="#DejaVuSans-36" x="275.439453"/>
     <use xlink:href="#DejaVuSans-34" x="339.0625"/>
     <use xlink:href="#DejaVuSans-2f" x="402.685547"/>
     <use xlink:href="#DejaVuSans-61" x="436.376953"/>
     <use xlink:href="#DejaVuSans-61" x="497.65625"/>
     <use xlink:href="#DejaVuSans-72" x="558.935547"/>
     <use xlink:href="#DejaVuSans-63" x="597.798828"/>
     <use xlink:href="#DejaVuSans-68" x="652.779297"/>
     <use xlink:href="#DejaVuSans-36" x="716.158203"/>
     <use xlink:href="#DejaVuSans-34" x="779.78125"/>
     <use xlink:href="#DejaVuSans-29" x="843.404297"/>
    </g>
   </g>
   <g id="text_3">
    <!-- eBPF (Aya) -->
    <g transform="translate(87.6411 184.918606) scale(0.082 -0.082)">
     <defs>
      <path id="DejaVuSans-42" d="M 1259 2228 
L 1259 519 
L 2272 519 
Q 2781 519 3026 730 
Q 3272 941 3272 1375 
Q 3272 1813 3026 2020 
Q 2781 2228 2272 2228 
L 1259 2228 
z
M 1259 4147 
L 1259 2741 
L 2194 2741 
Q 2656 2741 2882 2914 
Q 3109 3088 3109 3444 
Q 3109 3797 2882 3972 
Q 2656 4147 2194 4147 
L 1259 4147 
z
M 628 4666 
L 2241 4666 
Q 2963 4666 3353 4366 
Q 3744 4066 3744 3513 
Q 3744 3084 3544 2831 
Q 3344 2578 2956 2516 
Q 3422 2416 3680 2098 
Q 3938 1781 3938 1306 
Q 3938 681 3513 340 
Q 3088 0 2303 0 
L 628 0 
L 628 4666 
z
" transform="scale(0.015625)"/>
      <path id="DejaVuSans-50" d="M 1259 4147 
L 1259 2394 
L 2053 2394 
Q 2494 2394 2734 2622 
Q 2975 2850 2975 3272 
Q 2975 3691 2734 3919 
Q 2494 4147 2053 4147 
L 1259 4147 
z
M 628 4666 
L 2053 4666 
Q 2838 4666 3239 4311 
Q 3641 3956 3641 3272 
Q 3641 2581 3239 2228 
Q 2838 1875 2053 1875 
L 1259 1875 
L 1259 0 
L 628 0 
L 628 4666 
z
" transform="scale(0.015625)"/>
      <path id="DejaVuSans-46" d="M 628 4666 
L 3309 4666 
L 3309 4134 
L 1259 4134 
L 1259 2759 
L 3109 2759 
L 3109 2228 
L 1259 2228 
L 1259 0 
L 628 0 
L 628 4666 
z
" transform="scale(0.015625)"/>
      <path id="DejaVuSans-41" d="M 2188 4044 
L 1331 1722 
L 3047 1722 
L 2188 4044 
z
M 1831 4666 
L 2547 4666 
L 4325 0 
L 3669 0 
L 3244 1197 
L 1141 1197 
L 716 0 
L 50 0 
L 1831 4666 
z
" transform="scale(0.015625)"/>
     </defs>
     <use xlink:href="#DejaVuSans-65"/>
     <use xlink:href="#DejaVuSans-42" x="61.523438"/>
     <use xlink:href="#DejaVuSans-50" x="130.126953"/>
     <use xlink:href="#DejaVuSans-46" x="190.429688"/>
     <use xlink:href="#DejaVuSans-20" x="247.949219"/>
     <use xlink:href="#DejaVuSans-28" x="279.736328"/>
     <use xlink:href="#DejaVuSans-41" x="318.75"/>
     <use xlink:href="#DejaVuSans-79" x="380.408203"/>
     <use xlink:href="#DejaVuSans-61" x="439.587891"/>
     <use xlink:href="#DejaVuSans-29" x="500.867188"/>
    </g>
    <!-- kprobe hooks -->
    <g transform="translate(82.143256 194.100812) scale(0.082 -0.082)">
     <defs>
      <path id="DejaVuSans-6b" d="M 581 4863 
L 1159 4863 
L 1159 1991 
L 2875 3500 
L 3609 3500 
L 1753 1863 
L 3688 0 
L 2938 0 
L 1159 1709 
L 1159 0 
L 581 0 
L 581 4863 
z
" transform="scale(0.015625)"/>
      <path id="DejaVuSans-62" d="M 3116 1747 
Q 3116 2381 2855 2742 
Q 2594 3103 2138 3103 
Q 1681 3103 1420 2742 
Q 1159 2381 1159 1747 
Q 1159 1113 1420 752 
Q 1681 391 2138 391 
Q 2594 391 2855 752 
Q 3116 1113 3116 1747 
z
M 1159 2969 
Q 1341 3281 1617 3432 
Q 1894 3584 2278 3584 
Q 2916 3584 3314 3078 
Q 3713 2572 3713 1747 
Q 3713 922 3314 415 
Q 2916 -91 2278 -91 
Q 1894 -91 1617 61 
Q 1341 213 1159 525 
L 1159 0 
L 581 0 
L 581 4863 
L 1159 4863 
L 1159 2969 
z
" transform="scale(0.015625)"/>
     </defs>
     <use xlink:href="#DejaVuSans-6b"/>
     <use xlink:href="#DejaVuSans-70" x="57.910156"/>
     <use xlink:href="#DejaVuSans-72" x="121.386719"/>
     <use xlink:href="#DejaVuSans-6f" x="160.25"/>
     <use xlink:href="#DejaVuSans-62" x="221.431641"/>
     <use xlink:href="#DejaVuSans-65" x="284.908203"/>
     <use xlink:href="#DejaVuSans-20" x="346.431641"/>
     <use xlink:href="#DejaVuSans-68" x="378.21875"/>
     <use xlink:href="#DejaVuSans-6f" x="441.597656"/>
     <use xlink:href="#DejaVuSans-6f" x="502.779297"/>
     <use xlink:href="#DejaVuSans-6b" x="563.960938"/>
     <use xlink:href="#DejaVuSans-73" x="621.871094"/>
    </g>
    <!-- Real-time 4-tuple→PID -->
    <g transform="translate(64.060334 203.283019) scale(0.082 -0.082)">
     <defs>
      <path id="DejaVuSans-52" d="M 2841 2188 
Q 3044 2119 3236 1894 
Q 3428 1669 3622 1275 
L 4263 0 
L 3584 0 
L 2988 1197 
Q 2756 1666 2539 1819 
Q 2322 1972 1947 1972 
L 1259 1972 
L 1259 0 
L 628 0 
L 628 4666 
L 2053 4666 
Q 2853 4666 3247 4331 
Q 3641 3997 3641 3322 
Q 3641 2881 3436 2590 
Q 3231 2300 2841 2188 
z
M 1259 4147 
L 1259 2491 
L 2053 2491 
Q 2509 2491 2742 2702 
Q 2975 2913 2975 3322 
Q 2975 3731 2742 3939 
Q 2509 4147 2053 4147 
L 1259 4147 
z
" transform="scale(0.015625)"/>
      <path id="DejaVuSans-2192" d="M 5050 2147 
L 5050 1866 
L 3822 638 
L 3447 1013 
L 4175 1741 
L 366 1741 
L 366 2272 
L 4175 2272 
L 3447 3000 
L 3822 3375 
L 5050 2147 
z
" transform="scale(0.015625)"/>
      <path id="DejaVuSans-49" d="M 628 4666 
L 1259 4666 
L 1259 0 
L 628 0 
L 628 4666 
z
" transform="scale(0.015625)"/>
      <path id="DejaVuSans-44" d="M 1259 4147 
L 1259 519 
L 2022 519 
Q 2988 519 3436 956 
Q 3884 1394 3884 2338 
Q 3884 3275 3436 3711 
Q 2988 4147 2022 4147 
L 1259 4147 
z
M 628 4666 
L 1925 4666 
Q 3281 4666 3915 4102 
Q 4550 3538 4550 2338 
Q 4550 1131 3912 565 
Q 3275 0 1925 0 
L 628 0 
L 628 4666 
z
" transform="scale(0.015625)"/>
     </defs>
     <use xlink:href="#DejaVuSans-52"/>
     <use xlink:href="#DejaVuSans-65" x="64.982422"/>
     <use xlink:href="#DejaVuSans-61" x="126.505859"/>
     <use xlink:href="#DejaVuSans-6c" x="187.785156"/>
     <use xlink:href="#DejaVuSans-2d" x="215.568359"/>
     <use xlink:href="#DejaVuSans-74" x="251.652344"/>
     <use xlink:href="#DejaVuSans-69" x="290.861328"/>
     <use xlink:href="#DejaVuSans-6d" x="318.644531"/>
     <use xlink:href="#DejaVuSans-65" x="416.056641"/>
     <use xlink:href="#DejaVuSans-20" x="477.580078"/>
     <use xlink:href="#DejaVuSans-34" x="509.367188"/>
     <use xlink:href="#DejaVuSans-2d" x="572.990234"/>
     <use xlink:href="#DejaVuSans-74" x="609.074219"/>
     <use xlink:href="#DejaVuSans-75" x="648.283203"/>
     <use xlink:href="#DejaVuSans-70" x="711.662109"/>
     <use xlink:href="#DejaVuSans-6c" x="775.138672"/>
     <use xlink:href="#DejaVuSans-65" x="802.921875"/>
     <use xlink:href="#DejaVuSans-2192" x="864.445312"/>
     <use xlink:href="#DejaVuSans-50" x="948.234375"/>
     <use xlink:href="#DejaVuSans-49" x="1008.537109"/>
     <use xlink:href="#DejaVuSans-44" x="1038.029297"/>
    </g>
   </g>
   <g id="text_4">
    <!-- Fallback: netstat2 -->
    <g transform="translate(73.373741 257.253709) scale(0.082 -0.082)">
     <defs>
      <path id="DejaVuSans-3a" d="M 750 794 
L 1409 794 
L 1409 0 
L 750 0 
L 750 794 
z
M 750 3309 
L 1409 3309 
L 1409 2516 
L 750 2516 
L 750 3309 
z
" transform="scale(0.015625)"/>
      <path id="DejaVuSans-32" d="M 1228 531 
L 3431 531 
L 3431 0 
L 469 0 
L 469 531 
Q 828 903 1448 1529 
Q 2069 2156 2228 2338 
Q 2531 2678 2651 2914 
Q 2772 3150 2772 3378 
Q 2772 3750 2511 3984 
Q 2250 4219 1831 4219 
Q 1534 4219 1204 4116 
Q 875 4013 500 3803 
L 500 4441 
Q 881 4594 1212 4672 
Q 1544 4750 1819 4750 
Q 2544 4750 2975 4387 
Q 3406 4025 3406 3419 
Q 3406 3131 3298 2873 
Q 3191 2616 2906 2266 
Q 2828 2175 2409 1742 
Q 1991 1309 1228 531 
z
" transform="scale(0.015625)"/>
     </defs>
     <use xlink:href="#DejaVuSans-46"/>
     <use xlink:href="#DejaVuSans-61" x="48.394531"/>
     <use xlink:href="#DejaVuSans-6c" x="109.673828"/>
     <use xlink:href="#DejaVuSans-6c" x="137.457031"/>
     <use xlink:href="#DejaVuSans-62" x="165.240234"/>
     <use xlink:href="#DejaVuSans-61" x="228.716797"/>
     <use xlink:href="#DejaVuSans-63" x="289.996094"/>
     <use xlink:href="#DejaVuSans-6b" x="344.976562"/>
     <use xlink:href="#DejaVuSans-3a" x="402.886719"/>
     <use xlink:href="#DejaVuSans-20" x="436.578125"/>
     <use xlink:href="#DejaVuSans-6e" x="468.365234"/>
     <use xlink:href="#DejaVuSans-65" x="531.744141"/>
     <use xlink:href="#DejaVuSans-74" x="593.267578"/>
     <use xlink:href="#DejaVuSans-73" x="632.476562"/>
     <use xlink:href="#DejaVuSans-74" x="684.576172"/>
     <use xlink:href="#DejaVuSans-61" x="723.785156"/>
     <use xlink:href="#DejaVuSans-74" x="785.064453"/>
     <use xlink:href="#DejaVuSans-32" x="824.273438"/>
    </g>
    <!-- + port cache -->
    <g transform="translate(83.188116 266.435916) scale(0.082 -0.082)">
     <defs>
      <path id="DejaVuSans-2b" d="M 2944 4013 
L 2944 2272 
L 4684 2272 
L 4684 1741 
L 2944 1741 
L 2944 0 
L 2419 0 
L 2419 1741 
L 678 1741 
L 678 2272 
L 2419 2272 
L 2419 4013 
L 2944 4013 
z
" transform="scale(0.015625)"/>
     </defs>
     <use xlink:href="#DejaVuSans-2b"/>
     <use xlink:href="#DejaVuSans-20" x="83.789062"/>
     <use xlink:href="#DejaVuSans-70" x="115.576172"/>
     <use xlink:href="#DejaVuSans-6f" x="179.052734"/>
     <use xlink:href="#DejaVuSans-72" x="240.234375"/>
     <use xlink:href="#DejaVuSans-74" x="281.347656"/>
     <use xlink:href="#DejaVuSans-20" x="320.556641"/>
     <use xlink:href="#DejaVuSans-63" x="352.34375"/>
     <use xlink:href="#DejaVuSans-61" x="407.324219"/>
     <use xlink:href="#DejaVuSans-63" x="468.603516"/>
     <use xlink:href="#DejaVuSans-68" x="523.583984"/>
     <use xlink:href="#DejaVuSans-65" x="586.962891"/>
    </g>
   </g>
   <g id="patch_12">
    <path d="M 109.776616 86.38107 
Q 109.776616 96.061602 109.776616 104.065083 
" style="fill: none; stroke: #000000; stroke-width: 1.5; stroke-linecap: round"/>
    <path d="M 111.776616 100.065083 
L 109.776616 104.065083 
L 107.776616 100.065083 
" style="fill: none; stroke: #000000; stroke-width: 1.5; stroke-linecap: round"/>
   </g>
   <g id="text_5">
    <!-- macOS -->
    <g transform="translate(254.649353 131.387531) scale(0.095 -0.095)">
     <defs>
      <path id="DejaVuSans-4f" d="M 2522 4238 
Q 1834 4238 1429 3725 
Q 1025 3213 1025 2328 
Q 1025 1447 1429 934 
Q 1834 422 2522 422 
Q 3209 422 3611 934 
Q 4013 1447 4013 2328 
Q 4013 3213 3611 3725 
Q 3209 4238 2522 4238 
z
M 2522 4750 
Q 3503 4750 4090 4092 
Q 4678 3434 4678 2328 
Q 4678 1225 4090 567 
Q 3503 -91 2522 -91 
Q 1538 -91 948 565 
Q 359 1222 359 2328 
Q 359 3434 948 4092 
Q 1538 4750 2522 4750 
z
" transform="scale(0.015625)"/>
      <path id="DejaVuSans-53" d="M 3425 4513 
L 3425 3897 
Q 3066 4069 2747 4153 
Q 2428 4238 2131 4238 
Q 1616 4238 1336 4038 
Q 1056 3838 1056 3469 
Q 1056 3159 1242 3001 
Q 1428 2844 1947 2747 
L 2328 2669 
Q 3034 2534 3370 2195 
Q 3706 1856 3706 1288 
Q 3706 609 3251 259 
Q 2797 -91 1919 -91 
Q 1588 -91 1214 -16 
Q 841 59 441 206 
L 441 856 
Q 825 641 1194 531 
Q 1563 422 1919 422 
Q 2459 422 2753 634 
Q 3047 847 3047 1241 
Q 3047 1584 2836 1778 
Q 2625 1972 2144 2069 
L 1759 2144 
Q 1053 2284 737 2584 
Q 422 2884 422 3419 
Q 422 4038 858 4394 
Q 1294 4750 2059 4750 
Q 2388 4750 2728 4690 
Q 3069 4631 3425 4513 
z
" transform="scale(0.015625)"/>
     </defs>
     <use xlink:href="#DejaVuSans-6d"/>
     <use xlink:href="#DejaVuSans-61" x="97.412109"/>
     <use xlink:href="#DejaVuSans-63" x="158.691406"/>
     <use xlink:href="#DejaVuSans-4f" x="213.671875"/>
     <use xlink:href="#DejaVuSans-53" x="292.382812"/>
    </g>
   </g>
   <g id="text_6">
    <!-- proc_pidinfo() -->
    <g transform="translate(243.310822 184.690544) scale(0.082 -0.082)">
     <use xlink:href="#DejaVuSans-70"/>
     <use xlink:href="#DejaVuSans-72" x="63.476562"/>
     <use xlink:href="#DejaVuSans-6f" x="102.339844"/>
     <use xlink:href="#DejaVuSans-63" x="163.521484"/>
     <use xlink:href="#DejaVuSans-5f" x="218.501953"/>
     <use xlink:href="#DejaVuSans-70" x="268.501953"/>
     <use xlink:href="#DejaVuSans-69" x="331.978516"/>
     <use xlink:href="#DejaVuSans-64" x="359.761719"/>
     <use xlink:href="#DejaVuSans-69" x="423.238281"/>
     <use xlink:href="#DejaVuSans-6e" x="451.021484"/>
     <use xlink:href="#DejaVuSans-66" x="514.400391"/>
     <use xlink:href="#DejaVuSans-6f" x="549.605469"/>
     <use xlink:href="#DejaVuSans-28" x="610.787109"/>
     <use xlink:href="#DejaVuSans-29" x="649.800781"/>
    </g>
    <!-- PROC_PIDLISTFDS -->
    <g transform="translate(234.534259 194.100812) scale(0.082 -0.082)">
     <defs>
      <path id="DejaVuSans-43" d="M 4122 4306 
L 4122 3641 
Q 3803 3938 3442 4084 
Q 3081 4231 2675 4231 
Q 1875 4231 1450 3742 
Q 1025 3253 1025 2328 
Q 1025 1406 1450 917 
Q 1875 428 2675 428 
Q 3081 428 3442 575 
Q 3803 722 4122 1019 
L 4122 359 
Q 3791 134 3420 21 
Q 3050 -91 2638 -91 
Q 1578 -91 968 557 
Q 359 1206 359 2328 
Q 359 3453 968 4101 
Q 1578 4750 2638 4750 
Q 3056 4750 3426 4639 
Q 3797 4528 4122 4306 
z
" transform="scale(0.015625)"/>
      <path id="DejaVuSans-54" d="M -19 4666 
L 3928 4666 
L 3928 4134 
L 2272 4134 
L 2272 0 
L 1638 0 
L 1638 4134 
L -19 4134 
L -19 4666 
z
" transform="scale(0.015625)"/>
     </defs>
     <use xlink:href="#DejaVuSans-50"/>
     <use xlink:href="#DejaVuSans-52" x="60.302734"/>
     <use xlink:href="#DejaVuSans-4f" x="129.785156"/>
     <use xlink:href="#DejaVuSans-43" x="208.496094"/>
     <use xlink:href="#DejaVuSans-5f" x="278.320312"/>
     <use xlink:href="#DejaVuSans-50" x="328.320312"/>
     <use xlink:href="#DejaVuSans-49" x="388.623047"/>
     <use xlink:href="#DejaVuSans-44" x="418.115234"/>
     <use xlink:href="#DejaVuSans-4c" x="495.117188"/>
     <use xlink:href="#DejaVuSans-49" x="550.830078"/>
     <use xlink:href="#DejaVuSans-53" x="580.322266"/>
     <use xlink:href="#DejaVuSans-54" x="643.798828"/>
     <use xlink:href="#DejaVuSans-46" x="704.882812"/>
     <use xlink:href="#DejaVuSans-44" x="762.402344"/>
     <use xlink:href="#DejaVuSans-53" x="839.404297"/>
    </g>
    <!-- sysinfo crate -->
    <g transform="translate(245.280103 203.511081) scale(0.082 -0.082)">
     <use xlink:href="#DejaVuSans-73"/>
     <use xlink:href="#DejaVuSans-79" x="52.099609"/>
     <use xlink:href="#DejaVuSans-73" x="111.279297"/>
     <use xlink:href="#DejaVuSans-69" x="163.378906"/>
     <use xlink:href="#DejaVuSans-6e" x="191.162109"/>
     <use xlink:href="#DejaVuSans-66" x="254.541016"/>
     <use xlink:href="#DejaVuSans-6f" x="289.746094"/>
     <use xlink:href="#DejaVuSans-20" x="350.927734"/>
     <use xlink:href="#DejaVuSans-63" x="382.714844"/>
     <use xlink:href="#DejaVuSans-72" x="437.695312"/>
     <use xlink:href="#DejaVuSans-61" x="478.808594"/>
     <use xlink:href="#DejaVuSans-74" x="540.087891"/>
     <use xlink:href="#DejaVuSans-65" x="579.296875"/>
    </g>
   </g>
   <g id="text_7">
    <!-- Socket match -->
    <g transform="translate(243.562588 257.253709) scale(0.082 -0.082)">
     <use xlink:href="#DejaVuSans-53"/>
     <use xlink:href="#DejaVuSans-6f" x="63.476562"/>
     <use xlink:href="#DejaVuSans-63" x="124.658203"/>
     <use xlink:href="#DejaVuSans-6b" x="179.638672"/>
     <use xlink:href="#DejaVuSans-65" x="233.923828"/>
     <use xlink:href="#DejaVuSans-74" x="295.447266"/>
     <use xlink:href="#DejaVuSans-20" x="334.65625"/>
     <use xlink:href="#DejaVuSans-6d" x="366.443359"/>
     <use xlink:href="#DejaVuSans-61" x="463.855469"/>
     <use xlink:href="#DejaVuSans-74" x="525.134766"/>
     <use xlink:href="#DejaVuSans-63" x="564.34375"/>
     <use xlink:href="#DejaVuSans-68" x="619.324219"/>
    </g>
    <!-- + port cache -->
    <g transform="translate(244.964916 266.435916) scale(0.082 -0.082)">
     <use xlink:href="#DejaVuSans-2b"/>
     <use xlink:href="#DejaVuSans-20" x="83.789062"/>
     <use xlink:href="#DejaVuSans-70" x="115.576172"/>
     <use xlink:href="#DejaVuSans-6f" x="179.052734"/>
     <use xlink:href="#DejaVuSans-72" x="240.234375"/>
     <use xlink:href="#DejaVuSans-74" x="281.347656"/>
     <use xlink:href="#DejaVuSans-20" x="320.556641"/>
     <use xlink:href="#DejaVuSans-63" x="352.34375"/>
     <use xlink:href="#DejaVuSans-61" x="407.324219"/>
     <use xlink:href="#DejaVuSans-63" x="468.603516"/>
     <use xlink:href="#DejaVuSans-68" x="523.583984"/>
     <use xlink:href="#DejaVuSans-65" x="586.962891"/>
    </g>
   </g>
   <g id="patch_13">
    <path d="M 271.553416 86.38107 
Q 271.553416 96.061602 271.553416 104.065083 
" style="fill: none; stroke: #000000; stroke-width: 1.5; stroke-linecap: round"/>
    <path d="M 273.553416 100.065083 
L 271.553416 104.065083 
L 269.553416 100.065083 
" style="fill: none; stroke: #000000; stroke-width: 1.5; stroke-linecap: round"/>
   </g>
   <g id="text_8">
    <!-- Windows -->
    <g transform="translate(412.12963 131.387531) scale(0.095 -0.095)">
     <defs>
      <path id="DejaVuSans-57" d="M 213 4666 
L 850 4666 
L 1831 722 
L 2809 4666 
L 3519 4666 
L 4500 722 
L 5478 4666 
L 6119 4666 
L 4947 0 
L 4153 0 
L 3169 4050 
L 2175 0 
L 1381 0 
L 213 4666 
z
" transform="scale(0.015625)"/>
     </defs>
     <use xlink:href="#DejaVuSans-57"/>
     <use xlink:href="#DejaVuSans-69" x="96.626953"/>
     <use xlink:href="#DejaVuSans-6e" x="124.410156"/>
     <use xlink:href="#DejaVuSans-64" x="187.789062"/>
     <use xlink:href="#DejaVuSans-6f" x="251.265625"/>
     <use xlink:href="#DejaVuSans-77" x="312.447266"/>
     <use xlink:href="#DejaVuSans-73" x="394.234375"/>
    </g>
   </g>
   <g id="text_9">
    <!-- NtQuerySystem- -->
    <g transform="translate(399.426419 184.918606) scale(0.082 -0.082)">
     <defs>
      <path id="DejaVuSans-4e" d="M 628 4666 
L 1478 4666 
L 3547 763 
L 3547 4666 
L 4159 4666 
L 4159 0 
L 3309 0 
L 1241 3903 
L 1241 0 
L 628 0 
L 628 4666 
z
" transform="scale(0.015625)"/>
      <path id="DejaVuSans-51" d="M 2522 4238 
Q 1834 4238 1429 3725 
Q 1025 3213 1025 2328 
Q 1025 1447 1429 934 
Q 1834 422 2522 422 
Q 3209 422 3611 934 
Q 4013 1447 4013 2328 
Q 4013 3213 3611 3725 
Q 3209 4238 2522 4238 
z
M 3406 84 
L 4238 -825 
L 3475 -825 
L 2784 -78 
Q 2681 -84 2626 -87 
Q 2572 -91 2522 -91 
Q 1538 -91 948 567 
Q 359 1225 359 2328 
Q 359 3434 948 4092 
Q 1538 4750 2522 4750 
Q 3503 4750 4090 4092 
Q 4678 3434 4678 2328 
Q 4678 1516 4351 937 
Q 4025 359 3406 84 
z
" transform="scale(0.015625)"/>
     </defs>
     <use xlink:href="#DejaVuSans-4e"/>
     <use xlink:href="#DejaVuSans-74" x="74.804688"/>
     <use xlink:href="#DejaVuSans-51" x="114.013672"/>
     <use xlink:href="#DejaVuSans-75" x="192.724609"/>
     <use xlink:href="#DejaVuSans-65" x="256.103516"/>
     <use xlink:href="#DejaVuSans-72" x="317.626953"/>
     <use xlink:href="#DejaVuSans-79" x="358.740234"/>
     <use xlink:href="#DejaVuSans-53" x="417.919922"/>
     <use xlink:href="#DejaVuSans-79" x="481.396484"/>
     <use xlink:href="#DejaVuSans-73" x="540.576172"/>
     <use xlink:href="#DejaVuSans-74" x="592.675781"/>
     <use xlink:href="#DejaVuSans-65" x="631.884766"/>
     <use xlink:href="#DejaVuSans-6d" x="693.408203"/>
     <use xlink:href="#DejaVuSans-2d" x="790.820312"/>
    </g>
    <!-- Information -->
    <g transform="translate(409.596981 194.100812) scale(0.082 -0.082)">
     <use xlink:href="#DejaVuSans-49"/>
     <use xlink:href="#DejaVuSans-6e" x="29.492188"/>
     <use xlink:href="#DejaVuSans-66" x="92.871094"/>
     <use xlink:href="#DejaVuSans-6f" x="128.076172"/>
     <use xlink:href="#DejaVuSans-72" x="189.257812"/>
     <use xlink:href="#DejaVuSans-6d" x="228.621094"/>
     <use xlink:href="#DejaVuSans-61" x="326.033203"/>
     <use xlink:href="#DejaVuSans-74" x="387.3125"/>
     <use xlink:href="#DejaVuSans-69" x="426.521484"/>
     <use xlink:href="#DejaVuSans-6f" x="454.304688"/>
     <use xlink:href="#DejaVuSans-6e" x="515.486328"/>
    </g>
    <!-- SystemHandleInfo -->
    <g transform="translate(395.822263 203.283019) scale(0.082 -0.082)">
     <defs>
      <path id="DejaVuSans-48" d="M 628 4666 
L 1259 4666 
L 1259 2753 
L 3553 2753 
L 3553 4666 
L 4184 4666 
L 4184 0 
L 3553 0 
L 3553 2222 
L 1259 2222 
L 1259 0 
L 628 0 
L 628 4666 
z
" transform="scale(0.015625)"/>
     </defs>
     <use xlink:href="#DejaVuSans-53"/>
     <use xlink:href="#DejaVuSans-79" x="63.476562"/>
     <use xlink:href="#DejaVuSans-73" x="122.65625"/>
     <use xlink:href="#DejaVuSans-74" x="174.755859"/>
     <use xlink:href="#DejaVuSans-65" x="213.964844"/>
     <use xlink:href="#DejaVuSans-6d" x="275.488281"/>
     <use xlink:href="#DejaVuSans-48" x="372.900391"/>
     <use xlink:href="#DejaVuSans-61" x="448.095703"/>
     <use xlink:href="#DejaVuSans-6e" x="509.375"/>
     <use xlink:href="#DejaVuSans-64" x="572.753906"/>
     <use xlink:href="#DejaVuSans-6c" x="636.230469"/>
     <use xlink:href="#DejaVuSans-65" x="664.013672"/>
     <use xlink:href="#DejaVuSans-49" x="725.537109"/>
     <use xlink:href="#DejaVuSans-6e" x="755.029297"/>
     <use xlink:href="#DejaVuSans-66" x="818.408203"/>
     <use xlink:href="#DejaVuSans-6f" x="853.613281"/>
    </g>
   </g>
   <g id="text_10">
    <!-- netstat2 crate -->
    <g transform="translate(404.244559 257.253709) scale(0.082 -0.082)">
     <use xlink:href="#DejaVuSans-6e"/>
     <use xlink:href="#DejaVuSans-65" x="63.378906"/>
     <use xlink:href="#DejaVuSans-74" x="124.902344"/>
     <use xlink:href="#DejaVuSans-73" x="164.111328"/>
     <use xlink:href="#DejaVuSans-74" x="216.210938"/>
     <use xlink:href="#DejaVuSans-61" x="255.419922"/>
     <use xlink:href="#DejaVuSans-74" x="316.699219"/>
     <use xlink:href="#DejaVuSans-32" x="355.908203"/>
     <use xlink:href="#DejaVuSans-20" x="419.53125"/>
     <use xlink:href="#DejaVuSans-63" x="451.318359"/>
     <use xlink:href="#DejaVuSans-72" x="506.298828"/>
     <use xlink:href="#DejaVuSans-61" x="547.412109"/>
     <use xlink:href="#DejaVuSans-74" x="608.691406"/>
     <use xlink:href="#DejaVuSans-65" x="647.900391"/>
    </g>
    <!-- + port cache -->
    <g transform="translate(406.741716 266.435916) scale(0.082 -0.082)">
     <use xlink:href="#DejaVuSans-2b"/>
     <use xlink:href="#DejaVuSans-20" x="83.789062"/>
     <use xlink:href="#DejaVuSans-70" x="115.576172"/>
     <use xlink:href="#DejaVuSans-6f" x="179.052734"/>
     <use xlink:href="#DejaVuSans-72" x="240.234375"/>
     <use xlink:href="#DejaVuSans-74" x="281.347656"/>
     <use xlink:href="#DejaVuSans-20" x="320.556641"/>
     <use xlink:href="#DejaVuSans-63" x="352.34375"/>
     <use xlink:href="#DejaVuSans-61" x="407.324219"/>
     <use xlink:href="#DejaVuSans-63" x="468.603516"/>
     <use xlink:href="#DejaVuSans-68" x="523.583984"/>
     <use xlink:href="#DejaVuSans-65" x="586.962891"/>
    </g>
   </g>
   <g id="patch_14">
    <path d="M 433.330216 86.38107 
Q 433.330216 96.061602 433.330216 104.065083 
" style="fill: none; stroke: #000000; stroke-width: 1.5; stroke-linecap: round"/>
    <path d="M 435.330216 100.065083 
L 433.330216 104.065083 
L 431.330216 100.065083 
" style="fill: none; stroke: #000000; stroke-width: 1.5; stroke-linecap: round"/>
   </g>
   <g id="text_11">
    <!-- Primary -->
    <g style="fill: #6c757d" transform="translate(10.445406 189.509709) scale(0.082 -0.082)">
     <defs>
      <path id="DejaVuSans-Oblique-50" d="M 1081 4666 
L 2541 4666 
Q 3178 4666 3512 4369 
Q 3847 4072 3847 3500 
Q 3847 2731 3353 2303 
Q 2859 1875 1966 1875 
L 1172 1875 
L 806 0 
L 172 0 
L 1081 4666 
z
M 1613 4147 
L 1275 2394 
L 2069 2394 
Q 2606 2394 2893 2669 
Q 3181 2944 3181 3456 
Q 3181 3784 2986 3965 
Q 2791 4147 2438 4147 
L 1613 4147 
z
" transform="scale(0.015625)"/>
      <path id="DejaVuSans-Oblique-72" d="M 2853 2969 
Q 2766 3016 2653 3041 
Q 2541 3066 2413 3066 
Q 1953 3066 1609 2717 
Q 1266 2369 1153 1784 
L 800 0 
L 225 0 
L 909 3500 
L 1484 3500 
L 1375 2956 
Q 1603 3259 1920 3421 
Q 2238 3584 2597 3584 
Q 2691 3584 2781 3573 
Q 2872 3563 2963 3538 
L 2853 2969 
z
" transform="scale(0.015625)"/>
      <path id="DejaVuSans-Oblique-69" d="M 1172 4863 
L 1747 4863 
L 1606 4134 
L 1031 4134 
L 1172 4863 
z
M 909 3500 
L 1484 3500 
L 800 0 
L 225 0 
L 909 3500 
z
" transform="scale(0.015625)"/>
      <path id="DejaVuSans-Oblique-6d" d="M 5747 2113 
L 5338 0 
L 4763 0 
L 5166 2094 
Q 5191 2228 5203 2325 
Q 5216 2422 5216 2491 
Q 5216 2772 5059 2928 
Q 4903 3084 4622 3084 
Q 4203 3084 3875 2770 
Q 3547 2456 3450 1953 
L 3066 0 
L 2491 0 
L 2900 2094 
Q 2925 2209 2937 2307 
Q 2950 2406 2950 2484 
Q 2950 2769 2794 2926 
Q 2638 3084 2363 3084 
Q 1938 3084 1609 2770 
Q 1281 2456 1184 1953 
L 800 0 
L 225 0 
L 909 3500 
L 1484 3500 
L 1375 2956 
Q 1609 3263 1923 3423 
Q 2238 3584 2597 3584 
Q 2978 3584 3223 3384 
Q 3469 3184 3519 2828 
Q 3781 3197 4126 3390 
Q 4472 3584 4856 3584 
Q 5306 3584 5551 3325 
Q 5797 3066 5797 2591 
Q 5797 2488 5784 2364 
Q 5772 2241 5747 2113 
z
" transform="scale(0.015625)"/>
      <path id="DejaVuSans-Oblique-61" d="M 3438 1997 
L 3047 0 
L 2472 0 
L 2578 531 
Q 2325 219 2001 64 
Q 1678 -91 1281 -91 
Q 834 -91 548 182 
Q 263 456 263 884 
Q 263 1497 752 1853 
Q 1241 2209 2100 2209 
L 2900 2209 
L 2931 2363 
Q 2938 2388 2941 2417 
Q 2944 2447 2944 2509 
Q 2944 2788 2717 2942 
Q 2491 3097 2081 3097 
Q 1800 3097 1504 3025 
Q 1209 2953 897 2809 
L 997 3341 
Q 1322 3463 1633 3523 
Q 1944 3584 2234 3584 
Q 2853 3584 3176 3315 
Q 3500 3047 3500 2534 
Q 3500 2431 3484 2292 
Q 3469 2153 3438 1997 
z
M 2816 1759 
L 2241 1759 
Q 1534 1759 1195 1570 
Q 856 1381 856 984 
Q 856 709 1029 553 
Q 1203 397 1509 397 
Q 1978 397 2328 733 
Q 2678 1069 2791 1631 
L 2816 1759 
z
" transform="scale(0.015625)"/>
      <path id="DejaVuSans-Oblique-79" d="M 1588 -325 
Q 1188 -997 936 -1164 
Q 684 -1331 294 -1331 
L -159 -1331 
L -63 -850 
L 269 -850 
Q 509 -850 678 -719 
Q 847 -588 1056 -206 
L 1234 128 
L 459 3500 
L 1069 3500 
L 1650 819 
L 3256 3500 
L 3859 3500 
L 1588 -325 
z
" transform="scale(0.015625)"/>
     </defs>
     <use xlink:href="#DejaVuSans-Oblique-50"/>
     <use xlink:href="#DejaVuSans-Oblique-72" x="60.302734"/>
     <use xlink:href="#DejaVuSans-Oblique-69" x="101.416016"/>
     <use xlink:href="#DejaVuSans-Oblique-6d" x="129.199219"/>
     <use xlink:href="#DejaVuSans-Oblique-61" x="226.611328"/>
     <use xlink:href="#DejaVuSans-Oblique-72" x="287.890625"/>
     <use xlink:href="#DejaVuSans-Oblique-79" x="329.003906"/>
    </g>
    <!-- Method -->
    <g style="fill: #6c757d" transform="translate(10.982891 198.691916) scale(0.082 -0.082)">
     <defs>
      <path id="DejaVuSans-Oblique-4d" d="M 1081 4666 
L 2028 4666 
L 2572 1522 
L 4378 4666 
L 5350 4666 
L 4441 0 
L 3828 0 
L 4622 4091 
L 2791 897 
L 2175 897 
L 1581 4103 
L 788 0 
L 172 0 
L 1081 4666 
z
" transform="scale(0.015625)"/>
      <path id="DejaVuSans-Oblique-65" d="M 3078 2063 
Q 3088 2113 3092 2166 
Q 3097 2219 3097 2272 
Q 3097 2653 2873 2875 
Q 2650 3097 2266 3097 
Q 1838 3097 1509 2826 
Q 1181 2556 1013 2059 
L 3078 2063 
z
M 3578 1613 
L 903 1613 
Q 884 1494 878 1425 
Q 872 1356 872 1306 
Q 872 872 1139 634 
Q 1406 397 1894 397 
Q 2269 397 2603 481 
Q 2938 566 3225 728 
L 3116 159 
Q 2806 34 2476 -28 
Q 2147 -91 1806 -91 
Q 1078 -91 686 257 
Q 294 606 294 1247 
Q 294 1794 489 2264 
Q 684 2734 1063 3103 
Q 1306 3334 1642 3459 
Q 1978 3584 2356 3584 
Q 2950 3584 3301 3228 
Q 3653 2872 3653 2272 
Q 3653 2128 3634 1964 
Q 3616 1800 3578 1613 
z
" transform="scale(0.015625)"/>
      <path id="DejaVuSans-Oblique-74" d="M 2706 3500 
L 2619 3053 
L 1472 3053 
L 1100 1153 
Q 1081 1047 1072 975 
Q 1063 903 1063 863 
Q 1063 663 1183 572 
Q 1303 481 1569 481 
L 2150 481 
L 2053 0 
L 1503 0 
Q 991 0 739 200 
Q 488 400 488 806 
Q 488 878 497 964 
Q 506 1050 525 1153 
L 897 3053 
L 409 3053 
L 500 3500 
L 978 3500 
L 1172 4494 
L 1747 4494 
L 1556 3500 
L 2706 3500 
z
" transform="scale(0.015625)"/>
      <path id="DejaVuSans-Oblique-68" d="M 3566 2113 
L 3156 0 
L 2578 0 
L 2988 2091 
Q 3016 2238 3031 2350 
Q 3047 2463 3047 2528 
Q 3047 2791 2881 2937 
Q 2716 3084 2419 3084 
Q 1956 3084 1617 2771 
Q 1278 2459 1178 1941 
L 800 0 
L 225 0 
L 1172 4863 
L 1747 4863 
L 1375 2950 
Q 1594 3244 1934 3414 
Q 2275 3584 2650 3584 
Q 3113 3584 3367 3334 
Q 3622 3084 3622 2631 
Q 3622 2519 3608 2391 
Q 3594 2263 3566 2113 
z
" transform="scale(0.015625)"/>
      <path id="DejaVuSans-Oblique-6f" d="M 1625 -91 
Q 1009 -91 651 289 
Q 294 669 294 1325 
Q 294 1706 417 2101 
Q 541 2497 738 2766 
Q 1047 3184 1428 3384 
Q 1809 3584 2291 3584 
Q 2888 3584 3255 3212 
Q 3622 2841 3622 2241 
Q 3622 1825 3500 1412 
Q 3378 1000 3181 728 
Q 2875 309 2494 109 
Q 2113 -91 1625 -91 
z
M 891 1344 
Q 891 869 1089 633 
Q 1288 397 1691 397 
Q 2269 397 2648 901 
Q 3028 1406 3028 2181 
Q 3028 2634 2825 2865 
Q 2622 3097 2228 3097 
Q 1903 3097 1650 2945 
Q 1397 2794 1197 2484 
Q 1050 2253 970 1956 
Q 891 1659 891 1344 
z
" transform="scale(0.015625)"/>
      <path id="DejaVuSans-Oblique-64" d="M 2675 525 
Q 2444 222 2128 65 
Q 1813 -91 1428 -91 
Q 903 -91 598 267 
Q 294 625 294 1247 
Q 294 1766 478 2236 
Q 663 2706 1013 3078 
Q 1244 3325 1534 3454 
Q 1825 3584 2144 3584 
Q 2481 3584 2739 3421 
Q 2997 3259 3138 2956 
L 3513 4863 
L 4091 4863 
L 3144 0 
L 2566 0 
L 2675 525 
z
M 891 1350 
Q 891 897 1095 644 
Q 1300 391 1663 391 
Q 1931 391 2161 520 
Q 2391 650 2566 903 
Q 2750 1166 2856 1509 
Q 2963 1853 2963 2188 
Q 2963 2622 2758 2865 
Q 2553 3109 2194 3109 
Q 1922 3109 1687 2981 
Q 1453 2853 1288 2613 
Q 1106 2353 998 2009 
Q 891 1666 891 1350 
z
" transform="scale(0.015625)"/>
     </defs>
     <use xlink:href="#DejaVuSans-Oblique-4d"/>
     <use xlink:href="#DejaVuSans-Oblique-65" x="86.279297"/>
     <use xlink:href="#DejaVuSans-Oblique-74" x="147.802734"/>
     <use xlink:href="#DejaVuSans-Oblique-68" x="187.011719"/>
     <use xlink:href="#DejaVuSans-Oblique-6f" x="250.390625"/>
     <use xlink:href="#DejaVuSans-Oblique-64" x="311.572266"/>
    </g>
   </g>
   <g id="text_12">
    <!-- Universal -->
    <g style="fill: #6c757d" transform="translate(7.2 257.253709) scale(0.082 -0.082)">
     <defs>
      <path id="DejaVuSans-Oblique-55" d="M 991 4666 
L 1625 4666 
L 1075 1831 
Q 1041 1641 1027 1517 
Q 1013 1394 1013 1300 
Q 1013 869 1253 645 
Q 1494 422 1959 422 
Q 2563 422 2898 753 
Q 3234 1084 3378 1831 
L 3928 4666 
L 4563 4666 
L 4000 1753 
Q 3816 809 3300 359 
Q 2784 -91 1888 -91 
Q 1188 -91 780 261 
Q 372 613 372 1216 
Q 372 1325 387 1461 
Q 403 1597 434 1753 
L 991 4666 
z
" transform="scale(0.015625)"/>
      <path id="DejaVuSans-Oblique-6e" d="M 3566 2113 
L 3156 0 
L 2578 0 
L 2988 2091 
Q 3016 2238 3031 2350 
Q 3047 2463 3047 2528 
Q 3047 2791 2881 2937 
Q 2716 3084 2419 3084 
Q 1956 3084 1622 2776 
Q 1288 2469 1184 1941 
L 800 0 
L 225 0 
L 903 3500 
L 1478 3500 
L 1363 2950 
Q 1603 3253 1940 3418 
Q 2278 3584 2650 3584 
Q 3113 3584 3367 3334 
Q 3622 3084 3622 2631 
Q 3622 2519 3608 2391 
Q 3594 2263 3566 2113 
z
" transform="scale(0.015625)"/>
      <path id="DejaVuSans-Oblique-76" d="M 459 3500 
L 1069 3500 
L 1581 525 
L 3256 3500 
L 3866 3500 
L 1875 0 
L 1100 0 
L 459 3500 
z
" transform="scale(0.015625)"/>
      <path id="DejaVuSans-Oblique-73" d="M 3200 3397 
L 3091 2853 
Q 2863 2978 2609 3040 
Q 2356 3103 2088 3103 
Q 1634 3103 1373 2948 
Q 1113 2794 1113 2528 
Q 1113 2219 1719 2053 
Q 1766 2041 1788 2034 
L 1972 1978 
Q 2547 1819 2739 1644 
Q 2931 1469 2931 1166 
Q 2931 609 2489 259 
Q 2047 -91 1331 -91 
Q 1053 -91 747 -37 
Q 441 16 72 128 
L 184 722 
Q 500 559 806 475 
Q 1113 391 1394 391 
Q 1816 391 2080 572 
Q 2344 753 2344 1031 
Q 2344 1331 1650 1516 
L 1591 1531 
L 1394 1581 
Q 956 1697 753 1886 
Q 550 2075 550 2369 
Q 550 2928 970 3256 
Q 1391 3584 2113 3584 
Q 2397 3584 2667 3537 
Q 2938 3491 3200 3397 
z
" transform="scale(0.015625)"/>
      <path id="DejaVuSans-Oblique-6c" d="M 1172 4863 
L 1747 4863 
L 800 0 
L 225 0 
L 1172 4863 
z
" transform="scale(0.015625)"/>
     </defs>
     <use xlink:href="#DejaVuSans-Oblique-55"/>
     <use xlink:href="#DejaVuSans-Oblique-6e" x="73.193359"/>
     <use xlink:href="#DejaVuSans-Oblique-69" x="136.572266"/>
     <use xlink:href="#DejaVuSans-Oblique-76" x="164.355469"/>
     <use xlink:href="#DejaVuSans-Oblique-65" x="223.535156"/>
     <use xlink:href="#DejaVuSans-Oblique-72" x="285.058594"/>
     <use xlink:href="#DejaVuSans-Oblique-73" x="326.171875"/>
     <use xlink:href="#DejaVuSans-Oblique-61" x="378.271484"/>
     <use xlink:href="#DejaVuSans-Oblique-6c" x="439.550781"/>
    </g>
    <!-- Fallback -->
    <g style="fill: #6c757d" transform="translate(9.467812 266.435916) scale(0.082 -0.082)">
     <defs>
      <path id="DejaVuSans-Oblique-46" d="M 1081 4666 
L 3756 4666 
L 3653 4134 
L 1606 4134 
L 1338 2759 
L 3188 2759 
L 3084 2228 
L 1234 2228 
L 800 0 
L 172 0 
L 1081 4666 
z
" transform="scale(0.015625)"/>
      <path id="DejaVuSans-Oblique-62" d="M 3169 2138 
Q 3169 2591 2961 2847 
Q 2753 3103 2388 3103 
Q 2122 3103 1889 2973 
Q 1656 2844 1484 2597 
Q 1303 2338 1198 1995 
Q 1094 1653 1094 1313 
Q 1094 881 1298 636 
Q 1503 391 1863 391 
Q 2134 391 2365 517 
Q 2597 644 2772 891 
Q 2950 1147 3059 1487 
Q 3169 1828 3169 2138 
z
M 1381 2969 
Q 1594 3256 1914 3420 
Q 2234 3584 2584 3584 
Q 3122 3584 3439 3221 
Q 3756 2859 3756 2241 
Q 3756 1734 3570 1259 
Q 3384 784 3041 416 
Q 2816 172 2522 40 
Q 2228 -91 1906 -91 
Q 1566 -91 1316 65 
Q 1066 222 909 531 
L 806 0 
L 231 0 
L 1178 4863 
L 1753 4863 
L 1381 2969 
z
" transform="scale(0.015625)"/>
      <path id="DejaVuSans-Oblique-63" d="M 3431 3366 
L 3316 2797 
Q 3109 2947 2876 3022 
Q 2644 3097 2394 3097 
Q 2119 3097 1870 3000 
Q 1622 2903 1453 2725 
Q 1184 2453 1037 2087 
Q 891 1722 891 1331 
Q 891 859 1127 628 
Q 1363 397 1844 397 
Q 2081 397 2348 469 
Q 2616 541 2906 684 
L 2797 116 
Q 2547 13 2283 -39 
Q 2019 -91 1741 -91 
Q 1044 -91 669 257 
Q 294 606 294 1253 
Q 294 1797 489 2255 
Q 684 2713 1069 3078 
Q 1331 3328 1684 3456 
Q 2038 3584 2456 3584 
Q 2700 3584 2940 3529 
Q 3181 3475 3431 3366 
z
" transform="scale(0.015625)"/>
      <path id="DejaVuSans-Oblique-6b" d="M 1172 4863 
L 1747 4863 
L 1197 2028 
L 3169 3500 
L 3916 3500 
L 1716 1825 
L 3322 0 
L 2625 0 
L 1131 1709 
L 800 0 
L 225 0 
L 1172 4863 
z
" transform="scale(0.015625)"/>
     </defs>
     <use xlink:href="#DejaVuSans-Oblique-46"/>
     <use xlink:href="#DejaVuSans-Oblique-61" x="57.519531"/>
     <use xlink:href="#DejaVuSans-Oblique-6c" x="118.798828"/>
     <use xlink:href="#DejaVuSans-Oblique-6c" x="146.582031"/>
     <use xlink:href="#DejaVuSans-Oblique-62" x="174.365234"/>
     <use xlink:href="#DejaVuSans-Oblique-61" x="237.841797"/>
     <use xlink:href="#DejaVuSans-Oblique-63" x="299.121094"/>
     <use xlink:href="#DejaVuSans-Oblique-6b" x="354.101562"/>
    </g>
   </g>
   <g id="text_13">
    <!-- Multiplatform Process Attribution -->
    <g transform="translate(157.414666 16.318125) scale(0.12 -0.12)">
     <defs>
      <path id="DejaVuSans-Bold-4d" d="M 588 4666 
L 2119 4666 
L 3181 2169 
L 4250 4666 
L 5778 4666 
L 5778 0 
L 4641 0 
L 4641 3413 
L 3566 897 
L 2803 897 
L 1728 3413 
L 1728 0 
L 588 0 
L 588 4666 
z
" transform="scale(0.015625)"/>
      <path id="DejaVuSans-Bold-75" d="M 500 1363 
L 500 3500 
L 1625 3500 
L 1625 3150 
Q 1625 2866 1622 2436 
Q 1619 2006 1619 1863 
Q 1619 1441 1641 1255 
Q 1663 1069 1716 984 
Q 1784 875 1895 815 
Q 2006 756 2150 756 
Q 2500 756 2700 1025 
Q 2900 1294 2900 1772 
L 2900 3500 
L 4019 3500 
L 4019 0 
L 2900 0 
L 2900 506 
Q 2647 200 2364 54 
Q 2081 -91 1741 -91 
Q 1134 -91 817 281 
Q 500 653 500 1363 
z
" transform="scale(0.015625)"/>
      <path id="DejaVuSans-Bold-6c" d="M 538 4863 
L 1656 4863 
L 1656 0 
L 538 0 
L 538 4863 
z
" transform="scale(0.015625)"/>
      <path id="DejaVuSans-Bold-74" d="M 1759 4494 
L 1759 3500 
L 2913 3500 
L 2913 2700 
L 1759 2700 
L 1759 1216 
Q 1759 972 1856 886 
Q 1953 800 2241 800 
L 2816 800 
L 2816 0 
L 1856 0 
Q 1194 0 917 276 
Q 641 553 641 1216 
L 641 2700 
L 84 2700 
L 84 3500 
L 641 3500 
L 641 4494 
L 1759 4494 
z
" transform="scale(0.015625)"/>
      <path id="DejaVuSans-Bold-69" d="M 538 3500 
L 1656 3500 
L 1656 0 
L 538 0 
L 538 3500 
z
M 538 4863 
L 1656 4863 
L 1656 3950 
L 538 3950 
L 538 4863 
z
" transform="scale(0.015625)"/>
      <path id="DejaVuSans-Bold-70" d="M 1656 506 
L 1656 -1331 
L 538 -1331 
L 538 3500 
L 1656 3500 
L 1656 2988 
Q 1888 3294 2169 3439 
Q 2450 3584 2816 3584 
Q 3463 3584 3878 3070 
Q 4294 2556 4294 1747 
Q 4294 938 3878 423 
Q 3463 -91 2816 -91 
Q 2450 -91 2169 54 
Q 1888 200 1656 506 
z
M 2400 2772 
Q 2041 2772 1848 2508 
Q 1656 2244 1656 1747 
Q 1656 1250 1848 986 
Q 2041 722 2400 722 
Q 2759 722 2948 984 
Q 3138 1247 3138 1747 
Q 3138 2247 2948 2509 
Q 2759 2772 2400 2772 
z
" transform="scale(0.015625)"/>
      <path id="DejaVuSans-Bold-61" d="M 2106 1575 
Q 1756 1575 1579 1456 
Q 1403 1338 1403 1106 
Q 1403 894 1545 773 
Q 1688 653 1941 653 
Q 2256 653 2472 879 
Q 2688 1106 2688 1447 
L 2688 1575 
L 2106 1575 
z
M 3816 1997 
L 3816 0 
L 2688 0 
L 2688 519 
Q 2463 200 2181 54 
Q 1900 -91 1497 -91 
Q 953 -91 614 226 
Q 275 544 275 1050 
Q 275 1666 698 1953 
Q 1122 2241 2028 2241 
L 2688 2241 
L 2688 2328 
Q 2688 2594 2478 2717 
Q 2269 2841 1825 2841 
Q 1466 2841 1156 2769 
Q 847 2697 581 2553 
L 581 3406 
Q 941 3494 1303 3539 
Q 1666 3584 2028 3584 
Q 2975 3584 3395 3211 
Q 3816 2838 3816 1997 
z
" transform="scale(0.015625)"/>
      <path id="DejaVuSans-Bold-66" d="M 2841 4863 
L 2841 4128 
L 2222 4128 
Q 1984 4128 1890 4042 
Q 1797 3956 1797 3744 
L 1797 3500 
L 2753 3500 
L 2753 2700 
L 1797 2700 
L 1797 0 
L 678 0 
L 678 2700 
L 122 2700 
L 122 3500 
L 678 3500 
L 678 3744 
Q 678 4316 997 4589 
Q 1316 4863 1984 4863 
L 2841 4863 
z
" transform="scale(0.015625)"/>
      <path id="DejaVuSans-Bold-6f" d="M 2203 2784 
Q 1831 2784 1636 2517 
Q 1441 2250 1441 1747 
Q 1441 1244 1636 976 
Q 1831 709 2203 709 
Q 2569 709 2762 976 
Q 2956 1244 2956 1747 
Q 2956 2250 2762 2517 
Q 2569 2784 2203 2784 
z
M 2203 3584 
Q 3106 3584 3614 3096 
Q 4122 2609 4122 1747 
Q 4122 884 3614 396 
Q 3106 -91 2203 -91 
Q 1297 -91 786 396 
Q 275 884 275 1747 
Q 275 2609 786 3096 
Q 1297 3584 2203 3584 
z
" transform="scale(0.015625)"/>
      <path id="DejaVuSans-Bold-72" d="M 3138 2547 
Q 2991 2616 2845 2648 
Q 2700 2681 2553 2681 
Q 2122 2681 1889 2404 
Q 1656 2128 1656 1613 
L 1656 0 
L 538 0 
L 538 3500 
L 1656 3500 
L 1656 2925 
Q 1872 3269 2151 3426 
Q 2431 3584 2822 3584 
Q 2878 3584 2943 3579 
Q 3009 3575 3134 3559 
L 3138 2547 
z
" transform="scale(0.015625)"/>
      <path id="DejaVuSans-Bold-6d" d="M 3781 2919 
Q 3994 3244 4286 3414 
Q 4578 3584 4928 3584 
Q 5531 3584 5847 3212 
Q 6163 2841 6163 2131 
L 6163 0 
L 5038 0 
L 5038 1825 
Q 5041 1866 5042 1909 
Q 5044 1953 5044 2034 
Q 5044 2406 4934 2573 
Q 4825 2741 4581 2741 
Q 4263 2741 4089 2478 
Q 3916 2216 3909 1719 
L 3909 0 
L 2784 0 
L 2784 1825 
Q 2784 2406 2684 2573 
Q 2584 2741 2328 2741 
Q 2006 2741 1831 2477 
Q 1656 2213 1656 1722 
L 1656 0 
L 531 0 
L 531 3500 
L 1656 3500 
L 1656 2988 
Q 1863 3284 2130 3434 
Q 2397 3584 2719 3584 
Q 3081 3584 3359 3409 
Q 3638 3234 3781 2919 
z
" transform="scale(0.015625)"/>
      <path id="DejaVuSans-Bold-20" transform="scale(0.015625)"/>
      <path id="DejaVuSans-Bold-50" d="M 588 4666 
L 2584 4666 
Q 3475 4666 3951 4270 
Q 4428 3875 4428 3144 
Q 4428 2409 3951 2014 
Q 3475 1619 2584 1619 
L 1791 1619 
L 1791 0 
L 588 0 
L 588 4666 
z
M 1791 3794 
L 1791 2491 
L 2456 2491 
Q 2806 2491 2997 2661 
Q 3188 2831 3188 3144 
Q 3188 3456 2997 3625 
Q 2806 3794 2456 3794 
L 1791 3794 
z
" transform="scale(0.015625)"/>
      <path id="DejaVuSans-Bold-63" d="M 3366 3391 
L 3366 2478 
Q 3138 2634 2908 2709 
Q 2678 2784 2431 2784 
Q 1963 2784 1702 2511 
Q 1441 2238 1441 1747 
Q 1441 1256 1702 982 
Q 1963 709 2431 709 
Q 2694 709 2930 787 
Q 3166 866 3366 1019 
L 3366 103 
Q 3103 6 2833 -42 
Q 2563 -91 2291 -91 
Q 1344 -91 809 395 
Q 275 881 275 1747 
Q 275 2613 809 3098 
Q 1344 3584 2291 3584 
Q 2566 3584 2833 3536 
Q 3100 3488 3366 3391 
z
" transform="scale(0.015625)"/>
      <path id="DejaVuSans-Bold-65" d="M 4031 1759 
L 4031 1441 
L 1416 1441 
Q 1456 1047 1700 850 
Q 1944 653 2381 653 
Q 2734 653 3104 758 
Q 3475 863 3866 1075 
L 3866 213 
Q 3469 63 3072 -14 
Q 2675 -91 2278 -91 
Q 1328 -91 801 392 
Q 275 875 275 1747 
Q 275 2603 792 3093 
Q 1309 3584 2216 3584 
Q 3041 3584 3536 3087 
Q 4031 2591 4031 1759 
z
M 2881 2131 
Q 2881 2450 2695 2645 
Q 2509 2841 2209 2841 
Q 1884 2841 1681 2658 
Q 1478 2475 1428 2131 
L 2881 2131 
z
" transform="scale(0.015625)"/>
      <path id="DejaVuSans-Bold-73" d="M 3272 3391 
L 3272 2541 
Q 2913 2691 2578 2766 
Q 2244 2841 1947 2841 
Q 1628 2841 1473 2761 
Q 1319 2681 1319 2516 
Q 1319 2381 1436 2309 
Q 1553 2238 1856 2203 
L 2053 2175 
Q 2913 2066 3209 1816 
Q 3506 1566 3506 1031 
Q 3506 472 3093 190 
Q 2681 -91 1863 -91 
Q 1516 -91 1145 -36 
Q 775 19 384 128 
L 384 978 
Q 719 816 1070 734 
Q 1422 653 1784 653 
Q 2113 653 2278 743 
Q 2444 834 2444 1013 
Q 2444 1163 2330 1236 
Q 2216 1309 1875 1350 
L 1678 1375 
Q 931 1469 631 1722 
Q 331 1975 331 2491 
Q 331 3047 712 3315 
Q 1094 3584 1881 3584 
Q 2191 3584 2531 3537 
Q 2872 3491 3272 3391 
z
" transform="scale(0.015625)"/>
      <path id="DejaVuSans-Bold-41" d="M 3419 850 
L 1538 850 
L 1241 0 
L 31 0 
L 1759 4666 
L 3194 4666 
L 4922 0 
L 3713 0 
L 3419 850 
z
M 1838 1716 
L 3116 1716 
L 2478 3572 
L 1838 1716 
z
" transform="scale(0.015625)"/>
      <path id="DejaVuSans-Bold-62" d="M 2400 722 
Q 2759 722 2948 984 
Q 3138 1247 3138 1747 
Q 3138 2247 2948 2509 
Q 2759 2772 2400 2772 
Q 2041 2772 1848 2508 
Q 1656 2244 1656 1747 
Q 1656 1250 1848 986 
Q 2041 722 2400 722 
z
M 1656 2988 
Q 1888 3294 2169 3439 
Q 2450 3584 2816 3584 
Q 3463 3584 3878 3070 
Q 4294 2556 4294 1747 
Q 4294 938 3878 423 
Q 3463 -91 2816 -91 
Q 2450 -91 2169 54 
Q 1888 200 1656 506 
L 1656 0 
L 538 0 
L 538 4863 
L 1656 4863 
L 1656 2988 
z
" transform="scale(0.015625)"/>
      <path id="DejaVuSans-Bold-6e" d="M 4056 2131 
L 4056 0 
L 2931 0 
L 2931 347 
L 2931 1631 
Q 2931 2084 2911 2256 
Q 2891 2428 2841 2509 
Q 2775 2619 2662 2680 
Q 2550 2741 2406 2741 
Q 2056 2741 1856 2470 
Q 1656 2200 1656 1722 
L 1656 0 
L 538 0 
L 538 3500 
L 1656 3500 
L 1656 2988 
Q 1909 3294 2193 3439 
Q 2478 3584 2822 3584 
Q 3428 3584 3742 3212 
Q 4056 2841 4056 2131 
z
" transform="scale(0.015625)"/>
     </defs>
     <use xlink:href="#DejaVuSans-Bold-4d"/>
     <use xlink:href="#DejaVuSans-Bold-75" x="99.511719"/>
     <use xlink:href="#DejaVuSans-Bold-6c" x="170.703125"/>
     <use xlink:href="#DejaVuSans-Bold-74" x="204.980469"/>
     <use xlink:href="#DejaVuSans-Bold-69" x="252.783203"/>
     <use xlink:href="#DejaVuSans-Bold-70" x="287.060547"/>
     <use xlink:href="#DejaVuSans-Bold-6c" x="358.642578"/>
     <use xlink:href="#DejaVuSans-Bold-61" x="392.919922"/>
     <use xlink:href="#DejaVuSans-Bold-74" x="460.400391"/>
     <use xlink:href="#DejaVuSans-Bold-66" x="508.203125"/>
     <use xlink:href="#DejaVuSans-Bold-6f" x="551.708984"/>
     <use xlink:href="#DejaVuSans-Bold-72" x="620.410156"/>
     <use xlink:href="#DejaVuSans-Bold-6d" x="669.726562"/>
     <use xlink:href="#DejaVuSans-Bold-20" x="773.925781"/>
     <use xlink:href="#DejaVuSans-Bold-50" x="808.740234"/>
     <use xlink:href="#DejaVuSans-Bold-72" x="882.03125"/>
     <use xlink:href="#DejaVuSans-Bold-6f" x="931.347656"/>
     <use xlink:href="#DejaVuSans-Bold-63" x="1000.048828"/>
     <use xlink:href="#DejaVuSans-Bold-65" x="1059.326172"/>
     <use xlink:href="#DejaVuSans-Bold-73" x="1127.148438"/>
     <use xlink:href="#DejaVuSans-Bold-73" x="1186.669922"/>
     <use xlink:href="#DejaVuSans-Bold-20" x="1246.191406"/>
     <use xlink:href="#DejaVuSans-Bold-41" x="1281.005859"/>
     <use xlink:href="#DejaVuSans-Bold-74" x="1358.398438"/>
     <use xlink:href="#DejaVuSans-Bold-74" x="1406.201172"/>
     <use xlink:href="#DejaVuSans-Bold-72" x="1454.003906"/>
     <use xlink:href="#DejaVuSans-Bold-69" x="1503.320312"/>
     <use xlink:href="#DejaVuSans-Bold-62" x="1537.597656"/>
     <use xlink:href="#DejaVuSans-Bold-75" x="1609.179688"/>
     <use xlink:href="#DejaVuSans-Bold-74" x="1680.371094"/>
     <use xlink:href="#DejaVuSans-Bold-69" x="1728.173828"/>
     <use xlink:href="#DejaVuSans-Bold-6f" x="1762.451172"/>
     <use xlink:href="#DejaVuSans-Bold-6e" x="1831.152344"/>
    </g>
   </g>
  </g>
 </g>
 <defs>
  <clipPath id="pe54e721c33">
   <rect x="18.777166" y="28.318125" width="505.5525" height="280.32"/>
  </clipPath>
 </defs>
</svg>
