<?xml version="1.0" encoding="utf-8" standalone="no"?>
<!DOCTYPE svg PUBLIC "-//W3C//DTD SVG 1.1//EN"
  "http://www.w3.org/Graphics/SVG/1.1/DTD/svg11.dtd">
<svg xmlns:xlink="http://www.w3.org/1999/xlink" width="532.8pt" height="351.838125pt" viewBox="0 0 532.8 351.838125" xmlns="http://www.w3.org/2000/svg" version="1.1">
 <metadata>
  <rdf:RDF xmlns:dc="http://purl.org/dc/elements/1.1/" xmlns:cc="http://creativecommons.org/ns#" xmlns:rdf="http://www.w3.org/1999/02/22-rdf-syntax-ns#">
   <cc:Work>
    <dc:type rdf:resource="http://purl.org/dc/dcmitype/StillImage"/>
    <dc:date>2026-03-13T09:13:31.165328</dc:date>
    <dc:format>image/svg+xml</dc:format>
    <dc:creator>
     <cc:Agent>
      <dc:title>Matplotlib v3.9.2, https://matplotlib.org/</dc:title>
     </cc:Agent>
    </dc:creator>
   </cc:Work>
  </rdf:RDF>
 </metadata>
 <defs>
  <style type="text/css">*{stroke-linejoin: round; stroke-linecap: butt}</style>
 </defs>
 <g id="figure_1">
  <g id="patch_1">
   <path d="M 0 351.838125 
L 532.8 351.838125 
L 532.8 0 
L 0 0 
z
" style="fill: #ffffff"/>
  </g>
  <g id="axes_1">
   <g id="patch_2">
    <path d="M 22.752 334.696639 
L 510.048 334.696639 
Q 514.1952 334.696639 514.1952 331.081554 
L 514.1952 263.298696 
Q 514.1952 259.683611 510.048 259.683611 
L 22.752 259.683611 
Q 18.6048 259.683611 18.6048 263.298696 
L 18.6048 331.081554 
Q 18.6048 334.696639 22.752 334.696639 
z
" clip-path="url(#p1df717a6fc)" style="fill: #fff3e0; stroke-dasharray: 5.55,2.4; stroke-dashoffset: 0; stroke: #e8833a; stroke-width: 1.5; stroke-linejoin: miter"/>
   </g>
   <g id="patch_3">
    <path d="M 162.72 74.410468 
L 370.08 74.410468 
Q 371.1168 74.410468 371.1168 73.506696 
L 371.1168 41.874696 
Q 371.1168 40.970925 370.08 40.970925 
L 162.72 40.970925 
Q 161.6832 40.970925 161.6832 41.874696 
L 161.6832 73.506696 
Q 161.6832 74.410468 162.72 74.410468 
z
" clip-path="url(#p1df717a6fc)" style="fill: #fffde7; stroke: #e8833a; stroke-width: 1.2; stroke-linejoin: miter"/>
   </g>
   <g id="patch_4">
    <path d="M 22.752 155.749896 
L 131.616 155.749896 
Q 132.6528 155.749896 132.6528 154.846125 
L 132.6528 127.732982 
Q 132.6528 126.829211 131.616 126.829211 
L 22.752 126.829211 
Q 21.7152 126.829211 21.7152 127.732982 
L 21.7152 154.846125 
Q 21.7152 155.749896 22.752 155.749896 
z
" clip-path="url(#p1df717a6fc)" style="fill: #d6e9f8; stroke: #3b7dd8; stroke-width: 1.5; stroke-linejoin: miter"/>
   </g>
   <g id="patch_5">
    <path d="M 22.752 241.608182 
L 131.616 241.608182 
Q 132.6528 241.608182 132.6528 240.704411 
L 132.6528 163.883839 
Q 132.6528 162.980068 131.616 162.980068 
L 22.752 162.980068 
Q 21.7152 162.980068 21.7152 163.883839 
L 21.7152 240.704411 
Q 21.7152 241.608182 22.752 241.608182 
z
" clip-path="url(#p1df717a6fc)" style="fill: #ffffff; stroke: #3b7dd8; stroke-width: 1.2; stroke-linejoin: miter"/>
   </g>
   <g id="patch_6">
    <path d="M 152.352 155.749896 
L 261.216 155.749896 
Q 262.2528 155.749896 262.2528 154.846125 
L 262.2528 127.732982 
Q 262.2528 126.829211 261.216 126.829211 
L 152.352 126.829211 
Q 151.3152 126.829211 151.3152 127.732982 
L 151.3152 154.846125 
Q 151.3152 155.749896 152.352 155.749896 
z
" clip-path="url(#p1df717a6fc)" style="fill: #d5ecd5; stroke: #4caf50; stroke-width: 1.5; stroke-linejoin: miter"/>
   </g>
   <g id="patch_7">
    <path d="M 152.352 241.608182 
L 261.216 241.608182 
Q 262.2528 241.608182 262.2528 240.704411 
L 262.2528 163.883839 
Q 262.2528 162.980068 261.216 162.980068 
L 152.352 162.980068 
Q 151.3152 162.980068 151.3152 163.883839 
L 151.3152 240.704411 
Q 151.3152 241.608182 152.352 241.608182 
z
" clip-path="url(#p1df717a6fc)" style="fill: #ffffff; stroke: #4caf50; stroke-width: 1.2; stroke-linejoin: miter"/>
   </g>
   <g id="patch_8">
    <path d="M 281.952 155.749896 
L 390.816 155.749896 
Q 391.8528 155.749896 391.8528 154.846125 
L 391.8528 127.732982 
Q 391.8528 126.829211 390.816 126.829211 
L 281.952 126.829211 
Q 280.9152 126.829211 280.9152 127.732982 
L 280.9152 154.846125 
Q 280.9152 155.749896 281.952 155.749896 
z
" clip-path="url(#p1df717a6fc)" style="fill: #f8d7da; stroke: #d9534f; stroke-width: 1.5; stroke-linejoin: miter"/>
   </g>
   <g id="patch_9">
    <path d="M 281.952 241.608182 
L 390.816 241.608182 
Q 391.8528 241.608182 391.8528 240.704411 
L 391.8528 163.883839 
Q 391.8528 162.980068 390.816 162.980068 
L 281.952 162.980068 
Q 280.9152 162.980068 280.9152 163.883839 
L 280.9152 240.704411 
Q 280.9152 241.608182 281.952 241.608182 
z
" clip-path="url(#p1df717a6fc)" style="fill: #ffffff; stroke: #d9534f; stroke-width: 1.2; stroke-linejoin: miter"/>
   </g>
   <g id="patch_10">
    <path d="M 396 155.749896 
L 504.864 155.749896 
Q 505.9008 155.749896 505.9008 154.846125 
L 505.9008 127.732982 
Q 505.9008 126.829211 504.864 126.829211 
L 396 126.829211 
Q 394.9632 126.829211 394.9632 127.732982 
L 394.9632 154.846125 
Q 394.9632 155.749896 396 155.749896 
z
" clip-path="url(#p1df717a6fc)" style="fill: #e8dff0; stroke: #8e6fbf; stroke-width: 1.5; stroke-linejoin: miter"/>
   </g>
   <g id="patch_11">
    <path d="M 396 241.608182 
L 504.864 241.608182 
Q 505.9008 241.608182 505.9008 240.704411 
L 505.9008 163.883839 
Q 505.9008 162.980068 504.864 162.980068 
L 396 162.980068 
Q 394.9632 162.980068 394.9632 163.883839 
L 394.9632 240.704411 
Q 394.9632 241.608182 396 241.608182 
z
" clip-path="url(#p1df717a6fc)" style="fill: #ffffff; stroke: #8e6fbf; stroke-width: 1.2; stroke-linejoin: miter"/>
   </g>
   <g id="line2d_1">
    <path d="M 77.184 240.704411 
L 77.184 263.298696 
" clip-path="url(#p1df717a6fc)" style="fill: none; stroke-dasharray: 3.7,1.6; stroke-dashoffset: 0; stroke: #e8833a; stroke-opacity: 0.7"/>
   </g>
   <g id="line2d_2">
    <path d="M 206.784 240.704411 
L 206.784 263.298696 
" clip-path="url(#p1df717a6fc)" style="fill: none; stroke-dasharray: 3.7,1.6; stroke-dashoffset: 0; stroke: #e8833a; stroke-opacity: 0.7"/>
   </g>
   <g id="line2d_3">
    <path d="M 336.384 240.704411 
L 336.384 263.298696 
" clip-path="url(#p1df717a6fc)" style="fill: none; stroke-dasharray: 3.7,1.6; stroke-dashoffset: 0; stroke: #e8833a; stroke-opacity: 0.7"/>
   </g>
   <g id="line2d_4">
    <path d="M 450.432 240.704411 
L 450.432 263.298696 
" clip-path="url(#p1df717a6fc)" style="fill: none; stroke-dasharray: 3.7,1.6; stroke-dashoffset: 0; stroke: #e8833a; stroke-opacity: 0.7"/>
   </g>
   <g id="text_1">
    <!-- Network Session -->
    <g transform="translate(232.334766 55.24825) scale(0.082 -0.082)">
     <defs>
      <path id="DejaVuSans-4e" d="M 628 4666 
L 1478 4666 
L 3547 763 
L 3547 4666 
L 4159 4666 
L 4159 0 
L 3309 0 
L 1241 3903 
L 1241 0 
L 628 0 
L 628 4666 
z
" transform="scale(0.015625)"/>
      <path id="DejaVuSans-65" d="M 3597 1894 
L 3597 1613 
L 953 1613 
Q 991 1019 1311 708 
Q 1631 397 2203 397 
Q 2534 397 2845 478 
Q 3156 559 3463 722 
L 3463 178 
Q 3153 47 2828 -22 
Q 2503 -91 2169 -91 
Q 1331 -91 842 396 
Q 353 884 353 1716 
Q 353 2575 817 3079 
Q 1281 3584 2069 3584 
Q 2775 3584 3186 3129 
Q 3597 2675 3597 1894 
z
M 3022 2063 
Q 3016 2534 2758 2815 
Q 2500 3097 2075 3097 
Q 1594 3097 1305 2825 
Q 1016 2553 972 2059 
L 3022 2063 
z
" transform="scale(0.015625)"/>
      <path id="DejaVuSans-74" d="M 1172 4494 
L 1172 3500 
L 2356 3500 
L 2356 3053 
L 1172 3053 
L 1172 1153 
Q 1172 725 1289 603 
Q 1406 481 1766 481 
L 2356 481 
L 2356 0 
L 1766 0 
Q 1100 0 847 248 
Q 594 497 594 1153 
L 594 3053 
L 172 3053 
L 172 3500 
L 594 3500 
L 594 4494 
L 1172 4494 
z
" transform="scale(0.015625)"/>
      <path id="DejaVuSans-77" d="M 269 3500 
L 844 3500 
L 1563 769 
L 2278 3500 
L 2956 3500 
L 3675 769 
L 4391 3500 
L 4966 3500 
L 4050 0 
L 3372 0 
L 2619 2869 
L 1863 0 
L 1184 0 
L 269 3500 
z
" transform="scale(0.015625)"/>
      <path id="DejaVuSans-6f" d="M 1959 3097 
Q 1497 3097 1228 2736 
Q 959 2375 959 1747 
Q 959 1119 1226 758 
Q 1494 397 1959 397 
Q 2419 397 2687 759 
Q 2956 1122 2956 1747 
Q 2956 2369 2687 2733 
Q 2419 3097 1959 3097 
z
M 1959 3584 
Q 2709 3584 3137 3096 
Q 3566 2609 3566 1747 
Q 3566 888 3137 398 
Q 2709 -91 1959 -91 
Q 1206 -91 779 398 
Q 353 888 353 1747 
Q 353 2609 779 3096 
Q 1206 3584 1959 3584 
z
" transform="scale(0.015625)"/>
      <path id="DejaVuSans-72" d="M 2631 2963 
Q 2534 3019 2420 3045 
Q 2306 3072 2169 3072 
Q 1681 3072 1420 2755 
Q 1159 2438 1159 1844 
L 1159 0 
L 581 0 
L 581 3500 
L 1159 3500 
L 1159 2956 
Q 1341 3275 1631 3429 
Q 1922 3584 2338 3584 
Q 2397 3584 2469 3576 
Q 2541 3569 2628 3553 
L 2631 2963 
z
" transform="scale(0.015625)"/>
      <path id="DejaVuSans-6b" d="M 581 4863 
L 1159 4863 
L 1159 1991 
L 2875 3500 
L 3609 3500 
L 1753 1863 
L 3688 0 
L 2938 0 
L 1159 1709 
L 1159 0 
L 581 0 
L 581 4863 
z
" transform="scale(0.015625)"/>
      <path id="DejaVuSans-20" transform="scale(0.015625)"/>
      <path id="DejaVuSans-53" d="M 3425 4513 
L 3425 3897 
Q 3066 4069 2747 4153 
Q 2428 4238 2131 4238 
Q 1616 4238 1336 4038 
Q 1056 3838 1056 3469 
Q 1056 3159 1242 3001 
Q 1428 2844 1947 2747 
L 2328 2669 
Q 3034 2534 3370 2195 
Q 3706 1856 3706 1288 
Q 3706 609 3251 259 
Q 2797 -91 1919 -91 
Q 1588 -91 1214 -16 
Q 841 59 441 206 
L 441 856 
Q 825 641 1194 531 
Q 1563 422 1919 422 
Q 2459 422 2753 634 
Q 3047 847 3047 1241 
Q 3047 1584 2836 1778 
Q 2625 1972 2144 2069 
L 1759 2144 
Q 1053 2284 737 2584 
Q 422 2884 422 3419 
Q 422 4038 858 4394 
Q 1294 4750 2059 4750 
Q 2388 4750 2728 4690 
Q 3069 4631 3425 4513 
z
" transform="scale(0.015625)"/>
      <path id="DejaVuSans-73" d="M 2834 3397 
L 2834 2853 
Q 2591 2978 2328 3040 
Q 2066 3103 1784 3103 
Q 1356 3103 1142 2972 
Q 928 2841 928 2578 
Q 928 2378 1081 2264 
Q 1234 2150 1697 2047 
L 1894 2003 
Q 2506 1872 2764 1633 
Q 3022 1394 3022 966 
Q 3022 478 2636 193 
Q 2250 -91 1575 -91 
Q 1294 -91 989 -36 
Q 684 19 347 128 
L 347 722 
Q 666 556 975 473 
Q 1284 391 1588 391 
Q 1994 391 2212 530 
Q 2431 669 2431 922 
Q 2431 1156 2273 1281 
Q 2116 1406 1581 1522 
L 1381 1569 
Q 847 1681 609 1914 
Q 372 2147 372 2553 
Q 372 3047 722 3315 
Q 1072 3584 1716 3584 
Q 2034 3584 2315 3537 
Q 2597 3491 2834 3397 
z
" transform="scale(0.015625)"/>
      <path id="DejaVuSans-69" d="M 603 3500 
L 1178 3500 
L 1178 0 
L 603 0 
L 603 3500 
z
M 603 4863 
L 1178 4863 
L 1178 4134 
L 603 4134 
L 603 4863 
z
" transform="scale(0.015625)"/>
      <path id="DejaVuSans-6e" d="M 3513 2113 
L 3513 0 
L 2938 0 
L 2938 2094 
Q 2938 2591 2744 2837 
Q 2550 3084 2163 3084 
Q 1697 3084 1428 2787 
Q 1159 2491 1159 1978 
L 1159 0 
L 581 0 
L 581 3500 
L 1159 3500 
L 1159 2956 
Q 1366 3272 1645 3428 
Q 1925 3584 2291 3584 
Q 2894 3584 3203 3211 
Q 3513 2838 3513 2113 
z
" transform="scale(0.015625)"/>
     </defs>
     <use xlink:href="#DejaVuSans-4e"/>
     <use xlink:href="#DejaVuSans-65" x="74.804688"/>
     <use xlink:href="#DejaVuSans-74" x="136.328125"/>
     <use xlink:href="#DejaVuSans-77" x="175.537109"/>
     <use xlink:href="#DejaVuSans-6f" x="257.324219"/>
     <use xlink:href="#DejaVuSans-72" x="318.505859"/>
     <use xlink:href="#DejaVuSans-6b" x="359.619141"/>
     <use xlink:href="#DejaVuSans-20" x="417.529297"/>
     <use xlink:href="#DejaVuSans-53" x="449.316406"/>
     <use xlink:href="#DejaVuSans-65" x="512.792969"/>
     <use xlink:href="#DejaVuSans-73" x="574.316406"/>
     <use xlink:href="#DejaVuSans-73" x="626.416016"/>
     <use xlink:href="#DejaVuSans-69" x="678.515625"/>
     <use xlink:href="#DejaVuSans-6f" x="706.298828"/>
     <use xlink:href="#DejaVuSans-6e" x="767.480469"/>
    </g>
    <!-- (src_ip, dst_ip, dst_domain, protocol, ports) -->
    <g transform="translate(177.848969 64.430456) scale(0.082 -0.082)">
     <defs>
      <path id="DejaVuSans-28" d="M 1984 4856 
Q 1566 4138 1362 3434 
Q 1159 2731 1159 2009 
Q 1159 1288 1364 580 
Q 1569 -128 1984 -844 
L 1484 -844 
Q 1016 -109 783 600 
Q 550 1309 550 2009 
Q 550 2706 781 3412 
Q 1013 4119 1484 4856 
L 1984 4856 
z
" transform="scale(0.015625)"/>
      <path id="DejaVuSans-63" d="M 3122 3366 
L 3122 2828 
Q 2878 2963 2633 3030 
Q 2388 3097 2138 3097 
Q 1578 3097 1268 2742 
Q 959 2388 959 1747 
Q 959 1106 1268 751 
Q 1578 397 2138 397 
Q 2388 397 2633 464 
Q 2878 531 3122 666 
L 3122 134 
Q 2881 22 2623 -34 
Q 2366 -91 2075 -91 
Q 1284 -91 818 406 
Q 353 903 353 1747 
Q 353 2603 823 3093 
Q 1294 3584 2113 3584 
Q 2378 3584 2631 3529 
Q 2884 3475 3122 3366 
z
" transform="scale(0.015625)"/>
      <path id="DejaVuSans-5f" d="M 3263 -1063 
L 3263 -1509 
L -63 -1509 
L -63 -1063 
L 3263 -1063 
z
" transform="scale(0.015625)"/>
      <path id="DejaVuSans-70" d="M 1159 525 
L 1159 -1331 
L 581 -1331 
L 581 3500 
L 1159 3500 
L 1159 2969 
Q 1341 3281 1617 3432 
Q 1894 3584 2278 3584 
Q 2916 3584 3314 3078 
Q 3713 2572 3713 1747 
Q 3713 922 3314 415 
Q 2916 -91 2278 -91 
Q 1894 -91 1617 61 
Q 1341 213 1159 525 
z
M 3116 1747 
Q 3116 2381 2855 2742 
Q 2594 3103 2138 3103 
Q 1681 3103 1420 2742 
Q 1159 2381 1159 1747 
Q 1159 1113 1420 752 
Q 1681 391 2138 391 
Q 2594 391 2855 752 
Q 3116 1113 3116 1747 
z
" transform="scale(0.015625)"/>
      <path id="DejaVuSans-2c" d="M 750 794 
L 1409 794 
L 1409 256 
L 897 -744 
L 494 -744 
L 750 256 
L 750 794 
z
" transform="scale(0.015625)"/>
      <path id="DejaVuSans-64" d="M 2906 2969 
L 2906 4863 
L 3481 4863 
L 3481 0 
L 2906 0 
L 2906 525 
Q 2725 213 2448 61 
Q 2172 -91 1784 -91 
Q 1150 -91 751 415 
Q 353 922 353 1747 
Q 353 2572 751 3078 
Q 1150 3584 1784 3584 
Q 2172 3584 2448 3432 
Q 2725 3281 2906 2969 
z
M 947 1747 
Q 947 1113 1208 752 
Q 1469 391 1925 391 
Q 2381 391 2643 752 
Q 2906 1113 2906 1747 
Q 2906 2381 2643 2742 
Q 2381 3103 1925 3103 
Q 1469 3103 1208 2742 
Q 947 2381 947 1747 
z
" transform="scale(0.015625)"/>
      <path id="DejaVuSans-6d" d="M 3328 2828 
Q 3544 3216 3844 3400 
Q 4144 3584 4550 3584 
Q 5097 3584 5394 3201 
Q 5691 2819 5691 2113 
L 5691 0 
L 5113 0 
L 5113 2094 
Q 5113 2597 4934 2840 
Q 4756 3084 4391 3084 
Q 3944 3084 3684 2787 
Q 3425 2491 3425 1978 
L 3425 0 
L 2847 0 
L 2847 2094 
Q 2847 2600 2669 2842 
Q 2491 3084 2119 3084 
Q 1678 3084 1418 2786 
Q 1159 2488 1159 1978 
L 1159 0 
L 581 0 
L 581 3500 
L 1159 3500 
L 1159 2956 
Q 1356 3278 1631 3431 
Q 1906 3584 2284 3584 
Q 2666 3584 2933 3390 
Q 3200 3197 3328 2828 
z
" transform="scale(0.015625)"/>
      <path id="DejaVuSans-61" d="M 2194 1759 
Q 1497 1759 1228 1600 
Q 959 1441 959 1056 
Q 959 750 1161 570 
Q 1363 391 1709 391 
Q 2188 391 2477 730 
Q 2766 1069 2766 1631 
L 2766 1759 
L 2194 1759 
z
M 3341 1997 
L 3341 0 
L 2766 0 
L 2766 531 
Q 2569 213 2275 61 
Q 1981 -91 1556 -91 
Q 1019 -91 701 211 
Q 384 513 384 1019 
Q 384 1609 779 1909 
Q 1175 2209 1959 2209 
L 2766 2209 
L 2766 2266 
Q 2766 2663 2505 2880 
Q 2244 3097 1772 3097 
Q 1472 3097 1187 3025 
Q 903 2953 641 2809 
L 641 3341 
Q 956 3463 1253 3523 
Q 1550 3584 1831 3584 
Q 2591 3584 2966 3190 
Q 3341 2797 3341 1997 
z
" transform="scale(0.015625)"/>
      <path id="DejaVuSans-6c" d="M 603 4863 
L 1178 4863 
L 1178 0 
L 603 0 
L 603 4863 
z
" transform="scale(0.015625)"/>
      <path id="DejaVuSans-29" d="M 513 4856 
L 1013 4856 
Q 1481 4119 1714 3412 
Q 1947 2706 1947 2009 
Q 1947 1309 1714 600 
Q 1481 -109 1013 -844 
L 513 -844 
Q 928 -128 1133 580 
Q 1338 1288 1338 2009 
Q 1338 2731 1133 3434 
Q 928 4138 513 4856 
z
" transform="scale(0.015625)"/>
     </defs>
     <use xlink:href="#DejaVuSans-28"/>
     <use xlink:href="#DejaVuSans-73" x="39.013672"/>
     <use xlink:href="#DejaVuSans-72" x="91.113281"/>
     <use xlink:href="#DejaVuSans-63" x="129.976562"/>
     <use xlink:href="#DejaVuSans-5f" x="184.957031"/>
     <use xlink:href="#DejaVuSans-69" x="234.957031"/>
     <use xlink:href="#DejaVuSans-70" x="262.740234"/>
     <use xlink:href="#DejaVuSans-2c" x="326.216797"/>
     <use xlink:href="#DejaVuSans-20" x="358.003906"/>
     <use xlink:href="#DejaVuSans-64" x="389.791016"/>
     <use xlink:href="#DejaVuSans-73" x="453.267578"/>
     <use xlink:href="#DejaVuSans-74" x="505.367188"/>
     <use xlink:href="#DejaVuSans-5f" x="544.576172"/>
     <use xlink:href="#DejaVuSans-69" x="594.576172"/>
     <use xlink:href="#DejaVuSans-70" x="622.359375"/>
     <use xlink:href="#DejaVuSans-2c" x="685.835938"/>
     <use xlink:href="#DejaVuSans-20" x="717.623047"/>
     <use xlink:href="#DejaVuSans-64" x="749.410156"/>
     <use xlink:href="#DejaVuSans-73" x="812.886719"/>
     <use xlink:href="#DejaVuSans-74" x="864.986328"/>
     <use xlink:href="#DejaVuSans-5f" x="904.195312"/>
     <use xlink:href="#DejaVuSans-64" x="954.195312"/>
     <use xlink:href="#DejaVuSans-6f" x="1017.671875"/>
     <use xlink:href="#DejaVuSans-6d" x="1078.853516"/>
     <use xlink:href="#DejaVuSans-61" x="1176.265625"/>
     <use xlink:href="#DejaVuSans-69" x="1237.544922"/>
     <use xlink:href="#DejaVuSans-6e" x="1265.328125"/>
     <use xlink:href="#DejaVuSans-2c" x="1328.707031"/>
     <use xlink:href="#DejaVuSans-20" x="1360.494141"/>
     <use xlink:href="#DejaVuSans-70" x="1392.28125"/>
     <use xlink:href="#DejaVuSans-72" x="1455.757812"/>
     <use xlink:href="#DejaVuSans-6f" x="1494.621094"/>
     <use xlink:href="#DejaVuSans-74" x="1555.802734"/>
     <use xlink:href="#DejaVuSans-6f" x="1595.011719"/>
     <use xlink:href="#DejaVuSans-63" x="1656.193359"/>
     <use xlink:href="#DejaVuSans-6f" x="1711.173828"/>
     <use xlink:href="#DejaVuSans-6c" x="1772.355469"/>
     <use xlink:href="#DejaVuSans-2c" x="1800.138672"/>
     <use xlink:href="#DejaVuSans-20" x="1831.925781"/>
     <use xlink:href="#DejaVuSans-70" x="1863.712891"/>
     <use xlink:href="#DejaVuSans-6f" x="1927.189453"/>
     <use xlink:href="#DejaVuSans-72" x="1988.371094"/>
     <use xlink:href="#DejaVuSans-74" x="2029.484375"/>
     <use xlink:href="#DejaVuSans-73" x="2068.693359"/>
     <use xlink:href="#DejaVuSans-29" x="2120.792969"/>
    </g>
   </g>
   <g id="text_2">
    <!-- Process Info -->
    <g transform="translate(52.569906 143.552241) scale(0.082 -0.082)">
     <defs>
      <path id="DejaVuSans-50" d="M 1259 4147 
L 1259 2394 
L 2053 2394 
Q 2494 2394 2734 2622 
Q 2975 2850 2975 3272 
Q 2975 3691 2734 3919 
Q 2494 4147 2053 4147 
L 1259 4147 
z
M 628 4666 
L 2053 4666 
Q 2838 4666 3239 4311 
Q 3641 3956 3641 3272 
Q 3641 2581 3239 2228 
Q 2838 1875 2053 1875 
L 1259 1875 
L 1259 0 
L 628 0 
L 628 4666 
z
" transform="scale(0.015625)"/>
      <path id="DejaVuSans-49" d="M 628 4666 
L 1259 4666 
L 1259 0 
L 628 0 
L 628 4666 
z
" transform="scale(0.015625)"/>
      <path id="DejaVuSans-66" d="M 2375 4863 
L 2375 4384 
L 1825 4384 
Q 1516 4384 1395 4259 
Q 1275 4134 1275 3809 
L 1275 3500 
L 2222 3500 
L 2222 3053 
L 1275 3053 
L 1275 0 
L 697 0 
L 697 3053 
L 147 3053 
L 147 3500 
L 697 3500 
L 697 3744 
Q 697 4328 969 4595 
Q 1241 4863 1831 4863 
L 2375 4863 
z
" transform="scale(0.015625)"/>
     </defs>
     <use xlink:href="#DejaVuSans-50"/>
     <use xlink:href="#DejaVuSans-72" x="58.552734"/>
     <use xlink:href="#DejaVuSans-6f" x="97.416016"/>
     <use xlink:href="#DejaVuSans-63" x="158.597656"/>
     <use xlink:href="#DejaVuSans-65" x="213.578125"/>
     <use xlink:href="#DejaVuSans-73" x="275.101562"/>
     <use xlink:href="#DejaVuSans-73" x="327.201172"/>
     <use xlink:href="#DejaVuSans-20" x="379.300781"/>
     <use xlink:href="#DejaVuSans-49" x="411.087891"/>
     <use xlink:href="#DejaVuSans-6e" x="440.580078"/>
     <use xlink:href="#DejaVuSans-66" x="503.958984"/>
     <use xlink:href="#DejaVuSans-6f" x="539.164062"/>
    </g>
   </g>
   <g id="text_3">
    <!-- pid, process_name -->
    <g transform="translate(41.142586 195.582372) scale(0.077 -0.077)">
     <use xlink:href="#DejaVuSans-70"/>
     <use xlink:href="#DejaVuSans-69" x="63.476562"/>
     <use xlink:href="#DejaVuSans-64" x="91.259766"/>
     <use xlink:href="#DejaVuSans-2c" x="154.736328"/>
     <use xlink:href="#DejaVuSans-20" x="186.523438"/>
     <use xlink:href="#DejaVuSans-70" x="218.310547"/>
     <use xlink:href="#DejaVuSans-72" x="281.787109"/>
     <use xlink:href="#DejaVuSans-6f" x="320.650391"/>
     <use xlink:href="#DejaVuSans-63" x="381.832031"/>
     <use xlink:href="#DejaVuSans-65" x="436.8125"/>
     <use xlink:href="#DejaVuSans-73" x="498.335938"/>
     <use xlink:href="#DejaVuSans-73" x="550.435547"/>
     <use xlink:href="#DejaVuSans-5f" x="602.535156"/>
     <use xlink:href="#DejaVuSans-6e" x="652.535156"/>
     <use xlink:href="#DejaVuSans-61" x="715.914062"/>
     <use xlink:href="#DejaVuSans-6d" x="777.193359"/>
     <use xlink:href="#DejaVuSans-65" x="874.605469"/>
    </g>
    <!-- process_path, cmd -->
    <g transform="translate(40.954898 204.418844) scale(0.077 -0.077)">
     <defs>
      <path id="DejaVuSans-68" d="M 3513 2113 
L 3513 0 
L 2938 0 
L 2938 2094 
Q 2938 2591 2744 2837 
Q 2550 3084 2163 3084 
Q 1697 3084 1428 2787 
Q 1159 2491 1159 1978 
L 1159 0 
L 581 0 
L 581 4863 
L 1159 4863 
L 1159 2956 
Q 1366 3272 1645 3428 
Q 1925 3584 2291 3584 
Q 2894 3584 3203 3211 
Q 3513 2838 3513 2113 
z
" transform="scale(0.015625)"/>
     </defs>
     <use xlink:href="#DejaVuSans-70"/>
     <use xlink:href="#DejaVuSans-72" x="63.476562"/>
     <use xlink:href="#DejaVuSans-6f" x="102.339844"/>
     <use xlink:href="#DejaVuSans-63" x="163.521484"/>
     <use xlink:href="#DejaVuSans-65" x="218.501953"/>
     <use xlink:href="#DejaVuSans-73" x="280.025391"/>
     <use xlink:href="#DejaVuSans-73" x="332.125"/>
     <use xlink:href="#DejaVuSans-5f" x="384.224609"/>
     <use xlink:href="#DejaVuSans-70" x="434.224609"/>
     <use xlink:href="#DejaVuSans-61" x="497.701172"/>
     <use xlink:href="#DejaVuSans-74" x="558.980469"/>
     <use xlink:href="#DejaVuSans-68" x="598.189453"/>
     <use xlink:href="#DejaVuSans-2c" x="661.568359"/>
     <use xlink:href="#DejaVuSans-20" x="693.355469"/>
     <use xlink:href="#DejaVuSans-63" x="725.142578"/>
     <use xlink:href="#DejaVuSans-6d" x="780.123047"/>
     <use xlink:href="#DejaVuSans-64" x="877.535156"/>
    </g>
    <!-- cwd, username -->
    <g transform="translate(47.779023 213.255316) scale(0.077 -0.077)">
     <defs>
      <path id="DejaVuSans-75" d="M 544 1381 
L 544 3500 
L 1119 3500 
L 1119 1403 
Q 1119 906 1312 657 
Q 1506 409 1894 409 
Q 2359 409 2629 706 
Q 2900 1003 2900 1516 
L 2900 3500 
L 3475 3500 
L 3475 0 
L 2900 0 
L 2900 538 
Q 2691 219 2414 64 
Q 2138 -91 1772 -91 
Q 1169 -91 856 284 
Q 544 659 544 1381 
z
M 1991 3584 
L 1991 3584 
z
" transform="scale(0.015625)"/>
     </defs>
     <use xlink:href="#DejaVuSans-63"/>
     <use xlink:href="#DejaVuSans-77" x="54.980469"/>
     <use xlink:href="#DejaVuSans-64" x="136.767578"/>
     <use xlink:href="#DejaVuSans-2c" x="200.244141"/>
     <use xlink:href="#DejaVuSans-20" x="232.03125"/>
     <use xlink:href="#DejaVuSans-75" x="263.818359"/>
     <use xlink:href="#DejaVuSans-73" x="327.197266"/>
     <use xlink:href="#DejaVuSans-65" x="379.296875"/>
     <use xlink:href="#DejaVuSans-72" x="440.820312"/>
     <use xlink:href="#DejaVuSans-6e" x="480.183594"/>
     <use xlink:href="#DejaVuSans-61" x="543.5625"/>
     <use xlink:href="#DejaVuSans-6d" x="604.841797"/>
     <use xlink:href="#DejaVuSans-65" x="702.253906"/>
    </g>
   </g>
   <g id="patch_12">
    <path d="M 77.184 75.509071 
Q 77.184 100.621747 77.184 124.057372 
" style="fill: none; stroke: #000000; stroke-width: 1.5; stroke-linecap: round"/>
    <path d="M 79.184 120.057372 
L 77.184 124.057372 
L 75.184 120.057372 
" style="fill: none; stroke: #000000; stroke-width: 1.5; stroke-linecap: round"/>
   </g>
   <g id="text_4">
    <!-- Parent Lineage -->
    <g transform="translate(176.176219 143.552241) scale(0.082 -0.082)">
     <defs>
      <path id="DejaVuSans-4c" d="M 628 4666 
L 1259 4666 
L 1259 531 
L 3531 531 
L 3531 0 
L 628 0 
L 628 4666 
z
" transform="scale(0.015625)"/>
      <path id="DejaVuSans-67" d="M 2906 1791 
Q 2906 2416 2648 2759 
Q 2391 3103 1925 3103 
Q 1463 3103 1205 2759 
Q 947 2416 947 1791 
Q 947 1169 1205 825 
Q 1463 481 1925 481 
Q 2391 481 2648 825 
Q 2906 1169 2906 1791 
z
M 3481 434 
Q 3481 -459 3084 -895 
Q 2688 -1331 1869 -1331 
Q 1566 -1331 1297 -1286 
Q 1028 -1241 775 -1147 
L 775 -588 
Q 1028 -725 1275 -790 
Q 1522 -856 1778 -856 
Q 2344 -856 2625 -561 
Q 2906 -266 2906 331 
L 2906 616 
Q 2728 306 2450 153 
Q 2172 0 1784 0 
Q 1141 0 747 490 
Q 353 981 353 1791 
Q 353 2603 747 3093 
Q 1141 3584 1784 3584 
Q 2172 3584 2450 3431 
Q 2728 3278 2906 2969 
L 2906 3500 
L 3481 3500 
L 3481 434 
z
" transform="scale(0.015625)"/>
     </defs>
     <use xlink:href="#DejaVuSans-50"/>
     <use xlink:href="#DejaVuSans-61" x="55.802734"/>
     <use xlink:href="#DejaVuSans-72" x="117.082031"/>
     <use xlink:href="#DejaVuSans-65" x="155.945312"/>
     <use xlink:href="#DejaVuSans-6e" x="217.46875"/>
     <use xlink:href="#DejaVuSans-74" x="280.847656"/>
     <use xlink:href="#DejaVuSans-20" x="320.056641"/>
     <use xlink:href="#DejaVuSans-4c" x="351.84375"/>
     <use xlink:href="#DejaVuSans-69" x="407.556641"/>
     <use xlink:href="#DejaVuSans-6e" x="435.339844"/>
     <use xlink:href="#DejaVuSans-65" x="498.71875"/>
     <use xlink:href="#DejaVuSans-61" x="560.242188"/>
     <use xlink:href="#DejaVuSans-67" x="621.521484"/>
     <use xlink:href="#DejaVuSans-65" x="684.998047"/>
    </g>
   </g>
   <g id="text_5">
    <!-- parent_pid -->
    <g transform="translate(186.283352 186.638822) scale(0.077 -0.077)">
     <use xlink:href="#DejaVuSans-70"/>
     <use xlink:href="#DejaVuSans-61" x="63.476562"/>
     <use xlink:href="#DejaVuSans-72" x="124.755859"/>
     <use xlink:href="#DejaVuSans-65" x="163.619141"/>
     <use xlink:href="#DejaVuSans-6e" x="225.142578"/>
     <use xlink:href="#DejaVuSans-74" x="288.521484"/>
     <use xlink:href="#DejaVuSans-5f" x="327.730469"/>
     <use xlink:href="#DejaVuSans-70" x="377.730469"/>
     <use xlink:href="#DejaVuSans-69" x="441.207031"/>
     <use xlink:href="#DejaVuSans-64" x="468.990234"/>
    </g>
    <!-- parent_process_name -->
    <g transform="translate(164.604844 195.475294) scale(0.077 -0.077)">
     <use xlink:href="#DejaVuSans-70"/>
     <use xlink:href="#DejaVuSans-61" x="63.476562"/>
     <use xlink:href="#DejaVuSans-72" x="124.755859"/>
     <use xlink:href="#DejaVuSans-65" x="163.619141"/>
     <use xlink:href="#DejaVuSans-6e" x="225.142578"/>
     <use xlink:href="#DejaVuSans-74" x="288.521484"/>
     <use xlink:href="#DejaVuSans-5f" x="327.730469"/>
     <use xlink:href="#DejaVuSans-70" x="377.730469"/>
     <use xlink:href="#DejaVuSans-72" x="441.207031"/>
     <use xlink:href="#DejaVuSans-6f" x="480.070312"/>
     <use xlink:href="#DejaVuSans-63" x="541.251953"/>
     <use xlink:href="#DejaVuSans-65" x="596.232422"/>
     <use xlink:href="#DejaVuSans-73" x="657.755859"/>
     <use xlink:href="#DejaVuSans-73" x="709.855469"/>
     <use xlink:href="#DejaVuSans-5f" x="761.955078"/>
     <use xlink:href="#DejaVuSans-6e" x="811.955078"/>
     <use xlink:href="#DejaVuSans-61" x="875.333984"/>
     <use xlink:href="#DejaVuSans-6d" x="936.613281"/>
     <use xlink:href="#DejaVuSans-65" x="1034.025391"/>
    </g>
    <!-- parent_process_path -->
    <g transform="translate(166.770469 204.311766) scale(0.077 -0.077)">
     <use xlink:href="#DejaVuSans-70"/>
     <use xlink:href="#DejaVuSans-61" x="63.476562"/>
     <use xlink:href="#DejaVuSans-72" x="124.755859"/>
     <use xlink:href="#DejaVuSans-65" x="163.619141"/>
     <use xlink:href="#DejaVuSans-6e" x="225.142578"/>
     <use xlink:href="#DejaVuSans-74" x="288.521484"/>
     <use xlink:href="#DejaVuSans-5f" x="327.730469"/>
     <use xlink:href="#DejaVuSans-70" x="377.730469"/>
     <use xlink:href="#DejaVuSans-72" x="441.207031"/>
     <use xlink:href="#DejaVuSans-6f" x="480.070312"/>
     <use xlink:href="#DejaVuSans-63" x="541.251953"/>
     <use xlink:href="#DejaVuSans-65" x="596.232422"/>
     <use xlink:href="#DejaVuSans-73" x="657.755859"/>
     <use xlink:href="#DejaVuSans-73" x="709.855469"/>
     <use xlink:href="#DejaVuSans-5f" x="761.955078"/>
     <use xlink:href="#DejaVuSans-70" x="811.955078"/>
     <use xlink:href="#DejaVuSans-61" x="875.431641"/>
     <use xlink:href="#DejaVuSans-74" x="936.710938"/>
     <use xlink:href="#DejaVuSans-68" x="975.919922"/>
    </g>
    <!-- parent_cmd -->
    <g transform="translate(183.930039 213.148237) scale(0.077 -0.077)">
     <use xlink:href="#DejaVuSans-70"/>
     <use xlink:href="#DejaVuSans-61" x="63.476562"/>
     <use xlink:href="#DejaVuSans-72" x="124.755859"/>
     <use xlink:href="#DejaVuSans-65" x="163.619141"/>
     <use xlink:href="#DejaVuSans-6e" x="225.142578"/>
     <use xlink:href="#DejaVuSans-74" x="288.521484"/>
     <use xlink:href="#DejaVuSans-5f" x="327.730469"/>
     <use xlink:href="#DejaVuSans-63" x="377.730469"/>
     <use xlink:href="#DejaVuSans-6d" x="432.710938"/>
     <use xlink:href="#DejaVuSans-64" x="530.123047"/>
    </g>
    <!-- parent_script_path -->
    <g transform="translate(170.835227 221.984709) scale(0.077 -0.077)">
     <use xlink:href="#DejaVuSans-70"/>
     <use xlink:href="#DejaVuSans-61" x="63.476562"/>
     <use xlink:href="#DejaVuSans-72" x="124.755859"/>
     <use xlink:href="#DejaVuSans-65" x="163.619141"/>
     <use xlink:href="#DejaVuSans-6e" x="225.142578"/>
     <use xlink:href="#DejaVuSans-74" x="288.521484"/>
     <use xlink:href="#DejaVuSans-5f" x="327.730469"/>
     <use xlink:href="#DejaVuSans-73" x="377.730469"/>
     <use xlink:href="#DejaVuSans-63" x="429.830078"/>
     <use xlink:href="#DejaVuSans-72" x="484.810547"/>
     <use xlink:href="#DejaVuSans-69" x="525.923828"/>
     <use xlink:href="#DejaVuSans-70" x="553.707031"/>
     <use xlink:href="#DejaVuSans-74" x="617.183594"/>
     <use xlink:href="#DejaVuSans-5f" x="656.392578"/>
     <use xlink:href="#DejaVuSans-70" x="706.392578"/>
     <use xlink:href="#DejaVuSans-61" x="769.869141"/>
     <use xlink:href="#DejaVuSans-74" x="831.148438"/>
     <use xlink:href="#DejaVuSans-68" x="870.357422"/>
    </g>
   </g>
   <g id="patch_13">
    <path d="M 206.784 75.509071 
Q 206.784 100.621747 206.784 124.057372 
" style="fill: none; stroke: #000000; stroke-width: 1.5; stroke-linecap: round"/>
    <path d="M 208.784 120.057372 
L 206.784 124.057372 
L 204.784 120.057372 
" style="fill: none; stroke: #000000; stroke-width: 1.5; stroke-linecap: round"/>
   </g>
   <g id="text_6">
    <!-- Security Signals -->
    <g transform="translate(303.513531 143.552241) scale(0.082 -0.082)">
     <defs>
      <path id="DejaVuSans-79" d="M 2059 -325 
Q 1816 -950 1584 -1140 
Q 1353 -1331 966 -1331 
L 506 -1331 
L 506 -850 
L 844 -850 
Q 1081 -850 1212 -737 
Q 1344 -625 1503 -206 
L 1606 56 
L 191 3500 
L 800 3500 
L 1894 763 
L 2988 3500 
L 3597 3500 
L 2059 -325 
z
" transform="scale(0.015625)"/>
     </defs>
     <use xlink:href="#DejaVuSans-53"/>
     <use xlink:href="#DejaVuSans-65" x="63.476562"/>
     <use xlink:href="#DejaVuSans-63" x="125"/>
     <use xlink:href="#DejaVuSans-75" x="179.980469"/>
     <use xlink:href="#DejaVuSans-72" x="243.359375"/>
     <use xlink:href="#DejaVuSans-69" x="284.472656"/>
     <use xlink:href="#DejaVuSans-74" x="312.255859"/>
     <use xlink:href="#DejaVuSans-79" x="351.464844"/>
     <use xlink:href="#DejaVuSans-20" x="410.644531"/>
     <use xlink:href="#DejaVuSans-53" x="442.431641"/>
     <use xlink:href="#DejaVuSans-69" x="505.908203"/>
     <use xlink:href="#DejaVuSans-67" x="533.691406"/>
     <use xlink:href="#DejaVuSans-6e" x="597.167969"/>
     <use xlink:href="#DejaVuSans-61" x="660.546875"/>
     <use xlink:href="#DejaVuSans-6c" x="721.826172"/>
     <use xlink:href="#DejaVuSans-73" x="749.609375"/>
    </g>
   </g>
   <g id="text_7">
    <!-- open_files[] -->
    <g transform="translate(313.977 191.271214) scale(0.077 -0.077)">
     <defs>
      <path id="DejaVuSans-5b" d="M 550 4863 
L 1875 4863 
L 1875 4416 
L 1125 4416 
L 1125 -397 
L 1875 -397 
L 1875 -844 
L 550 -844 
L 550 4863 
z
" transform="scale(0.015625)"/>
      <path id="DejaVuSans-5d" d="M 1947 4863 
L 1947 -844 
L 622 -844 
L 622 -397 
L 1369 -397 
L 1369 4416 
L 622 4416 
L 622 4863 
L 1947 4863 
z
" transform="scale(0.015625)"/>
     </defs>
     <use xlink:href="#DejaVuSans-6f"/>
     <use xlink:href="#DejaVuSans-70" x="61.181641"/>
     <use xlink:href="#DejaVuSans-65" x="124.658203"/>
     <use xlink:href="#DejaVuSans-6e" x="186.181641"/>
     <use xlink:href="#DejaVuSans-5f" x="249.560547"/>
     <use xlink:href="#DejaVuSans-66" x="299.560547"/>
     <use xlink:href="#DejaVuSans-69" x="334.765625"/>
     <use xlink:href="#DejaVuSans-6c" x="362.548828"/>
     <use xlink:href="#DejaVuSans-65" x="390.332031"/>
     <use xlink:href="#DejaVuSans-73" x="451.855469"/>
     <use xlink:href="#DejaVuSans-5b" x="503.955078"/>
     <use xlink:href="#DejaVuSans-5d" x="542.96875"/>
    </g>
    <!-- (up to 100 paths) -->
    <g transform="translate(302.852906 200.107686) scale(0.077 -0.077)">
     <defs>
      <path id="DejaVuSans-31" d="M 794 531 
L 1825 531 
L 1825 4091 
L 703 3866 
L 703 4441 
L 1819 4666 
L 2450 4666 
L 2450 531 
L 3481 531 
L 3481 0 
L 794 0 
L 794 531 
z
" transform="scale(0.015625)"/>
      <path id="DejaVuSans-30" d="M 2034 4250 
Q 1547 4250 1301 3770 
Q 1056 3291 1056 2328 
Q 1056 1369 1301 889 
Q 1547 409 2034 409 
Q 2525 409 2770 889 
Q 3016 1369 3016 2328 
Q 3016 3291 2770 3770 
Q 2525 4250 2034 4250 
z
M 2034 4750 
Q 2819 4750 3233 4129 
Q 3647 3509 3647 2328 
Q 3647 1150 3233 529 
Q 2819 -91 2034 -91 
Q 1250 -91 836 529 
Q 422 1150 422 2328 
Q 422 3509 836 4129 
Q 1250 4750 2034 4750 
z
" transform="scale(0.015625)"/>
     </defs>
     <use xlink:href="#DejaVuSans-28"/>
     <use xlink:href="#DejaVuSans-75" x="39.013672"/>
     <use xlink:href="#DejaVuSans-70" x="102.392578"/>
     <use xlink:href="#DejaVuSans-20" x="165.869141"/>
     <use xlink:href="#DejaVuSans-74" x="197.65625"/>
     <use xlink:href="#DejaVuSans-6f" x="236.865234"/>
     <use xlink:href="#DejaVuSans-20" x="298.046875"/>
     <use xlink:href="#DejaVuSans-31" x="329.833984"/>
     <use xlink:href="#DejaVuSans-30" x="393.457031"/>
     <use xlink:href="#DejaVuSans-30" x="457.080078"/>
     <use xlink:href="#DejaVuSans-20" x="520.703125"/>
     <use xlink:href="#DejaVuSans-70" x="552.490234"/>
     <use xlink:href="#DejaVuSans-61" x="615.966797"/>
     <use xlink:href="#DejaVuSans-74" x="677.246094"/>
     <use xlink:href="#DejaVuSans-68" x="716.455078"/>
     <use xlink:href="#DejaVuSans-73" x="779.833984"/>
     <use xlink:href="#DejaVuSans-29" x="831.933594"/>
    </g>
    <!-- spawned_from_tmp -->
    <g transform="translate(298.662422 208.730002) scale(0.077 -0.077)">
     <use xlink:href="#DejaVuSans-73"/>
     <use xlink:href="#DejaVuSans-70" x="52.099609"/>
     <use xlink:href="#DejaVuSans-61" x="115.576172"/>
     <use xlink:href="#DejaVuSans-77" x="176.855469"/>
     <use xlink:href="#DejaVuSans-6e" x="258.642578"/>
     <use xlink:href="#DejaVuSans-65" x="322.021484"/>
     <use xlink:href="#DejaVuSans-64" x="383.544922"/>
     <use xlink:href="#DejaVuSans-5f" x="447.021484"/>
     <use xlink:href="#DejaVuSans-66" x="497.021484"/>
     <use xlink:href="#DejaVuSans-72" x="532.226562"/>
     <use xlink:href="#DejaVuSans-6f" x="571.089844"/>
     <use xlink:href="#DejaVuSans-6d" x="632.271484"/>
     <use xlink:href="#DejaVuSans-5f" x="729.683594"/>
     <use xlink:href="#DejaVuSans-74" x="779.683594"/>
     <use xlink:href="#DejaVuSans-6d" x="818.892578"/>
     <use xlink:href="#DejaVuSans-70" x="916.304688"/>
    </g>
    <!-- (bool) -->
    <g transform="translate(325.154633 217.566473) scale(0.077 -0.077)">
     <defs>
      <path id="DejaVuSans-62" d="M 3116 1747 
Q 3116 2381 2855 2742 
Q 2594 3103 2138 3103 
Q 1681 3103 1420 2742 
Q 1159 2381 1159 1747 
Q 1159 1113 1420 752 
Q 1681 391 2138 391 
Q 2594 391 2855 752 
Q 3116 1113 3116 1747 
z
M 1159 2969 
Q 1341 3281 1617 3432 
Q 1894 3584 2278 3584 
Q 2916 3584 3314 3078 
Q 3713 2572 3713 1747 
Q 3713 922 3314 415 
Q 2916 -91 2278 -91 
Q 1894 -91 1617 61 
Q 1341 213 1159 525 
L 1159 0 
L 581 0 
L 581 4863 
L 1159 4863 
L 1159 2969 
z
" transform="scale(0.015625)"/>
     </defs>
     <use xlink:href="#DejaVuSans-28"/>
     <use xlink:href="#DejaVuSans-62" x="39.013672"/>
     <use xlink:href="#DejaVuSans-6f" x="102.490234"/>
     <use xlink:href="#DejaVuSans-6f" x="163.671875"/>
     <use xlink:href="#DejaVuSans-6c" x="224.853516"/>
     <use xlink:href="#DejaVuSans-29" x="252.636719"/>
    </g>
   </g>
   <g id="patch_14">
    <path d="M 336.384 75.509071 
Q 336.384 100.621747 336.384 124.057372 
" style="fill: none; stroke: #000000; stroke-width: 1.5; stroke-linecap: round"/>
    <path d="M 338.384 120.057372 
L 336.384 124.057372 
L 334.384 120.057372 
" style="fill: none; stroke: #000000; stroke-width: 1.5; stroke-linecap: round"/>
   </g>
   <g id="text_8">
    <!-- Resource Metrics -->
    <g transform="translate(415.446188 143.552241) scale(0.082 -0.082)">
     <defs>
      <path id="DejaVuSans-52" d="M 2841 2188 
Q 3044 2119 3236 1894 
Q 3428 1669 3622 1275 
L 4263 0 
L 3584 0 
L 2988 1197 
Q 2756 1666 2539 1819 
Q 2322 1972 1947 1972 
L 1259 1972 
L 1259 0 
L 628 0 
L 628 4666 
L 2053 4666 
Q 2853 4666 3247 4331 
Q 3641 3997 3641 3322 
Q 3641 2881 3436 2590 
Q 3231 2300 2841 2188 
z
M 1259 4147 
L 1259 2491 
L 2053 2491 
Q 2509 2491 2742 2702 
Q 2975 2913 2975 3322 
Q 2975 3731 2742 3939 
Q 2509 4147 2053 4147 
L 1259 4147 
z
" transform="scale(0.015625)"/>
      <path id="DejaVuSans-4d" d="M 628 4666 
L 1569 4666 
L 2759 1491 
L 3956 4666 
L 4897 4666 
L 4897 0 
L 4281 0 
L 4281 4097 
L 3078 897 
L 2444 897 
L 1241 4097 
L 1241 0 
L 628 0 
L 628 4666 
z
" transform="scale(0.015625)"/>
     </defs>
     <use xlink:href="#DejaVuSans-52"/>
     <use xlink:href="#DejaVuSans-65" x="64.982422"/>
     <use xlink:href="#DejaVuSans-73" x="126.505859"/>
     <use xlink:href="#DejaVuSans-6f" x="178.605469"/>
     <use xlink:href="#DejaVuSans-75" x="239.787109"/>
     <use xlink:href="#DejaVuSans-72" x="303.166016"/>
     <use xlink:href="#DejaVuSans-63" x="342.029297"/>
     <use xlink:href="#DejaVuSans-65" x="397.009766"/>
     <use xlink:href="#DejaVuSans-20" x="458.533203"/>
     <use xlink:href="#DejaVuSans-4d" x="490.320312"/>
     <use xlink:href="#DejaVuSans-65" x="576.599609"/>
     <use xlink:href="#DejaVuSans-74" x="638.123047"/>
     <use xlink:href="#DejaVuSans-72" x="677.332031"/>
     <use xlink:href="#DejaVuSans-69" x="718.445312"/>
     <use xlink:href="#DejaVuSans-63" x="746.228516"/>
     <use xlink:href="#DejaVuSans-73" x="801.208984"/>
    </g>
   </g>
   <g id="text_9">
    <!-- memory, cpu_usage -->
    <g transform="translate(411.3545 190.94998) scale(0.077 -0.077)">
     <use xlink:href="#DejaVuSans-6d"/>
     <use xlink:href="#DejaVuSans-65" x="97.412109"/>
     <use xlink:href="#DejaVuSans-6d" x="158.935547"/>
     <use xlink:href="#DejaVuSans-6f" x="256.347656"/>
     <use xlink:href="#DejaVuSans-72" x="317.529297"/>
     <use xlink:href="#DejaVuSans-79" x="358.642578"/>
     <use xlink:href="#DejaVuSans-2c" x="417.822266"/>
     <use xlink:href="#DejaVuSans-20" x="449.609375"/>
     <use xlink:href="#DejaVuSans-63" x="481.396484"/>
     <use xlink:href="#DejaVuSans-70" x="536.376953"/>
     <use xlink:href="#DejaVuSans-75" x="599.853516"/>
     <use xlink:href="#DejaVuSans-5f" x="663.232422"/>
     <use xlink:href="#DejaVuSans-75" x="713.232422"/>
     <use xlink:href="#DejaVuSans-73" x="776.611328"/>
     <use xlink:href="#DejaVuSans-61" x="828.710938"/>
     <use xlink:href="#DejaVuSans-67" x="889.990234"/>
     <use xlink:href="#DejaVuSans-65" x="953.466797"/>
    </g>
    <!-- disk_usage (r/w) -->
    <g transform="translate(418.884258 199.786452) scale(0.077 -0.077)">
     <defs>
      <path id="DejaVuSans-2f" d="M 1625 4666 
L 2156 4666 
L 531 -594 
L 0 -594 
L 1625 4666 
z
" transform="scale(0.015625)"/>
     </defs>
     <use xlink:href="#DejaVuSans-64"/>
     <use xlink:href="#DejaVuSans-69" x="63.476562"/>
     <use xlink:href="#DejaVuSans-73" x="91.259766"/>
     <use xlink:href="#DejaVuSans-6b" x="143.359375"/>
     <use xlink:href="#DejaVuSans-5f" x="201.269531"/>
     <use xlink:href="#DejaVuSans-75" x="251.269531"/>
     <use xlink:href="#DejaVuSans-73" x="314.648438"/>
     <use xlink:href="#DejaVuSans-61" x="366.748047"/>
     <use xlink:href="#DejaVuSans-67" x="428.027344"/>
     <use xlink:href="#DejaVuSans-65" x="491.503906"/>
     <use xlink:href="#DejaVuSans-20" x="553.027344"/>
     <use xlink:href="#DejaVuSans-28" x="584.814453"/>
     <use xlink:href="#DejaVuSans-72" x="623.828125"/>
     <use xlink:href="#DejaVuSans-2f" x="664.941406"/>
     <use xlink:href="#DejaVuSans-77" x="698.632812"/>
     <use xlink:href="#DejaVuSans-29" x="780.419922"/>
    </g>
    <!-- start_time, run_time -->
    <g transform="translate(411.309984 208.622923) scale(0.077 -0.077)">
     <use xlink:href="#DejaVuSans-73"/>
     <use xlink:href="#DejaVuSans-74" x="52.099609"/>
     <use xlink:href="#DejaVuSans-61" x="91.308594"/>
     <use xlink:href="#DejaVuSans-72" x="152.587891"/>
     <use xlink:href="#DejaVuSans-74" x="193.701172"/>
     <use xlink:href="#DejaVuSans-5f" x="232.910156"/>
     <use xlink:href="#DejaVuSans-74" x="282.910156"/>
     <use xlink:href="#DejaVuSans-69" x="322.119141"/>
     <use xlink:href="#DejaVuSans-6d" x="349.902344"/>
     <use xlink:href="#DejaVuSans-65" x="447.314453"/>
     <use xlink:href="#DejaVuSans-2c" x="508.837891"/>
     <use xlink:href="#DejaVuSans-20" x="540.625"/>
     <use xlink:href="#DejaVuSans-72" x="572.412109"/>
     <use xlink:href="#DejaVuSans-75" x="613.525391"/>
     <use xlink:href="#DejaVuSans-6e" x="676.904297"/>
     <use xlink:href="#DejaVuSans-5f" x="740.283203"/>
     <use xlink:href="#DejaVuSans-74" x="790.283203"/>
     <use xlink:href="#DejaVuSans-69" x="829.492188"/>
     <use xlink:href="#DejaVuSans-6d" x="857.275391"/>
     <use xlink:href="#DejaVuSans-65" x="954.6875"/>
    </g>
    <!-- accumulated_cpu_time -->
    <g transform="translate(405.908555 217.459395) scale(0.077 -0.077)">
     <use xlink:href="#DejaVuSans-61"/>
     <use xlink:href="#DejaVuSans-63" x="61.279297"/>
     <use xlink:href="#DejaVuSans-63" x="116.259766"/>
     <use xlink:href="#DejaVuSans-75" x="171.240234"/>
     <use xlink:href="#DejaVuSans-6d" x="234.619141"/>
     <use xlink:href="#DejaVuSans-75" x="332.03125"/>
     <use xlink:href="#DejaVuSans-6c" x="395.410156"/>
     <use xlink:href="#DejaVuSans-61" x="423.193359"/>
     <use xlink:href="#DejaVuSans-74" x="484.472656"/>
     <use xlink:href="#DejaVuSans-65" x="523.681641"/>
     <use xlink:href="#DejaVuSans-64" x="585.205078"/>
     <use xlink:href="#DejaVuSans-5f" x="648.681641"/>
     <use xlink:href="#DejaVuSans-63" x="698.681641"/>
     <use xlink:href="#DejaVuSans-70" x="753.662109"/>
     <use xlink:href="#DejaVuSans-75" x="817.138672"/>
     <use xlink:href="#DejaVuSans-5f" x="880.517578"/>
     <use xlink:href="#DejaVuSans-74" x="930.517578"/>
     <use xlink:href="#DejaVuSans-69" x="969.726562"/>
     <use xlink:href="#DejaVuSans-6d" x="997.509766"/>
     <use xlink:href="#DejaVuSans-65" x="1094.921875"/>
    </g>
   </g>
   <g id="patch_15">
    <path d="M 450.432 75.509071 
Q 450.432 100.621747 450.432 124.057372 
" style="fill: none; stroke: #000000; stroke-width: 1.5; stroke-linecap: round"/>
    <path d="M 452.432 120.057372 
L 450.432 124.057372 
L 448.432 120.057372 
" style="fill: none; stroke: #000000; stroke-width: 1.5; stroke-linecap: round"/>
   </g>
   <g id="text_10">
    <!-- Safety Floor Rules (intent-independent, applied across all enrichment groups) -->
    <g style="fill: #e8833a" transform="translate(85.151172 283.633554) scale(0.082 -0.082)">
     <defs>
      <path id="DejaVuSans-Bold-53" d="M 3834 4519 
L 3834 3531 
Q 3450 3703 3084 3790 
Q 2719 3878 2394 3878 
Q 1963 3878 1756 3759 
Q 1550 3641 1550 3391 
Q 1550 3203 1689 3098 
Q 1828 2994 2194 2919 
L 2706 2816 
Q 3484 2659 3812 2340 
Q 4141 2022 4141 1434 
Q 4141 663 3683 286 
Q 3225 -91 2284 -91 
Q 1841 -91 1394 -6 
Q 947 78 500 244 
L 500 1259 
Q 947 1022 1364 901 
Q 1781 781 2169 781 
Q 2563 781 2772 912 
Q 2981 1044 2981 1288 
Q 2981 1506 2839 1625 
Q 2697 1744 2272 1838 
L 1806 1941 
Q 1106 2091 782 2419 
Q 459 2747 459 3303 
Q 459 4000 909 4375 
Q 1359 4750 2203 4750 
Q 2588 4750 2994 4692 
Q 3400 4634 3834 4519 
z
" transform="scale(0.015625)"/>
      <path id="DejaVuSans-Bold-61" d="M 2106 1575 
Q 1756 1575 1579 1456 
Q 1403 1338 1403 1106 
Q 1403 894 1545 773 
Q 1688 653 1941 653 
Q 2256 653 2472 879 
Q 2688 1106 2688 1447 
L 2688 1575 
L 2106 1575 
z
M 3816 1997 
L 3816 0 
L 2688 0 
L 2688 519 
Q 2463 200 2181 54 
Q 1900 -91 1497 -91 
Q 953 -91 614 226 
Q 275 544 275 1050 
Q 275 1666 698 1953 
Q 1122 2241 2028 2241 
L 2688 2241 
L 2688 2328 
Q 2688 2594 2478 2717 
Q 2269 2841 1825 2841 
Q 1466 2841 1156 2769 
Q 847 2697 581 2553 
L 581 3406 
Q 941 3494 1303 3539 
Q 1666 3584 2028 3584 
Q 2975 3584 3395 3211 
Q 3816 2838 3816 1997 
z
" transform="scale(0.015625)"/>
      <path id="DejaVuSans-Bold-66" d="M 2841 4863 
L 2841 4128 
L 2222 4128 
Q 1984 4128 1890 4042 
Q 1797 3956 1797 3744 
L 1797 3500 
L 2753 3500 
L 2753 2700 
L 1797 2700 
L 1797 0 
L 678 0 
L 678 2700 
L 122 2700 
L 122 3500 
L 678 3500 
L 678 3744 
Q 678 4316 997 4589 
Q 1316 4863 1984 4863 
L 2841 4863 
z
" transform="scale(0.015625)"/>
      <path id="DejaVuSans-Bold-65" d="M 4031 1759 
L 4031 1441 
L 1416 1441 
Q 1456 1047 1700 850 
Q 1944 653 2381 653 
Q 2734 653 3104 758 
Q 3475 863 3866 1075 
L 3866 213 
Q 3469 63 3072 -14 
Q 2675 -91 2278 -91 
Q 1328 -91 801 392 
Q 275 875 275 1747 
Q 275 2603 792 3093 
Q 1309 3584 2216 3584 
Q 3041 3584 3536 3087 
Q 4031 2591 4031 1759 
z
M 2881 2131 
Q 2881 2450 2695 2645 
Q 2509 2841 2209 2841 
Q 1884 2841 1681 2658 
Q 1478 2475 1428 2131 
L 2881 2131 
z
" transform="scale(0.015625)"/>
      <path id="DejaVuSans-Bold-74" d="M 1759 4494 
L 1759 3500 
L 2913 3500 
L 2913 2700 
L 1759 2700 
L 1759 1216 
Q 1759 972 1856 886 
Q 1953 800 2241 800 
L 2816 800 
L 2816 0 
L 1856 0 
Q 1194 0 917 276 
Q 641 553 641 1216 
L 641 2700 
L 84 2700 
L 84 3500 
L 641 3500 
L 641 4494 
L 1759 4494 
z
" transform="scale(0.015625)"/>
      <path id="DejaVuSans-Bold-79" d="M 78 3500 
L 1197 3500 
L 2138 1125 
L 2938 3500 
L 4056 3500 
L 2584 -331 
Q 2363 -916 2067 -1148 
Q 1772 -1381 1288 -1381 
L 641 -1381 
L 641 -647 
L 991 -647 
Q 1275 -647 1404 -556 
Q 1534 -466 1606 -231 
L 1638 -134 
L 78 3500 
z
" transform="scale(0.015625)"/>
      <path id="DejaVuSans-Bold-20" transform="scale(0.015625)"/>
      <path id="DejaVuSans-Bold-46" d="M 588 4666 
L 3834 4666 
L 3834 3756 
L 1791 3756 
L 1791 2888 
L 3713 2888 
L 3713 1978 
L 1791 1978 
L 1791 0 
L 588 0 
L 588 4666 
z
" transform="scale(0.015625)"/>
      <path id="DejaVuSans-Bold-6c" d="M 538 4863 
L 1656 4863 
L 1656 0 
L 538 0 
L 538 4863 
z
" transform="scale(0.015625)"/>
      <path id="DejaVuSans-Bold-6f" d="M 2203 2784 
Q 1831 2784 1636 2517 
Q 1441 2250 1441 1747 
Q 1441 1244 1636 976 
Q 1831 709 2203 709 
Q 2569 709 2762 976 
Q 2956 1244 2956 1747 
Q 2956 2250 2762 2517 
Q 2569 2784 2203 2784 
z
M 2203 3584 
Q 3106 3584 3614 3096 
Q 4122 2609 4122 1747 
Q 4122 884 3614 396 
Q 3106 -91 2203 -91 
Q 1297 -91 786 396 
Q 275 884 275 1747 
Q 275 2609 786 3096 
Q 1297 3584 2203 3584 
z
" transform="scale(0.015625)"/>
      <path id="DejaVuSans-Bold-72" d="M 3138 2547 
Q 2991 2616 2845 2648 
Q 2700 2681 2553 2681 
Q 2122 2681 1889 2404 
Q 1656 2128 1656 1613 
L 1656 0 
L 538 0 
L 538 3500 
L 1656 3500 
L 1656 2925 
Q 1872 3269 2151 3426 
Q 2431 3584 2822 3584 
Q 2878 3584 2943 3579 
Q 3009 3575 3134 3559 
L 3138 2547 
z
" transform="scale(0.015625)"/>
      <path id="DejaVuSans-Bold-52" d="M 2297 2597 
Q 2675 2597 2839 2737 
Q 3003 2878 3003 3200 
Q 3003 3519 2839 3656 
Q 2675 3794 2297 3794 
L 1791 3794 
L 1791 2597 
L 2297 2597 
z
M 1791 1766 
L 1791 0 
L 588 0 
L 588 4666 
L 2425 4666 
Q 3347 4666 3776 4356 
Q 4206 4047 4206 3378 
Q 4206 2916 3982 2619 
Q 3759 2322 3309 2181 
Q 3556 2125 3751 1926 
Q 3947 1728 4147 1325 
L 4800 0 
L 3519 0 
L 2950 1159 
Q 2778 1509 2601 1637 
Q 2425 1766 2131 1766 
L 1791 1766 
z
" transform="scale(0.015625)"/>
      <path id="DejaVuSans-Bold-75" d="M 500 1363 
L 500 3500 
L 1625 3500 
L 1625 3150 
Q 1625 2866 1622 2436 
Q 1619 2006 1619 1863 
Q 1619 1441 1641 1255 
Q 1663 1069 1716 984 
Q 1784 875 1895 815 
Q 2006 756 2150 756 
Q 2500 756 2700 1025 
Q 2900 1294 2900 1772 
L 2900 3500 
L 4019 3500 
L 4019 0 
L 2900 0 
L 2900 506 
Q 2647 200 2364 54 
Q 2081 -91 1741 -91 
Q 1134 -91 817 281 
Q 500 653 500 1363 
z
" transform="scale(0.015625)"/>
      <path id="DejaVuSans-Bold-73" d="M 3272 3391 
L 3272 2541 
Q 2913 2691 2578 2766 
Q 2244 2841 1947 2841 
Q 1628 2841 1473 2761 
Q 1319 2681 1319 2516 
Q 1319 2381 1436 2309 
Q 1553 2238 1856 2203 
L 2053 2175 
Q 2913 2066 3209 1816 
Q 3506 1566 3506 1031 
Q 3506 472 3093 190 
Q 2681 -91 1863 -91 
Q 1516 -91 1145 -36 
Q 775 19 384 128 
L 384 978 
Q 719 816 1070 734 
Q 1422 653 1784 653 
Q 2113 653 2278 743 
Q 2444 834 2444 1013 
Q 2444 1163 2330 1236 
Q 2216 1309 1875 1350 
L 1678 1375 
Q 931 1469 631 1722 
Q 331 1975 331 2491 
Q 331 3047 712 3315 
Q 1094 3584 1881 3584 
Q 2191 3584 2531 3537 
Q 2872 3491 3272 3391 
z
" transform="scale(0.015625)"/>
      <path id="DejaVuSans-Bold-28" d="M 2413 -844 
L 1484 -844 
Q 1006 -72 778 623 
Q 550 1319 550 2003 
Q 550 2688 779 3389 
Q 1009 4091 1484 4856 
L 2413 4856 
Q 2013 4116 1813 3408 
Q 1613 2700 1613 2009 
Q 1613 1319 1811 609 
Q 2009 -100 2413 -844 
z
" transform="scale(0.015625)"/>
      <path id="DejaVuSans-Bold-69" d="M 538 3500 
L 1656 3500 
L 1656 0 
L 538 0 
L 538 3500 
z
M 538 4863 
L 1656 4863 
L 1656 3950 
L 538 3950 
L 538 4863 
z
" transform="scale(0.015625)"/>
      <path id="DejaVuSans-Bold-6e" d="M 4056 2131 
L 4056 0 
L 2931 0 
L 2931 347 
L 2931 1631 
Q 2931 2084 2911 2256 
Q 2891 2428 2841 2509 
Q 2775 2619 2662 2680 
Q 2550 2741 2406 2741 
Q 2056 2741 1856 2470 
Q 1656 2200 1656 1722 
L 1656 0 
L 538 0 
L 538 3500 
L 1656 3500 
L 1656 2988 
Q 1909 3294 2193 3439 
Q 2478 3584 2822 3584 
Q 3428 3584 3742 3212 
Q 4056 2841 4056 2131 
z
" transform="scale(0.015625)"/>
      <path id="DejaVuSans-Bold-2d" d="M 347 2297 
L 2309 2297 
L 2309 1388 
L 347 1388 
L 347 2297 
z
" transform="scale(0.015625)"/>
      <path id="DejaVuSans-Bold-64" d="M 2919 2988 
L 2919 4863 
L 4044 4863 
L 4044 0 
L 2919 0 
L 2919 506 
Q 2688 197 2409 53 
Q 2131 -91 1766 -91 
Q 1119 -91 703 423 
Q 288 938 288 1747 
Q 288 2556 703 3070 
Q 1119 3584 1766 3584 
Q 2128 3584 2408 3439 
Q 2688 3294 2919 2988 
z
M 2181 722 
Q 2541 722 2730 984 
Q 2919 1247 2919 1747 
Q 2919 2247 2730 2509 
Q 2541 2772 2181 2772 
Q 1825 2772 1636 2509 
Q 1447 2247 1447 1747 
Q 1447 1247 1636 984 
Q 1825 722 2181 722 
z
" transform="scale(0.015625)"/>
      <path id="DejaVuSans-Bold-70" d="M 1656 506 
L 1656 -1331 
L 538 -1331 
L 538 3500 
L 1656 3500 
L 1656 2988 
Q 1888 3294 2169 3439 
Q 2450 3584 2816 3584 
Q 3463 3584 3878 3070 
Q 4294 2556 4294 1747 
Q 4294 938 3878 423 
Q 3463 -91 2816 -91 
Q 2450 -91 2169 54 
Q 1888 200 1656 506 
z
M 2400 2772 
Q 2041 2772 1848 2508 
Q 1656 2244 1656 1747 
Q 1656 1250 1848 986 
Q 2041 722 2400 722 
Q 2759 722 2948 984 
Q 3138 1247 3138 1747 
Q 3138 2247 2948 2509 
Q 2759 2772 2400 2772 
z
" transform="scale(0.015625)"/>
      <path id="DejaVuSans-Bold-2c" d="M 653 1209 
L 1778 1209 
L 1778 256 
L 1006 -909 
L 341 -909 
L 653 256 
L 653 1209 
z
" transform="scale(0.015625)"/>
      <path id="DejaVuSans-Bold-63" d="M 3366 3391 
L 3366 2478 
Q 3138 2634 2908 2709 
Q 2678 2784 2431 2784 
Q 1963 2784 1702 2511 
Q 1441 2238 1441 1747 
Q 1441 1256 1702 982 
Q 1963 709 2431 709 
Q 2694 709 2930 787 
Q 3166 866 3366 1019 
L 3366 103 
Q 3103 6 2833 -42 
Q 2563 -91 2291 -91 
Q 1344 -91 809 395 
Q 275 881 275 1747 
Q 275 2613 809 3098 
Q 1344 3584 2291 3584 
Q 2566 3584 2833 3536 
Q 3100 3488 3366 3391 
z
" transform="scale(0.015625)"/>
      <path id="DejaVuSans-Bold-68" d="M 4056 2131 
L 4056 0 
L 2931 0 
L 2931 347 
L 2931 1625 
Q 2931 2084 2911 2256 
Q 2891 2428 2841 2509 
Q 2775 2619 2662 2680 
Q 2550 2741 2406 2741 
Q 2056 2741 1856 2470 
Q 1656 2200 1656 1722 
L 1656 0 
L 538 0 
L 538 4863 
L 1656 4863 
L 1656 2988 
Q 1909 3294 2193 3439 
Q 2478 3584 2822 3584 
Q 3428 3584 3742 3212 
Q 4056 2841 4056 2131 
z
" transform="scale(0.015625)"/>
      <path id="DejaVuSans-Bold-6d" d="M 3781 2919 
Q 3994 3244 4286 3414 
Q 4578 3584 4928 3584 
Q 5531 3584 5847 3212 
Q 6163 2841 6163 2131 
L 6163 0 
L 5038 0 
L 5038 1825 
Q 5041 1866 5042 1909 
Q 5044 1953 5044 2034 
Q 5044 2406 4934 2573 
Q 4825 2741 4581 2741 
Q 4263 2741 4089 2478 
Q 3916 2216 3909 1719 
L 3909 0 
L 2784 0 
L 2784 1825 
Q 2784 2406 2684 2573 
Q 2584 2741 2328 2741 
Q 2006 2741 1831 2477 
Q 1656 2213 1656 1722 
L 1656 0 
L 531 0 
L 531 3500 
L 1656 3500 
L 1656 2988 
Q 1863 3284 2130 3434 
Q 2397 3584 2719 3584 
Q 3081 3584 3359 3409 
Q 3638 3234 3781 2919 
z
" transform="scale(0.015625)"/>
      <path id="DejaVuSans-Bold-67" d="M 2919 594 
Q 2688 288 2409 144 
Q 2131 0 1766 0 
Q 1125 0 706 504 
Q 288 1009 288 1791 
Q 288 2575 706 3076 
Q 1125 3578 1766 3578 
Q 2131 3578 2409 3434 
Q 2688 3291 2919 2981 
L 2919 3500 
L 4044 3500 
L 4044 353 
Q 4044 -491 3511 -936 
Q 2978 -1381 1966 -1381 
Q 1638 -1381 1331 -1331 
Q 1025 -1281 716 -1178 
L 716 -306 
Q 1009 -475 1290 -558 
Q 1572 -641 1856 -641 
Q 2406 -641 2662 -400 
Q 2919 -159 2919 353 
L 2919 594 
z
M 2181 2772 
Q 1834 2772 1640 2515 
Q 1447 2259 1447 1791 
Q 1447 1309 1634 1061 
Q 1822 813 2181 813 
Q 2531 813 2725 1069 
Q 2919 1325 2919 1791 
Q 2919 2259 2725 2515 
Q 2531 2772 2181 2772 
z
" transform="scale(0.015625)"/>
      <path id="DejaVuSans-Bold-29" d="M 513 -844 
Q 913 -100 1113 609 
Q 1313 1319 1313 2009 
Q 1313 2700 1113 3408 
Q 913 4116 513 4856 
L 1441 4856 
Q 1916 4091 2145 3389 
Q 2375 2688 2375 2003 
Q 2375 1319 2147 623 
Q 1919 -72 1441 -844 
L 513 -844 
z
" transform="scale(0.015625)"/>
     </defs>
     <use xlink:href="#DejaVuSans-Bold-53"/>
     <use xlink:href="#DejaVuSans-Bold-61" x="72.021484"/>
     <use xlink:href="#DejaVuSans-Bold-66" x="139.501953"/>
     <use xlink:href="#DejaVuSans-Bold-65" x="183.007812"/>
     <use xlink:href="#DejaVuSans-Bold-74" x="250.830078"/>
     <use xlink:href="#DejaVuSans-Bold-79" x="298.632812"/>
     <use xlink:href="#DejaVuSans-Bold-20" x="363.818359"/>
     <use xlink:href="#DejaVuSans-Bold-46" x="398.632812"/>
     <use xlink:href="#DejaVuSans-Bold-6c" x="466.943359"/>
     <use xlink:href="#DejaVuSans-Bold-6f" x="501.220703"/>
     <use xlink:href="#DejaVuSans-Bold-6f" x="569.921875"/>
     <use xlink:href="#DejaVuSans-Bold-72" x="638.623047"/>
     <use xlink:href="#DejaVuSans-Bold-20" x="687.939453"/>
     <use xlink:href="#DejaVuSans-Bold-52" x="722.753906"/>
     <use xlink:href="#DejaVuSans-Bold-75" x="799.755859"/>
     <use xlink:href="#DejaVuSans-Bold-6c" x="870.947266"/>
     <use xlink:href="#DejaVuSans-Bold-65" x="905.224609"/>
     <use xlink:href="#DejaVuSans-Bold-73" x="973.046875"/>
     <use xlink:href="#DejaVuSans-Bold-20" x="1032.568359"/>
     <use xlink:href="#DejaVuSans-Bold-28" x="1067.382812"/>
     <use xlink:href="#DejaVuSans-Bold-69" x="1113.085938"/>
     <use xlink:href="#DejaVuSans-Bold-6e" x="1147.363281"/>
     <use xlink:href="#DejaVuSans-Bold-74" x="1218.554688"/>
     <use xlink:href="#DejaVuSans-Bold-65" x="1266.357422"/>
     <use xlink:href="#DejaVuSans-Bold-6e" x="1334.179688"/>
     <use xlink:href="#DejaVuSans-Bold-74" x="1405.371094"/>
     <use xlink:href="#DejaVuSans-Bold-2d" x="1453.173828"/>
     <use xlink:href="#DejaVuSans-Bold-69" x="1494.677734"/>
     <use xlink:href="#DejaVuSans-Bold-6e" x="1528.955078"/>
     <use xlink:href="#DejaVuSans-Bold-64" x="1600.146484"/>
     <use xlink:href="#DejaVuSans-Bold-65" x="1671.728516"/>
     <use xlink:href="#DejaVuSans-Bold-70" x="1739.550781"/>
     <use xlink:href="#DejaVuSans-Bold-65" x="1811.132812"/>
     <use xlink:href="#DejaVuSans-Bold-6e" x="1878.955078"/>
     <use xlink:href="#DejaVuSans-Bold-64" x="1950.146484"/>
     <use xlink:href="#DejaVuSans-Bold-65" x="2021.728516"/>
     <use xlink:href="#DejaVuSans-Bold-6e" x="2089.550781"/>
     <use xlink:href="#DejaVuSans-Bold-74" x="2160.742188"/>
     <use xlink:href="#DejaVuSans-Bold-2c" x="2208.544922"/>
     <use xlink:href="#DejaVuSans-Bold-20" x="2246.533203"/>
     <use xlink:href="#DejaVuSans-Bold-61" x="2281.347656"/>
     <use xlink:href="#DejaVuSans-Bold-70" x="2348.828125"/>
     <use xlink:href="#DejaVuSans-Bold-70" x="2420.410156"/>
     <use xlink:href="#DejaVuSans-Bold-6c" x="2491.992188"/>
     <use xlink:href="#DejaVuSans-Bold-69" x="2526.269531"/>
     <use xlink:href="#DejaVuSans-Bold-65" x="2560.546875"/>
     <use xlink:href="#DejaVuSans-Bold-64" x="2628.369141"/>
     <use xlink:href="#DejaVuSans-Bold-20" x="2699.951172"/>
     <use xlink:href="#DejaVuSans-Bold-61" x="2734.765625"/>
     <use xlink:href="#DejaVuSans-Bold-63" x="2802.246094"/>
     <use xlink:href="#DejaVuSans-Bold-72" x="2861.523438"/>
     <use xlink:href="#DejaVuSans-Bold-6f" x="2910.839844"/>
     <use xlink:href="#DejaVuSans-Bold-73" x="2979.541016"/>
     <use xlink:href="#DejaVuSans-Bold-73" x="3039.0625"/>
     <use xlink:href="#DejaVuSans-Bold-20" x="3098.583984"/>
     <use xlink:href="#DejaVuSans-Bold-61" x="3133.398438"/>
     <use xlink:href="#DejaVuSans-Bold-6c" x="3200.878906"/>
     <use xlink:href="#DejaVuSans-Bold-6c" x="3235.15625"/>
     <use xlink:href="#DejaVuSans-Bold-20" x="3269.433594"/>
     <use xlink:href="#DejaVuSans-Bold-65" x="3304.248047"/>
     <use xlink:href="#DejaVuSans-Bold-6e" x="3372.070312"/>
     <use xlink:href="#DejaVuSans-Bold-72" x="3443.261719"/>
     <use xlink:href="#DejaVuSans-Bold-69" x="3492.578125"/>
     <use xlink:href="#DejaVuSans-Bold-63" x="3526.855469"/>
     <use xlink:href="#DejaVuSans-Bold-68" x="3586.132812"/>
     <use xlink:href="#DejaVuSans-Bold-6d" x="3657.324219"/>
     <use xlink:href="#DejaVuSans-Bold-65" x="3761.523438"/>
     <use xlink:href="#DejaVuSans-Bold-6e" x="3829.345703"/>
     <use xlink:href="#DejaVuSans-Bold-74" x="3900.537109"/>
     <use xlink:href="#DejaVuSans-Bold-20" x="3948.339844"/>
     <use xlink:href="#DejaVuSans-Bold-67" x="3983.154297"/>
     <use xlink:href="#DejaVuSans-Bold-72" x="4054.736328"/>
     <use xlink:href="#DejaVuSans-Bold-6f" x="4104.052734"/>
     <use xlink:href="#DejaVuSans-Bold-75" x="4172.753906"/>
     <use xlink:href="#DejaVuSans-Bold-70" x="4243.945312"/>
     <use xlink:href="#DejaVuSans-Bold-73" x="4315.527344"/>
     <use xlink:href="#DejaVuSans-Bold-29" x="4375.048828"/>
    </g>
   </g>
   <g id="text_11">
    <!-- spawned_from_tmp == true  →  DIVERGENCE -->
    <g style="fill: #6c757d" transform="translate(178.498484 297.391367) scale(0.077 -0.077)">
     <defs>
      <path id="DejaVuSans-3d" d="M 678 2906 
L 4684 2906 
L 4684 2381 
L 678 2381 
L 678 2906 
z
M 678 1631 
L 4684 1631 
L 4684 1100 
L 678 1100 
L 678 1631 
z
" transform="scale(0.015625)"/>
      <path id="DejaVuSans-2192" d="M 5050 2147 
L 5050 1866 
L 3822 638 
L 3447 1013 
L 4175 1741 
L 366 1741 
L 366 2272 
L 4175 2272 
L 3447 3000 
L 3822 3375 
L 5050 2147 
z
" transform="scale(0.015625)"/>
      <path id="DejaVuSans-44" d="M 1259 4147 
L 1259 519 
L 2022 519 
Q 2988 519 3436 956 
Q 3884 1394 3884 2338 
Q 3884 3275 3436 3711 
Q 2988 4147 2022 4147 
L 1259 4147 
z
M 628 4666 
L 1925 4666 
Q 3281 4666 3915 4102 
Q 4550 3538 4550 2338 
Q 4550 1131 3912 565 
Q 3275 0 1925 0 
L 628 0 
L 628 4666 
z
" transform="scale(0.015625)"/>
      <path id="DejaVuSans-56" d="M 1831 0 
L 50 4666 
L 709 4666 
L 2188 738 
L 3669 4666 
L 4325 4666 
L 2547 0 
L 1831 0 
z
" transform="scale(0.015625)"/>
      <path id="DejaVuSans-45" d="M 628 4666 
L 3578 4666 
L 3578 4134 
L 1259 4134 
L 1259 2753 
L 3481 2753 
L 3481 2222 
L 1259 2222 
L 1259 531 
L 3634 531 
L 3634 0 
L 628 0 
L 628 4666 
z
" transform="scale(0.015625)"/>
      <path id="DejaVuSans-47" d="M 3809 666 
L 3809 1919 
L 2778 1919 
L 2778 2438 
L 4434 2438 
L 4434 434 
Q 4069 175 3628 42 
Q 3188 -91 2688 -91 
Q 1594 -91 976 548 
Q 359 1188 359 2328 
Q 359 3472 976 4111 
Q 1594 4750 2688 4750 
Q 3144 4750 3555 4637 
Q 3966 4525 4313 4306 
L 4313 3634 
Q 3963 3931 3569 4081 
Q 3175 4231 2741 4231 
Q 1884 4231 1454 3753 
Q 1025 3275 1025 2328 
Q 1025 1384 1454 906 
Q 1884 428 2741 428 
Q 3075 428 3337 486 
Q 3600 544 3809 666 
z
" transform="scale(0.015625)"/>
      <path id="DejaVuSans-43" d="M 4122 4306 
L 4122 3641 
Q 3803 3938 3442 4084 
Q 3081 4231 2675 4231 
Q 1875 4231 1450 3742 
Q 1025 3253 1025 2328 
Q 1025 1406 1450 917 
Q 1875 428 2675 428 
Q 3081 428 3442 575 
Q 3803 722 4122 1019 
L 4122 359 
Q 3791 134 3420 21 
Q 3050 -91 2638 -91 
Q 1578 -91 968 557 
Q 359 1206 359 2328 
Q 359 3453 968 4101 
Q 1578 4750 2638 4750 
Q 3056 4750 3426 4639 
Q 3797 4528 4122 4306 
z
" transform="scale(0.015625)"/>
     </defs>
     <use xlink:href="#DejaVuSans-73"/>
     <use xlink:href="#DejaVuSans-70" x="52.099609"/>
     <use xlink:href="#DejaVuSans-61" x="115.576172"/>
     <use xlink:href="#DejaVuSans-77" x="176.855469"/>
     <use xlink:href="#DejaVuSans-6e" x="258.642578"/>
     <use xlink:href="#DejaVuSans-65" x="322.021484"/>
     <use xlink:href="#DejaVuSans-64" x="383.544922"/>
     <use xlink:href="#DejaVuSans-5f" x="447.021484"/>
     <use xlink:href="#DejaVuSans-66" x="497.021484"/>
     <use xlink:href="#DejaVuSans-72" x="532.226562"/>
     <use xlink:href="#DejaVuSans-6f" x="571.089844"/>
     <use xlink:href="#DejaVuSans-6d" x="632.271484"/>
     <use xlink:href="#DejaVuSans-5f" x="729.683594"/>
     <use xlink:href="#DejaVuSans-74" x="779.683594"/>
     <use xlink:href="#DejaVuSans-6d" x="818.892578"/>
     <use xlink:href="#DejaVuSans-70" x="916.304688"/>
     <use xlink:href="#DejaVuSans-20" x="979.78125"/>
     <use xlink:href="#DejaVuSans-3d" x="1011.568359"/>
     <use xlink:href="#DejaVuSans-3d" x="1095.357422"/>
     <use xlink:href="#DejaVuSans-20" x="1179.146484"/>
     <use xlink:href="#DejaVuSans-74" x="1210.933594"/>
     <use xlink:href="#DejaVuSans-72" x="1250.142578"/>
     <use xlink:href="#DejaVuSans-75" x="1291.255859"/>
     <use xlink:href="#DejaVuSans-65" x="1354.634766"/>
     <use xlink:href="#DejaVuSans-20" x="1416.158203"/>
     <use xlink:href="#DejaVuSans-20" x="1447.945312"/>
     <use xlink:href="#DejaVuSans-2192" x="1479.732422"/>
     <use xlink:href="#DejaVuSans-20" x="1563.521484"/>
     <use xlink:href="#DejaVuSans-20" x="1595.308594"/>
     <use xlink:href="#DejaVuSans-44" x="1627.095703"/>
     <use xlink:href="#DejaVuSans-49" x="1704.097656"/>
     <use xlink:href="#DejaVuSans-56" x="1733.589844"/>
     <use xlink:href="#DejaVuSans-45" x="1801.998047"/>
     <use xlink:href="#DejaVuSans-52" x="1865.181641"/>
     <use xlink:href="#DejaVuSans-47" x="1934.664062"/>
     <use xlink:href="#DejaVuSans-45" x="2012.154297"/>
     <use xlink:href="#DejaVuSans-4e" x="2075.337891"/>
     <use xlink:href="#DejaVuSans-43" x="2150.142578"/>
     <use xlink:href="#DejaVuSans-45" x="2219.966797"/>
    </g>
    <!-- open_files ∩ credential_paths ≠ ∅  AND  network active  →  DIVERGENCE -->
    <g style="fill: #6c757d" transform="translate(125.465938 306.227839) scale(0.077 -0.077)">
     <defs>
      <path id="DejaVuSans-2229" d="M 825 1850 
Q 825 2775 1208 3240 
Q 1591 3706 2344 3706 
Q 3094 3706 3476 3240 
Q 3859 2775 3859 1850 
L 3859 0 
L 3322 0 
L 3322 1772 
Q 3322 2534 3090 2864 
Q 2859 3194 2344 3194 
Q 1825 3194 1594 2864 
Q 1363 2534 1363 1772 
L 1363 0 
L 825 0 
L 825 1850 
z
" transform="scale(0.015625)"/>
      <path id="DejaVuSans-2260" d="M 678 2906 
L 3091 2906 
L 3891 3891 
L 4281 3572 
L 3738 2906 
L 4684 2906 
L 4684 2381 
L 3309 2381 
L 2700 1631 
L 4684 1631 
L 4684 1100 
L 2266 1100 
L 1459 122 
L 1069 441 
L 1613 1100 
L 678 1100 
L 678 1631 
L 2047 1631 
L 2656 2381 
L 678 2381 
L 678 2906 
z
" transform="scale(0.015625)"/>
      <path id="DejaVuSans-2205" d="M 4025 4184 
L 4303 4528 
L 4634 4528 
L 4234 4038 
Q 4563 3778 4778 3397 
Q 5091 2841 5091 2241 
Q 5091 1641 4778 1086 
Q 4466 531 3916 234 
Q 3366 -63 2788 -63 
Q 2203 -63 1653 234 
Q 1478 328 1328 450 
L 934 -38 
L 606 -38 
L 1138 619 
Q 941 825 794 1088 
Q 484 1641 484 2241 
Q 484 2841 793 3395 
Q 1103 3950 1653 4247 
Q 2203 4544 2788 4544 
Q 3366 4544 3916 4247 
Q 3972 4216 4025 4184 
z
M 1400 944 
L 3763 3859 
L 3719 3884 
Q 3266 4128 2788 4128 
Q 2306 4128 1851 3883 
Q 1397 3638 1141 3178 
Q 888 2725 884 2241 
Q 888 1756 1141 1303 
Q 1253 1103 1400 944 
z
M 3975 3716 
L 1591 772 
Q 1713 675 1853 600 
Q 2306 353 2788 353 
Q 3266 353 3719 598 
Q 4172 844 4431 1303 
Q 4688 1756 4691 2241 
Q 4688 2725 4431 3178 
Q 4250 3500 3975 3716 
z
" transform="scale(0.015625)"/>
      <path id="DejaVuSans-41" d="M 2188 4044 
L 1331 1722 
L 3047 1722 
L 2188 4044 
z
M 1831 4666 
L 2547 4666 
L 4325 0 
L 3669 0 
L 3244 1197 
L 1141 1197 
L 716 0 
L 50 0 
L 1831 4666 
z
" transform="scale(0.015625)"/>
      <path id="DejaVuSans-76" d="M 191 3500 
L 800 3500 
L 1894 563 
L 2988 3500 
L 3597 3500 
L 2284 0 
L 1503 0 
L 191 3500 
z
" transform="scale(0.015625)"/>
     </defs>
     <use xlink:href="#DejaVuSans-6f"/>
     <use xlink:href="#DejaVuSans-70" x="61.181641"/>
     <use xlink:href="#DejaVuSans-65" x="124.658203"/>
     <use xlink:href="#DejaVuSans-6e" x="186.181641"/>
     <use xlink:href="#DejaVuSans-5f" x="249.560547"/>
     <use xlink:href="#DejaVuSans-66" x="299.560547"/>
     <use xlink:href="#DejaVuSans-69" x="334.765625"/>
     <use xlink:href="#DejaVuSans-6c" x="362.548828"/>
     <use xlink:href="#DejaVuSans-65" x="390.332031"/>
     <use xlink:href="#DejaVuSans-73" x="451.855469"/>
     <use xlink:href="#DejaVuSans-20" x="503.955078"/>
     <use xlink:href="#DejaVuSans-2229" x="535.742188"/>
     <use xlink:href="#DejaVuSans-20" x="608.935547"/>
     <use xlink:href="#DejaVuSans-63" x="640.722656"/>
     <use xlink:href="#DejaVuSans-72" x="695.703125"/>
     <use xlink:href="#DejaVuSans-65" x="734.566406"/>
     <use xlink:href="#DejaVuSans-64" x="796.089844"/>
     <use xlink:href="#DejaVuSans-65" x="859.566406"/>
     <use xlink:href="#DejaVuSans-6e" x="921.089844"/>
     <use xlink:href="#DejaVuSans-74" x="984.46875"/>
     <use xlink:href="#DejaVuSans-69" x="1023.677734"/>
     <use xlink:href="#DejaVuSans-61" x="1051.460938"/>
     <use xlink:href="#DejaVuSans-6c" x="1112.740234"/>
     <use xlink:href="#DejaVuSans-5f" x="1140.523438"/>
     <use xlink:href="#DejaVuSans-70" x="1190.523438"/>
     <use xlink:href="#DejaVuSans-61" x="1254"/>
     <use xlink:href="#DejaVuSans-74" x="1315.279297"/>
     <use xlink:href="#DejaVuSans-68" x="1354.488281"/>
     <use xlink:href="#DejaVuSans-73" x="1417.867188"/>
     <use xlink:href="#DejaVuSans-20" x="1469.966797"/>
     <use xlink:href="#DejaVuSans-2260" x="1501.753906"/>
     <use xlink:href="#DejaVuSans-20" x="1585.542969"/>
     <use xlink:href="#DejaVuSans-2205" x="1617.330078"/>
     <use xlink:href="#DejaVuSans-20" x="1704.439453"/>
     <use xlink:href="#DejaVuSans-20" x="1736.226562"/>
     <use xlink:href="#DejaVuSans-41" x="1768.013672"/>
     <use xlink:href="#DejaVuSans-4e" x="1836.421875"/>
     <use xlink:href="#DejaVuSans-44" x="1911.226562"/>
     <use xlink:href="#DejaVuSans-20" x="1988.228516"/>
     <use xlink:href="#DejaVuSans-20" x="2020.015625"/>
     <use xlink:href="#DejaVuSans-6e" x="2051.802734"/>
     <use xlink:href="#DejaVuSans-65" x="2115.181641"/>
     <use xlink:href="#DejaVuSans-74" x="2176.705078"/>
     <use xlink:href="#DejaVuSans-77" x="2215.914062"/>
     <use xlink:href="#DejaVuSans-6f" x="2297.701172"/>
     <use xlink:href="#DejaVuSans-72" x="2358.882812"/>
     <use xlink:href="#DejaVuSans-6b" x="2399.996094"/>
     <use xlink:href="#DejaVuSans-20" x="2457.90625"/>
     <use xlink:href="#DejaVuSans-61" x="2489.693359"/>
     <use xlink:href="#DejaVuSans-63" x="2550.972656"/>
     <use xlink:href="#DejaVuSans-74" x="2605.953125"/>
     <use xlink:href="#DejaVuSans-69" x="2645.162109"/>
     <use xlink:href="#DejaVuSans-76" x="2672.945312"/>
     <use xlink:href="#DejaVuSans-65" x="2732.125"/>
     <use xlink:href="#DejaVuSans-20" x="2793.648438"/>
     <use xlink:href="#DejaVuSans-20" x="2825.435547"/>
     <use xlink:href="#DejaVuSans-2192" x="2857.222656"/>
     <use xlink:href="#DejaVuSans-20" x="2941.011719"/>
     <use xlink:href="#DejaVuSans-20" x="2972.798828"/>
     <use xlink:href="#DejaVuSans-44" x="3004.585938"/>
     <use xlink:href="#DejaVuSans-49" x="3081.587891"/>
     <use xlink:href="#DejaVuSans-56" x="3111.080078"/>
     <use xlink:href="#DejaVuSans-45" x="3179.488281"/>
     <use xlink:href="#DejaVuSans-52" x="3242.671875"/>
     <use xlink:href="#DejaVuSans-47" x="3312.154297"/>
     <use xlink:href="#DejaVuSans-45" x="3389.644531"/>
     <use xlink:href="#DejaVuSans-4e" x="3452.828125"/>
     <use xlink:href="#DejaVuSans-43" x="3527.632812"/>
     <use xlink:href="#DejaVuSans-45" x="3597.457031"/>
    </g>
   </g>
   <g id="text_12">
    <!-- Layer-7 Session Enrichment Schema -->
    <g transform="translate(143.667187 16.318125) scale(0.12 -0.12)">
     <defs>
      <path id="DejaVuSans-Bold-4c" d="M 588 4666 
L 1791 4666 
L 1791 909 
L 3903 909 
L 3903 0 
L 588 0 
L 588 4666 
z
" transform="scale(0.015625)"/>
      <path id="DejaVuSans-Bold-37" d="M 428 4666 
L 3944 4666 
L 3944 3988 
L 2125 0 
L 953 0 
L 2675 3781 
L 428 3781 
L 428 4666 
z
" transform="scale(0.015625)"/>
      <path id="DejaVuSans-Bold-45" d="M 588 4666 
L 3834 4666 
L 3834 3756 
L 1791 3756 
L 1791 2888 
L 3713 2888 
L 3713 1978 
L 1791 1978 
L 1791 909 
L 3903 909 
L 3903 0 
L 588 0 
L 588 4666 
z
" transform="scale(0.015625)"/>
     </defs>
     <use xlink:href="#DejaVuSans-Bold-4c"/>
     <use xlink:href="#DejaVuSans-Bold-61" x="63.720703"/>
     <use xlink:href="#DejaVuSans-Bold-79" x="128.076172"/>
     <use xlink:href="#DejaVuSans-Bold-65" x="193.261719"/>
     <use xlink:href="#DejaVuSans-Bold-72" x="261.083984"/>
     <use xlink:href="#DejaVuSans-Bold-2d" x="310.400391"/>
     <use xlink:href="#DejaVuSans-Bold-37" x="351.904297"/>
     <use xlink:href="#DejaVuSans-Bold-20" x="421.484375"/>
     <use xlink:href="#DejaVuSans-Bold-53" x="456.298828"/>
     <use xlink:href="#DejaVuSans-Bold-65" x="528.320312"/>
     <use xlink:href="#DejaVuSans-Bold-73" x="596.142578"/>
     <use xlink:href="#DejaVuSans-Bold-73" x="655.664062"/>
     <use xlink:href="#DejaVuSans-Bold-69" x="715.185547"/>
     <use xlink:href="#DejaVuSans-Bold-6f" x="749.462891"/>
     <use xlink:href="#DejaVuSans-Bold-6e" x="818.164062"/>
     <use xlink:href="#DejaVuSans-Bold-20" x="889.355469"/>
     <use xlink:href="#DejaVuSans-Bold-45" x="924.169922"/>
     <use xlink:href="#DejaVuSans-Bold-6e" x="992.480469"/>
     <use xlink:href="#DejaVuSans-Bold-72" x="1063.671875"/>
     <use xlink:href="#DejaVuSans-Bold-69" x="1112.988281"/>
     <use xlink:href="#DejaVuSans-Bold-63" x="1147.265625"/>
     <use xlink:href="#DejaVuSans-Bold-68" x="1206.542969"/>
     <use xlink:href="#DejaVuSans-Bold-6d" x="1277.734375"/>
     <use xlink:href="#DejaVuSans-Bold-65" x="1381.933594"/>
     <use xlink:href="#DejaVuSans-Bold-6e" x="1449.755859"/>
     <use xlink:href="#DejaVuSans-Bold-74" x="1520.947266"/>
     <use xlink:href="#DejaVuSans-Bold-20" x="1568.75"/>
     <use xlink:href="#DejaVuSans-Bold-53" x="1603.564453"/>
     <use xlink:href="#DejaVuSans-Bold-63" x="1675.585938"/>
     <use xlink:href="#DejaVuSans-Bold-68" x="1734.863281"/>
     <use xlink:href="#DejaVuSans-Bold-65" x="1806.054688"/>
     <use xlink:href="#DejaVuSans-Bold-6d" x="1873.876953"/>
     <use xlink:href="#DejaVuSans-Bold-61" x="1978.076172"/>
    </g>
   </g>
  </g>
 </g>
 <defs>
  <clipPath id="p1df717a6fc">
   <rect x="7.2" y="28.318125" width="518.4" height="316.32"/>
  </clipPath>
 </defs>
</svg>
