<?xml version="1.0" encoding="utf-8" standalone="no"?>
<!DOCTYPE svg PUBLIC "-//W3C//DTD SVG 1.1//EN"
  "http://www.w3.org/Graphics/SVG/1.1/DTD/svg11.dtd">
<svg xmlns:xlink="http://www.w3.org/1999/xlink" width="496.8pt" height="459.838125pt" viewBox="0 0 496.8 459.838125" xmlns="http://www.w3.org/2000/svg" version="1.1">
 <metadata>
  <rdf:RDF xmlns:dc="http://purl.org/dc/elements/1.1/" xmlns:cc="http://creativecommons.org/ns#" xmlns:rdf="http://www.w3.org/1999/02/22-rdf-syntax-ns#">
   <cc:Work>
    <dc:type rdf:resource="http://purl.org/dc/dcmitype/StillImage"/>
    <dc:date>2026-03-13T09:13:31.595385</dc:date>
    <dc:format>image/svg+xml</dc:format>
    <dc:creator>
     <cc:Agent>
      <dc:title>Matplotlib v3.9.2, https://matplotlib.org/</dc:title>
     </cc:Agent>
    </dc:creator>
   </cc:Work>
  </rdf:RDF>
 </metadata>
 <defs>
  <style type="text/css">*{stroke-linejoin: round; stroke-linecap: butt}</style>
 </defs>
 <g id="figure_1">
  <g id="patch_1">
   <path d="M 0 459.838125 
L 496.8 459.838125 
L 496.8 0 
L 0 0 
z
" style="fill: #ffffff"/>
  </g>
  <g id="axes_1">
   <g id="patch_2">
    <path d="M 16.848 421.992792 
L 479.952 421.992792 
Q 487.188 421.992792 487.188 414.920792 
L 487.188 47.176792 
Q 487.188 40.104792 479.952 40.104792 
L 16.848 40.104792 
Q 9.612 40.104792 9.612 47.176792 
L 9.612 414.920792 
Q 9.612 421.992792 16.848 421.992792 
z
" clip-path="url(#pb35b29c00f)" style="fill: #fafafa; stroke-dasharray: 5.55,2.4; stroke-dashoffset: 0; stroke: #6c757d; stroke-width: 1.5; stroke-linejoin: miter"/>
   </g>
   <g id="patch_3">
    <path d="M 161.568 95.266392 
L 335.232 95.266392 
Q 336.1968 95.266392 336.1968 94.323458 
L 336.1968 70.750125 
Q 336.1968 69.807192 335.232 69.807192 
L 161.568 69.807192 
Q 160.6032 69.807192 160.6032 70.750125 
L 160.6032 94.323458 
Q 160.6032 95.266392 161.568 95.266392 
z
" clip-path="url(#pb35b29c00f)" style="fill: #d6e9f8; stroke: #3b7dd8; stroke-width: 1.2; stroke-linejoin: miter"/>
   </g>
   <g id="patch_4">
    <path d="M 122.976 142.413058 
L 373.824 142.413058 
Q 374.7888 142.413058 374.7888 141.470125 
L 374.7888 115.539458 
Q 374.7888 114.596525 373.824 114.596525 
L 122.976 114.596525 
Q 122.0112 114.596525 122.0112 115.539458 
L 122.0112 141.470125 
Q 122.0112 142.413058 122.976 142.413058 
z
" clip-path="url(#pb35b29c00f)" style="fill: #fffde7; stroke: #e8833a; stroke-width: 1.2; stroke-linejoin: miter"/>
   </g>
   <g id="patch_5">
    <path d="M 393.12 144.770392 
L 470.304 144.770392 
Q 471.2688 144.770392 471.2688 143.827458 
L 471.2688 115.539458 
Q 471.2688 114.596525 470.304 114.596525 
L 393.12 114.596525 
Q 392.1552 114.596525 392.1552 115.539458 
L 392.1552 143.827458 
Q 392.1552 144.770392 393.12 144.770392 
z
" clip-path="url(#pb35b29c00f)" style="fill: #f8d7da; stroke: #d9534f; stroke-width: 1.2; stroke-linejoin: miter"/>
   </g>
   <g id="patch_6">
    <path d="M 127.8 198.989058 
L 369 198.989058 
Q 369.9648 198.989058 369.9648 198.046125 
L 369.9648 172.115458 
Q 369.9648 171.172525 369 171.172525 
L 127.8 171.172525 
Q 126.8352 171.172525 126.8352 172.115458 
L 126.8352 198.046125 
Q 126.8352 198.989058 127.8 198.989058 
z
" clip-path="url(#pb35b29c00f)" style="fill: #fffde7; stroke: #e8833a; stroke-width: 1.2; stroke-linejoin: miter"/>
   </g>
   <g id="patch_7">
    <path d="M 393.12 201.346392 
L 470.304 201.346392 
Q 471.2688 201.346392 471.2688 200.403458 
L 471.2688 172.115458 
Q 471.2688 171.172525 470.304 171.172525 
L 393.12 171.172525 
Q 392.1552 171.172525 392.1552 172.115458 
L 392.1552 200.403458 
Q 392.1552 201.346392 393.12 201.346392 
z
" clip-path="url(#pb35b29c00f)" style="fill: #f8d7da; stroke: #d9534f; stroke-width: 1.2; stroke-linejoin: miter"/>
   </g>
   <g id="patch_8">
    <path d="M 122.976 255.565058 
L 373.824 255.565058 
Q 374.7888 255.565058 374.7888 254.622125 
L 374.7888 228.691458 
Q 374.7888 227.748525 373.824 227.748525 
L 122.976 227.748525 
Q 122.0112 227.748525 122.0112 228.691458 
L 122.0112 254.622125 
Q 122.0112 255.565058 122.976 255.565058 
z
" clip-path="url(#pb35b29c00f)" style="fill: #fffde7; stroke: #e8833a; stroke-width: 1.2; stroke-linejoin: miter"/>
   </g>
   <g id="patch_9">
    <path d="M 393.12 257.922392 
L 470.304 257.922392 
Q 471.2688 257.922392 471.2688 256.979458 
L 471.2688 228.691458 
Q 471.2688 227.748525 470.304 227.748525 
L 393.12 227.748525 
Q 392.1552 227.748525 392.1552 228.691458 
L 392.1552 256.979458 
Q 392.1552 257.922392 393.12 257.922392 
z
" clip-path="url(#pb35b29c00f)" style="fill: #eceff1; stroke: #6c757d; stroke-width: 1.2; stroke-linejoin: miter"/>
   </g>
   <g id="patch_10">
    <path d="M 151.92 312.141058 
L 344.88 312.141058 
Q 345.8448 312.141058 345.8448 311.198125 
L 345.8448 285.267458 
Q 345.8448 284.324525 344.88 284.324525 
L 151.92 284.324525 
Q 150.9552 284.324525 150.9552 285.267458 
L 150.9552 311.198125 
Q 150.9552 312.141058 151.92 312.141058 
z
" clip-path="url(#pb35b29c00f)" style="fill: #e8f5e9; stroke: #4caf50; stroke-width: 1.2; stroke-linejoin: miter"/>
   </g>
   <g id="patch_11">
    <path d="M 176.04 354.573058 
L 320.76 354.573058 
Q 321.7248 354.573058 321.7248 353.630125 
L 321.7248 330.056792 
Q 321.7248 329.113858 320.76 329.113858 
L 176.04 329.113858 
Q 175.0752 329.113858 175.0752 330.056792 
L 175.0752 353.630125 
Q 175.0752 354.573058 176.04 354.573058 
z
" clip-path="url(#pb35b29c00f)" style="fill: #d5ecd5; stroke: #4caf50; stroke-width: 1.2; stroke-linejoin: miter"/>
   </g>
   <g id="text_1">
    <!-- Settling Window Loop (progressive re-checks until stable) -->
    <g style="fill: #6c757d" transform="translate(130.004172 58.963458) scale(0.082 -0.082)">
     <defs>
      <path id="DejaVuSans-Oblique-53" d="M 3859 4513 
L 3738 3897 
Q 3422 4066 3111 4152 
Q 2800 4238 2509 4238 
Q 1944 4238 1609 3991 
Q 1275 3744 1275 3334 
Q 1275 3109 1398 2989 
Q 1522 2869 2034 2731 
L 2413 2638 
Q 3053 2472 3303 2217 
Q 3553 1963 3553 1503 
Q 3553 797 2998 353 
Q 2444 -91 1538 -91 
Q 1166 -91 791 -17 
Q 416 56 38 206 
L 166 856 
Q 513 641 861 531 
Q 1209 422 1556 422 
Q 2147 422 2503 684 
Q 2859 947 2859 1369 
Q 2859 1650 2717 1795 
Q 2575 1941 2106 2059 
L 1728 2156 
Q 1081 2325 845 2545 
Q 609 2766 609 3163 
Q 609 3859 1145 4304 
Q 1681 4750 2541 4750 
Q 2875 4750 3203 4690 
Q 3531 4631 3859 4513 
z
" transform="scale(0.015625)"/>
      <path id="DejaVuSans-Oblique-65" d="M 3078 2063 
Q 3088 2113 3092 2166 
Q 3097 2219 3097 2272 
Q 3097 2653 2873 2875 
Q 2650 3097 2266 3097 
Q 1838 3097 1509 2826 
Q 1181 2556 1013 2059 
L 3078 2063 
z
M 3578 1613 
L 903 1613 
Q 884 1494 878 1425 
Q 872 1356 872 1306 
Q 872 872 1139 634 
Q 1406 397 1894 397 
Q 2269 397 2603 481 
Q 2938 566 3225 728 
L 3116 159 
Q 2806 34 2476 -28 
Q 2147 -91 1806 -91 
Q 1078 -91 686 257 
Q 294 606 294 1247 
Q 294 1794 489 2264 
Q 684 2734 1063 3103 
Q 1306 3334 1642 3459 
Q 1978 3584 2356 3584 
Q 2950 3584 3301 3228 
Q 3653 2872 3653 2272 
Q 3653 2128 3634 1964 
Q 3616 1800 3578 1613 
z
" transform="scale(0.015625)"/>
      <path id="DejaVuSans-Oblique-74" d="M 2706 3500 
L 2619 3053 
L 1472 3053 
L 1100 1153 
Q 1081 1047 1072 975 
Q 1063 903 1063 863 
Q 1063 663 1183 572 
Q 1303 481 1569 481 
L 2150 481 
L 2053 0 
L 1503 0 
Q 991 0 739 200 
Q 488 400 488 806 
Q 488 878 497 964 
Q 506 1050 525 1153 
L 897 3053 
L 409 3053 
L 500 3500 
L 978 3500 
L 1172 4494 
L 1747 4494 
L 1556 3500 
L 2706 3500 
z
" transform="scale(0.015625)"/>
      <path id="DejaVuSans-Oblique-6c" d="M 1172 4863 
L 1747 4863 
L 800 0 
L 225 0 
L 1172 4863 
z
" transform="scale(0.015625)"/>
      <path id="DejaVuSans-Oblique-69" d="M 1172 4863 
L 1747 4863 
L 1606 4134 
L 1031 4134 
L 1172 4863 
z
M 909 3500 
L 1484 3500 
L 800 0 
L 225 0 
L 909 3500 
z
" transform="scale(0.015625)"/>
      <path id="DejaVuSans-Oblique-6e" d="M 3566 2113 
L 3156 0 
L 2578 0 
L 2988 2091 
Q 3016 2238 3031 2350 
Q 3047 2463 3047 2528 
Q 3047 2791 2881 2937 
Q 2716 3084 2419 3084 
Q 1956 3084 1622 2776 
Q 1288 2469 1184 1941 
L 800 0 
L 225 0 
L 903 3500 
L 1478 3500 
L 1363 2950 
Q 1603 3253 1940 3418 
Q 2278 3584 2650 3584 
Q 3113 3584 3367 3334 
Q 3622 3084 3622 2631 
Q 3622 2519 3608 2391 
Q 3594 2263 3566 2113 
z
" transform="scale(0.015625)"/>
      <path id="DejaVuSans-Oblique-67" d="M 3816 3500 
L 3219 434 
Q 3047 -456 2561 -893 
Q 2075 -1331 1253 -1331 
Q 950 -1331 690 -1286 
Q 431 -1241 206 -1147 
L 313 -588 
Q 525 -725 762 -790 
Q 1000 -856 1269 -856 
Q 1816 -856 2167 -557 
Q 2519 -259 2631 300 
L 2681 563 
Q 2441 288 2122 144 
Q 1803 0 1434 0 
Q 903 0 598 351 
Q 294 703 294 1319 
Q 294 1803 478 2267 
Q 663 2731 997 3091 
Q 1219 3328 1514 3456 
Q 1809 3584 2131 3584 
Q 2484 3584 2746 3420 
Q 3009 3256 3138 2956 
L 3238 3500 
L 3816 3500 
z
M 2950 2216 
Q 2950 2641 2750 2872 
Q 2550 3103 2181 3103 
Q 1953 3103 1747 3012 
Q 1541 2922 1394 2759 
Q 1156 2491 1023 2127 
Q 891 1763 891 1375 
Q 891 944 1092 712 
Q 1294 481 1672 481 
Q 2219 481 2584 976 
Q 2950 1472 2950 2216 
z
" transform="scale(0.015625)"/>
      <path id="DejaVuSans-Oblique-20" transform="scale(0.015625)"/>
      <path id="DejaVuSans-Oblique-57" d="M 616 4666 
L 1228 4666 
L 1453 697 
L 3213 4666 
L 3916 4666 
L 4147 697 
L 5888 4666 
L 6528 4666 
L 4453 0 
L 3659 0 
L 3444 3891 
L 1697 0 
L 903 0 
L 616 4666 
z
" transform="scale(0.015625)"/>
      <path id="DejaVuSans-Oblique-64" d="M 2675 525 
Q 2444 222 2128 65 
Q 1813 -91 1428 -91 
Q 903 -91 598 267 
Q 294 625 294 1247 
Q 294 1766 478 2236 
Q 663 2706 1013 3078 
Q 1244 3325 1534 3454 
Q 1825 3584 2144 3584 
Q 2481 3584 2739 3421 
Q 2997 3259 3138 2956 
L 3513 4863 
L 4091 4863 
L 3144 0 
L 2566 0 
L 2675 525 
z
M 891 1350 
Q 891 897 1095 644 
Q 1300 391 1663 391 
Q 1931 391 2161 520 
Q 2391 650 2566 903 
Q 2750 1166 2856 1509 
Q 2963 1853 2963 2188 
Q 2963 2622 2758 2865 
Q 2553 3109 2194 3109 
Q 1922 3109 1687 2981 
Q 1453 2853 1288 2613 
Q 1106 2353 998 2009 
Q 891 1666 891 1350 
z
" transform="scale(0.015625)"/>
      <path id="DejaVuSans-Oblique-6f" d="M 1625 -91 
Q 1009 -91 651 289 
Q 294 669 294 1325 
Q 294 1706 417 2101 
Q 541 2497 738 2766 
Q 1047 3184 1428 3384 
Q 1809 3584 2291 3584 
Q 2888 3584 3255 3212 
Q 3622 2841 3622 2241 
Q 3622 1825 3500 1412 
Q 3378 1000 3181 728 
Q 2875 309 2494 109 
Q 2113 -91 1625 -91 
z
M 891 1344 
Q 891 869 1089 633 
Q 1288 397 1691 397 
Q 2269 397 2648 901 
Q 3028 1406 3028 2181 
Q 3028 2634 2825 2865 
Q 2622 3097 2228 3097 
Q 1903 3097 1650 2945 
Q 1397 2794 1197 2484 
Q 1050 2253 970 1956 
Q 891 1659 891 1344 
z
" transform="scale(0.015625)"/>
      <path id="DejaVuSans-Oblique-77" d="M 544 3500 
L 1113 3500 
L 1259 684 
L 2566 3500 
L 3231 3500 
L 3425 684 
L 4666 3500 
L 5241 3500 
L 3641 0 
L 2969 0 
L 2797 2900 
L 1459 0 
L 781 0 
L 544 3500 
z
" transform="scale(0.015625)"/>
      <path id="DejaVuSans-Oblique-4c" d="M 1075 4666 
L 1709 4666 
L 909 525 
L 3181 525 
L 3078 0 
L 172 0 
L 1075 4666 
z
" transform="scale(0.015625)"/>
      <path id="DejaVuSans-Oblique-70" d="M 3175 2156 
Q 3175 2616 2975 2859 
Q 2775 3103 2400 3103 
Q 2144 3103 1911 2972 
Q 1678 2841 1497 2591 
Q 1319 2344 1212 1994 
Q 1106 1644 1106 1300 
Q 1106 863 1306 627 
Q 1506 391 1875 391 
Q 2147 391 2380 519 
Q 2613 647 2778 891 
Q 2956 1147 3065 1494 
Q 3175 1841 3175 2156 
z
M 1394 2969 
Q 1625 3272 1939 3428 
Q 2253 3584 2638 3584 
Q 3175 3584 3472 3232 
Q 3769 2881 3769 2247 
Q 3769 1728 3584 1258 
Q 3400 788 3053 416 
Q 2822 169 2531 39 
Q 2241 -91 1919 -91 
Q 1547 -91 1294 64 
Q 1041 219 916 525 
L 556 -1331 
L -19 -1331 
L 922 3500 
L 1497 3500 
L 1394 2969 
z
" transform="scale(0.015625)"/>
      <path id="DejaVuSans-Oblique-28" d="M 2731 4856 
Q 1903 3822 1495 2892 
Q 1088 1963 1088 1100 
Q 1088 606 1206 120 
Q 1325 -366 1563 -844 
L 1063 -844 
Q 775 -306 634 201 
Q 494 709 494 1197 
Q 494 2125 923 3036 
Q 1353 3947 2222 4856 
L 2731 4856 
z
" transform="scale(0.015625)"/>
      <path id="DejaVuSans-Oblique-72" d="M 2853 2969 
Q 2766 3016 2653 3041 
Q 2541 3066 2413 3066 
Q 1953 3066 1609 2717 
Q 1266 2369 1153 1784 
L 800 0 
L 225 0 
L 909 3500 
L 1484 3500 
L 1375 2956 
Q 1603 3259 1920 3421 
Q 2238 3584 2597 3584 
Q 2691 3584 2781 3573 
Q 2872 3563 2963 3538 
L 2853 2969 
z
" transform="scale(0.015625)"/>
      <path id="DejaVuSans-Oblique-73" d="M 3200 3397 
L 3091 2853 
Q 2863 2978 2609 3040 
Q 2356 3103 2088 3103 
Q 1634 3103 1373 2948 
Q 1113 2794 1113 2528 
Q 1113 2219 1719 2053 
Q 1766 2041 1788 2034 
L 1972 1978 
Q 2547 1819 2739 1644 
Q 2931 1469 2931 1166 
Q 2931 609 2489 259 
Q 2047 -91 1331 -91 
Q 1053 -91 747 -37 
Q 441 16 72 128 
L 184 722 
Q 500 559 806 475 
Q 1113 391 1394 391 
Q 1816 391 2080 572 
Q 2344 753 2344 1031 
Q 2344 1331 1650 1516 
L 1591 1531 
L 1394 1581 
Q 956 1697 753 1886 
Q 550 2075 550 2369 
Q 550 2928 970 3256 
Q 1391 3584 2113 3584 
Q 2397 3584 2667 3537 
Q 2938 3491 3200 3397 
z
" transform="scale(0.015625)"/>
      <path id="DejaVuSans-Oblique-76" d="M 459 3500 
L 1069 3500 
L 1581 525 
L 3256 3500 
L 3866 3500 
L 1875 0 
L 1100 0 
L 459 3500 
z
" transform="scale(0.015625)"/>
      <path id="DejaVuSans-Oblique-2d" d="M 391 2009 
L 2075 2009 
L 1978 1497 
L 288 1497 
L 391 2009 
z
" transform="scale(0.015625)"/>
      <path id="DejaVuSans-Oblique-63" d="M 3431 3366 
L 3316 2797 
Q 3109 2947 2876 3022 
Q 2644 3097 2394 3097 
Q 2119 3097 1870 3000 
Q 1622 2903 1453 2725 
Q 1184 2453 1037 2087 
Q 891 1722 891 1331 
Q 891 859 1127 628 
Q 1363 397 1844 397 
Q 2081 397 2348 469 
Q 2616 541 2906 684 
L 2797 116 
Q 2547 13 2283 -39 
Q 2019 -91 1741 -91 
Q 1044 -91 669 257 
Q 294 606 294 1253 
Q 294 1797 489 2255 
Q 684 2713 1069 3078 
Q 1331 3328 1684 3456 
Q 2038 3584 2456 3584 
Q 2700 3584 2940 3529 
Q 3181 3475 3431 3366 
z
" transform="scale(0.015625)"/>
      <path id="DejaVuSans-Oblique-68" d="M 3566 2113 
L 3156 0 
L 2578 0 
L 2988 2091 
Q 3016 2238 3031 2350 
Q 3047 2463 3047 2528 
Q 3047 2791 2881 2937 
Q 2716 3084 2419 3084 
Q 1956 3084 1617 2771 
Q 1278 2459 1178 1941 
L 800 0 
L 225 0 
L 1172 4863 
L 1747 4863 
L 1375 2950 
Q 1594 3244 1934 3414 
Q 2275 3584 2650 3584 
Q 3113 3584 3367 3334 
Q 3622 3084 3622 2631 
Q 3622 2519 3608 2391 
Q 3594 2263 3566 2113 
z
" transform="scale(0.015625)"/>
      <path id="DejaVuSans-Oblique-6b" d="M 1172 4863 
L 1747 4863 
L 1197 2028 
L 3169 3500 
L 3916 3500 
L 1716 1825 
L 3322 0 
L 2625 0 
L 1131 1709 
L 800 0 
L 225 0 
L 1172 4863 
z
" transform="scale(0.015625)"/>
      <path id="DejaVuSans-Oblique-75" d="M 428 1388 
L 838 3500 
L 1416 3500 
L 1006 1409 
Q 975 1256 961 1147 
Q 947 1038 947 966 
Q 947 700 1109 554 
Q 1272 409 1569 409 
Q 2031 409 2368 721 
Q 2706 1034 2809 1563 
L 3194 3500 
L 3769 3500 
L 3091 0 
L 2516 0 
L 2631 550 
Q 2388 244 2052 76 
Q 1716 -91 1338 -91 
Q 878 -91 622 161 
Q 366 413 366 863 
Q 366 956 381 1097 
Q 397 1238 428 1388 
z
" transform="scale(0.015625)"/>
      <path id="DejaVuSans-Oblique-61" d="M 3438 1997 
L 3047 0 
L 2472 0 
L 2578 531 
Q 2325 219 2001 64 
Q 1678 -91 1281 -91 
Q 834 -91 548 182 
Q 263 456 263 884 
Q 263 1497 752 1853 
Q 1241 2209 2100 2209 
L 2900 2209 
L 2931 2363 
Q 2938 2388 2941 2417 
Q 2944 2447 2944 2509 
Q 2944 2788 2717 2942 
Q 2491 3097 2081 3097 
Q 1800 3097 1504 3025 
Q 1209 2953 897 2809 
L 997 3341 
Q 1322 3463 1633 3523 
Q 1944 3584 2234 3584 
Q 2853 3584 3176 3315 
Q 3500 3047 3500 2534 
Q 3500 2431 3484 2292 
Q 3469 2153 3438 1997 
z
M 2816 1759 
L 2241 1759 
Q 1534 1759 1195 1570 
Q 856 1381 856 984 
Q 856 709 1029 553 
Q 1203 397 1509 397 
Q 1978 397 2328 733 
Q 2678 1069 2791 1631 
L 2816 1759 
z
" transform="scale(0.015625)"/>
      <path id="DejaVuSans-Oblique-62" d="M 3169 2138 
Q 3169 2591 2961 2847 
Q 2753 3103 2388 3103 
Q 2122 3103 1889 2973 
Q 1656 2844 1484 2597 
Q 1303 2338 1198 1995 
Q 1094 1653 1094 1313 
Q 1094 881 1298 636 
Q 1503 391 1863 391 
Q 2134 391 2365 517 
Q 2597 644 2772 891 
Q 2950 1147 3059 1487 
Q 3169 1828 3169 2138 
z
M 1381 2969 
Q 1594 3256 1914 3420 
Q 2234 3584 2584 3584 
Q 3122 3584 3439 3221 
Q 3756 2859 3756 2241 
Q 3756 1734 3570 1259 
Q 3384 784 3041 416 
Q 2816 172 2522 40 
Q 2228 -91 1906 -91 
Q 1566 -91 1316 65 
Q 1066 222 909 531 
L 806 0 
L 231 0 
L 1178 4863 
L 1753 4863 
L 1381 2969 
z
" transform="scale(0.015625)"/>
      <path id="DejaVuSans-Oblique-29" d="M -397 -844 
Q 434 191 840 1120 
Q 1247 2050 1247 2913 
Q 1247 3406 1130 3892 
Q 1013 4378 775 4856 
L 1275 4856 
Q 1563 4316 1703 3812 
Q 1844 3309 1844 2822 
Q 1844 1891 1411 973 
Q 978 56 116 -844 
L -397 -844 
z
" transform="scale(0.015625)"/>
     </defs>
     <use xlink:href="#DejaVuSans-Oblique-53"/>
     <use xlink:href="#DejaVuSans-Oblique-65" x="63.476562"/>
     <use xlink:href="#DejaVuSans-Oblique-74" x="125"/>
     <use xlink:href="#DejaVuSans-Oblique-74" x="164.208984"/>
     <use xlink:href="#DejaVuSans-Oblique-6c" x="203.417969"/>
     <use xlink:href="#DejaVuSans-Oblique-69" x="231.201172"/>
     <use xlink:href="#DejaVuSans-Oblique-6e" x="258.984375"/>
     <use xlink:href="#DejaVuSans-Oblique-67" x="322.363281"/>
     <use xlink:href="#DejaVuSans-Oblique-20" x="385.839844"/>
     <use xlink:href="#DejaVuSans-Oblique-57" x="417.626953"/>
     <use xlink:href="#DejaVuSans-Oblique-69" x="516.503906"/>
     <use xlink:href="#DejaVuSans-Oblique-6e" x="544.287109"/>
     <use xlink:href="#DejaVuSans-Oblique-64" x="607.666016"/>
     <use xlink:href="#DejaVuSans-Oblique-6f" x="671.142578"/>
     <use xlink:href="#DejaVuSans-Oblique-77" x="732.324219"/>
     <use xlink:href="#DejaVuSans-Oblique-20" x="814.111328"/>
     <use xlink:href="#DejaVuSans-Oblique-4c" x="845.898438"/>
     <use xlink:href="#DejaVuSans-Oblique-6f" x="901.611328"/>
     <use xlink:href="#DejaVuSans-Oblique-6f" x="962.792969"/>
     <use xlink:href="#DejaVuSans-Oblique-70" x="1023.974609"/>
     <use xlink:href="#DejaVuSans-Oblique-20" x="1087.451172"/>
     <use xlink:href="#DejaVuSans-Oblique-28" x="1119.238281"/>
     <use xlink:href="#DejaVuSans-Oblique-70" x="1158.251953"/>
     <use xlink:href="#DejaVuSans-Oblique-72" x="1221.728516"/>
     <use xlink:href="#DejaVuSans-Oblique-6f" x="1262.841797"/>
     <use xlink:href="#DejaVuSans-Oblique-67" x="1324.023438"/>
     <use xlink:href="#DejaVuSans-Oblique-72" x="1387.5"/>
     <use xlink:href="#DejaVuSans-Oblique-65" x="1428.613281"/>
     <use xlink:href="#DejaVuSans-Oblique-73" x="1490.136719"/>
     <use xlink:href="#DejaVuSans-Oblique-73" x="1542.236328"/>
     <use xlink:href="#DejaVuSans-Oblique-69" x="1594.335938"/>
     <use xlink:href="#DejaVuSans-Oblique-76" x="1622.119141"/>
     <use xlink:href="#DejaVuSans-Oblique-65" x="1681.298828"/>
     <use xlink:href="#DejaVuSans-Oblique-20" x="1742.822266"/>
     <use xlink:href="#DejaVuSans-Oblique-72" x="1774.609375"/>
     <use xlink:href="#DejaVuSans-Oblique-65" x="1815.722656"/>
     <use xlink:href="#DejaVuSans-Oblique-2d" x="1877.246094"/>
     <use xlink:href="#DejaVuSans-Oblique-63" x="1913.330078"/>
     <use xlink:href="#DejaVuSans-Oblique-68" x="1968.310547"/>
     <use xlink:href="#DejaVuSans-Oblique-65" x="2031.689453"/>
     <use xlink:href="#DejaVuSans-Oblique-63" x="2093.212891"/>
     <use xlink:href="#DejaVuSans-Oblique-6b" x="2148.193359"/>
     <use xlink:href="#DejaVuSans-Oblique-73" x="2206.103516"/>
     <use xlink:href="#DejaVuSans-Oblique-20" x="2258.203125"/>
     <use xlink:href="#DejaVuSans-Oblique-75" x="2289.990234"/>
     <use xlink:href="#DejaVuSans-Oblique-6e" x="2353.369141"/>
     <use xlink:href="#DejaVuSans-Oblique-74" x="2416.748047"/>
     <use xlink:href="#DejaVuSans-Oblique-69" x="2455.957031"/>
     <use xlink:href="#DejaVuSans-Oblique-6c" x="2483.740234"/>
     <use xlink:href="#DejaVuSans-Oblique-20" x="2511.523438"/>
     <use xlink:href="#DejaVuSans-Oblique-73" x="2543.310547"/>
     <use xlink:href="#DejaVuSans-Oblique-74" x="2595.410156"/>
     <use xlink:href="#DejaVuSans-Oblique-61" x="2634.619141"/>
     <use xlink:href="#DejaVuSans-Oblique-62" x="2695.898438"/>
     <use xlink:href="#DejaVuSans-Oblique-6c" x="2759.375"/>
     <use xlink:href="#DejaVuSans-Oblique-65" x="2787.158203"/>
     <use xlink:href="#DejaVuSans-Oblique-29" x="2848.681641"/>
    </g>
   </g>
   <g id="text_2">
    <!-- Snapshot raw sessions + telemetry -->
    <g transform="translate(175.694187 80.208376) scale(0.082 -0.082)">
     <defs>
      <path id="DejaVuSans-53" d="M 3425 4513 
L 3425 3897 
Q 3066 4069 2747 4153 
Q 2428 4238 2131 4238 
Q 1616 4238 1336 4038 
Q 1056 3838 1056 3469 
Q 1056 3159 1242 3001 
Q 1428 2844 1947 2747 
L 2328 2669 
Q 3034 2534 3370 2195 
Q 3706 1856 3706 1288 
Q 3706 609 3251 259 
Q 2797 -91 1919 -91 
Q 1588 -91 1214 -16 
Q 841 59 441 206 
L 441 856 
Q 825 641 1194 531 
Q 1563 422 1919 422 
Q 2459 422 2753 634 
Q 3047 847 3047 1241 
Q 3047 1584 2836 1778 
Q 2625 1972 2144 2069 
L 1759 2144 
Q 1053 2284 737 2584 
Q 422 2884 422 3419 
Q 422 4038 858 4394 
Q 1294 4750 2059 4750 
Q 2388 4750 2728 4690 
Q 3069 4631 3425 4513 
z
" transform="scale(0.015625)"/>
      <path id="DejaVuSans-6e" d="M 3513 2113 
L 3513 0 
L 2938 0 
L 2938 2094 
Q 2938 2591 2744 2837 
Q 2550 3084 2163 3084 
Q 1697 3084 1428 2787 
Q 1159 2491 1159 1978 
L 1159 0 
L 581 0 
L 581 3500 
L 1159 3500 
L 1159 2956 
Q 1366 3272 1645 3428 
Q 1925 3584 2291 3584 
Q 2894 3584 3203 3211 
Q 3513 2838 3513 2113 
z
" transform="scale(0.015625)"/>
      <path id="DejaVuSans-61" d="M 2194 1759 
Q 1497 1759 1228 1600 
Q 959 1441 959 1056 
Q 959 750 1161 570 
Q 1363 391 1709 391 
Q 2188 391 2477 730 
Q 2766 1069 2766 1631 
L 2766 1759 
L 2194 1759 
z
M 3341 1997 
L 3341 0 
L 2766 0 
L 2766 531 
Q 2569 213 2275 61 
Q 1981 -91 1556 -91 
Q 1019 -91 701 211 
Q 384 513 384 1019 
Q 384 1609 779 1909 
Q 1175 2209 1959 2209 
L 2766 2209 
L 2766 2266 
Q 2766 2663 2505 2880 
Q 2244 3097 1772 3097 
Q 1472 3097 1187 3025 
Q 903 2953 641 2809 
L 641 3341 
Q 956 3463 1253 3523 
Q 1550 3584 1831 3584 
Q 2591 3584 2966 3190 
Q 3341 2797 3341 1997 
z
" transform="scale(0.015625)"/>
      <path id="DejaVuSans-70" d="M 1159 525 
L 1159 -1331 
L 581 -1331 
L 581 3500 
L 1159 3500 
L 1159 2969 
Q 1341 3281 1617 3432 
Q 1894 3584 2278 3584 
Q 2916 3584 3314 3078 
Q 3713 2572 3713 1747 
Q 3713 922 3314 415 
Q 2916 -91 2278 -91 
Q 1894 -91 1617 61 
Q 1341 213 1159 525 
z
M 3116 1747 
Q 3116 2381 2855 2742 
Q 2594 3103 2138 3103 
Q 1681 3103 1420 2742 
Q 1159 2381 1159 1747 
Q 1159 1113 1420 752 
Q 1681 391 2138 391 
Q 2594 391 2855 752 
Q 3116 1113 3116 1747 
z
" transform="scale(0.015625)"/>
      <path id="DejaVuSans-73" d="M 2834 3397 
L 2834 2853 
Q 2591 2978 2328 3040 
Q 2066 3103 1784 3103 
Q 1356 3103 1142 2972 
Q 928 2841 928 2578 
Q 928 2378 1081 2264 
Q 1234 2150 1697 2047 
L 1894 2003 
Q 2506 1872 2764 1633 
Q 3022 1394 3022 966 
Q 3022 478 2636 193 
Q 2250 -91 1575 -91 
Q 1294 -91 989 -36 
Q 684 19 347 128 
L 347 722 
Q 666 556 975 473 
Q 1284 391 1588 391 
Q 1994 391 2212 530 
Q 2431 669 2431 922 
Q 2431 1156 2273 1281 
Q 2116 1406 1581 1522 
L 1381 1569 
Q 847 1681 609 1914 
Q 372 2147 372 2553 
Q 372 3047 722 3315 
Q 1072 3584 1716 3584 
Q 2034 3584 2315 3537 
Q 2597 3491 2834 3397 
z
" transform="scale(0.015625)"/>
      <path id="DejaVuSans-68" d="M 3513 2113 
L 3513 0 
L 2938 0 
L 2938 2094 
Q 2938 2591 2744 2837 
Q 2550 3084 2163 3084 
Q 1697 3084 1428 2787 
Q 1159 2491 1159 1978 
L 1159 0 
L 581 0 
L 581 4863 
L 1159 4863 
L 1159 2956 
Q 1366 3272 1645 3428 
Q 1925 3584 2291 3584 
Q 2894 3584 3203 3211 
Q 3513 2838 3513 2113 
z
" transform="scale(0.015625)"/>
      <path id="DejaVuSans-6f" d="M 1959 3097 
Q 1497 3097 1228 2736 
Q 959 2375 959 1747 
Q 959 1119 1226 758 
Q 1494 397 1959 397 
Q 2419 397 2687 759 
Q 2956 1122 2956 1747 
Q 2956 2369 2687 2733 
Q 2419 3097 1959 3097 
z
M 1959 3584 
Q 2709 3584 3137 3096 
Q 3566 2609 3566 1747 
Q 3566 888 3137 398 
Q 2709 -91 1959 -91 
Q 1206 -91 779 398 
Q 353 888 353 1747 
Q 353 2609 779 3096 
Q 1206 3584 1959 3584 
z
" transform="scale(0.015625)"/>
      <path id="DejaVuSans-74" d="M 1172 4494 
L 1172 3500 
L 2356 3500 
L 2356 3053 
L 1172 3053 
L 1172 1153 
Q 1172 725 1289 603 
Q 1406 481 1766 481 
L 2356 481 
L 2356 0 
L 1766 0 
Q 1100 0 847 248 
Q 594 497 594 1153 
L 594 3053 
L 172 3053 
L 172 3500 
L 594 3500 
L 594 4494 
L 1172 4494 
z
" transform="scale(0.015625)"/>
      <path id="DejaVuSans-20" transform="scale(0.015625)"/>
      <path id="DejaVuSans-72" d="M 2631 2963 
Q 2534 3019 2420 3045 
Q 2306 3072 2169 3072 
Q 1681 3072 1420 2755 
Q 1159 2438 1159 1844 
L 1159 0 
L 581 0 
L 581 3500 
L 1159 3500 
L 1159 2956 
Q 1341 3275 1631 3429 
Q 1922 3584 2338 3584 
Q 2397 3584 2469 3576 
Q 2541 3569 2628 3553 
L 2631 2963 
z
" transform="scale(0.015625)"/>
      <path id="DejaVuSans-77" d="M 269 3500 
L 844 3500 
L 1563 769 
L 2278 3500 
L 2956 3500 
L 3675 769 
L 4391 3500 
L 4966 3500 
L 4050 0 
L 3372 0 
L 2619 2869 
L 1863 0 
L 1184 0 
L 269 3500 
z
" transform="scale(0.015625)"/>
      <path id="DejaVuSans-65" d="M 3597 1894 
L 3597 1613 
L 953 1613 
Q 991 1019 1311 708 
Q 1631 397 2203 397 
Q 2534 397 2845 478 
Q 3156 559 3463 722 
L 3463 178 
Q 3153 47 2828 -22 
Q 2503 -91 2169 -91 
Q 1331 -91 842 396 
Q 353 884 353 1716 
Q 353 2575 817 3079 
Q 1281 3584 2069 3584 
Q 2775 3584 3186 3129 
Q 3597 2675 3597 1894 
z
M 3022 2063 
Q 3016 2534 2758 2815 
Q 2500 3097 2075 3097 
Q 1594 3097 1305 2825 
Q 1016 2553 972 2059 
L 3022 2063 
z
" transform="scale(0.015625)"/>
      <path id="DejaVuSans-69" d="M 603 3500 
L 1178 3500 
L 1178 0 
L 603 0 
L 603 3500 
z
M 603 4863 
L 1178 4863 
L 1178 4134 
L 603 4134 
L 603 4863 
z
" transform="scale(0.015625)"/>
      <path id="DejaVuSans-2b" d="M 2944 4013 
L 2944 2272 
L 4684 2272 
L 4684 1741 
L 2944 1741 
L 2944 0 
L 2419 0 
L 2419 1741 
L 678 1741 
L 678 2272 
L 2419 2272 
L 2419 4013 
L 2944 4013 
z
" transform="scale(0.015625)"/>
      <path id="DejaVuSans-6c" d="M 603 4863 
L 1178 4863 
L 1178 0 
L 603 0 
L 603 4863 
z
" transform="scale(0.015625)"/>
      <path id="DejaVuSans-6d" d="M 3328 2828 
Q 3544 3216 3844 3400 
Q 4144 3584 4550 3584 
Q 5097 3584 5394 3201 
Q 5691 2819 5691 2113 
L 5691 0 
L 5113 0 
L 5113 2094 
Q 5113 2597 4934 2840 
Q 4756 3084 4391 3084 
Q 3944 3084 3684 2787 
Q 3425 2491 3425 1978 
L 3425 0 
L 2847 0 
L 2847 2094 
Q 2847 2600 2669 2842 
Q 2491 3084 2119 3084 
Q 1678 3084 1418 2786 
Q 1159 2488 1159 1978 
L 1159 0 
L 581 0 
L 581 3500 
L 1159 3500 
L 1159 2956 
Q 1356 3278 1631 3431 
Q 1906 3584 2284 3584 
Q 2666 3584 2933 3390 
Q 3200 3197 3328 2828 
z
" transform="scale(0.015625)"/>
      <path id="DejaVuSans-79" d="M 2059 -325 
Q 1816 -950 1584 -1140 
Q 1353 -1331 966 -1331 
L 506 -1331 
L 506 -850 
L 844 -850 
Q 1081 -850 1212 -737 
Q 1344 -625 1503 -206 
L 1606 56 
L 191 3500 
L 800 3500 
L 1894 763 
L 2988 3500 
L 3597 3500 
L 2059 -325 
z
" transform="scale(0.015625)"/>
     </defs>
     <use xlink:href="#DejaVuSans-53"/>
     <use xlink:href="#DejaVuSans-6e" x="63.476562"/>
     <use xlink:href="#DejaVuSans-61" x="126.855469"/>
     <use xlink:href="#DejaVuSans-70" x="188.134766"/>
     <use xlink:href="#DejaVuSans-73" x="251.611328"/>
     <use xlink:href="#DejaVuSans-68" x="303.710938"/>
     <use xlink:href="#DejaVuSans-6f" x="367.089844"/>
     <use xlink:href="#DejaVuSans-74" x="428.271484"/>
     <use xlink:href="#DejaVuSans-20" x="467.480469"/>
     <use xlink:href="#DejaVuSans-72" x="499.267578"/>
     <use xlink:href="#DejaVuSans-61" x="540.380859"/>
     <use xlink:href="#DejaVuSans-77" x="601.660156"/>
     <use xlink:href="#DejaVuSans-20" x="683.447266"/>
     <use xlink:href="#DejaVuSans-73" x="715.234375"/>
     <use xlink:href="#DejaVuSans-65" x="767.333984"/>
     <use xlink:href="#DejaVuSans-73" x="828.857422"/>
     <use xlink:href="#DejaVuSans-73" x="880.957031"/>
     <use xlink:href="#DejaVuSans-69" x="933.056641"/>
     <use xlink:href="#DejaVuSans-6f" x="960.839844"/>
     <use xlink:href="#DejaVuSans-6e" x="1022.021484"/>
     <use xlink:href="#DejaVuSans-73" x="1085.400391"/>
     <use xlink:href="#DejaVuSans-20" x="1137.5"/>
     <use xlink:href="#DejaVuSans-2b" x="1169.287109"/>
     <use xlink:href="#DejaVuSans-20" x="1253.076172"/>
     <use xlink:href="#DejaVuSans-74" x="1284.863281"/>
     <use xlink:href="#DejaVuSans-65" x="1324.072266"/>
     <use xlink:href="#DejaVuSans-6c" x="1385.595703"/>
     <use xlink:href="#DejaVuSans-65" x="1413.378906"/>
     <use xlink:href="#DejaVuSans-6d" x="1474.902344"/>
     <use xlink:href="#DejaVuSans-65" x="1572.314453"/>
     <use xlink:href="#DejaVuSans-74" x="1633.837891"/>
     <use xlink:href="#DejaVuSans-72" x="1673.046875"/>
     <use xlink:href="#DejaVuSans-79" x="1714.160156"/>
    </g>
    <!-- via MCP -->
    <g transform="translate(232.146062 89.390582) scale(0.082 -0.082)">
     <defs>
      <path id="DejaVuSans-76" d="M 191 3500 
L 800 3500 
L 1894 563 
L 2988 3500 
L 3597 3500 
L 2284 0 
L 1503 0 
L 191 3500 
z
" transform="scale(0.015625)"/>
      <path id="DejaVuSans-4d" d="M 628 4666 
L 1569 4666 
L 2759 1491 
L 3956 4666 
L 4897 4666 
L 4897 0 
L 4281 0 
L 4281 4097 
L 3078 897 
L 2444 897 
L 1241 4097 
L 1241 0 
L 628 0 
L 628 4666 
z
" transform="scale(0.015625)"/>
      <path id="DejaVuSans-43" d="M 4122 4306 
L 4122 3641 
Q 3803 3938 3442 4084 
Q 3081 4231 2675 4231 
Q 1875 4231 1450 3742 
Q 1025 3253 1025 2328 
Q 1025 1406 1450 917 
Q 1875 428 2675 428 
Q 3081 428 3442 575 
Q 3803 722 4122 1019 
L 4122 359 
Q 3791 134 3420 21 
Q 3050 -91 2638 -91 
Q 1578 -91 968 557 
Q 359 1206 359 2328 
Q 359 3453 968 4101 
Q 1578 4750 2638 4750 
Q 3056 4750 3426 4639 
Q 3797 4528 4122 4306 
z
" transform="scale(0.015625)"/>
      <path id="DejaVuSans-50" d="M 1259 4147 
L 1259 2394 
L 2053 2394 
Q 2494 2394 2734 2622 
Q 2975 2850 2975 3272 
Q 2975 3691 2734 3919 
Q 2494 4147 2053 4147 
L 1259 4147 
z
M 628 4666 
L 2053 4666 
Q 2838 4666 3239 4311 
Q 3641 3956 3641 3272 
Q 3641 2581 3239 2228 
Q 2838 1875 2053 1875 
L 1259 1875 
L 1259 0 
L 628 0 
L 628 4666 
z
" transform="scale(0.015625)"/>
     </defs>
     <use xlink:href="#DejaVuSans-76"/>
     <use xlink:href="#DejaVuSans-69" x="59.179688"/>
     <use xlink:href="#DejaVuSans-61" x="86.962891"/>
     <use xlink:href="#DejaVuSans-20" x="148.242188"/>
     <use xlink:href="#DejaVuSans-4d" x="180.029297"/>
     <use xlink:href="#DejaVuSans-43" x="266.308594"/>
     <use xlink:href="#DejaVuSans-50" x="336.132812"/>
    </g>
   </g>
   <g id="patch_12">
    <path d="M 248.4 96.322818 
Q 248.4 108.467515 248.4 118.935161 
" style="fill: none; stroke: #000000; stroke-width: 1.5; stroke-linecap: round"/>
    <path d="M 250.4 114.935161 
L 248.4 118.935161 
L 246.4 114.935161 
" style="fill: none; stroke: #000000; stroke-width: 1.5; stroke-linecap: round"/>
   </g>
   <g id="text_3">
    <!-- Any safety-floor or vulnerability findings? -->
    <g transform="translate(163.849672 130.767479) scale(0.082 -0.082)">
     <defs>
      <path id="DejaVuSans-41" d="M 2188 4044 
L 1331 1722 
L 3047 1722 
L 2188 4044 
z
M 1831 4666 
L 2547 4666 
L 4325 0 
L 3669 0 
L 3244 1197 
L 1141 1197 
L 716 0 
L 50 0 
L 1831 4666 
z
" transform="scale(0.015625)"/>
      <path id="DejaVuSans-66" d="M 2375 4863 
L 2375 4384 
L 1825 4384 
Q 1516 4384 1395 4259 
Q 1275 4134 1275 3809 
L 1275 3500 
L 2222 3500 
L 2222 3053 
L 1275 3053 
L 1275 0 
L 697 0 
L 697 3053 
L 147 3053 
L 147 3500 
L 697 3500 
L 697 3744 
Q 697 4328 969 4595 
Q 1241 4863 1831 4863 
L 2375 4863 
z
" transform="scale(0.015625)"/>
      <path id="DejaVuSans-2d" d="M 313 2009 
L 1997 2009 
L 1997 1497 
L 313 1497 
L 313 2009 
z
" transform="scale(0.015625)"/>
      <path id="DejaVuSans-75" d="M 544 1381 
L 544 3500 
L 1119 3500 
L 1119 1403 
Q 1119 906 1312 657 
Q 1506 409 1894 409 
Q 2359 409 2629 706 
Q 2900 1003 2900 1516 
L 2900 3500 
L 3475 3500 
L 3475 0 
L 2900 0 
L 2900 538 
Q 2691 219 2414 64 
Q 2138 -91 1772 -91 
Q 1169 -91 856 284 
Q 544 659 544 1381 
z
M 1991 3584 
L 1991 3584 
z
" transform="scale(0.015625)"/>
      <path id="DejaVuSans-62" d="M 3116 1747 
Q 3116 2381 2855 2742 
Q 2594 3103 2138 3103 
Q 1681 3103 1420 2742 
Q 1159 2381 1159 1747 
Q 1159 1113 1420 752 
Q 1681 391 2138 391 
Q 2594 391 2855 752 
Q 3116 1113 3116 1747 
z
M 1159 2969 
Q 1341 3281 1617 3432 
Q 1894 3584 2278 3584 
Q 2916 3584 3314 3078 
Q 3713 2572 3713 1747 
Q 3713 922 3314 415 
Q 2916 -91 2278 -91 
Q 1894 -91 1617 61 
Q 1341 213 1159 525 
L 1159 0 
L 581 0 
L 581 4863 
L 1159 4863 
L 1159 2969 
z
" transform="scale(0.015625)"/>
      <path id="DejaVuSans-64" d="M 2906 2969 
L 2906 4863 
L 3481 4863 
L 3481 0 
L 2906 0 
L 2906 525 
Q 2725 213 2448 61 
Q 2172 -91 1784 -91 
Q 1150 -91 751 415 
Q 353 922 353 1747 
Q 353 2572 751 3078 
Q 1150 3584 1784 3584 
Q 2172 3584 2448 3432 
Q 2725 3281 2906 2969 
z
M 947 1747 
Q 947 1113 1208 752 
Q 1469 391 1925 391 
Q 2381 391 2643 752 
Q 2906 1113 2906 1747 
Q 2906 2381 2643 2742 
Q 2381 3103 1925 3103 
Q 1469 3103 1208 2742 
Q 947 2381 947 1747 
z
" transform="scale(0.015625)"/>
      <path id="DejaVuSans-67" d="M 2906 1791 
Q 2906 2416 2648 2759 
Q 2391 3103 1925 3103 
Q 1463 3103 1205 2759 
Q 947 2416 947 1791 
Q 947 1169 1205 825 
Q 1463 481 1925 481 
Q 2391 481 2648 825 
Q 2906 1169 2906 1791 
z
M 3481 434 
Q 3481 -459 3084 -895 
Q 2688 -1331 1869 -1331 
Q 1566 -1331 1297 -1286 
Q 1028 -1241 775 -1147 
L 775 -588 
Q 1028 -725 1275 -790 
Q 1522 -856 1778 -856 
Q 2344 -856 2625 -561 
Q 2906 -266 2906 331 
L 2906 616 
Q 2728 306 2450 153 
Q 2172 0 1784 0 
Q 1141 0 747 490 
Q 353 981 353 1791 
Q 353 2603 747 3093 
Q 1141 3584 1784 3584 
Q 2172 3584 2450 3431 
Q 2728 3278 2906 2969 
L 2906 3500 
L 3481 3500 
L 3481 434 
z
" transform="scale(0.015625)"/>
      <path id="DejaVuSans-3f" d="M 1222 794 
L 1856 794 
L 1856 0 
L 1222 0 
L 1222 794 
z
M 1838 1253 
L 1241 1253 
L 1241 1734 
Q 1241 2050 1328 2253 
Q 1416 2456 1697 2725 
L 1978 3003 
Q 2156 3169 2236 3316 
Q 2316 3463 2316 3616 
Q 2316 3894 2111 4066 
Q 1906 4238 1569 4238 
Q 1322 4238 1042 4128 
Q 763 4019 459 3809 
L 459 4397 
Q 753 4575 1054 4662 
Q 1356 4750 1678 4750 
Q 2253 4750 2601 4447 
Q 2950 4144 2950 3647 
Q 2950 3409 2837 3195 
Q 2725 2981 2444 2713 
L 2169 2444 
Q 2022 2297 1961 2214 
Q 1900 2131 1875 2053 
Q 1856 1988 1847 1894 
Q 1838 1800 1838 1638 
L 1838 1253 
z
" transform="scale(0.015625)"/>
     </defs>
     <use xlink:href="#DejaVuSans-41"/>
     <use xlink:href="#DejaVuSans-6e" x="68.408203"/>
     <use xlink:href="#DejaVuSans-79" x="131.787109"/>
     <use xlink:href="#DejaVuSans-20" x="190.966797"/>
     <use xlink:href="#DejaVuSans-73" x="222.753906"/>
     <use xlink:href="#DejaVuSans-61" x="274.853516"/>
     <use xlink:href="#DejaVuSans-66" x="336.132812"/>
     <use xlink:href="#DejaVuSans-65" x="371.337891"/>
     <use xlink:href="#DejaVuSans-74" x="432.861328"/>
     <use xlink:href="#DejaVuSans-79" x="472.070312"/>
     <use xlink:href="#DejaVuSans-2d" x="529.5"/>
     <use xlink:href="#DejaVuSans-66" x="565.583984"/>
     <use xlink:href="#DejaVuSans-6c" x="600.789062"/>
     <use xlink:href="#DejaVuSans-6f" x="628.572266"/>
     <use xlink:href="#DejaVuSans-6f" x="689.753906"/>
     <use xlink:href="#DejaVuSans-72" x="750.935547"/>
     <use xlink:href="#DejaVuSans-20" x="792.048828"/>
     <use xlink:href="#DejaVuSans-6f" x="823.835938"/>
     <use xlink:href="#DejaVuSans-72" x="885.017578"/>
     <use xlink:href="#DejaVuSans-20" x="926.130859"/>
     <use xlink:href="#DejaVuSans-76" x="957.917969"/>
     <use xlink:href="#DejaVuSans-75" x="1017.097656"/>
     <use xlink:href="#DejaVuSans-6c" x="1080.476562"/>
     <use xlink:href="#DejaVuSans-6e" x="1108.259766"/>
     <use xlink:href="#DejaVuSans-65" x="1171.638672"/>
     <use xlink:href="#DejaVuSans-72" x="1233.162109"/>
     <use xlink:href="#DejaVuSans-61" x="1274.275391"/>
     <use xlink:href="#DejaVuSans-62" x="1335.554688"/>
     <use xlink:href="#DejaVuSans-69" x="1399.03125"/>
     <use xlink:href="#DejaVuSans-6c" x="1426.814453"/>
     <use xlink:href="#DejaVuSans-69" x="1454.597656"/>
     <use xlink:href="#DejaVuSans-74" x="1482.380859"/>
     <use xlink:href="#DejaVuSans-79" x="1521.589844"/>
     <use xlink:href="#DejaVuSans-20" x="1580.769531"/>
     <use xlink:href="#DejaVuSans-66" x="1612.556641"/>
     <use xlink:href="#DejaVuSans-69" x="1647.761719"/>
     <use xlink:href="#DejaVuSans-6e" x="1675.544922"/>
     <use xlink:href="#DejaVuSans-64" x="1738.923828"/>
     <use xlink:href="#DejaVuSans-69" x="1802.400391"/>
     <use xlink:href="#DejaVuSans-6e" x="1830.183594"/>
     <use xlink:href="#DejaVuSans-67" x="1893.5625"/>
     <use xlink:href="#DejaVuSans-73" x="1957.039062"/>
     <use xlink:href="#DejaVuSans-3f" x="2009.138672"/>
    </g>
   </g>
   <g id="patch_13">
    <path d="M 355.492471 126.573955 
Q 385.365627 127.508084 413.562551 128.389798 
" style="fill: none; stroke: #d9534f; stroke-width: 1.5; stroke-linecap: round"/>
    <path d="M 410.335411 126.648085 
L 413.562551 128.389798 
L 410.232896 129.926482 
" style="fill: none; stroke: #d9534f; stroke-width: 1.5; stroke-linecap: round"/>
   </g>
   <g id="text_4">
    <!-- Yes -->
    <g style="fill: #d9534f" transform="translate(338.260422 128.504792) scale(0.082 -0.082)">
     <defs>
      <path id="DejaVuSans-59" d="M -13 4666 
L 666 4666 
L 1959 2747 
L 3244 4666 
L 3922 4666 
L 2272 2222 
L 2272 0 
L 1638 0 
L 1638 2222 
L -13 4666 
z
" transform="scale(0.015625)"/>
     </defs>
     <use xlink:href="#DejaVuSans-59"/>
     <use xlink:href="#DejaVuSans-65" x="47.833984"/>
     <use xlink:href="#DejaVuSans-73" x="109.357422"/>
    </g>
   </g>
   <g id="text_5">
    <!-- DIVERGENCE -->
    <g transform="translate(404.812797 127.355043) scale(0.082 -0.082)">
     <defs>
      <path id="DejaVuSans-44" d="M 1259 4147 
L 1259 519 
L 2022 519 
Q 2988 519 3436 956 
Q 3884 1394 3884 2338 
Q 3884 3275 3436 3711 
Q 2988 4147 2022 4147 
L 1259 4147 
z
M 628 4666 
L 1925 4666 
Q 3281 4666 3915 4102 
Q 4550 3538 4550 2338 
Q 4550 1131 3912 565 
Q 3275 0 1925 0 
L 628 0 
L 628 4666 
z
" transform="scale(0.015625)"/>
      <path id="DejaVuSans-49" d="M 628 4666 
L 1259 4666 
L 1259 0 
L 628 0 
L 628 4666 
z
" transform="scale(0.015625)"/>
      <path id="DejaVuSans-56" d="M 1831 0 
L 50 4666 
L 709 4666 
L 2188 738 
L 3669 4666 
L 4325 4666 
L 2547 0 
L 1831 0 
z
" transform="scale(0.015625)"/>
      <path id="DejaVuSans-45" d="M 628 4666 
L 3578 4666 
L 3578 4134 
L 1259 4134 
L 1259 2753 
L 3481 2753 
L 3481 2222 
L 1259 2222 
L 1259 531 
L 3634 531 
L 3634 0 
L 628 0 
L 628 4666 
z
" transform="scale(0.015625)"/>
      <path id="DejaVuSans-52" d="M 2841 2188 
Q 3044 2119 3236 1894 
Q 3428 1669 3622 1275 
L 4263 0 
L 3584 0 
L 2988 1197 
Q 2756 1666 2539 1819 
Q 2322 1972 1947 1972 
L 1259 1972 
L 1259 0 
L 628 0 
L 628 4666 
L 2053 4666 
Q 2853 4666 3247 4331 
Q 3641 3997 3641 3322 
Q 3641 2881 3436 2590 
Q 3231 2300 2841 2188 
z
M 1259 4147 
L 1259 2491 
L 2053 2491 
Q 2509 2491 2742 2702 
Q 2975 2913 2975 3322 
Q 2975 3731 2742 3939 
Q 2509 4147 2053 4147 
L 1259 4147 
z
" transform="scale(0.015625)"/>
      <path id="DejaVuSans-47" d="M 3809 666 
L 3809 1919 
L 2778 1919 
L 2778 2438 
L 4434 2438 
L 4434 434 
Q 4069 175 3628 42 
Q 3188 -91 2688 -91 
Q 1594 -91 976 548 
Q 359 1188 359 2328 
Q 359 3472 976 4111 
Q 1594 4750 2688 4750 
Q 3144 4750 3555 4637 
Q 3966 4525 4313 4306 
L 4313 3634 
Q 3963 3931 3569 4081 
Q 3175 4231 2741 4231 
Q 1884 4231 1454 3753 
Q 1025 3275 1025 2328 
Q 1025 1384 1454 906 
Q 1884 428 2741 428 
Q 3075 428 3337 486 
Q 3600 544 3809 666 
z
" transform="scale(0.015625)"/>
      <path id="DejaVuSans-4e" d="M 628 4666 
L 1478 4666 
L 3547 763 
L 3547 4666 
L 4159 4666 
L 4159 0 
L 3309 0 
L 1241 3903 
L 1241 0 
L 628 0 
L 628 4666 
z
" transform="scale(0.015625)"/>
     </defs>
     <use xlink:href="#DejaVuSans-44"/>
     <use xlink:href="#DejaVuSans-49" x="77.001953"/>
     <use xlink:href="#DejaVuSans-56" x="106.494141"/>
     <use xlink:href="#DejaVuSans-45" x="174.902344"/>
     <use xlink:href="#DejaVuSans-52" x="238.085938"/>
     <use xlink:href="#DejaVuSans-47" x="307.568359"/>
     <use xlink:href="#DejaVuSans-45" x="385.058594"/>
     <use xlink:href="#DejaVuSans-4e" x="448.242188"/>
     <use xlink:href="#DejaVuSans-43" x="523.046875"/>
     <use xlink:href="#DejaVuSans-45" x="592.871094"/>
    </g>
    <!-- (guardrail) -->
    <g transform="translate(410.106281 136.537249) scale(0.082 -0.082)">
     <defs>
      <path id="DejaVuSans-28" d="M 1984 4856 
Q 1566 4138 1362 3434 
Q 1159 2731 1159 2009 
Q 1159 1288 1364 580 
Q 1569 -128 1984 -844 
L 1484 -844 
Q 1016 -109 783 600 
Q 550 1309 550 2009 
Q 550 2706 781 3412 
Q 1013 4119 1484 4856 
L 1984 4856 
z
" transform="scale(0.015625)"/>
      <path id="DejaVuSans-29" d="M 513 4856 
L 1013 4856 
Q 1481 4119 1714 3412 
Q 1947 2706 1947 2009 
Q 1947 1309 1714 600 
Q 1481 -109 1013 -844 
L 513 -844 
Q 928 -128 1133 580 
Q 1338 1288 1338 2009 
Q 1338 2731 1133 3434 
Q 928 4138 513 4856 
z
" transform="scale(0.015625)"/>
     </defs>
     <use xlink:href="#DejaVuSans-28"/>
     <use xlink:href="#DejaVuSans-67" x="39.013672"/>
     <use xlink:href="#DejaVuSans-75" x="102.490234"/>
     <use xlink:href="#DejaVuSans-61" x="165.869141"/>
     <use xlink:href="#DejaVuSans-72" x="227.148438"/>
     <use xlink:href="#DejaVuSans-64" x="266.511719"/>
     <use xlink:href="#DejaVuSans-72" x="329.988281"/>
     <use xlink:href="#DejaVuSans-61" x="371.101562"/>
     <use xlink:href="#DejaVuSans-69" x="432.380859"/>
     <use xlink:href="#DejaVuSans-6c" x="460.164062"/>
     <use xlink:href="#DejaVuSans-29" x="487.947266"/>
    </g>
   </g>
   <g id="text_6">
    <!-- No -->
    <g style="fill: #4caf50" transform="translate(190.512 148.542125) scale(0.082 -0.082)">
     <use xlink:href="#DejaVuSans-4e"/>
     <use xlink:href="#DejaVuSans-6f" x="74.804688"/>
    </g>
   </g>
   <g id="patch_14">
    <path d="M 248.4 143.469484 
Q 248.4 155.614182 248.4 166.081828 
" style="fill: none; stroke: #000000; stroke-width: 1.5; stroke-linecap: round"/>
    <path d="M 250.4 162.081828 
L 248.4 166.081828 
L 246.4 162.081828 
" style="fill: none; stroke: #000000; stroke-width: 1.5; stroke-linecap: round"/>
   </g>
   <g id="text_7">
    <!-- Any unexplained observation after -->
    <g transform="translate(177.52125 182.752376) scale(0.082 -0.082)">
     <defs>
      <path id="DejaVuSans-78" d="M 3513 3500 
L 2247 1797 
L 3578 0 
L 2900 0 
L 1881 1375 
L 863 0 
L 184 0 
L 1544 1831 
L 300 3500 
L 978 3500 
L 1906 2253 
L 2834 3500 
L 3513 3500 
z
" transform="scale(0.015625)"/>
     </defs>
     <use xlink:href="#DejaVuSans-41"/>
     <use xlink:href="#DejaVuSans-6e" x="68.408203"/>
     <use xlink:href="#DejaVuSans-79" x="131.787109"/>
     <use xlink:href="#DejaVuSans-20" x="190.966797"/>
     <use xlink:href="#DejaVuSans-75" x="222.753906"/>
     <use xlink:href="#DejaVuSans-6e" x="286.132812"/>
     <use xlink:href="#DejaVuSans-65" x="349.511719"/>
     <use xlink:href="#DejaVuSans-78" x="409.285156"/>
     <use xlink:href="#DejaVuSans-70" x="468.464844"/>
     <use xlink:href="#DejaVuSans-6c" x="531.941406"/>
     <use xlink:href="#DejaVuSans-61" x="559.724609"/>
     <use xlink:href="#DejaVuSans-69" x="621.003906"/>
     <use xlink:href="#DejaVuSans-6e" x="648.787109"/>
     <use xlink:href="#DejaVuSans-65" x="712.166016"/>
     <use xlink:href="#DejaVuSans-64" x="773.689453"/>
     <use xlink:href="#DejaVuSans-20" x="837.166016"/>
     <use xlink:href="#DejaVuSans-6f" x="868.953125"/>
     <use xlink:href="#DejaVuSans-62" x="930.134766"/>
     <use xlink:href="#DejaVuSans-73" x="993.611328"/>
     <use xlink:href="#DejaVuSans-65" x="1045.710938"/>
     <use xlink:href="#DejaVuSans-72" x="1107.234375"/>
     <use xlink:href="#DejaVuSans-76" x="1148.347656"/>
     <use xlink:href="#DejaVuSans-61" x="1207.527344"/>
     <use xlink:href="#DejaVuSans-74" x="1268.806641"/>
     <use xlink:href="#DejaVuSans-69" x="1308.015625"/>
     <use xlink:href="#DejaVuSans-6f" x="1335.798828"/>
     <use xlink:href="#DejaVuSans-6e" x="1396.980469"/>
     <use xlink:href="#DejaVuSans-20" x="1460.359375"/>
     <use xlink:href="#DejaVuSans-61" x="1492.146484"/>
     <use xlink:href="#DejaVuSans-66" x="1553.425781"/>
     <use xlink:href="#DejaVuSans-74" x="1586.880859"/>
     <use xlink:href="#DejaVuSans-65" x="1626.089844"/>
     <use xlink:href="#DejaVuSans-72" x="1687.613281"/>
    </g>
    <!-- intent correlation? -->
    <g transform="translate(210.849766 191.934582) scale(0.082 -0.082)">
     <defs>
      <path id="DejaVuSans-63" d="M 3122 3366 
L 3122 2828 
Q 2878 2963 2633 3030 
Q 2388 3097 2138 3097 
Q 1578 3097 1268 2742 
Q 959 2388 959 1747 
Q 959 1106 1268 751 
Q 1578 397 2138 397 
Q 2388 397 2633 464 
Q 2878 531 3122 666 
L 3122 134 
Q 2881 22 2623 -34 
Q 2366 -91 2075 -91 
Q 1284 -91 818 406 
Q 353 903 353 1747 
Q 353 2603 823 3093 
Q 1294 3584 2113 3584 
Q 2378 3584 2631 3529 
Q 2884 3475 3122 3366 
z
" transform="scale(0.015625)"/>
     </defs>
     <use xlink:href="#DejaVuSans-69"/>
     <use xlink:href="#DejaVuSans-6e" x="27.783203"/>
     <use xlink:href="#DejaVuSans-74" x="91.162109"/>
     <use xlink:href="#DejaVuSans-65" x="130.371094"/>
     <use xlink:href="#DejaVuSans-6e" x="191.894531"/>
     <use xlink:href="#DejaVuSans-74" x="255.273438"/>
     <use xlink:href="#DejaVuSans-20" x="294.482422"/>
     <use xlink:href="#DejaVuSans-63" x="326.269531"/>
     <use xlink:href="#DejaVuSans-6f" x="381.25"/>
     <use xlink:href="#DejaVuSans-72" x="442.431641"/>
     <use xlink:href="#DejaVuSans-72" x="481.794922"/>
     <use xlink:href="#DejaVuSans-65" x="520.658203"/>
     <use xlink:href="#DejaVuSans-6c" x="582.181641"/>
     <use xlink:href="#DejaVuSans-61" x="609.964844"/>
     <use xlink:href="#DejaVuSans-74" x="671.244141"/>
     <use xlink:href="#DejaVuSans-69" x="710.453125"/>
     <use xlink:href="#DejaVuSans-6f" x="738.236328"/>
     <use xlink:href="#DejaVuSans-6e" x="799.417969"/>
     <use xlink:href="#DejaVuSans-3f" x="862.796875"/>
    </g>
   </g>
   <g id="patch_15">
    <path d="M 379.615612 183.316027 
Q 397.428868 184.151554 413.566914 184.908506 
" style="fill: none; stroke: #d9534f; stroke-width: 1.5; stroke-linecap: round"/>
    <path d="M 410.367355 183.116629 
L 413.566914 184.908506 
L 410.213677 186.393026 
" style="fill: none; stroke: #d9534f; stroke-width: 1.5; stroke-linecap: round"/>
   </g>
   <g id="text_8">
    <!-- Yes -->
    <g style="fill: #d9534f" transform="translate(362.380422 185.080792) scale(0.082 -0.082)">
     <use xlink:href="#DejaVuSans-59"/>
     <use xlink:href="#DejaVuSans-65" x="47.833984"/>
     <use xlink:href="#DejaVuSans-73" x="109.357422"/>
    </g>
   </g>
   <g id="text_9">
    <!-- DIVERGENCE -->
    <g transform="translate(404.812797 183.931043) scale(0.082 -0.082)">
     <use xlink:href="#DejaVuSans-44"/>
     <use xlink:href="#DejaVuSans-49" x="77.001953"/>
     <use xlink:href="#DejaVuSans-56" x="106.494141"/>
     <use xlink:href="#DejaVuSans-45" x="174.902344"/>
     <use xlink:href="#DejaVuSans-52" x="238.085938"/>
     <use xlink:href="#DejaVuSans-47" x="307.568359"/>
     <use xlink:href="#DejaVuSans-45" x="385.058594"/>
     <use xlink:href="#DejaVuSans-4e" x="448.242188"/>
     <use xlink:href="#DejaVuSans-43" x="523.046875"/>
     <use xlink:href="#DejaVuSans-45" x="592.871094"/>
    </g>
    <!-- (intent mismatch) -->
    <g transform="translate(394.901688 193.113249) scale(0.082 -0.082)">
     <use xlink:href="#DejaVuSans-28"/>
     <use xlink:href="#DejaVuSans-69" x="39.013672"/>
     <use xlink:href="#DejaVuSans-6e" x="66.796875"/>
     <use xlink:href="#DejaVuSans-74" x="130.175781"/>
     <use xlink:href="#DejaVuSans-65" x="169.384766"/>
     <use xlink:href="#DejaVuSans-6e" x="230.908203"/>
     <use xlink:href="#DejaVuSans-74" x="294.287109"/>
     <use xlink:href="#DejaVuSans-20" x="333.496094"/>
     <use xlink:href="#DejaVuSans-6d" x="365.283203"/>
     <use xlink:href="#DejaVuSans-69" x="462.695312"/>
     <use xlink:href="#DejaVuSans-73" x="490.478516"/>
     <use xlink:href="#DejaVuSans-6d" x="542.578125"/>
     <use xlink:href="#DejaVuSans-61" x="639.990234"/>
     <use xlink:href="#DejaVuSans-74" x="701.269531"/>
     <use xlink:href="#DejaVuSans-63" x="740.478516"/>
     <use xlink:href="#DejaVuSans-68" x="795.458984"/>
     <use xlink:href="#DejaVuSans-29" x="858.837891"/>
    </g>
   </g>
   <g id="text_10">
    <!-- No -->
    <g style="fill: #4caf50" transform="translate(166.392 205.118125) scale(0.082 -0.082)">
     <use xlink:href="#DejaVuSans-4e"/>
     <use xlink:href="#DejaVuSans-6f" x="74.804688"/>
    </g>
   </g>
   <g id="patch_16">
    <path d="M 248.4 200.045484 
Q 248.4 212.190182 248.4 222.657828 
" style="fill: none; stroke: #000000; stroke-width: 1.5; stroke-linecap: round"/>
    <path d="M 250.4 218.657828 
L 248.4 222.657828 
L 246.4 218.657828 
" style="fill: none; stroke: #000000; stroke-width: 1.5; stroke-linecap: round"/>
   </g>
   <g id="text_11">
    <!-- Behavioral model present and current snapshot stable? -->
    <g transform="translate(134.475094 243.919479) scale(0.082 -0.082)">
     <defs>
      <path id="DejaVuSans-42" d="M 1259 2228 
L 1259 519 
L 2272 519 
Q 2781 519 3026 730 
Q 3272 941 3272 1375 
Q 3272 1813 3026 2020 
Q 2781 2228 2272 2228 
L 1259 2228 
z
M 1259 4147 
L 1259 2741 
L 2194 2741 
Q 2656 2741 2882 2914 
Q 3109 3088 3109 3444 
Q 3109 3797 2882 3972 
Q 2656 4147 2194 4147 
L 1259 4147 
z
M 628 4666 
L 2241 4666 
Q 2963 4666 3353 4366 
Q 3744 4066 3744 3513 
Q 3744 3084 3544 2831 
Q 3344 2578 2956 2516 
Q 3422 2416 3680 2098 
Q 3938 1781 3938 1306 
Q 3938 681 3513 340 
Q 3088 0 2303 0 
L 628 0 
L 628 4666 
z
" transform="scale(0.015625)"/>
     </defs>
     <use xlink:href="#DejaVuSans-42"/>
     <use xlink:href="#DejaVuSans-65" x="68.603516"/>
     <use xlink:href="#DejaVuSans-68" x="130.126953"/>
     <use xlink:href="#DejaVuSans-61" x="193.505859"/>
     <use xlink:href="#DejaVuSans-76" x="254.785156"/>
     <use xlink:href="#DejaVuSans-69" x="313.964844"/>
     <use xlink:href="#DejaVuSans-6f" x="341.748047"/>
     <use xlink:href="#DejaVuSans-72" x="402.929688"/>
     <use xlink:href="#DejaVuSans-61" x="444.042969"/>
     <use xlink:href="#DejaVuSans-6c" x="505.322266"/>
     <use xlink:href="#DejaVuSans-20" x="533.105469"/>
     <use xlink:href="#DejaVuSans-6d" x="564.892578"/>
     <use xlink:href="#DejaVuSans-6f" x="662.304688"/>
     <use xlink:href="#DejaVuSans-64" x="723.486328"/>
     <use xlink:href="#DejaVuSans-65" x="786.962891"/>
     <use xlink:href="#DejaVuSans-6c" x="848.486328"/>
     <use xlink:href="#DejaVuSans-20" x="876.269531"/>
     <use xlink:href="#DejaVuSans-70" x="908.056641"/>
     <use xlink:href="#DejaVuSans-72" x="971.533203"/>
     <use xlink:href="#DejaVuSans-65" x="1010.396484"/>
     <use xlink:href="#DejaVuSans-73" x="1071.919922"/>
     <use xlink:href="#DejaVuSans-65" x="1124.019531"/>
     <use xlink:href="#DejaVuSans-6e" x="1185.542969"/>
     <use xlink:href="#DejaVuSans-74" x="1248.921875"/>
     <use xlink:href="#DejaVuSans-20" x="1288.130859"/>
     <use xlink:href="#DejaVuSans-61" x="1319.917969"/>
     <use xlink:href="#DejaVuSans-6e" x="1381.197266"/>
     <use xlink:href="#DejaVuSans-64" x="1444.576172"/>
     <use xlink:href="#DejaVuSans-20" x="1508.052734"/>
     <use xlink:href="#DejaVuSans-63" x="1539.839844"/>
     <use xlink:href="#DejaVuSans-75" x="1594.820312"/>
     <use xlink:href="#DejaVuSans-72" x="1658.199219"/>
     <use xlink:href="#DejaVuSans-72" x="1697.5625"/>
     <use xlink:href="#DejaVuSans-65" x="1736.425781"/>
     <use xlink:href="#DejaVuSans-6e" x="1797.949219"/>
     <use xlink:href="#DejaVuSans-74" x="1861.328125"/>
     <use xlink:href="#DejaVuSans-20" x="1900.537109"/>
     <use xlink:href="#DejaVuSans-73" x="1932.324219"/>
     <use xlink:href="#DejaVuSans-6e" x="1984.423828"/>
     <use xlink:href="#DejaVuSans-61" x="2047.802734"/>
     <use xlink:href="#DejaVuSans-70" x="2109.082031"/>
     <use xlink:href="#DejaVuSans-73" x="2172.558594"/>
     <use xlink:href="#DejaVuSans-68" x="2224.658203"/>
     <use xlink:href="#DejaVuSans-6f" x="2288.037109"/>
     <use xlink:href="#DejaVuSans-74" x="2349.21875"/>
     <use xlink:href="#DejaVuSans-20" x="2388.427734"/>
     <use xlink:href="#DejaVuSans-73" x="2420.214844"/>
     <use xlink:href="#DejaVuSans-74" x="2472.314453"/>
     <use xlink:href="#DejaVuSans-61" x="2511.523438"/>
     <use xlink:href="#DejaVuSans-62" x="2572.802734"/>
     <use xlink:href="#DejaVuSans-6c" x="2636.279297"/>
     <use xlink:href="#DejaVuSans-65" x="2664.0625"/>
     <use xlink:href="#DejaVuSans-3f" x="2725.585938"/>
    </g>
   </g>
   <g id="patch_17">
    <path d="M 378.576226 239.843275 
Q 396.909897 240.703212 413.568358 241.484574 
" style="fill: none; stroke: #6c757d; stroke-width: 1.5; stroke-linecap: round"/>
    <path d="M 410.3688 239.692696 
L 413.568358 241.484574 
L 410.215121 242.969094 
" style="fill: none; stroke: #6c757d; stroke-width: 1.5; stroke-linecap: round"/>
   </g>
   <g id="text_12">
    <!-- No -->
    <g style="fill: #6c757d" transform="translate(363.424 241.656792) scale(0.082 -0.082)">
     <use xlink:href="#DejaVuSans-4e"/>
     <use xlink:href="#DejaVuSans-6f" x="74.804688"/>
    </g>
   </g>
   <g id="text_13">
    <!-- NO_MODEL / -->
    <g transform="translate(405.885844 240.320621) scale(0.082 -0.082)">
     <defs>
      <path id="DejaVuSans-4f" d="M 2522 4238 
Q 1834 4238 1429 3725 
Q 1025 3213 1025 2328 
Q 1025 1447 1429 934 
Q 1834 422 2522 422 
Q 3209 422 3611 934 
Q 4013 1447 4013 2328 
Q 4013 3213 3611 3725 
Q 3209 4238 2522 4238 
z
M 2522 4750 
Q 3503 4750 4090 4092 
Q 4678 3434 4678 2328 
Q 4678 1225 4090 567 
Q 3503 -91 2522 -91 
Q 1538 -91 948 565 
Q 359 1222 359 2328 
Q 359 3434 948 4092 
Q 1538 4750 2522 4750 
z
" transform="scale(0.015625)"/>
      <path id="DejaVuSans-5f" d="M 3263 -1063 
L 3263 -1509 
L -63 -1509 
L -63 -1063 
L 3263 -1063 
z
" transform="scale(0.015625)"/>
      <path id="DejaVuSans-4c" d="M 628 4666 
L 1259 4666 
L 1259 531 
L 3531 531 
L 3531 0 
L 628 0 
L 628 4666 
z
" transform="scale(0.015625)"/>
      <path id="DejaVuSans-2f" d="M 1625 4666 
L 2156 4666 
L 531 -594 
L 0 -594 
L 1625 4666 
z
" transform="scale(0.015625)"/>
     </defs>
     <use xlink:href="#DejaVuSans-4e"/>
     <use xlink:href="#DejaVuSans-4f" x="74.804688"/>
     <use xlink:href="#DejaVuSans-5f" x="153.515625"/>
     <use xlink:href="#DejaVuSans-4d" x="203.515625"/>
     <use xlink:href="#DejaVuSans-4f" x="289.794922"/>
     <use xlink:href="#DejaVuSans-44" x="368.505859"/>
     <use xlink:href="#DejaVuSans-45" x="445.507812"/>
     <use xlink:href="#DejaVuSans-4c" x="508.691406"/>
     <use xlink:href="#DejaVuSans-20" x="564.404297"/>
     <use xlink:href="#DejaVuSans-2f" x="596.191406"/>
    </g>
    <!-- RE-CHECK -->
    <g transform="translate(410.704625 249.73089) scale(0.082 -0.082)">
     <defs>
      <path id="DejaVuSans-48" d="M 628 4666 
L 1259 4666 
L 1259 2753 
L 3553 2753 
L 3553 4666 
L 4184 4666 
L 4184 0 
L 3553 0 
L 3553 2222 
L 1259 2222 
L 1259 0 
L 628 0 
L 628 4666 
z
" transform="scale(0.015625)"/>
      <path id="DejaVuSans-4b" d="M 628 4666 
L 1259 4666 
L 1259 2694 
L 3353 4666 
L 4166 4666 
L 1850 2491 
L 4331 0 
L 3500 0 
L 1259 2247 
L 1259 0 
L 628 0 
L 628 4666 
z
" transform="scale(0.015625)"/>
     </defs>
     <use xlink:href="#DejaVuSans-52"/>
     <use xlink:href="#DejaVuSans-45" x="69.482422"/>
     <use xlink:href="#DejaVuSans-2d" x="132.666016"/>
     <use xlink:href="#DejaVuSans-43" x="168.75"/>
     <use xlink:href="#DejaVuSans-48" x="238.574219"/>
     <use xlink:href="#DejaVuSans-45" x="313.769531"/>
     <use xlink:href="#DejaVuSans-43" x="376.953125"/>
     <use xlink:href="#DejaVuSans-4b" x="446.777344"/>
    </g>
   </g>
   <g id="text_14">
    <!-- Yes -->
    <g style="fill: #4caf50" transform="translate(166.392 261.694125) scale(0.082 -0.082)">
     <use xlink:href="#DejaVuSans-59"/>
     <use xlink:href="#DejaVuSans-65" x="47.833984"/>
     <use xlink:href="#DejaVuSans-73" x="109.357422"/>
    </g>
   </g>
   <g id="patch_18">
    <path d="M 248.4 256.621484 
Q 248.4 268.766182 248.4 279.233828 
" style="fill: none; stroke: #000000; stroke-width: 1.5; stroke-linecap: round"/>
    <path d="M 250.4 275.233828 
L 248.4 279.233828 
L 246.4 275.233828 
" style="fill: none; stroke: #000000; stroke-width: 1.5; stroke-linecap: round"/>
   </g>
   <g id="text_15">
    <!-- Two stable snapshots? -->
    <g transform="translate(202.57225 295.904376) scale(0.082 -0.082)">
     <defs>
      <path id="DejaVuSans-54" d="M -19 4666 
L 3928 4666 
L 3928 4134 
L 2272 4134 
L 2272 0 
L 1638 0 
L 1638 4134 
L -19 4134 
L -19 4666 
z
" transform="scale(0.015625)"/>
     </defs>
     <use xlink:href="#DejaVuSans-54"/>
     <use xlink:href="#DejaVuSans-77" x="44.583984"/>
     <use xlink:href="#DejaVuSans-6f" x="126.371094"/>
     <use xlink:href="#DejaVuSans-20" x="187.552734"/>
     <use xlink:href="#DejaVuSans-73" x="219.339844"/>
     <use xlink:href="#DejaVuSans-74" x="271.439453"/>
     <use xlink:href="#DejaVuSans-61" x="310.648438"/>
     <use xlink:href="#DejaVuSans-62" x="371.927734"/>
     <use xlink:href="#DejaVuSans-6c" x="435.404297"/>
     <use xlink:href="#DejaVuSans-65" x="463.1875"/>
     <use xlink:href="#DejaVuSans-20" x="524.710938"/>
     <use xlink:href="#DejaVuSans-73" x="556.498047"/>
     <use xlink:href="#DejaVuSans-6e" x="608.597656"/>
     <use xlink:href="#DejaVuSans-61" x="671.976562"/>
     <use xlink:href="#DejaVuSans-70" x="733.255859"/>
     <use xlink:href="#DejaVuSans-73" x="796.732422"/>
     <use xlink:href="#DejaVuSans-68" x="848.832031"/>
     <use xlink:href="#DejaVuSans-6f" x="912.210938"/>
     <use xlink:href="#DejaVuSans-74" x="973.392578"/>
     <use xlink:href="#DejaVuSans-73" x="1012.601562"/>
     <use xlink:href="#DejaVuSans-3f" x="1064.701172"/>
    </g>
    <!-- (no new sessions) -->
    <g transform="translate(211.701156 305.086582) scale(0.082 -0.082)">
     <use xlink:href="#DejaVuSans-28"/>
     <use xlink:href="#DejaVuSans-6e" x="39.013672"/>
     <use xlink:href="#DejaVuSans-6f" x="102.392578"/>
     <use xlink:href="#DejaVuSans-20" x="163.574219"/>
     <use xlink:href="#DejaVuSans-6e" x="195.361328"/>
     <use xlink:href="#DejaVuSans-65" x="258.740234"/>
     <use xlink:href="#DejaVuSans-77" x="320.263672"/>
     <use xlink:href="#DejaVuSans-20" x="402.050781"/>
     <use xlink:href="#DejaVuSans-73" x="433.837891"/>
     <use xlink:href="#DejaVuSans-65" x="485.9375"/>
     <use xlink:href="#DejaVuSans-73" x="547.460938"/>
     <use xlink:href="#DejaVuSans-73" x="599.560547"/>
     <use xlink:href="#DejaVuSans-69" x="651.660156"/>
     <use xlink:href="#DejaVuSans-6f" x="679.443359"/>
     <use xlink:href="#DejaVuSans-6e" x="740.625"/>
     <use xlink:href="#DejaVuSans-73" x="804.003906"/>
     <use xlink:href="#DejaVuSans-29" x="856.103516"/>
    </g>
   </g>
   <g id="text_16">
    <!-- No → re-check -->
    <g style="fill: #6c757d" transform="translate(190.512 318.270125) scale(0.082 -0.082)">
     <defs>
      <path id="DejaVuSans-2192" d="M 5050 2147 
L 5050 1866 
L 3822 638 
L 3447 1013 
L 4175 1741 
L 366 1741 
L 366 2272 
L 4175 2272 
L 3447 3000 
L 3822 3375 
L 5050 2147 
z
" transform="scale(0.015625)"/>
      <path id="DejaVuSans-6b" d="M 581 4863 
L 1159 4863 
L 1159 1991 
L 2875 3500 
L 3609 3500 
L 1753 1863 
L 3688 0 
L 2938 0 
L 1159 1709 
L 1159 0 
L 581 0 
L 581 4863 
z
" transform="scale(0.015625)"/>
     </defs>
     <use xlink:href="#DejaVuSans-4e"/>
     <use xlink:href="#DejaVuSans-6f" x="74.804688"/>
     <use xlink:href="#DejaVuSans-20" x="135.986328"/>
     <use xlink:href="#DejaVuSans-2192" x="167.773438"/>
     <use xlink:href="#DejaVuSans-20" x="251.5625"/>
     <use xlink:href="#DejaVuSans-72" x="283.349609"/>
     <use xlink:href="#DejaVuSans-65" x="322.212891"/>
     <use xlink:href="#DejaVuSans-2d" x="383.736328"/>
     <use xlink:href="#DejaVuSans-63" x="419.820312"/>
     <use xlink:href="#DejaVuSans-68" x="474.800781"/>
     <use xlink:href="#DejaVuSans-65" x="538.179688"/>
     <use xlink:href="#DejaVuSans-63" x="599.703125"/>
     <use xlink:href="#DejaVuSans-6b" x="654.683594"/>
    </g>
   </g>
   <g id="patch_19">
    <path d="M 150.195355 297.222668 
Q 115.742081 277.536104 82.453727 296.554736 
" style="fill: none; stroke: #6c757d; stroke-width: 1.2; stroke-linecap: round"/>
    <path d="M 86.918996 296.306999 
L 82.453727 296.554736 
L 84.934699 292.833879 
" style="fill: none; stroke: #6c757d; stroke-width: 1.2; stroke-linecap: round"/>
   </g>
   <g id="patch_20">
    <path d="M 79.56 296.234997 
Q 79.56 190.385322 79.56 85.877288 
" style="fill: none; stroke: #6c757d; stroke-width: 1.2; stroke-linecap: round"/>
    <path d="M 77.56 89.877288 
L 79.56 85.877288 
L 81.56 89.877288 
" style="fill: none; stroke: #6c757d; stroke-width: 1.2; stroke-linecap: round"/>
   </g>
   <g id="patch_21">
    <path d="M 248.4 313.197484 
Q 248.4 325.342182 248.4 335.809828 
" style="fill: none; stroke: #000000; stroke-width: 1.5; stroke-linecap: round"/>
    <path d="M 250.4 331.809828 
L 248.4 335.809828 
L 246.4 331.809828 
" style="fill: none; stroke: #000000; stroke-width: 1.5; stroke-linecap: round"/>
   </g>
   <g id="text_17">
    <!-- CLEAN -->
    <g transform="translate(234.789922 339.515043) scale(0.082 -0.082)">
     <use xlink:href="#DejaVuSans-43"/>
     <use xlink:href="#DejaVuSans-4c" x="69.824219"/>
     <use xlink:href="#DejaVuSans-45" x="125.537109"/>
     <use xlink:href="#DejaVuSans-41" x="188.720703"/>
     <use xlink:href="#DejaVuSans-4e" x="257.128906"/>
    </g>
    <!-- (all explained) -->
    <g transform="translate(219.111906 348.697249) scale(0.082 -0.082)">
     <use xlink:href="#DejaVuSans-28"/>
     <use xlink:href="#DejaVuSans-61" x="39.013672"/>
     <use xlink:href="#DejaVuSans-6c" x="100.292969"/>
     <use xlink:href="#DejaVuSans-6c" x="128.076172"/>
     <use xlink:href="#DejaVuSans-20" x="155.859375"/>
     <use xlink:href="#DejaVuSans-65" x="187.646484"/>
     <use xlink:href="#DejaVuSans-78" x="247.419922"/>
     <use xlink:href="#DejaVuSans-70" x="306.599609"/>
     <use xlink:href="#DejaVuSans-6c" x="370.076172"/>
     <use xlink:href="#DejaVuSans-61" x="397.859375"/>
     <use xlink:href="#DejaVuSans-69" x="459.138672"/>
     <use xlink:href="#DejaVuSans-6e" x="486.921875"/>
     <use xlink:href="#DejaVuSans-65" x="550.300781"/>
     <use xlink:href="#DejaVuSans-64" x="611.824219"/>
     <use xlink:href="#DejaVuSans-29" x="675.300781"/>
    </g>
   </g>
   <g id="text_18">
    <!-- Reference Decision Flow (Intent Mismatch + Guardrails) -->
    <g transform="translate(58.185937 16.318125) scale(0.12 -0.12)">
     <defs>
      <path id="DejaVuSans-Bold-52" d="M 2297 2597 
Q 2675 2597 2839 2737 
Q 3003 2878 3003 3200 
Q 3003 3519 2839 3656 
Q 2675 3794 2297 3794 
L 1791 3794 
L 1791 2597 
L 2297 2597 
z
M 1791 1766 
L 1791 0 
L 588 0 
L 588 4666 
L 2425 4666 
Q 3347 4666 3776 4356 
Q 4206 4047 4206 3378 
Q 4206 2916 3982 2619 
Q 3759 2322 3309 2181 
Q 3556 2125 3751 1926 
Q 3947 1728 4147 1325 
L 4800 0 
L 3519 0 
L 2950 1159 
Q 2778 1509 2601 1637 
Q 2425 1766 2131 1766 
L 1791 1766 
z
" transform="scale(0.015625)"/>
      <path id="DejaVuSans-Bold-65" d="M 4031 1759 
L 4031 1441 
L 1416 1441 
Q 1456 1047 1700 850 
Q 1944 653 2381 653 
Q 2734 653 3104 758 
Q 3475 863 3866 1075 
L 3866 213 
Q 3469 63 3072 -14 
Q 2675 -91 2278 -91 
Q 1328 -91 801 392 
Q 275 875 275 1747 
Q 275 2603 792 3093 
Q 1309 3584 2216 3584 
Q 3041 3584 3536 3087 
Q 4031 2591 4031 1759 
z
M 2881 2131 
Q 2881 2450 2695 2645 
Q 2509 2841 2209 2841 
Q 1884 2841 1681 2658 
Q 1478 2475 1428 2131 
L 2881 2131 
z
" transform="scale(0.015625)"/>
      <path id="DejaVuSans-Bold-66" d="M 2841 4863 
L 2841 4128 
L 2222 4128 
Q 1984 4128 1890 4042 
Q 1797 3956 1797 3744 
L 1797 3500 
L 2753 3500 
L 2753 2700 
L 1797 2700 
L 1797 0 
L 678 0 
L 678 2700 
L 122 2700 
L 122 3500 
L 678 3500 
L 678 3744 
Q 678 4316 997 4589 
Q 1316 4863 1984 4863 
L 2841 4863 
z
" transform="scale(0.015625)"/>
      <path id="DejaVuSans-Bold-72" d="M 3138 2547 
Q 2991 2616 2845 2648 
Q 2700 2681 2553 2681 
Q 2122 2681 1889 2404 
Q 1656 2128 1656 1613 
L 1656 0 
L 538 0 
L 538 3500 
L 1656 3500 
L 1656 2925 
Q 1872 3269 2151 3426 
Q 2431 3584 2822 3584 
Q 2878 3584 2943 3579 
Q 3009 3575 3134 3559 
L 3138 2547 
z
" transform="scale(0.015625)"/>
      <path id="DejaVuSans-Bold-6e" d="M 4056 2131 
L 4056 0 
L 2931 0 
L 2931 347 
L 2931 1631 
Q 2931 2084 2911 2256 
Q 2891 2428 2841 2509 
Q 2775 2619 2662 2680 
Q 2550 2741 2406 2741 
Q 2056 2741 1856 2470 
Q 1656 2200 1656 1722 
L 1656 0 
L 538 0 
L 538 3500 
L 1656 3500 
L 1656 2988 
Q 1909 3294 2193 3439 
Q 2478 3584 2822 3584 
Q 3428 3584 3742 3212 
Q 4056 2841 4056 2131 
z
" transform="scale(0.015625)"/>
      <path id="DejaVuSans-Bold-63" d="M 3366 3391 
L 3366 2478 
Q 3138 2634 2908 2709 
Q 2678 2784 2431 2784 
Q 1963 2784 1702 2511 
Q 1441 2238 1441 1747 
Q 1441 1256 1702 982 
Q 1963 709 2431 709 
Q 2694 709 2930 787 
Q 3166 866 3366 1019 
L 3366 103 
Q 3103 6 2833 -42 
Q 2563 -91 2291 -91 
Q 1344 -91 809 395 
Q 275 881 275 1747 
Q 275 2613 809 3098 
Q 1344 3584 2291 3584 
Q 2566 3584 2833 3536 
Q 3100 3488 3366 3391 
z
" transform="scale(0.015625)"/>
      <path id="DejaVuSans-Bold-20" transform="scale(0.015625)"/>
      <path id="DejaVuSans-Bold-44" d="M 1791 3756 
L 1791 909 
L 2222 909 
Q 2959 909 3348 1275 
Q 3738 1641 3738 2338 
Q 3738 3031 3350 3393 
Q 2963 3756 2222 3756 
L 1791 3756 
z
M 588 4666 
L 1856 4666 
Q 2919 4666 3439 4514 
Q 3959 4363 4331 4000 
Q 4659 3684 4818 3271 
Q 4978 2859 4978 2338 
Q 4978 1809 4818 1395 
Q 4659 981 4331 666 
Q 3956 303 3431 151 
Q 2906 0 1856 0 
L 588 0 
L 588 4666 
z
" transform="scale(0.015625)"/>
      <path id="DejaVuSans-Bold-69" d="M 538 3500 
L 1656 3500 
L 1656 0 
L 538 0 
L 538 3500 
z
M 538 4863 
L 1656 4863 
L 1656 3950 
L 538 3950 
L 538 4863 
z
" transform="scale(0.015625)"/>
      <path id="DejaVuSans-Bold-73" d="M 3272 3391 
L 3272 2541 
Q 2913 2691 2578 2766 
Q 2244 2841 1947 2841 
Q 1628 2841 1473 2761 
Q 1319 2681 1319 2516 
Q 1319 2381 1436 2309 
Q 1553 2238 1856 2203 
L 2053 2175 
Q 2913 2066 3209 1816 
Q 3506 1566 3506 1031 
Q 3506 472 3093 190 
Q 2681 -91 1863 -91 
Q 1516 -91 1145 -36 
Q 775 19 384 128 
L 384 978 
Q 719 816 1070 734 
Q 1422 653 1784 653 
Q 2113 653 2278 743 
Q 2444 834 2444 1013 
Q 2444 1163 2330 1236 
Q 2216 1309 1875 1350 
L 1678 1375 
Q 931 1469 631 1722 
Q 331 1975 331 2491 
Q 331 3047 712 3315 
Q 1094 3584 1881 3584 
Q 2191 3584 2531 3537 
Q 2872 3491 3272 3391 
z
" transform="scale(0.015625)"/>
      <path id="DejaVuSans-Bold-6f" d="M 2203 2784 
Q 1831 2784 1636 2517 
Q 1441 2250 1441 1747 
Q 1441 1244 1636 976 
Q 1831 709 2203 709 
Q 2569 709 2762 976 
Q 2956 1244 2956 1747 
Q 2956 2250 2762 2517 
Q 2569 2784 2203 2784 
z
M 2203 3584 
Q 3106 3584 3614 3096 
Q 4122 2609 4122 1747 
Q 4122 884 3614 396 
Q 3106 -91 2203 -91 
Q 1297 -91 786 396 
Q 275 884 275 1747 
Q 275 2609 786 3096 
Q 1297 3584 2203 3584 
z
" transform="scale(0.015625)"/>
      <path id="DejaVuSans-Bold-46" d="M 588 4666 
L 3834 4666 
L 3834 3756 
L 1791 3756 
L 1791 2888 
L 3713 2888 
L 3713 1978 
L 1791 1978 
L 1791 0 
L 588 0 
L 588 4666 
z
" transform="scale(0.015625)"/>
      <path id="DejaVuSans-Bold-6c" d="M 538 4863 
L 1656 4863 
L 1656 0 
L 538 0 
L 538 4863 
z
" transform="scale(0.015625)"/>
      <path id="DejaVuSans-Bold-77" d="M 225 3500 
L 1313 3500 
L 1900 1088 
L 2491 3500 
L 3425 3500 
L 4013 1113 
L 4603 3500 
L 5691 3500 
L 4769 0 
L 3547 0 
L 2956 2406 
L 2369 0 
L 1147 0 
L 225 3500 
z
" transform="scale(0.015625)"/>
      <path id="DejaVuSans-Bold-28" d="M 2413 -844 
L 1484 -844 
Q 1006 -72 778 623 
Q 550 1319 550 2003 
Q 550 2688 779 3389 
Q 1009 4091 1484 4856 
L 2413 4856 
Q 2013 4116 1813 3408 
Q 1613 2700 1613 2009 
Q 1613 1319 1811 609 
Q 2009 -100 2413 -844 
z
" transform="scale(0.015625)"/>
      <path id="DejaVuSans-Bold-49" d="M 588 4666 
L 1791 4666 
L 1791 0 
L 588 0 
L 588 4666 
z
" transform="scale(0.015625)"/>
      <path id="DejaVuSans-Bold-74" d="M 1759 4494 
L 1759 3500 
L 2913 3500 
L 2913 2700 
L 1759 2700 
L 1759 1216 
Q 1759 972 1856 886 
Q 1953 800 2241 800 
L 2816 800 
L 2816 0 
L 1856 0 
Q 1194 0 917 276 
Q 641 553 641 1216 
L 641 2700 
L 84 2700 
L 84 3500 
L 641 3500 
L 641 4494 
L 1759 4494 
z
" transform="scale(0.015625)"/>
      <path id="DejaVuSans-Bold-4d" d="M 588 4666 
L 2119 4666 
L 3181 2169 
L 4250 4666 
L 5778 4666 
L 5778 0 
L 4641 0 
L 4641 3413 
L 3566 897 
L 2803 897 
L 1728 3413 
L 1728 0 
L 588 0 
L 588 4666 
z
" transform="scale(0.015625)"/>
      <path id="DejaVuSans-Bold-6d" d="M 3781 2919 
Q 3994 3244 4286 3414 
Q 4578 3584 4928 3584 
Q 5531 3584 5847 3212 
Q 6163 2841 6163 2131 
L 6163 0 
L 5038 0 
L 5038 1825 
Q 5041 1866 5042 1909 
Q 5044 1953 5044 2034 
Q 5044 2406 4934 2573 
Q 4825 2741 4581 2741 
Q 4263 2741 4089 2478 
Q 3916 2216 3909 1719 
L 3909 0 
L 2784 0 
L 2784 1825 
Q 2784 2406 2684 2573 
Q 2584 2741 2328 2741 
Q 2006 2741 1831 2477 
Q 1656 2213 1656 1722 
L 1656 0 
L 531 0 
L 531 3500 
L 1656 3500 
L 1656 2988 
Q 1863 3284 2130 3434 
Q 2397 3584 2719 3584 
Q 3081 3584 3359 3409 
Q 3638 3234 3781 2919 
z
" transform="scale(0.015625)"/>
      <path id="DejaVuSans-Bold-61" d="M 2106 1575 
Q 1756 1575 1579 1456 
Q 1403 1338 1403 1106 
Q 1403 894 1545 773 
Q 1688 653 1941 653 
Q 2256 653 2472 879 
Q 2688 1106 2688 1447 
L 2688 1575 
L 2106 1575 
z
M 3816 1997 
L 3816 0 
L 2688 0 
L 2688 519 
Q 2463 200 2181 54 
Q 1900 -91 1497 -91 
Q 953 -91 614 226 
Q 275 544 275 1050 
Q 275 1666 698 1953 
Q 1122 2241 2028 2241 
L 2688 2241 
L 2688 2328 
Q 2688 2594 2478 2717 
Q 2269 2841 1825 2841 
Q 1466 2841 1156 2769 
Q 847 2697 581 2553 
L 581 3406 
Q 941 3494 1303 3539 
Q 1666 3584 2028 3584 
Q 2975 3584 3395 3211 
Q 3816 2838 3816 1997 
z
" transform="scale(0.015625)"/>
      <path id="DejaVuSans-Bold-68" d="M 4056 2131 
L 4056 0 
L 2931 0 
L 2931 347 
L 2931 1625 
Q 2931 2084 2911 2256 
Q 2891 2428 2841 2509 
Q 2775 2619 2662 2680 
Q 2550 2741 2406 2741 
Q 2056 2741 1856 2470 
Q 1656 2200 1656 1722 
L 1656 0 
L 538 0 
L 538 4863 
L 1656 4863 
L 1656 2988 
Q 1909 3294 2193 3439 
Q 2478 3584 2822 3584 
Q 3428 3584 3742 3212 
Q 4056 2841 4056 2131 
z
" transform="scale(0.015625)"/>
      <path id="DejaVuSans-Bold-2b" d="M 3053 4013 
L 3053 2375 
L 4684 2375 
L 4684 1638 
L 3053 1638 
L 3053 0 
L 2309 0 
L 2309 1638 
L 678 1638 
L 678 2375 
L 2309 2375 
L 2309 4013 
L 3053 4013 
z
" transform="scale(0.015625)"/>
      <path id="DejaVuSans-Bold-47" d="M 4781 347 
Q 4331 128 3847 18 
Q 3363 -91 2847 -91 
Q 1681 -91 1000 561 
Q 319 1213 319 2328 
Q 319 3456 1012 4103 
Q 1706 4750 2913 4750 
Q 3378 4750 3804 4662 
Q 4231 4575 4609 4403 
L 4609 3438 
Q 4219 3659 3833 3768 
Q 3447 3878 3059 3878 
Q 2341 3878 1952 3476 
Q 1563 3075 1563 2328 
Q 1563 1588 1938 1184 
Q 2313 781 3003 781 
Q 3191 781 3352 804 
Q 3513 828 3641 878 
L 3641 1784 
L 2906 1784 
L 2906 2591 
L 4781 2591 
L 4781 347 
z
" transform="scale(0.015625)"/>
      <path id="DejaVuSans-Bold-75" d="M 500 1363 
L 500 3500 
L 1625 3500 
L 1625 3150 
Q 1625 2866 1622 2436 
Q 1619 2006 1619 1863 
Q 1619 1441 1641 1255 
Q 1663 1069 1716 984 
Q 1784 875 1895 815 
Q 2006 756 2150 756 
Q 2500 756 2700 1025 
Q 2900 1294 2900 1772 
L 2900 3500 
L 4019 3500 
L 4019 0 
L 2900 0 
L 2900 506 
Q 2647 200 2364 54 
Q 2081 -91 1741 -91 
Q 1134 -91 817 281 
Q 500 653 500 1363 
z
" transform="scale(0.015625)"/>
      <path id="DejaVuSans-Bold-64" d="M 2919 2988 
L 2919 4863 
L 4044 4863 
L 4044 0 
L 2919 0 
L 2919 506 
Q 2688 197 2409 53 
Q 2131 -91 1766 -91 
Q 1119 -91 703 423 
Q 288 938 288 1747 
Q 288 2556 703 3070 
Q 1119 3584 1766 3584 
Q 2128 3584 2408 3439 
Q 2688 3294 2919 2988 
z
M 2181 722 
Q 2541 722 2730 984 
Q 2919 1247 2919 1747 
Q 2919 2247 2730 2509 
Q 2541 2772 2181 2772 
Q 1825 2772 1636 2509 
Q 1447 2247 1447 1747 
Q 1447 1247 1636 984 
Q 1825 722 2181 722 
z
" transform="scale(0.015625)"/>
      <path id="DejaVuSans-Bold-29" d="M 513 -844 
Q 913 -100 1113 609 
Q 1313 1319 1313 2009 
Q 1313 2700 1113 3408 
Q 913 4116 513 4856 
L 1441 4856 
Q 1916 4091 2145 3389 
Q 2375 2688 2375 2003 
Q 2375 1319 2147 623 
Q 1919 -72 1441 -844 
L 513 -844 
z
" transform="scale(0.015625)"/>
     </defs>
     <use xlink:href="#DejaVuSans-Bold-52"/>
     <use xlink:href="#DejaVuSans-Bold-65" x="77.001953"/>
     <use xlink:href="#DejaVuSans-Bold-66" x="144.824219"/>
     <use xlink:href="#DejaVuSans-Bold-65" x="188.330078"/>
     <use xlink:href="#DejaVuSans-Bold-72" x="256.152344"/>
     <use xlink:href="#DejaVuSans-Bold-65" x="305.46875"/>
     <use xlink:href="#DejaVuSans-Bold-6e" x="373.291016"/>
     <use xlink:href="#DejaVuSans-Bold-63" x="444.482422"/>
     <use xlink:href="#DejaVuSans-Bold-65" x="503.759766"/>
     <use xlink:href="#DejaVuSans-Bold-20" x="571.582031"/>
     <use xlink:href="#DejaVuSans-Bold-44" x="606.396484"/>
     <use xlink:href="#DejaVuSans-Bold-65" x="689.404297"/>
     <use xlink:href="#DejaVuSans-Bold-63" x="757.226562"/>
     <use xlink:href="#DejaVuSans-Bold-69" x="816.503906"/>
     <use xlink:href="#DejaVuSans-Bold-73" x="850.78125"/>
     <use xlink:href="#DejaVuSans-Bold-69" x="910.302734"/>
     <use xlink:href="#DejaVuSans-Bold-6f" x="944.580078"/>
     <use xlink:href="#DejaVuSans-Bold-6e" x="1013.28125"/>
     <use xlink:href="#DejaVuSans-Bold-20" x="1084.472656"/>
     <use xlink:href="#DejaVuSans-Bold-46" x="1119.287109"/>
     <use xlink:href="#DejaVuSans-Bold-6c" x="1187.597656"/>
     <use xlink:href="#DejaVuSans-Bold-6f" x="1221.875"/>
     <use xlink:href="#DejaVuSans-Bold-77" x="1290.576172"/>
     <use xlink:href="#DejaVuSans-Bold-20" x="1382.958984"/>
     <use xlink:href="#DejaVuSans-Bold-28" x="1417.773438"/>
     <use xlink:href="#DejaVuSans-Bold-49" x="1463.476562"/>
     <use xlink:href="#DejaVuSans-Bold-6e" x="1500.683594"/>
     <use xlink:href="#DejaVuSans-Bold-74" x="1571.875"/>
     <use xlink:href="#DejaVuSans-Bold-65" x="1619.677734"/>
     <use xlink:href="#DejaVuSans-Bold-6e" x="1687.5"/>
     <use xlink:href="#DejaVuSans-Bold-74" x="1758.691406"/>
     <use xlink:href="#DejaVuSans-Bold-20" x="1806.494141"/>
     <use xlink:href="#DejaVuSans-Bold-4d" x="1841.308594"/>
     <use xlink:href="#DejaVuSans-Bold-69" x="1940.820312"/>
     <use xlink:href="#DejaVuSans-Bold-73" x="1975.097656"/>
     <use xlink:href="#DejaVuSans-Bold-6d" x="2034.619141"/>
     <use xlink:href="#DejaVuSans-Bold-61" x="2138.818359"/>
     <use xlink:href="#DejaVuSans-Bold-74" x="2206.298828"/>
     <use xlink:href="#DejaVuSans-Bold-63" x="2254.101562"/>
     <use xlink:href="#DejaVuSans-Bold-68" x="2313.378906"/>
     <use xlink:href="#DejaVuSans-Bold-20" x="2384.570312"/>
     <use xlink:href="#DejaVuSans-Bold-2b" x="2419.384766"/>
     <use xlink:href="#DejaVuSans-Bold-20" x="2503.173828"/>
     <use xlink:href="#DejaVuSans-Bold-47" x="2537.988281"/>
     <use xlink:href="#DejaVuSans-Bold-75" x="2620.068359"/>
     <use xlink:href="#DejaVuSans-Bold-61" x="2691.259766"/>
     <use xlink:href="#DejaVuSans-Bold-72" x="2758.740234"/>
     <use xlink:href="#DejaVuSans-Bold-64" x="2808.056641"/>
     <use xlink:href="#DejaVuSans-Bold-72" x="2879.638672"/>
     <use xlink:href="#DejaVuSans-Bold-61" x="2928.955078"/>
     <use xlink:href="#DejaVuSans-Bold-69" x="2996.435547"/>
     <use xlink:href="#DejaVuSans-Bold-6c" x="3030.712891"/>
     <use xlink:href="#DejaVuSans-Bold-73" x="3064.990234"/>
     <use xlink:href="#DejaVuSans-Bold-29" x="3124.511719"/>
    </g>
   </g>
  </g>
 </g>
 <defs>
  <clipPath id="pb35b29c00f">
   <rect x="7.2" y="28.318125" width="482.4" height="424.32"/>
  </clipPath>
 </defs>
</svg>
