<?xml version="1.0" encoding="utf-8" standalone="no"?>
<!DOCTYPE svg PUBLIC "-//W3C//DTD SVG 1.1//EN"
  "http://www.w3.org/Graphics/SVG/1.1/DTD/svg11.dtd">
<svg xmlns:xlink="http://www.w3.org/1999/xlink" width="626.4pt" height="431.038125pt" viewBox="0 0 626.4 431.038125" xmlns="http://www.w3.org/2000/svg" version="1.1">
 <metadata>
  <rdf:RDF xmlns:dc="http://purl.org/dc/elements/1.1/" xmlns:cc="http://creativecommons.org/ns#" xmlns:rdf="http://www.w3.org/1999/02/22-rdf-syntax-ns#">
   <cc:Work>
    <dc:type rdf:resource="http://purl.org/dc/dcmitype/StillImage"/>
    <dc:date>2026-03-13T09:13:32.581683</dc:date>
    <dc:format>image/svg+xml</dc:format>
    <dc:creator>
     <cc:Agent>
      <dc:title>Matplotlib v3.9.2, https://matplotlib.org/</dc:title>
     </cc:Agent>
    </dc:creator>
   </cc:Work>
  </rdf:RDF>
 </metadata>
 <defs>
  <style type="text/css">*{stroke-linejoin: round; stroke-linecap: butt}</style>
 </defs>
 <g id="figure_1">
  <g id="patch_1">
   <path d="M 0 431.038125 
L 626.4 431.038125 
L 626.4 0 
L 0 0 
z
" style="fill: #ffffff"/>
  </g>
  <g id="axes_1">
   <g id="patch_2">
    <path d="M 53.1 115.332525 
L 108.18 115.332525 
Q 157.14 115.332525 157.14 83.690925 
L 157.14 91.601325 
Q 157.14 59.959725 108.18 59.959725 
L 53.1 59.959725 
Q 4.14 59.959725 4.14 91.601325 
L 4.14 83.690925 
Q 4.14 115.332525 53.1 115.332525 
z
" clip-path="url(#pe8bc51c0c1)" style="fill: #d6e9f8; stroke: #3b7dd8; stroke-width: 1.4; stroke-linejoin: miter"/>
   </g>
   <g id="line2d_1">
    <path d="M 80.64 119.287725 
L 80.64 103.466925 
" clip-path="url(#pe8bc51c0c1)" style="fill: none; stroke-dasharray: 3.7,1.6; stroke-dashoffset: 0; stroke: #3b7dd8; stroke-opacity: 0.45"/>
   </g>
   <g id="patch_3">
    <path d="M 169.38 115.332525 
L 224.46 115.332525 
Q 273.42 115.332525 273.42 83.690925 
L 273.42 91.601325 
Q 273.42 59.959725 224.46 59.959725 
L 169.38 59.959725 
Q 120.42 59.959725 120.42 91.601325 
L 120.42 83.690925 
Q 120.42 115.332525 169.38 115.332525 
z
" clip-path="url(#pe8bc51c0c1)" style="fill: #d5ecd5; stroke: #4caf50; stroke-width: 1.4; stroke-linejoin: miter"/>
   </g>
   <g id="line2d_2">
    <path d="M 196.92 119.287725 
L 196.92 103.466925 
" clip-path="url(#pe8bc51c0c1)" style="fill: none; stroke-dasharray: 3.7,1.6; stroke-dashoffset: 0; stroke: #4caf50; stroke-opacity: 0.45"/>
   </g>
   <g id="patch_4">
    <path d="M 285.66 115.332525 
L 340.74 115.332525 
Q 389.7 115.332525 389.7 83.690925 
L 389.7 91.601325 
Q 389.7 59.959725 340.74 59.959725 
L 285.66 59.959725 
Q 236.7 59.959725 236.7 91.601325 
L 236.7 83.690925 
Q 236.7 115.332525 285.66 115.332525 
z
" clip-path="url(#pe8bc51c0c1)" style="fill: #e8dff0; stroke: #8e6fbf; stroke-width: 1.4; stroke-linejoin: miter"/>
   </g>
   <g id="line2d_3">
    <path d="M 313.2 119.287725 
L 313.2 103.466925 
" clip-path="url(#pe8bc51c0c1)" style="fill: none; stroke-dasharray: 3.7,1.6; stroke-dashoffset: 0; stroke: #8e6fbf; stroke-opacity: 0.45"/>
   </g>
   <g id="patch_5">
    <path d="M 401.94 115.332525 
L 457.02 115.332525 
Q 505.98 115.332525 505.98 83.690925 
L 505.98 91.601325 
Q 505.98 59.959725 457.02 59.959725 
L 401.94 59.959725 
Q 352.98 59.959725 352.98 91.601325 
L 352.98 83.690925 
Q 352.98 115.332525 401.94 115.332525 
z
" clip-path="url(#pe8bc51c0c1)" style="fill: #efe6f8; stroke: #8e6fbf; stroke-width: 1.4; stroke-linejoin: miter"/>
   </g>
   <g id="line2d_4">
    <path d="M 429.48 119.287725 
L 429.48 103.466925 
" clip-path="url(#pe8bc51c0c1)" style="fill: none; stroke-dasharray: 3.7,1.6; stroke-dashoffset: 0; stroke: #8e6fbf; stroke-opacity: 0.45"/>
   </g>
   <g id="patch_6">
    <path d="M 518.22 115.332525 
L 573.3 115.332525 
Q 622.26 115.332525 622.26 83.690925 
L 622.26 91.601325 
Q 622.26 59.959725 573.3 59.959725 
L 518.22 59.959725 
Q 469.26 59.959725 469.26 91.601325 
L 469.26 83.690925 
Q 469.26 115.332525 518.22 115.332525 
z
" clip-path="url(#pe8bc51c0c1)" style="fill: #fde8d0; stroke: #e8833a; stroke-width: 1.4; stroke-linejoin: miter"/>
   </g>
   <g id="line2d_5">
    <path d="M 545.76 119.287725 
L 545.76 103.466925 
" clip-path="url(#pe8bc51c0c1)" style="fill: none; stroke-dasharray: 3.7,1.6; stroke-dashoffset: 0; stroke: #e8833a; stroke-opacity: 0.45"/>
   </g>
   <g id="patch_7">
    <path d="M 74.52 202.346925 
L 551.88 202.346925 
Q 600.84 202.346925 600.84 170.705325 
L 600.84 154.884525 
Q 600.84 123.242925 551.88 123.242925 
L 74.52 123.242925 
Q 25.56 123.242925 25.56 154.884525 
L 25.56 170.705325 
Q 25.56 202.346925 74.52 202.346925 
z
" clip-path="url(#pe8bc51c0c1)" style="fill: #f7faff; stroke: #3b7dd8; stroke-width: 1.4; stroke-linejoin: miter"/>
   </g>
   <g id="patch_8">
    <path d="M 74.52 348.689325 
L 551.88 348.689325 
Q 600.84 348.689325 600.84 317.047725 
L 600.84 233.988525 
Q 600.84 202.346925 551.88 202.346925 
L 74.52 202.346925 
Q 25.56 202.346925 25.56 233.988525 
L 25.56 317.047725 
Q 25.56 348.689325 74.52 348.689325 
z
" clip-path="url(#pe8bc51c0c1)" style="fill: #fff7ea; stroke: #e8833a; stroke-width: 1.4; stroke-linejoin: miter"/>
   </g>
   <g id="patch_9">
    <path d="M 74.52 415.927725 
L 551.88 415.927725 
Q 600.84 415.927725 600.84 384.286125 
L 600.84 380.330925 
Q 600.84 348.689325 551.88 348.689325 
L 74.52 348.689325 
Q 25.56 348.689325 25.56 380.330925 
L 25.56 384.286125 
Q 25.56 415.927725 74.52 415.927725 
z
" clip-path="url(#pe8bc51c0c1)" style="fill: #f3f8f4; stroke: #4caf50; stroke-width: 1.4; stroke-linejoin: miter"/>
   </g>
   <g id="text_1">
    <!-- Scenario Script -->
    <g style="fill: #3b7dd8" transform="translate(44.984367 83.827516) scale(0.083 -0.083)">
     <defs>
      <path id="DejaVuSans-Bold-53" d="M 3834 4519 
L 3834 3531 
Q 3450 3703 3084 3790 
Q 2719 3878 2394 3878 
Q 1963 3878 1756 3759 
Q 1550 3641 1550 3391 
Q 1550 3203 1689 3098 
Q 1828 2994 2194 2919 
L 2706 2816 
Q 3484 2659 3812 2340 
Q 4141 2022 4141 1434 
Q 4141 663 3683 286 
Q 3225 -91 2284 -91 
Q 1841 -91 1394 -6 
Q 947 78 500 244 
L 500 1259 
Q 947 1022 1364 901 
Q 1781 781 2169 781 
Q 2563 781 2772 912 
Q 2981 1044 2981 1288 
Q 2981 1506 2839 1625 
Q 2697 1744 2272 1838 
L 1806 1941 
Q 1106 2091 782 2419 
Q 459 2747 459 3303 
Q 459 4000 909 4375 
Q 1359 4750 2203 4750 
Q 2588 4750 2994 4692 
Q 3400 4634 3834 4519 
z
" transform="scale(0.015625)"/>
      <path id="DejaVuSans-Bold-63" d="M 3366 3391 
L 3366 2478 
Q 3138 2634 2908 2709 
Q 2678 2784 2431 2784 
Q 1963 2784 1702 2511 
Q 1441 2238 1441 1747 
Q 1441 1256 1702 982 
Q 1963 709 2431 709 
Q 2694 709 2930 787 
Q 3166 866 3366 1019 
L 3366 103 
Q 3103 6 2833 -42 
Q 2563 -91 2291 -91 
Q 1344 -91 809 395 
Q 275 881 275 1747 
Q 275 2613 809 3098 
Q 1344 3584 2291 3584 
Q 2566 3584 2833 3536 
Q 3100 3488 3366 3391 
z
" transform="scale(0.015625)"/>
      <path id="DejaVuSans-Bold-65" d="M 4031 1759 
L 4031 1441 
L 1416 1441 
Q 1456 1047 1700 850 
Q 1944 653 2381 653 
Q 2734 653 3104 758 
Q 3475 863 3866 1075 
L 3866 213 
Q 3469 63 3072 -14 
Q 2675 -91 2278 -91 
Q 1328 -91 801 392 
Q 275 875 275 1747 
Q 275 2603 792 3093 
Q 1309 3584 2216 3584 
Q 3041 3584 3536 3087 
Q 4031 2591 4031 1759 
z
M 2881 2131 
Q 2881 2450 2695 2645 
Q 2509 2841 2209 2841 
Q 1884 2841 1681 2658 
Q 1478 2475 1428 2131 
L 2881 2131 
z
" transform="scale(0.015625)"/>
      <path id="DejaVuSans-Bold-6e" d="M 4056 2131 
L 4056 0 
L 2931 0 
L 2931 347 
L 2931 1631 
Q 2931 2084 2911 2256 
Q 2891 2428 2841 2509 
Q 2775 2619 2662 2680 
Q 2550 2741 2406 2741 
Q 2056 2741 1856 2470 
Q 1656 2200 1656 1722 
L 1656 0 
L 538 0 
L 538 3500 
L 1656 3500 
L 1656 2988 
Q 1909 3294 2193 3439 
Q 2478 3584 2822 3584 
Q 3428 3584 3742 3212 
Q 4056 2841 4056 2131 
z
" transform="scale(0.015625)"/>
      <path id="DejaVuSans-Bold-61" d="M 2106 1575 
Q 1756 1575 1579 1456 
Q 1403 1338 1403 1106 
Q 1403 894 1545 773 
Q 1688 653 1941 653 
Q 2256 653 2472 879 
Q 2688 1106 2688 1447 
L 2688 1575 
L 2106 1575 
z
M 3816 1997 
L 3816 0 
L 2688 0 
L 2688 519 
Q 2463 200 2181 54 
Q 1900 -91 1497 -91 
Q 953 -91 614 226 
Q 275 544 275 1050 
Q 275 1666 698 1953 
Q 1122 2241 2028 2241 
L 2688 2241 
L 2688 2328 
Q 2688 2594 2478 2717 
Q 2269 2841 1825 2841 
Q 1466 2841 1156 2769 
Q 847 2697 581 2553 
L 581 3406 
Q 941 3494 1303 3539 
Q 1666 3584 2028 3584 
Q 2975 3584 3395 3211 
Q 3816 2838 3816 1997 
z
" transform="scale(0.015625)"/>
      <path id="DejaVuSans-Bold-72" d="M 3138 2547 
Q 2991 2616 2845 2648 
Q 2700 2681 2553 2681 
Q 2122 2681 1889 2404 
Q 1656 2128 1656 1613 
L 1656 0 
L 538 0 
L 538 3500 
L 1656 3500 
L 1656 2925 
Q 1872 3269 2151 3426 
Q 2431 3584 2822 3584 
Q 2878 3584 2943 3579 
Q 3009 3575 3134 3559 
L 3138 2547 
z
" transform="scale(0.015625)"/>
      <path id="DejaVuSans-Bold-69" d="M 538 3500 
L 1656 3500 
L 1656 0 
L 538 0 
L 538 3500 
z
M 538 4863 
L 1656 4863 
L 1656 3950 
L 538 3950 
L 538 4863 
z
" transform="scale(0.015625)"/>
      <path id="DejaVuSans-Bold-6f" d="M 2203 2784 
Q 1831 2784 1636 2517 
Q 1441 2250 1441 1747 
Q 1441 1244 1636 976 
Q 1831 709 2203 709 
Q 2569 709 2762 976 
Q 2956 1244 2956 1747 
Q 2956 2250 2762 2517 
Q 2569 2784 2203 2784 
z
M 2203 3584 
Q 3106 3584 3614 3096 
Q 4122 2609 4122 1747 
Q 4122 884 3614 396 
Q 3106 -91 2203 -91 
Q 1297 -91 786 396 
Q 275 884 275 1747 
Q 275 2609 786 3096 
Q 1297 3584 2203 3584 
z
" transform="scale(0.015625)"/>
      <path id="DejaVuSans-Bold-20" transform="scale(0.015625)"/>
      <path id="DejaVuSans-Bold-70" d="M 1656 506 
L 1656 -1331 
L 538 -1331 
L 538 3500 
L 1656 3500 
L 1656 2988 
Q 1888 3294 2169 3439 
Q 2450 3584 2816 3584 
Q 3463 3584 3878 3070 
Q 4294 2556 4294 1747 
Q 4294 938 3878 423 
Q 3463 -91 2816 -91 
Q 2450 -91 2169 54 
Q 1888 200 1656 506 
z
M 2400 2772 
Q 2041 2772 1848 2508 
Q 1656 2244 1656 1747 
Q 1656 1250 1848 986 
Q 2041 722 2400 722 
Q 2759 722 2948 984 
Q 3138 1247 3138 1747 
Q 3138 2247 2948 2509 
Q 2759 2772 2400 2772 
z
" transform="scale(0.015625)"/>
      <path id="DejaVuSans-Bold-74" d="M 1759 4494 
L 1759 3500 
L 2913 3500 
L 2913 2700 
L 1759 2700 
L 1759 1216 
Q 1759 972 1856 886 
Q 1953 800 2241 800 
L 2816 800 
L 2816 0 
L 1856 0 
Q 1194 0 917 276 
Q 641 553 641 1216 
L 641 2700 
L 84 2700 
L 84 3500 
L 641 3500 
L 641 4494 
L 1759 4494 
z
" transform="scale(0.015625)"/>
     </defs>
     <use xlink:href="#DejaVuSans-Bold-53"/>
     <use xlink:href="#DejaVuSans-Bold-63" x="72.021484"/>
     <use xlink:href="#DejaVuSans-Bold-65" x="131.298828"/>
     <use xlink:href="#DejaVuSans-Bold-6e" x="199.121094"/>
     <use xlink:href="#DejaVuSans-Bold-61" x="270.3125"/>
     <use xlink:href="#DejaVuSans-Bold-72" x="337.792969"/>
     <use xlink:href="#DejaVuSans-Bold-69" x="387.109375"/>
     <use xlink:href="#DejaVuSans-Bold-6f" x="421.386719"/>
     <use xlink:href="#DejaVuSans-Bold-20" x="490.087891"/>
     <use xlink:href="#DejaVuSans-Bold-53" x="524.902344"/>
     <use xlink:href="#DejaVuSans-Bold-63" x="596.923828"/>
     <use xlink:href="#DejaVuSans-Bold-72" x="656.201172"/>
     <use xlink:href="#DejaVuSans-Bold-69" x="705.517578"/>
     <use xlink:href="#DejaVuSans-Bold-70" x="739.794922"/>
     <use xlink:href="#DejaVuSans-Bold-74" x="811.376953"/>
    </g>
   </g>
   <g id="text_2">
    <!-- Lima VM -->
    <g style="fill: #4caf50" transform="translate(176.941641 83.827516) scale(0.083 -0.083)">
     <defs>
      <path id="DejaVuSans-Bold-4c" d="M 588 4666 
L 1791 4666 
L 1791 909 
L 3903 909 
L 3903 0 
L 588 0 
L 588 4666 
z
" transform="scale(0.015625)"/>
      <path id="DejaVuSans-Bold-6d" d="M 3781 2919 
Q 3994 3244 4286 3414 
Q 4578 3584 4928 3584 
Q 5531 3584 5847 3212 
Q 6163 2841 6163 2131 
L 6163 0 
L 5038 0 
L 5038 1825 
Q 5041 1866 5042 1909 
Q 5044 1953 5044 2034 
Q 5044 2406 4934 2573 
Q 4825 2741 4581 2741 
Q 4263 2741 4089 2478 
Q 3916 2216 3909 1719 
L 3909 0 
L 2784 0 
L 2784 1825 
Q 2784 2406 2684 2573 
Q 2584 2741 2328 2741 
Q 2006 2741 1831 2477 
Q 1656 2213 1656 1722 
L 1656 0 
L 531 0 
L 531 3500 
L 1656 3500 
L 1656 2988 
Q 1863 3284 2130 3434 
Q 2397 3584 2719 3584 
Q 3081 3584 3359 3409 
Q 3638 3234 3781 2919 
z
" transform="scale(0.015625)"/>
      <path id="DejaVuSans-Bold-56" d="M 31 4666 
L 1241 4666 
L 2478 1222 
L 3713 4666 
L 4922 4666 
L 3194 0 
L 1759 0 
L 31 4666 
z
" transform="scale(0.015625)"/>
      <path id="DejaVuSans-Bold-4d" d="M 588 4666 
L 2119 4666 
L 3181 2169 
L 4250 4666 
L 5778 4666 
L 5778 0 
L 4641 0 
L 4641 3413 
L 3566 897 
L 2803 897 
L 1728 3413 
L 1728 0 
L 588 0 
L 588 4666 
z
" transform="scale(0.015625)"/>
     </defs>
     <use xlink:href="#DejaVuSans-Bold-4c"/>
     <use xlink:href="#DejaVuSans-Bold-69" x="63.720703"/>
     <use xlink:href="#DejaVuSans-Bold-6d" x="97.998047"/>
     <use xlink:href="#DejaVuSans-Bold-61" x="202.197266"/>
     <use xlink:href="#DejaVuSans-Bold-20" x="269.677734"/>
     <use xlink:href="#DejaVuSans-Bold-56" x="304.492188"/>
     <use xlink:href="#DejaVuSans-Bold-4d" x="381.884766"/>
    </g>
   </g>
   <g id="text_3">
    <!-- Extrapolator Cron -->
    <g style="fill: #8e6fbf" transform="translate(271.589117 83.827516) scale(0.083 -0.083)">
     <defs>
      <path id="DejaVuSans-Bold-45" d="M 588 4666 
L 3834 4666 
L 3834 3756 
L 1791 3756 
L 1791 2888 
L 3713 2888 
L 3713 1978 
L 1791 1978 
L 1791 909 
L 3903 909 
L 3903 0 
L 588 0 
L 588 4666 
z
" transform="scale(0.015625)"/>
      <path id="DejaVuSans-Bold-78" d="M 1422 1791 
L 159 3500 
L 1344 3500 
L 2059 2463 
L 2784 3500 
L 3969 3500 
L 2706 1797 
L 4031 0 
L 2847 0 
L 2059 1106 
L 1281 0 
L 97 0 
L 1422 1791 
z
" transform="scale(0.015625)"/>
      <path id="DejaVuSans-Bold-6c" d="M 538 4863 
L 1656 4863 
L 1656 0 
L 538 0 
L 538 4863 
z
" transform="scale(0.015625)"/>
      <path id="DejaVuSans-Bold-43" d="M 4288 256 
Q 3956 84 3597 -3 
Q 3238 -91 2847 -91 
Q 1681 -91 1000 561 
Q 319 1213 319 2328 
Q 319 3447 1000 4098 
Q 1681 4750 2847 4750 
Q 3238 4750 3597 4662 
Q 3956 4575 4288 4403 
L 4288 3438 
Q 3953 3666 3628 3772 
Q 3303 3878 2944 3878 
Q 2300 3878 1931 3465 
Q 1563 3053 1563 2328 
Q 1563 1606 1931 1193 
Q 2300 781 2944 781 
Q 3303 781 3628 887 
Q 3953 994 4288 1222 
L 4288 256 
z
" transform="scale(0.015625)"/>
     </defs>
     <use xlink:href="#DejaVuSans-Bold-45"/>
     <use xlink:href="#DejaVuSans-Bold-78" x="68.310547"/>
     <use xlink:href="#DejaVuSans-Bold-74" x="132.8125"/>
     <use xlink:href="#DejaVuSans-Bold-72" x="180.615234"/>
     <use xlink:href="#DejaVuSans-Bold-61" x="229.931641"/>
     <use xlink:href="#DejaVuSans-Bold-70" x="297.412109"/>
     <use xlink:href="#DejaVuSans-Bold-6f" x="368.994141"/>
     <use xlink:href="#DejaVuSans-Bold-6c" x="437.695312"/>
     <use xlink:href="#DejaVuSans-Bold-61" x="471.972656"/>
     <use xlink:href="#DejaVuSans-Bold-74" x="539.453125"/>
     <use xlink:href="#DejaVuSans-Bold-6f" x="587.255859"/>
     <use xlink:href="#DejaVuSans-Bold-72" x="655.957031"/>
     <use xlink:href="#DejaVuSans-Bold-20" x="705.273438"/>
     <use xlink:href="#DejaVuSans-Bold-43" x="740.087891"/>
     <use xlink:href="#DejaVuSans-Bold-72" x="813.476562"/>
     <use xlink:href="#DejaVuSans-Bold-6f" x="862.792969"/>
     <use xlink:href="#DejaVuSans-Bold-6e" x="931.494141"/>
    </g>
   </g>
   <g id="text_4">
    <!-- Verdict Reader -->
    <g style="fill: #8e6fbf" transform="translate(394.710781 83.827516) scale(0.083 -0.083)">
     <defs>
      <path id="DejaVuSans-Bold-64" d="M 2919 2988 
L 2919 4863 
L 4044 4863 
L 4044 0 
L 2919 0 
L 2919 506 
Q 2688 197 2409 53 
Q 2131 -91 1766 -91 
Q 1119 -91 703 423 
Q 288 938 288 1747 
Q 288 2556 703 3070 
Q 1119 3584 1766 3584 
Q 2128 3584 2408 3439 
Q 2688 3294 2919 2988 
z
M 2181 722 
Q 2541 722 2730 984 
Q 2919 1247 2919 1747 
Q 2919 2247 2730 2509 
Q 2541 2772 2181 2772 
Q 1825 2772 1636 2509 
Q 1447 2247 1447 1747 
Q 1447 1247 1636 984 
Q 1825 722 2181 722 
z
" transform="scale(0.015625)"/>
      <path id="DejaVuSans-Bold-52" d="M 2297 2597 
Q 2675 2597 2839 2737 
Q 3003 2878 3003 3200 
Q 3003 3519 2839 3656 
Q 2675 3794 2297 3794 
L 1791 3794 
L 1791 2597 
L 2297 2597 
z
M 1791 1766 
L 1791 0 
L 588 0 
L 588 4666 
L 2425 4666 
Q 3347 4666 3776 4356 
Q 4206 4047 4206 3378 
Q 4206 2916 3982 2619 
Q 3759 2322 3309 2181 
Q 3556 2125 3751 1926 
Q 3947 1728 4147 1325 
L 4800 0 
L 3519 0 
L 2950 1159 
Q 2778 1509 2601 1637 
Q 2425 1766 2131 1766 
L 1791 1766 
z
" transform="scale(0.015625)"/>
     </defs>
     <use xlink:href="#DejaVuSans-Bold-56"/>
     <use xlink:href="#DejaVuSans-Bold-65" x="71.892578"/>
     <use xlink:href="#DejaVuSans-Bold-72" x="139.714844"/>
     <use xlink:href="#DejaVuSans-Bold-64" x="189.03125"/>
     <use xlink:href="#DejaVuSans-Bold-69" x="260.613281"/>
     <use xlink:href="#DejaVuSans-Bold-63" x="294.890625"/>
     <use xlink:href="#DejaVuSans-Bold-74" x="354.167969"/>
     <use xlink:href="#DejaVuSans-Bold-20" x="401.970703"/>
     <use xlink:href="#DejaVuSans-Bold-52" x="436.785156"/>
     <use xlink:href="#DejaVuSans-Bold-65" x="513.787109"/>
     <use xlink:href="#DejaVuSans-Bold-61" x="581.609375"/>
     <use xlink:href="#DejaVuSans-Bold-64" x="649.089844"/>
     <use xlink:href="#DejaVuSans-Bold-65" x="720.671875"/>
     <use xlink:href="#DejaVuSans-Bold-72" x="788.494141"/>
    </g>
    <!-- Cron -->
    <g style="fill: #8e6fbf" transform="translate(418.582359 93.1217) scale(0.083 -0.083)">
     <use xlink:href="#DejaVuSans-Bold-43"/>
     <use xlink:href="#DejaVuSans-Bold-72" x="73.388672"/>
     <use xlink:href="#DejaVuSans-Bold-6f" x="122.705078"/>
     <use xlink:href="#DejaVuSans-Bold-6e" x="191.40625"/>
    </g>
   </g>
   <g id="text_5">
    <!-- EDAMAME Runtime -->
    <g style="fill: #e8833a" transform="translate(500.867375 83.827516) scale(0.083 -0.083)">
     <defs>
      <path id="DejaVuSans-Bold-44" d="M 1791 3756 
L 1791 909 
L 2222 909 
Q 2959 909 3348 1275 
Q 3738 1641 3738 2338 
Q 3738 3031 3350 3393 
Q 2963 3756 2222 3756 
L 1791 3756 
z
M 588 4666 
L 1856 4666 
Q 2919 4666 3439 4514 
Q 3959 4363 4331 4000 
Q 4659 3684 4818 3271 
Q 4978 2859 4978 2338 
Q 4978 1809 4818 1395 
Q 4659 981 4331 666 
Q 3956 303 3431 151 
Q 2906 0 1856 0 
L 588 0 
L 588 4666 
z
" transform="scale(0.015625)"/>
      <path id="DejaVuSans-Bold-41" d="M 3419 850 
L 1538 850 
L 1241 0 
L 31 0 
L 1759 4666 
L 3194 4666 
L 4922 0 
L 3713 0 
L 3419 850 
z
M 1838 1716 
L 3116 1716 
L 2478 3572 
L 1838 1716 
z
" transform="scale(0.015625)"/>
      <path id="DejaVuSans-Bold-75" d="M 500 1363 
L 500 3500 
L 1625 3500 
L 1625 3150 
Q 1625 2866 1622 2436 
Q 1619 2006 1619 1863 
Q 1619 1441 1641 1255 
Q 1663 1069 1716 984 
Q 1784 875 1895 815 
Q 2006 756 2150 756 
Q 2500 756 2700 1025 
Q 2900 1294 2900 1772 
L 2900 3500 
L 4019 3500 
L 4019 0 
L 2900 0 
L 2900 506 
Q 2647 200 2364 54 
Q 2081 -91 1741 -91 
Q 1134 -91 817 281 
Q 500 653 500 1363 
z
" transform="scale(0.015625)"/>
     </defs>
     <use xlink:href="#DejaVuSans-Bold-45"/>
     <use xlink:href="#DejaVuSans-Bold-44" x="68.310547"/>
     <use xlink:href="#DejaVuSans-Bold-41" x="151.318359"/>
     <use xlink:href="#DejaVuSans-Bold-4d" x="228.710938"/>
     <use xlink:href="#DejaVuSans-Bold-41" x="328.222656"/>
     <use xlink:href="#DejaVuSans-Bold-4d" x="405.615234"/>
     <use xlink:href="#DejaVuSans-Bold-45" x="505.126953"/>
     <use xlink:href="#DejaVuSans-Bold-20" x="573.4375"/>
     <use xlink:href="#DejaVuSans-Bold-52" x="608.251953"/>
     <use xlink:href="#DejaVuSans-Bold-75" x="685.253906"/>
     <use xlink:href="#DejaVuSans-Bold-6e" x="756.445312"/>
     <use xlink:href="#DejaVuSans-Bold-74" x="827.636719"/>
     <use xlink:href="#DejaVuSans-Bold-69" x="875.439453"/>
     <use xlink:href="#DejaVuSans-Bold-6d" x="909.716797"/>
     <use xlink:href="#DejaVuSans-Bold-65" x="1013.916016"/>
    </g>
   </g>
   <g id="text_6">
    <!-- Setup before the loop -->
    <g style="fill: #3b7dd8" transform="translate(81.6192 152.21816) scale(0.094 -0.094)">
     <defs>
      <path id="DejaVuSans-Bold-62" d="M 2400 722 
Q 2759 722 2948 984 
Q 3138 1247 3138 1747 
Q 3138 2247 2948 2509 
Q 2759 2772 2400 2772 
Q 2041 2772 1848 2508 
Q 1656 2244 1656 1747 
Q 1656 1250 1848 986 
Q 2041 722 2400 722 
z
M 1656 2988 
Q 1888 3294 2169 3439 
Q 2450 3584 2816 3584 
Q 3463 3584 3878 3070 
Q 4294 2556 4294 1747 
Q 4294 938 3878 423 
Q 3463 -91 2816 -91 
Q 2450 -91 2169 54 
Q 1888 200 1656 506 
L 1656 0 
L 538 0 
L 538 4863 
L 1656 4863 
L 1656 2988 
z
" transform="scale(0.015625)"/>
      <path id="DejaVuSans-Bold-66" d="M 2841 4863 
L 2841 4128 
L 2222 4128 
Q 1984 4128 1890 4042 
Q 1797 3956 1797 3744 
L 1797 3500 
L 2753 3500 
L 2753 2700 
L 1797 2700 
L 1797 0 
L 678 0 
L 678 2700 
L 122 2700 
L 122 3500 
L 678 3500 
L 678 3744 
Q 678 4316 997 4589 
Q 1316 4863 1984 4863 
L 2841 4863 
z
" transform="scale(0.015625)"/>
      <path id="DejaVuSans-Bold-68" d="M 4056 2131 
L 4056 0 
L 2931 0 
L 2931 347 
L 2931 1625 
Q 2931 2084 2911 2256 
Q 2891 2428 2841 2509 
Q 2775 2619 2662 2680 
Q 2550 2741 2406 2741 
Q 2056 2741 1856 2470 
Q 1656 2200 1656 1722 
L 1656 0 
L 538 0 
L 538 4863 
L 1656 4863 
L 1656 2988 
Q 1909 3294 2193 3439 
Q 2478 3584 2822 3584 
Q 3428 3584 3742 3212 
Q 4056 2841 4056 2131 
z
" transform="scale(0.015625)"/>
     </defs>
     <use xlink:href="#DejaVuSans-Bold-53"/>
     <use xlink:href="#DejaVuSans-Bold-65" x="72.021484"/>
     <use xlink:href="#DejaVuSans-Bold-74" x="139.84375"/>
     <use xlink:href="#DejaVuSans-Bold-75" x="187.646484"/>
     <use xlink:href="#DejaVuSans-Bold-70" x="258.837891"/>
     <use xlink:href="#DejaVuSans-Bold-20" x="330.419922"/>
     <use xlink:href="#DejaVuSans-Bold-62" x="365.234375"/>
     <use xlink:href="#DejaVuSans-Bold-65" x="436.816406"/>
     <use xlink:href="#DejaVuSans-Bold-66" x="504.638672"/>
     <use xlink:href="#DejaVuSans-Bold-6f" x="548.144531"/>
     <use xlink:href="#DejaVuSans-Bold-72" x="616.845703"/>
     <use xlink:href="#DejaVuSans-Bold-65" x="666.162109"/>
     <use xlink:href="#DejaVuSans-Bold-20" x="733.984375"/>
     <use xlink:href="#DejaVuSans-Bold-74" x="768.798828"/>
     <use xlink:href="#DejaVuSans-Bold-68" x="816.601562"/>
     <use xlink:href="#DejaVuSans-Bold-65" x="887.792969"/>
     <use xlink:href="#DejaVuSans-Bold-20" x="955.615234"/>
     <use xlink:href="#DejaVuSans-Bold-6c" x="990.429688"/>
     <use xlink:href="#DejaVuSans-Bold-6f" x="1024.707031"/>
     <use xlink:href="#DejaVuSans-Bold-6f" x="1093.408203"/>
     <use xlink:href="#DejaVuSans-Bold-70" x="1162.109375"/>
    </g>
   </g>
   <g id="text_7">
    <!-- 1. Scenario script boots services inside the Lima VM. -->
    <g style="fill: #6c757d" transform="translate(81.6192 168.873675) scale(0.08 -0.08)">
     <defs>
      <path id="DejaVuSans-31" d="M 794 531 
L 1825 531 
L 1825 4091 
L 703 3866 
L 703 4441 
L 1819 4666 
L 2450 4666 
L 2450 531 
L 3481 531 
L 3481 0 
L 794 0 
L 794 531 
z
" transform="scale(0.015625)"/>
      <path id="DejaVuSans-2e" d="M 684 794 
L 1344 794 
L 1344 0 
L 684 0 
L 684 794 
z
" transform="scale(0.015625)"/>
      <path id="DejaVuSans-20" transform="scale(0.015625)"/>
      <path id="DejaVuSans-53" d="M 3425 4513 
L 3425 3897 
Q 3066 4069 2747 4153 
Q 2428 4238 2131 4238 
Q 1616 4238 1336 4038 
Q 1056 3838 1056 3469 
Q 1056 3159 1242 3001 
Q 1428 2844 1947 2747 
L 2328 2669 
Q 3034 2534 3370 2195 
Q 3706 1856 3706 1288 
Q 3706 609 3251 259 
Q 2797 -91 1919 -91 
Q 1588 -91 1214 -16 
Q 841 59 441 206 
L 441 856 
Q 825 641 1194 531 
Q 1563 422 1919 422 
Q 2459 422 2753 634 
Q 3047 847 3047 1241 
Q 3047 1584 2836 1778 
Q 2625 1972 2144 2069 
L 1759 2144 
Q 1053 2284 737 2584 
Q 422 2884 422 3419 
Q 422 4038 858 4394 
Q 1294 4750 2059 4750 
Q 2388 4750 2728 4690 
Q 3069 4631 3425 4513 
z
" transform="scale(0.015625)"/>
      <path id="DejaVuSans-63" d="M 3122 3366 
L 3122 2828 
Q 2878 2963 2633 3030 
Q 2388 3097 2138 3097 
Q 1578 3097 1268 2742 
Q 959 2388 959 1747 
Q 959 1106 1268 751 
Q 1578 397 2138 397 
Q 2388 397 2633 464 
Q 2878 531 3122 666 
L 3122 134 
Q 2881 22 2623 -34 
Q 2366 -91 2075 -91 
Q 1284 -91 818 406 
Q 353 903 353 1747 
Q 353 2603 823 3093 
Q 1294 3584 2113 3584 
Q 2378 3584 2631 3529 
Q 2884 3475 3122 3366 
z
" transform="scale(0.015625)"/>
      <path id="DejaVuSans-65" d="M 3597 1894 
L 3597 1613 
L 953 1613 
Q 991 1019 1311 708 
Q 1631 397 2203 397 
Q 2534 397 2845 478 
Q 3156 559 3463 722 
L 3463 178 
Q 3153 47 2828 -22 
Q 2503 -91 2169 -91 
Q 1331 -91 842 396 
Q 353 884 353 1716 
Q 353 2575 817 3079 
Q 1281 3584 2069 3584 
Q 2775 3584 3186 3129 
Q 3597 2675 3597 1894 
z
M 3022 2063 
Q 3016 2534 2758 2815 
Q 2500 3097 2075 3097 
Q 1594 3097 1305 2825 
Q 1016 2553 972 2059 
L 3022 2063 
z
" transform="scale(0.015625)"/>
      <path id="DejaVuSans-6e" d="M 3513 2113 
L 3513 0 
L 2938 0 
L 2938 2094 
Q 2938 2591 2744 2837 
Q 2550 3084 2163 3084 
Q 1697 3084 1428 2787 
Q 1159 2491 1159 1978 
L 1159 0 
L 581 0 
L 581 3500 
L 1159 3500 
L 1159 2956 
Q 1366 3272 1645 3428 
Q 1925 3584 2291 3584 
Q 2894 3584 3203 3211 
Q 3513 2838 3513 2113 
z
" transform="scale(0.015625)"/>
      <path id="DejaVuSans-61" d="M 2194 1759 
Q 1497 1759 1228 1600 
Q 959 1441 959 1056 
Q 959 750 1161 570 
Q 1363 391 1709 391 
Q 2188 391 2477 730 
Q 2766 1069 2766 1631 
L 2766 1759 
L 2194 1759 
z
M 3341 1997 
L 3341 0 
L 2766 0 
L 2766 531 
Q 2569 213 2275 61 
Q 1981 -91 1556 -91 
Q 1019 -91 701 211 
Q 384 513 384 1019 
Q 384 1609 779 1909 
Q 1175 2209 1959 2209 
L 2766 2209 
L 2766 2266 
Q 2766 2663 2505 2880 
Q 2244 3097 1772 3097 
Q 1472 3097 1187 3025 
Q 903 2953 641 2809 
L 641 3341 
Q 956 3463 1253 3523 
Q 1550 3584 1831 3584 
Q 2591 3584 2966 3190 
Q 3341 2797 3341 1997 
z
" transform="scale(0.015625)"/>
      <path id="DejaVuSans-72" d="M 2631 2963 
Q 2534 3019 2420 3045 
Q 2306 3072 2169 3072 
Q 1681 3072 1420 2755 
Q 1159 2438 1159 1844 
L 1159 0 
L 581 0 
L 581 3500 
L 1159 3500 
L 1159 2956 
Q 1341 3275 1631 3429 
Q 1922 3584 2338 3584 
Q 2397 3584 2469 3576 
Q 2541 3569 2628 3553 
L 2631 2963 
z
" transform="scale(0.015625)"/>
      <path id="DejaVuSans-69" d="M 603 3500 
L 1178 3500 
L 1178 0 
L 603 0 
L 603 3500 
z
M 603 4863 
L 1178 4863 
L 1178 4134 
L 603 4134 
L 603 4863 
z
" transform="scale(0.015625)"/>
      <path id="DejaVuSans-6f" d="M 1959 3097 
Q 1497 3097 1228 2736 
Q 959 2375 959 1747 
Q 959 1119 1226 758 
Q 1494 397 1959 397 
Q 2419 397 2687 759 
Q 2956 1122 2956 1747 
Q 2956 2369 2687 2733 
Q 2419 3097 1959 3097 
z
M 1959 3584 
Q 2709 3584 3137 3096 
Q 3566 2609 3566 1747 
Q 3566 888 3137 398 
Q 2709 -91 1959 -91 
Q 1206 -91 779 398 
Q 353 888 353 1747 
Q 353 2609 779 3096 
Q 1206 3584 1959 3584 
z
" transform="scale(0.015625)"/>
      <path id="DejaVuSans-73" d="M 2834 3397 
L 2834 2853 
Q 2591 2978 2328 3040 
Q 2066 3103 1784 3103 
Q 1356 3103 1142 2972 
Q 928 2841 928 2578 
Q 928 2378 1081 2264 
Q 1234 2150 1697 2047 
L 1894 2003 
Q 2506 1872 2764 1633 
Q 3022 1394 3022 966 
Q 3022 478 2636 193 
Q 2250 -91 1575 -91 
Q 1294 -91 989 -36 
Q 684 19 347 128 
L 347 722 
Q 666 556 975 473 
Q 1284 391 1588 391 
Q 1994 391 2212 530 
Q 2431 669 2431 922 
Q 2431 1156 2273 1281 
Q 2116 1406 1581 1522 
L 1381 1569 
Q 847 1681 609 1914 
Q 372 2147 372 2553 
Q 372 3047 722 3315 
Q 1072 3584 1716 3584 
Q 2034 3584 2315 3537 
Q 2597 3491 2834 3397 
z
" transform="scale(0.015625)"/>
      <path id="DejaVuSans-70" d="M 1159 525 
L 1159 -1331 
L 581 -1331 
L 581 3500 
L 1159 3500 
L 1159 2969 
Q 1341 3281 1617 3432 
Q 1894 3584 2278 3584 
Q 2916 3584 3314 3078 
Q 3713 2572 3713 1747 
Q 3713 922 3314 415 
Q 2916 -91 2278 -91 
Q 1894 -91 1617 61 
Q 1341 213 1159 525 
z
M 3116 1747 
Q 3116 2381 2855 2742 
Q 2594 3103 2138 3103 
Q 1681 3103 1420 2742 
Q 1159 2381 1159 1747 
Q 1159 1113 1420 752 
Q 1681 391 2138 391 
Q 2594 391 2855 752 
Q 3116 1113 3116 1747 
z
" transform="scale(0.015625)"/>
      <path id="DejaVuSans-74" d="M 1172 4494 
L 1172 3500 
L 2356 3500 
L 2356 3053 
L 1172 3053 
L 1172 1153 
Q 1172 725 1289 603 
Q 1406 481 1766 481 
L 2356 481 
L 2356 0 
L 1766 0 
Q 1100 0 847 248 
Q 594 497 594 1153 
L 594 3053 
L 172 3053 
L 172 3500 
L 594 3500 
L 594 4494 
L 1172 4494 
z
" transform="scale(0.015625)"/>
      <path id="DejaVuSans-62" d="M 3116 1747 
Q 3116 2381 2855 2742 
Q 2594 3103 2138 3103 
Q 1681 3103 1420 2742 
Q 1159 2381 1159 1747 
Q 1159 1113 1420 752 
Q 1681 391 2138 391 
Q 2594 391 2855 752 
Q 3116 1113 3116 1747 
z
M 1159 2969 
Q 1341 3281 1617 3432 
Q 1894 3584 2278 3584 
Q 2916 3584 3314 3078 
Q 3713 2572 3713 1747 
Q 3713 922 3314 415 
Q 2916 -91 2278 -91 
Q 1894 -91 1617 61 
Q 1341 213 1159 525 
L 1159 0 
L 581 0 
L 581 4863 
L 1159 4863 
L 1159 2969 
z
" transform="scale(0.015625)"/>
      <path id="DejaVuSans-76" d="M 191 3500 
L 800 3500 
L 1894 563 
L 2988 3500 
L 3597 3500 
L 2284 0 
L 1503 0 
L 191 3500 
z
" transform="scale(0.015625)"/>
      <path id="DejaVuSans-64" d="M 2906 2969 
L 2906 4863 
L 3481 4863 
L 3481 0 
L 2906 0 
L 2906 525 
Q 2725 213 2448 61 
Q 2172 -91 1784 -91 
Q 1150 -91 751 415 
Q 353 922 353 1747 
Q 353 2572 751 3078 
Q 1150 3584 1784 3584 
Q 2172 3584 2448 3432 
Q 2725 3281 2906 2969 
z
M 947 1747 
Q 947 1113 1208 752 
Q 1469 391 1925 391 
Q 2381 391 2643 752 
Q 2906 1113 2906 1747 
Q 2906 2381 2643 2742 
Q 2381 3103 1925 3103 
Q 1469 3103 1208 2742 
Q 947 2381 947 1747 
z
" transform="scale(0.015625)"/>
      <path id="DejaVuSans-68" d="M 3513 2113 
L 3513 0 
L 2938 0 
L 2938 2094 
Q 2938 2591 2744 2837 
Q 2550 3084 2163 3084 
Q 1697 3084 1428 2787 
Q 1159 2491 1159 1978 
L 1159 0 
L 581 0 
L 581 4863 
L 1159 4863 
L 1159 2956 
Q 1366 3272 1645 3428 
Q 1925 3584 2291 3584 
Q 2894 3584 3203 3211 
Q 3513 2838 3513 2113 
z
" transform="scale(0.015625)"/>
      <path id="DejaVuSans-4c" d="M 628 4666 
L 1259 4666 
L 1259 531 
L 3531 531 
L 3531 0 
L 628 0 
L 628 4666 
z
" transform="scale(0.015625)"/>
      <path id="DejaVuSans-6d" d="M 3328 2828 
Q 3544 3216 3844 3400 
Q 4144 3584 4550 3584 
Q 5097 3584 5394 3201 
Q 5691 2819 5691 2113 
L 5691 0 
L 5113 0 
L 5113 2094 
Q 5113 2597 4934 2840 
Q 4756 3084 4391 3084 
Q 3944 3084 3684 2787 
Q 3425 2491 3425 1978 
L 3425 0 
L 2847 0 
L 2847 2094 
Q 2847 2600 2669 2842 
Q 2491 3084 2119 3084 
Q 1678 3084 1418 2786 
Q 1159 2488 1159 1978 
L 1159 0 
L 581 0 
L 581 3500 
L 1159 3500 
L 1159 2956 
Q 1356 3278 1631 3431 
Q 1906 3584 2284 3584 
Q 2666 3584 2933 3390 
Q 3200 3197 3328 2828 
z
" transform="scale(0.015625)"/>
      <path id="DejaVuSans-56" d="M 1831 0 
L 50 4666 
L 709 4666 
L 2188 738 
L 3669 4666 
L 4325 4666 
L 2547 0 
L 1831 0 
z
" transform="scale(0.015625)"/>
      <path id="DejaVuSans-4d" d="M 628 4666 
L 1569 4666 
L 2759 1491 
L 3956 4666 
L 4897 4666 
L 4897 0 
L 4281 0 
L 4281 4097 
L 3078 897 
L 2444 897 
L 1241 4097 
L 1241 0 
L 628 0 
L 628 4666 
z
" transform="scale(0.015625)"/>
     </defs>
     <use xlink:href="#DejaVuSans-31"/>
     <use xlink:href="#DejaVuSans-2e" x="63.623047"/>
     <use xlink:href="#DejaVuSans-20" x="95.410156"/>
     <use xlink:href="#DejaVuSans-53" x="127.197266"/>
     <use xlink:href="#DejaVuSans-63" x="190.673828"/>
     <use xlink:href="#DejaVuSans-65" x="245.654297"/>
     <use xlink:href="#DejaVuSans-6e" x="307.177734"/>
     <use xlink:href="#DejaVuSans-61" x="370.556641"/>
     <use xlink:href="#DejaVuSans-72" x="431.835938"/>
     <use xlink:href="#DejaVuSans-69" x="472.949219"/>
     <use xlink:href="#DejaVuSans-6f" x="500.732422"/>
     <use xlink:href="#DejaVuSans-20" x="561.914062"/>
     <use xlink:href="#DejaVuSans-73" x="593.701172"/>
     <use xlink:href="#DejaVuSans-63" x="645.800781"/>
     <use xlink:href="#DejaVuSans-72" x="700.78125"/>
     <use xlink:href="#DejaVuSans-69" x="741.894531"/>
     <use xlink:href="#DejaVuSans-70" x="769.677734"/>
     <use xlink:href="#DejaVuSans-74" x="833.154297"/>
     <use xlink:href="#DejaVuSans-20" x="872.363281"/>
     <use xlink:href="#DejaVuSans-62" x="904.150391"/>
     <use xlink:href="#DejaVuSans-6f" x="967.626953"/>
     <use xlink:href="#DejaVuSans-6f" x="1028.808594"/>
     <use xlink:href="#DejaVuSans-74" x="1089.990234"/>
     <use xlink:href="#DejaVuSans-73" x="1129.199219"/>
     <use xlink:href="#DejaVuSans-20" x="1181.298828"/>
     <use xlink:href="#DejaVuSans-73" x="1213.085938"/>
     <use xlink:href="#DejaVuSans-65" x="1265.185547"/>
     <use xlink:href="#DejaVuSans-72" x="1326.708984"/>
     <use xlink:href="#DejaVuSans-76" x="1367.822266"/>
     <use xlink:href="#DejaVuSans-69" x="1427.001953"/>
     <use xlink:href="#DejaVuSans-63" x="1454.785156"/>
     <use xlink:href="#DejaVuSans-65" x="1509.765625"/>
     <use xlink:href="#DejaVuSans-73" x="1571.289062"/>
     <use xlink:href="#DejaVuSans-20" x="1623.388672"/>
     <use xlink:href="#DejaVuSans-69" x="1655.175781"/>
     <use xlink:href="#DejaVuSans-6e" x="1682.958984"/>
     <use xlink:href="#DejaVuSans-73" x="1746.337891"/>
     <use xlink:href="#DejaVuSans-69" x="1798.4375"/>
     <use xlink:href="#DejaVuSans-64" x="1826.220703"/>
     <use xlink:href="#DejaVuSans-65" x="1889.697266"/>
     <use xlink:href="#DejaVuSans-20" x="1951.220703"/>
     <use xlink:href="#DejaVuSans-74" x="1983.007812"/>
     <use xlink:href="#DejaVuSans-68" x="2022.216797"/>
     <use xlink:href="#DejaVuSans-65" x="2085.595703"/>
     <use xlink:href="#DejaVuSans-20" x="2147.119141"/>
     <use xlink:href="#DejaVuSans-4c" x="2178.90625"/>
     <use xlink:href="#DejaVuSans-69" x="2234.619141"/>
     <use xlink:href="#DejaVuSans-6d" x="2262.402344"/>
     <use xlink:href="#DejaVuSans-61" x="2359.814453"/>
     <use xlink:href="#DejaVuSans-20" x="2421.09375"/>
     <use xlink:href="#DejaVuSans-56" x="2452.880859"/>
     <use xlink:href="#DejaVuSans-4d" x="2521.289062"/>
     <use xlink:href="#DejaVuSans-2e" x="2607.568359"/>
    </g>
    <!-- 2. Extrapolator cron switches to fast cadence (*/2). -->
    <g style="fill: #6c757d" transform="translate(81.6192 178.318225) scale(0.08 -0.08)">
     <defs>
      <path id="DejaVuSans-32" d="M 1228 531 
L 3431 531 
L 3431 0 
L 469 0 
L 469 531 
Q 828 903 1448 1529 
Q 2069 2156 2228 2338 
Q 2531 2678 2651 2914 
Q 2772 3150 2772 3378 
Q 2772 3750 2511 3984 
Q 2250 4219 1831 4219 
Q 1534 4219 1204 4116 
Q 875 4013 500 3803 
L 500 4441 
Q 881 4594 1212 4672 
Q 1544 4750 1819 4750 
Q 2544 4750 2975 4387 
Q 3406 4025 3406 3419 
Q 3406 3131 3298 2873 
Q 3191 2616 2906 2266 
Q 2828 2175 2409 1742 
Q 1991 1309 1228 531 
z
" transform="scale(0.015625)"/>
      <path id="DejaVuSans-45" d="M 628 4666 
L 3578 4666 
L 3578 4134 
L 1259 4134 
L 1259 2753 
L 3481 2753 
L 3481 2222 
L 1259 2222 
L 1259 531 
L 3634 531 
L 3634 0 
L 628 0 
L 628 4666 
z
" transform="scale(0.015625)"/>
      <path id="DejaVuSans-78" d="M 3513 3500 
L 2247 1797 
L 3578 0 
L 2900 0 
L 1881 1375 
L 863 0 
L 184 0 
L 1544 1831 
L 300 3500 
L 978 3500 
L 1906 2253 
L 2834 3500 
L 3513 3500 
z
" transform="scale(0.015625)"/>
      <path id="DejaVuSans-6c" d="M 603 4863 
L 1178 4863 
L 1178 0 
L 603 0 
L 603 4863 
z
" transform="scale(0.015625)"/>
      <path id="DejaVuSans-77" d="M 269 3500 
L 844 3500 
L 1563 769 
L 2278 3500 
L 2956 3500 
L 3675 769 
L 4391 3500 
L 4966 3500 
L 4050 0 
L 3372 0 
L 2619 2869 
L 1863 0 
L 1184 0 
L 269 3500 
z
" transform="scale(0.015625)"/>
      <path id="DejaVuSans-66" d="M 2375 4863 
L 2375 4384 
L 1825 4384 
Q 1516 4384 1395 4259 
Q 1275 4134 1275 3809 
L 1275 3500 
L 2222 3500 
L 2222 3053 
L 1275 3053 
L 1275 0 
L 697 0 
L 697 3053 
L 147 3053 
L 147 3500 
L 697 3500 
L 697 3744 
Q 697 4328 969 4595 
Q 1241 4863 1831 4863 
L 2375 4863 
z
" transform="scale(0.015625)"/>
      <path id="DejaVuSans-28" d="M 1984 4856 
Q 1566 4138 1362 3434 
Q 1159 2731 1159 2009 
Q 1159 1288 1364 580 
Q 1569 -128 1984 -844 
L 1484 -844 
Q 1016 -109 783 600 
Q 550 1309 550 2009 
Q 550 2706 781 3412 
Q 1013 4119 1484 4856 
L 1984 4856 
z
" transform="scale(0.015625)"/>
      <path id="DejaVuSans-2a" d="M 3009 3897 
L 1888 3291 
L 3009 2681 
L 2828 2375 
L 1778 3009 
L 1778 1831 
L 1422 1831 
L 1422 3009 
L 372 2375 
L 191 2681 
L 1313 3291 
L 191 3897 
L 372 4206 
L 1422 3572 
L 1422 4750 
L 1778 4750 
L 1778 3572 
L 2828 4206 
L 3009 3897 
z
" transform="scale(0.015625)"/>
      <path id="DejaVuSans-2f" d="M 1625 4666 
L 2156 4666 
L 531 -594 
L 0 -594 
L 1625 4666 
z
" transform="scale(0.015625)"/>
      <path id="DejaVuSans-29" d="M 513 4856 
L 1013 4856 
Q 1481 4119 1714 3412 
Q 1947 2706 1947 2009 
Q 1947 1309 1714 600 
Q 1481 -109 1013 -844 
L 513 -844 
Q 928 -128 1133 580 
Q 1338 1288 1338 2009 
Q 1338 2731 1133 3434 
Q 928 4138 513 4856 
z
" transform="scale(0.015625)"/>
     </defs>
     <use xlink:href="#DejaVuSans-32"/>
     <use xlink:href="#DejaVuSans-2e" x="63.623047"/>
     <use xlink:href="#DejaVuSans-20" x="95.410156"/>
     <use xlink:href="#DejaVuSans-45" x="127.197266"/>
     <use xlink:href="#DejaVuSans-78" x="190.380859"/>
     <use xlink:href="#DejaVuSans-74" x="249.560547"/>
     <use xlink:href="#DejaVuSans-72" x="288.769531"/>
     <use xlink:href="#DejaVuSans-61" x="329.882812"/>
     <use xlink:href="#DejaVuSans-70" x="391.162109"/>
     <use xlink:href="#DejaVuSans-6f" x="454.638672"/>
     <use xlink:href="#DejaVuSans-6c" x="515.820312"/>
     <use xlink:href="#DejaVuSans-61" x="543.603516"/>
     <use xlink:href="#DejaVuSans-74" x="604.882812"/>
     <use xlink:href="#DejaVuSans-6f" x="644.091797"/>
     <use xlink:href="#DejaVuSans-72" x="705.273438"/>
     <use xlink:href="#DejaVuSans-20" x="746.386719"/>
     <use xlink:href="#DejaVuSans-63" x="778.173828"/>
     <use xlink:href="#DejaVuSans-72" x="833.154297"/>
     <use xlink:href="#DejaVuSans-6f" x="872.017578"/>
     <use xlink:href="#DejaVuSans-6e" x="933.199219"/>
     <use xlink:href="#DejaVuSans-20" x="996.578125"/>
     <use xlink:href="#DejaVuSans-73" x="1028.365234"/>
     <use xlink:href="#DejaVuSans-77" x="1080.464844"/>
     <use xlink:href="#DejaVuSans-69" x="1162.251953"/>
     <use xlink:href="#DejaVuSans-74" x="1190.035156"/>
     <use xlink:href="#DejaVuSans-63" x="1229.244141"/>
     <use xlink:href="#DejaVuSans-68" x="1284.224609"/>
     <use xlink:href="#DejaVuSans-65" x="1347.603516"/>
     <use xlink:href="#DejaVuSans-73" x="1409.126953"/>
     <use xlink:href="#DejaVuSans-20" x="1461.226562"/>
     <use xlink:href="#DejaVuSans-74" x="1493.013672"/>
     <use xlink:href="#DejaVuSans-6f" x="1532.222656"/>
     <use xlink:href="#DejaVuSans-20" x="1593.404297"/>
     <use xlink:href="#DejaVuSans-66" x="1625.191406"/>
     <use xlink:href="#DejaVuSans-61" x="1660.396484"/>
     <use xlink:href="#DejaVuSans-73" x="1721.675781"/>
     <use xlink:href="#DejaVuSans-74" x="1773.775391"/>
     <use xlink:href="#DejaVuSans-20" x="1812.984375"/>
     <use xlink:href="#DejaVuSans-63" x="1844.771484"/>
     <use xlink:href="#DejaVuSans-61" x="1899.751953"/>
     <use xlink:href="#DejaVuSans-64" x="1961.03125"/>
     <use xlink:href="#DejaVuSans-65" x="2024.507812"/>
     <use xlink:href="#DejaVuSans-6e" x="2086.03125"/>
     <use xlink:href="#DejaVuSans-63" x="2149.410156"/>
     <use xlink:href="#DejaVuSans-65" x="2204.390625"/>
     <use xlink:href="#DejaVuSans-20" x="2265.914062"/>
     <use xlink:href="#DejaVuSans-28" x="2297.701172"/>
     <use xlink:href="#DejaVuSans-2a" x="2336.714844"/>
     <use xlink:href="#DejaVuSans-2f" x="2386.714844"/>
     <use xlink:href="#DejaVuSans-32" x="2420.40625"/>
     <use xlink:href="#DejaVuSans-29" x="2484.029297"/>
     <use xlink:href="#DejaVuSans-2e" x="2523.042969"/>
    </g>
    <!-- 3. Verdict reader cron switches to an offset fast cadence. -->
    <g style="fill: #6c757d" transform="translate(81.6192 187.762775) scale(0.08 -0.08)">
     <defs>
      <path id="DejaVuSans-33" d="M 2597 2516 
Q 3050 2419 3304 2112 
Q 3559 1806 3559 1356 
Q 3559 666 3084 287 
Q 2609 -91 1734 -91 
Q 1441 -91 1130 -33 
Q 819 25 488 141 
L 488 750 
Q 750 597 1062 519 
Q 1375 441 1716 441 
Q 2309 441 2620 675 
Q 2931 909 2931 1356 
Q 2931 1769 2642 2001 
Q 2353 2234 1838 2234 
L 1294 2234 
L 1294 2753 
L 1863 2753 
Q 2328 2753 2575 2939 
Q 2822 3125 2822 3475 
Q 2822 3834 2567 4026 
Q 2313 4219 1838 4219 
Q 1578 4219 1281 4162 
Q 984 4106 628 3988 
L 628 4550 
Q 988 4650 1302 4700 
Q 1616 4750 1894 4750 
Q 2613 4750 3031 4423 
Q 3450 4097 3450 3541 
Q 3450 3153 3228 2886 
Q 3006 2619 2597 2516 
z
" transform="scale(0.015625)"/>
     </defs>
     <use xlink:href="#DejaVuSans-33"/>
     <use xlink:href="#DejaVuSans-2e" x="63.623047"/>
     <use xlink:href="#DejaVuSans-20" x="95.410156"/>
     <use xlink:href="#DejaVuSans-56" x="127.197266"/>
     <use xlink:href="#DejaVuSans-65" x="187.855469"/>
     <use xlink:href="#DejaVuSans-72" x="249.378906"/>
     <use xlink:href="#DejaVuSans-64" x="288.742188"/>
     <use xlink:href="#DejaVuSans-69" x="352.21875"/>
     <use xlink:href="#DejaVuSans-63" x="380.001953"/>
     <use xlink:href="#DejaVuSans-74" x="434.982422"/>
     <use xlink:href="#DejaVuSans-20" x="474.191406"/>
     <use xlink:href="#DejaVuSans-72" x="505.978516"/>
     <use xlink:href="#DejaVuSans-65" x="544.841797"/>
     <use xlink:href="#DejaVuSans-61" x="606.365234"/>
     <use xlink:href="#DejaVuSans-64" x="667.644531"/>
     <use xlink:href="#DejaVuSans-65" x="731.121094"/>
     <use xlink:href="#DejaVuSans-72" x="792.644531"/>
     <use xlink:href="#DejaVuSans-20" x="833.757812"/>
     <use xlink:href="#DejaVuSans-63" x="865.544922"/>
     <use xlink:href="#DejaVuSans-72" x="920.525391"/>
     <use xlink:href="#DejaVuSans-6f" x="959.388672"/>
     <use xlink:href="#DejaVuSans-6e" x="1020.570312"/>
     <use xlink:href="#DejaVuSans-20" x="1083.949219"/>
     <use xlink:href="#DejaVuSans-73" x="1115.736328"/>
     <use xlink:href="#DejaVuSans-77" x="1167.835938"/>
     <use xlink:href="#DejaVuSans-69" x="1249.623047"/>
     <use xlink:href="#DejaVuSans-74" x="1277.40625"/>
     <use xlink:href="#DejaVuSans-63" x="1316.615234"/>
     <use xlink:href="#DejaVuSans-68" x="1371.595703"/>
     <use xlink:href="#DejaVuSans-65" x="1434.974609"/>
     <use xlink:href="#DejaVuSans-73" x="1496.498047"/>
     <use xlink:href="#DejaVuSans-20" x="1548.597656"/>
     <use xlink:href="#DejaVuSans-74" x="1580.384766"/>
     <use xlink:href="#DejaVuSans-6f" x="1619.59375"/>
     <use xlink:href="#DejaVuSans-20" x="1680.775391"/>
     <use xlink:href="#DejaVuSans-61" x="1712.5625"/>
     <use xlink:href="#DejaVuSans-6e" x="1773.841797"/>
     <use xlink:href="#DejaVuSans-20" x="1837.220703"/>
     <use xlink:href="#DejaVuSans-6f" x="1869.007812"/>
     <use xlink:href="#DejaVuSans-66" x="1930.189453"/>
     <use xlink:href="#DejaVuSans-66" x="1965.394531"/>
     <use xlink:href="#DejaVuSans-73" x="2000.599609"/>
     <use xlink:href="#DejaVuSans-65" x="2052.699219"/>
     <use xlink:href="#DejaVuSans-74" x="2114.222656"/>
     <use xlink:href="#DejaVuSans-20" x="2153.431641"/>
     <use xlink:href="#DejaVuSans-66" x="2185.21875"/>
     <use xlink:href="#DejaVuSans-61" x="2220.423828"/>
     <use xlink:href="#DejaVuSans-73" x="2281.703125"/>
     <use xlink:href="#DejaVuSans-74" x="2333.802734"/>
     <use xlink:href="#DejaVuSans-20" x="2373.011719"/>
     <use xlink:href="#DejaVuSans-63" x="2404.798828"/>
     <use xlink:href="#DejaVuSans-61" x="2459.779297"/>
     <use xlink:href="#DejaVuSans-64" x="2521.058594"/>
     <use xlink:href="#DejaVuSans-65" x="2584.535156"/>
     <use xlink:href="#DejaVuSans-6e" x="2646.058594"/>
     <use xlink:href="#DejaVuSans-63" x="2709.4375"/>
     <use xlink:href="#DejaVuSans-65" x="2764.417969"/>
     <use xlink:href="#DejaVuSans-2e" x="2825.941406"/>
    </g>
    <!-- 4. EDAMAME runtime waits for a clean baseline model + telemetry cycle. -->
    <g style="fill: #6c757d" transform="translate(81.6192 197.207325) scale(0.08 -0.08)">
     <defs>
      <path id="DejaVuSans-34" d="M 2419 4116 
L 825 1625 
L 2419 1625 
L 2419 4116 
z
M 2253 4666 
L 3047 4666 
L 3047 1625 
L 3713 1625 
L 3713 1100 
L 3047 1100 
L 3047 0 
L 2419 0 
L 2419 1100 
L 313 1100 
L 313 1709 
L 2253 4666 
z
" transform="scale(0.015625)"/>
      <path id="DejaVuSans-44" d="M 1259 4147 
L 1259 519 
L 2022 519 
Q 2988 519 3436 956 
Q 3884 1394 3884 2338 
Q 3884 3275 3436 3711 
Q 2988 4147 2022 4147 
L 1259 4147 
z
M 628 4666 
L 1925 4666 
Q 3281 4666 3915 4102 
Q 4550 3538 4550 2338 
Q 4550 1131 3912 565 
Q 3275 0 1925 0 
L 628 0 
L 628 4666 
z
" transform="scale(0.015625)"/>
      <path id="DejaVuSans-41" d="M 2188 4044 
L 1331 1722 
L 3047 1722 
L 2188 4044 
z
M 1831 4666 
L 2547 4666 
L 4325 0 
L 3669 0 
L 3244 1197 
L 1141 1197 
L 716 0 
L 50 0 
L 1831 4666 
z
" transform="scale(0.015625)"/>
      <path id="DejaVuSans-75" d="M 544 1381 
L 544 3500 
L 1119 3500 
L 1119 1403 
Q 1119 906 1312 657 
Q 1506 409 1894 409 
Q 2359 409 2629 706 
Q 2900 1003 2900 1516 
L 2900 3500 
L 3475 3500 
L 3475 0 
L 2900 0 
L 2900 538 
Q 2691 219 2414 64 
Q 2138 -91 1772 -91 
Q 1169 -91 856 284 
Q 544 659 544 1381 
z
M 1991 3584 
L 1991 3584 
z
" transform="scale(0.015625)"/>
      <path id="DejaVuSans-2b" d="M 2944 4013 
L 2944 2272 
L 4684 2272 
L 4684 1741 
L 2944 1741 
L 2944 0 
L 2419 0 
L 2419 1741 
L 678 1741 
L 678 2272 
L 2419 2272 
L 2419 4013 
L 2944 4013 
z
" transform="scale(0.015625)"/>
      <path id="DejaVuSans-79" d="M 2059 -325 
Q 1816 -950 1584 -1140 
Q 1353 -1331 966 -1331 
L 506 -1331 
L 506 -850 
L 844 -850 
Q 1081 -850 1212 -737 
Q 1344 -625 1503 -206 
L 1606 56 
L 191 3500 
L 800 3500 
L 1894 763 
L 2988 3500 
L 3597 3500 
L 2059 -325 
z
" transform="scale(0.015625)"/>
     </defs>
     <use xlink:href="#DejaVuSans-34"/>
     <use xlink:href="#DejaVuSans-2e" x="63.623047"/>
     <use xlink:href="#DejaVuSans-20" x="95.410156"/>
     <use xlink:href="#DejaVuSans-45" x="127.197266"/>
     <use xlink:href="#DejaVuSans-44" x="190.380859"/>
     <use xlink:href="#DejaVuSans-41" x="265.632812"/>
     <use xlink:href="#DejaVuSans-4d" x="334.041016"/>
     <use xlink:href="#DejaVuSans-41" x="420.320312"/>
     <use xlink:href="#DejaVuSans-4d" x="488.728516"/>
     <use xlink:href="#DejaVuSans-45" x="575.007812"/>
     <use xlink:href="#DejaVuSans-20" x="638.191406"/>
     <use xlink:href="#DejaVuSans-72" x="669.978516"/>
     <use xlink:href="#DejaVuSans-75" x="711.091797"/>
     <use xlink:href="#DejaVuSans-6e" x="774.470703"/>
     <use xlink:href="#DejaVuSans-74" x="837.849609"/>
     <use xlink:href="#DejaVuSans-69" x="877.058594"/>
     <use xlink:href="#DejaVuSans-6d" x="904.841797"/>
     <use xlink:href="#DejaVuSans-65" x="1002.253906"/>
     <use xlink:href="#DejaVuSans-20" x="1063.777344"/>
     <use xlink:href="#DejaVuSans-77" x="1095.564453"/>
     <use xlink:href="#DejaVuSans-61" x="1177.351562"/>
     <use xlink:href="#DejaVuSans-69" x="1238.630859"/>
     <use xlink:href="#DejaVuSans-74" x="1266.414062"/>
     <use xlink:href="#DejaVuSans-73" x="1305.623047"/>
     <use xlink:href="#DejaVuSans-20" x="1357.722656"/>
     <use xlink:href="#DejaVuSans-66" x="1389.509766"/>
     <use xlink:href="#DejaVuSans-6f" x="1424.714844"/>
     <use xlink:href="#DejaVuSans-72" x="1485.896484"/>
     <use xlink:href="#DejaVuSans-20" x="1527.009766"/>
     <use xlink:href="#DejaVuSans-61" x="1558.796875"/>
     <use xlink:href="#DejaVuSans-20" x="1620.076172"/>
     <use xlink:href="#DejaVuSans-63" x="1651.863281"/>
     <use xlink:href="#DejaVuSans-6c" x="1706.84375"/>
     <use xlink:href="#DejaVuSans-65" x="1734.626953"/>
     <use xlink:href="#DejaVuSans-61" x="1796.150391"/>
     <use xlink:href="#DejaVuSans-6e" x="1857.429688"/>
     <use xlink:href="#DejaVuSans-20" x="1920.808594"/>
     <use xlink:href="#DejaVuSans-62" x="1952.595703"/>
     <use xlink:href="#DejaVuSans-61" x="2016.072266"/>
     <use xlink:href="#DejaVuSans-73" x="2077.351562"/>
     <use xlink:href="#DejaVuSans-65" x="2129.451172"/>
     <use xlink:href="#DejaVuSans-6c" x="2190.974609"/>
     <use xlink:href="#DejaVuSans-69" x="2218.757812"/>
     <use xlink:href="#DejaVuSans-6e" x="2246.541016"/>
     <use xlink:href="#DejaVuSans-65" x="2309.919922"/>
     <use xlink:href="#DejaVuSans-20" x="2371.443359"/>
     <use xlink:href="#DejaVuSans-6d" x="2403.230469"/>
     <use xlink:href="#DejaVuSans-6f" x="2500.642578"/>
     <use xlink:href="#DejaVuSans-64" x="2561.824219"/>
     <use xlink:href="#DejaVuSans-65" x="2625.300781"/>
     <use xlink:href="#DejaVuSans-6c" x="2686.824219"/>
     <use xlink:href="#DejaVuSans-20" x="2714.607422"/>
     <use xlink:href="#DejaVuSans-2b" x="2746.394531"/>
     <use xlink:href="#DejaVuSans-20" x="2830.183594"/>
     <use xlink:href="#DejaVuSans-74" x="2861.970703"/>
     <use xlink:href="#DejaVuSans-65" x="2901.179688"/>
     <use xlink:href="#DejaVuSans-6c" x="2962.703125"/>
     <use xlink:href="#DejaVuSans-65" x="2990.486328"/>
     <use xlink:href="#DejaVuSans-6d" x="3052.009766"/>
     <use xlink:href="#DejaVuSans-65" x="3149.421875"/>
     <use xlink:href="#DejaVuSans-74" x="3210.945312"/>
     <use xlink:href="#DejaVuSans-72" x="3250.154297"/>
     <use xlink:href="#DejaVuSans-79" x="3291.267578"/>
     <use xlink:href="#DejaVuSans-20" x="3350.447266"/>
     <use xlink:href="#DejaVuSans-63" x="3382.234375"/>
     <use xlink:href="#DejaVuSans-79" x="3437.214844"/>
     <use xlink:href="#DejaVuSans-63" x="3496.394531"/>
     <use xlink:href="#DejaVuSans-6c" x="3551.375"/>
     <use xlink:href="#DejaVuSans-65" x="3579.158203"/>
     <use xlink:href="#DejaVuSans-2e" x="3640.681641"/>
    </g>
   </g>
   <g id="text_8">
    <!-- Loop: Each Scenario -->
    <g style="fill: #e8833a" transform="translate(81.6192 243.501057) scale(0.095 -0.095)">
     <defs>
      <path id="DejaVuSans-Bold-3a" d="M 716 3500 
L 1844 3500 
L 1844 2291 
L 716 2291 
L 716 3500 
z
M 716 1209 
L 1844 1209 
L 1844 0 
L 716 0 
L 716 1209 
z
" transform="scale(0.015625)"/>
     </defs>
     <use xlink:href="#DejaVuSans-Bold-4c"/>
     <use xlink:href="#DejaVuSans-Bold-6f" x="63.720703"/>
     <use xlink:href="#DejaVuSans-Bold-6f" x="132.421875"/>
     <use xlink:href="#DejaVuSans-Bold-70" x="201.123047"/>
     <use xlink:href="#DejaVuSans-Bold-3a" x="272.705078"/>
     <use xlink:href="#DejaVuSans-Bold-20" x="312.695312"/>
     <use xlink:href="#DejaVuSans-Bold-45" x="347.509766"/>
     <use xlink:href="#DejaVuSans-Bold-61" x="415.820312"/>
     <use xlink:href="#DejaVuSans-Bold-63" x="483.300781"/>
     <use xlink:href="#DejaVuSans-Bold-68" x="542.578125"/>
     <use xlink:href="#DejaVuSans-Bold-20" x="613.769531"/>
     <use xlink:href="#DejaVuSans-Bold-53" x="648.583984"/>
     <use xlink:href="#DejaVuSans-Bold-63" x="720.605469"/>
     <use xlink:href="#DejaVuSans-Bold-65" x="779.882812"/>
     <use xlink:href="#DejaVuSans-Bold-6e" x="847.705078"/>
     <use xlink:href="#DejaVuSans-Bold-61" x="918.896484"/>
     <use xlink:href="#DejaVuSans-Bold-72" x="986.376953"/>
     <use xlink:href="#DejaVuSans-Bold-69" x="1035.693359"/>
     <use xlink:href="#DejaVuSans-Bold-6f" x="1069.970703"/>
    </g>
   </g>
   <g id="text_9">
    <!-- 1. Inject the scenario-specific threat. -->
    <g style="fill: #6c757d" transform="translate(81.6192 281.536088) scale(0.0792 -0.0792)">
     <defs>
      <path id="DejaVuSans-49" d="M 628 4666 
L 1259 4666 
L 1259 0 
L 628 0 
L 628 4666 
z
" transform="scale(0.015625)"/>
      <path id="DejaVuSans-6a" d="M 603 3500 
L 1178 3500 
L 1178 -63 
Q 1178 -731 923 -1031 
Q 669 -1331 103 -1331 
L -116 -1331 
L -116 -844 
L 38 -844 
Q 366 -844 484 -692 
Q 603 -541 603 -63 
L 603 3500 
z
M 603 4863 
L 1178 4863 
L 1178 4134 
L 603 4134 
L 603 4863 
z
" transform="scale(0.015625)"/>
      <path id="DejaVuSans-2d" d="M 313 2009 
L 1997 2009 
L 1997 1497 
L 313 1497 
L 313 2009 
z
" transform="scale(0.015625)"/>
     </defs>
     <use xlink:href="#DejaVuSans-31"/>
     <use xlink:href="#DejaVuSans-2e" x="63.623047"/>
     <use xlink:href="#DejaVuSans-20" x="95.410156"/>
     <use xlink:href="#DejaVuSans-49" x="127.197266"/>
     <use xlink:href="#DejaVuSans-6e" x="156.689453"/>
     <use xlink:href="#DejaVuSans-6a" x="220.068359"/>
     <use xlink:href="#DejaVuSans-65" x="247.851562"/>
     <use xlink:href="#DejaVuSans-63" x="309.375"/>
     <use xlink:href="#DejaVuSans-74" x="364.355469"/>
     <use xlink:href="#DejaVuSans-20" x="403.564453"/>
     <use xlink:href="#DejaVuSans-74" x="435.351562"/>
     <use xlink:href="#DejaVuSans-68" x="474.560547"/>
     <use xlink:href="#DejaVuSans-65" x="537.939453"/>
     <use xlink:href="#DejaVuSans-20" x="599.462891"/>
     <use xlink:href="#DejaVuSans-73" x="631.25"/>
     <use xlink:href="#DejaVuSans-63" x="683.349609"/>
     <use xlink:href="#DejaVuSans-65" x="738.330078"/>
     <use xlink:href="#DejaVuSans-6e" x="799.853516"/>
     <use xlink:href="#DejaVuSans-61" x="863.232422"/>
     <use xlink:href="#DejaVuSans-72" x="924.511719"/>
     <use xlink:href="#DejaVuSans-69" x="965.625"/>
     <use xlink:href="#DejaVuSans-6f" x="993.408203"/>
     <use xlink:href="#DejaVuSans-2d" x="1056.464844"/>
     <use xlink:href="#DejaVuSans-73" x="1092.548828"/>
     <use xlink:href="#DejaVuSans-70" x="1144.648438"/>
     <use xlink:href="#DejaVuSans-65" x="1208.125"/>
     <use xlink:href="#DejaVuSans-63" x="1269.648438"/>
     <use xlink:href="#DejaVuSans-69" x="1324.628906"/>
     <use xlink:href="#DejaVuSans-66" x="1352.412109"/>
     <use xlink:href="#DejaVuSans-69" x="1387.617188"/>
     <use xlink:href="#DejaVuSans-63" x="1415.400391"/>
     <use xlink:href="#DejaVuSans-20" x="1470.380859"/>
     <use xlink:href="#DejaVuSans-74" x="1502.167969"/>
     <use xlink:href="#DejaVuSans-68" x="1541.376953"/>
     <use xlink:href="#DejaVuSans-72" x="1604.755859"/>
     <use xlink:href="#DejaVuSans-65" x="1643.619141"/>
     <use xlink:href="#DejaVuSans-61" x="1705.142578"/>
     <use xlink:href="#DejaVuSans-74" x="1766.421875"/>
     <use xlink:href="#DejaVuSans-2e" x="1805.630859"/>
    </g>
    <!-- 2. Wait for session capture and L7 enrichment. -->
    <g style="fill: #6c757d" transform="translate(81.6192 290.886192) scale(0.0792 -0.0792)">
     <defs>
      <path id="DejaVuSans-57" d="M 213 4666 
L 850 4666 
L 1831 722 
L 2809 4666 
L 3519 4666 
L 4500 722 
L 5478 4666 
L 6119 4666 
L 4947 0 
L 4153 0 
L 3169 4050 
L 2175 0 
L 1381 0 
L 213 4666 
z
" transform="scale(0.015625)"/>
      <path id="DejaVuSans-37" d="M 525 4666 
L 3525 4666 
L 3525 4397 
L 1831 0 
L 1172 0 
L 2766 4134 
L 525 4134 
L 525 4666 
z
" transform="scale(0.015625)"/>
     </defs>
     <use xlink:href="#DejaVuSans-32"/>
     <use xlink:href="#DejaVuSans-2e" x="63.623047"/>
     <use xlink:href="#DejaVuSans-20" x="95.410156"/>
     <use xlink:href="#DejaVuSans-57" x="127.197266"/>
     <use xlink:href="#DejaVuSans-61" x="219.699219"/>
     <use xlink:href="#DejaVuSans-69" x="280.978516"/>
     <use xlink:href="#DejaVuSans-74" x="308.761719"/>
     <use xlink:href="#DejaVuSans-20" x="347.970703"/>
     <use xlink:href="#DejaVuSans-66" x="379.757812"/>
     <use xlink:href="#DejaVuSans-6f" x="414.962891"/>
     <use xlink:href="#DejaVuSans-72" x="476.144531"/>
     <use xlink:href="#DejaVuSans-20" x="517.257812"/>
     <use xlink:href="#DejaVuSans-73" x="549.044922"/>
     <use xlink:href="#DejaVuSans-65" x="601.144531"/>
     <use xlink:href="#DejaVuSans-73" x="662.667969"/>
     <use xlink:href="#DejaVuSans-73" x="714.767578"/>
     <use xlink:href="#DejaVuSans-69" x="766.867188"/>
     <use xlink:href="#DejaVuSans-6f" x="794.650391"/>
     <use xlink:href="#DejaVuSans-6e" x="855.832031"/>
     <use xlink:href="#DejaVuSans-20" x="919.210938"/>
     <use xlink:href="#DejaVuSans-63" x="950.998047"/>
     <use xlink:href="#DejaVuSans-61" x="1005.978516"/>
     <use xlink:href="#DejaVuSans-70" x="1067.257812"/>
     <use xlink:href="#DejaVuSans-74" x="1130.734375"/>
     <use xlink:href="#DejaVuSans-75" x="1169.943359"/>
     <use xlink:href="#DejaVuSans-72" x="1233.322266"/>
     <use xlink:href="#DejaVuSans-65" x="1272.185547"/>
     <use xlink:href="#DejaVuSans-20" x="1333.708984"/>
     <use xlink:href="#DejaVuSans-61" x="1365.496094"/>
     <use xlink:href="#DejaVuSans-6e" x="1426.775391"/>
     <use xlink:href="#DejaVuSans-64" x="1490.154297"/>
     <use xlink:href="#DejaVuSans-20" x="1553.630859"/>
     <use xlink:href="#DejaVuSans-4c" x="1585.417969"/>
     <use xlink:href="#DejaVuSans-37" x="1641.130859"/>
     <use xlink:href="#DejaVuSans-20" x="1704.753906"/>
     <use xlink:href="#DejaVuSans-65" x="1736.541016"/>
     <use xlink:href="#DejaVuSans-6e" x="1798.064453"/>
     <use xlink:href="#DejaVuSans-72" x="1861.443359"/>
     <use xlink:href="#DejaVuSans-69" x="1902.556641"/>
     <use xlink:href="#DejaVuSans-63" x="1930.339844"/>
     <use xlink:href="#DejaVuSans-68" x="1985.320312"/>
     <use xlink:href="#DejaVuSans-6d" x="2048.699219"/>
     <use xlink:href="#DejaVuSans-65" x="2146.111328"/>
     <use xlink:href="#DejaVuSans-6e" x="2207.634766"/>
     <use xlink:href="#DejaVuSans-74" x="2271.013672"/>
     <use xlink:href="#DejaVuSans-2e" x="2310.222656"/>
    </g>
    <!-- 3. Extrapolator reads session history and publishes the intent slice. -->
    <g style="fill: #6c757d" transform="translate(81.6192 300.236297) scale(0.0792 -0.0792)">
     <use xlink:href="#DejaVuSans-33"/>
     <use xlink:href="#DejaVuSans-2e" x="63.623047"/>
     <use xlink:href="#DejaVuSans-20" x="95.410156"/>
     <use xlink:href="#DejaVuSans-45" x="127.197266"/>
     <use xlink:href="#DejaVuSans-78" x="190.380859"/>
     <use xlink:href="#DejaVuSans-74" x="249.560547"/>
     <use xlink:href="#DejaVuSans-72" x="288.769531"/>
     <use xlink:href="#DejaVuSans-61" x="329.882812"/>
     <use xlink:href="#DejaVuSans-70" x="391.162109"/>
     <use xlink:href="#DejaVuSans-6f" x="454.638672"/>
     <use xlink:href="#DejaVuSans-6c" x="515.820312"/>
     <use xlink:href="#DejaVuSans-61" x="543.603516"/>
     <use xlink:href="#DejaVuSans-74" x="604.882812"/>
     <use xlink:href="#DejaVuSans-6f" x="644.091797"/>
     <use xlink:href="#DejaVuSans-72" x="705.273438"/>
     <use xlink:href="#DejaVuSans-20" x="746.386719"/>
     <use xlink:href="#DejaVuSans-72" x="778.173828"/>
     <use xlink:href="#DejaVuSans-65" x="817.037109"/>
     <use xlink:href="#DejaVuSans-61" x="878.560547"/>
     <use xlink:href="#DejaVuSans-64" x="939.839844"/>
     <use xlink:href="#DejaVuSans-73" x="1003.316406"/>
     <use xlink:href="#DejaVuSans-20" x="1055.416016"/>
     <use xlink:href="#DejaVuSans-73" x="1087.203125"/>
     <use xlink:href="#DejaVuSans-65" x="1139.302734"/>
     <use xlink:href="#DejaVuSans-73" x="1200.826172"/>
     <use xlink:href="#DejaVuSans-73" x="1252.925781"/>
     <use xlink:href="#DejaVuSans-69" x="1305.025391"/>
     <use xlink:href="#DejaVuSans-6f" x="1332.808594"/>
     <use xlink:href="#DejaVuSans-6e" x="1393.990234"/>
     <use xlink:href="#DejaVuSans-20" x="1457.369141"/>
     <use xlink:href="#DejaVuSans-68" x="1489.15625"/>
     <use xlink:href="#DejaVuSans-69" x="1552.535156"/>
     <use xlink:href="#DejaVuSans-73" x="1580.318359"/>
     <use xlink:href="#DejaVuSans-74" x="1632.417969"/>
     <use xlink:href="#DejaVuSans-6f" x="1671.626953"/>
     <use xlink:href="#DejaVuSans-72" x="1732.808594"/>
     <use xlink:href="#DejaVuSans-79" x="1773.921875"/>
     <use xlink:href="#DejaVuSans-20" x="1833.101562"/>
     <use xlink:href="#DejaVuSans-61" x="1864.888672"/>
     <use xlink:href="#DejaVuSans-6e" x="1926.167969"/>
     <use xlink:href="#DejaVuSans-64" x="1989.546875"/>
     <use xlink:href="#DejaVuSans-20" x="2053.023438"/>
     <use xlink:href="#DejaVuSans-70" x="2084.810547"/>
     <use xlink:href="#DejaVuSans-75" x="2148.287109"/>
     <use xlink:href="#DejaVuSans-62" x="2211.666016"/>
     <use xlink:href="#DejaVuSans-6c" x="2275.142578"/>
     <use xlink:href="#DejaVuSans-69" x="2302.925781"/>
     <use xlink:href="#DejaVuSans-73" x="2330.708984"/>
     <use xlink:href="#DejaVuSans-68" x="2382.808594"/>
     <use xlink:href="#DejaVuSans-65" x="2446.1875"/>
     <use xlink:href="#DejaVuSans-73" x="2507.710938"/>
     <use xlink:href="#DejaVuSans-20" x="2559.810547"/>
     <use xlink:href="#DejaVuSans-74" x="2591.597656"/>
     <use xlink:href="#DejaVuSans-68" x="2630.806641"/>
     <use xlink:href="#DejaVuSans-65" x="2694.185547"/>
     <use xlink:href="#DejaVuSans-20" x="2755.708984"/>
     <use xlink:href="#DejaVuSans-69" x="2787.496094"/>
     <use xlink:href="#DejaVuSans-6e" x="2815.279297"/>
     <use xlink:href="#DejaVuSans-74" x="2878.658203"/>
     <use xlink:href="#DejaVuSans-65" x="2917.867188"/>
     <use xlink:href="#DejaVuSans-6e" x="2979.390625"/>
     <use xlink:href="#DejaVuSans-74" x="3042.769531"/>
     <use xlink:href="#DejaVuSans-20" x="3081.978516"/>
     <use xlink:href="#DejaVuSans-73" x="3113.765625"/>
     <use xlink:href="#DejaVuSans-6c" x="3165.865234"/>
     <use xlink:href="#DejaVuSans-69" x="3193.648438"/>
     <use xlink:href="#DejaVuSans-63" x="3221.431641"/>
     <use xlink:href="#DejaVuSans-65" x="3276.412109"/>
     <use xlink:href="#DejaVuSans-2e" x="3337.935547"/>
    </g>
    <!-- 4. Internal EDAMAME loops update divergence, vulnerability, and advisor state. -->
    <g style="fill: #6c757d" transform="translate(81.6192 309.586401) scale(0.0792 -0.0792)">
     <defs>
      <path id="DejaVuSans-67" d="M 2906 1791 
Q 2906 2416 2648 2759 
Q 2391 3103 1925 3103 
Q 1463 3103 1205 2759 
Q 947 2416 947 1791 
Q 947 1169 1205 825 
Q 1463 481 1925 481 
Q 2391 481 2648 825 
Q 2906 1169 2906 1791 
z
M 3481 434 
Q 3481 -459 3084 -895 
Q 2688 -1331 1869 -1331 
Q 1566 -1331 1297 -1286 
Q 1028 -1241 775 -1147 
L 775 -588 
Q 1028 -725 1275 -790 
Q 1522 -856 1778 -856 
Q 2344 -856 2625 -561 
Q 2906 -266 2906 331 
L 2906 616 
Q 2728 306 2450 153 
Q 2172 0 1784 0 
Q 1141 0 747 490 
Q 353 981 353 1791 
Q 353 2603 747 3093 
Q 1141 3584 1784 3584 
Q 2172 3584 2450 3431 
Q 2728 3278 2906 2969 
L 2906 3500 
L 3481 3500 
L 3481 434 
z
" transform="scale(0.015625)"/>
      <path id="DejaVuSans-2c" d="M 750 794 
L 1409 794 
L 1409 256 
L 897 -744 
L 494 -744 
L 750 256 
L 750 794 
z
" transform="scale(0.015625)"/>
     </defs>
     <use xlink:href="#DejaVuSans-34"/>
     <use xlink:href="#DejaVuSans-2e" x="63.623047"/>
     <use xlink:href="#DejaVuSans-20" x="95.410156"/>
     <use xlink:href="#DejaVuSans-49" x="127.197266"/>
     <use xlink:href="#DejaVuSans-6e" x="156.689453"/>
     <use xlink:href="#DejaVuSans-74" x="220.068359"/>
     <use xlink:href="#DejaVuSans-65" x="259.277344"/>
     <use xlink:href="#DejaVuSans-72" x="320.800781"/>
     <use xlink:href="#DejaVuSans-6e" x="360.164062"/>
     <use xlink:href="#DejaVuSans-61" x="423.542969"/>
     <use xlink:href="#DejaVuSans-6c" x="484.822266"/>
     <use xlink:href="#DejaVuSans-20" x="512.605469"/>
     <use xlink:href="#DejaVuSans-45" x="544.392578"/>
     <use xlink:href="#DejaVuSans-44" x="607.576172"/>
     <use xlink:href="#DejaVuSans-41" x="682.828125"/>
     <use xlink:href="#DejaVuSans-4d" x="751.236328"/>
     <use xlink:href="#DejaVuSans-41" x="837.515625"/>
     <use xlink:href="#DejaVuSans-4d" x="905.923828"/>
     <use xlink:href="#DejaVuSans-45" x="992.203125"/>
     <use xlink:href="#DejaVuSans-20" x="1055.386719"/>
     <use xlink:href="#DejaVuSans-6c" x="1087.173828"/>
     <use xlink:href="#DejaVuSans-6f" x="1114.957031"/>
     <use xlink:href="#DejaVuSans-6f" x="1176.138672"/>
     <use xlink:href="#DejaVuSans-70" x="1237.320312"/>
     <use xlink:href="#DejaVuSans-73" x="1300.796875"/>
     <use xlink:href="#DejaVuSans-20" x="1352.896484"/>
     <use xlink:href="#DejaVuSans-75" x="1384.683594"/>
     <use xlink:href="#DejaVuSans-70" x="1448.0625"/>
     <use xlink:href="#DejaVuSans-64" x="1511.539062"/>
     <use xlink:href="#DejaVuSans-61" x="1575.015625"/>
     <use xlink:href="#DejaVuSans-74" x="1636.294922"/>
     <use xlink:href="#DejaVuSans-65" x="1675.503906"/>
     <use xlink:href="#DejaVuSans-20" x="1737.027344"/>
     <use xlink:href="#DejaVuSans-64" x="1768.814453"/>
     <use xlink:href="#DejaVuSans-69" x="1832.291016"/>
     <use xlink:href="#DejaVuSans-76" x="1860.074219"/>
     <use xlink:href="#DejaVuSans-65" x="1919.253906"/>
     <use xlink:href="#DejaVuSans-72" x="1980.777344"/>
     <use xlink:href="#DejaVuSans-67" x="2020.140625"/>
     <use xlink:href="#DejaVuSans-65" x="2083.617188"/>
     <use xlink:href="#DejaVuSans-6e" x="2145.140625"/>
     <use xlink:href="#DejaVuSans-63" x="2208.519531"/>
     <use xlink:href="#DejaVuSans-65" x="2263.5"/>
     <use xlink:href="#DejaVuSans-2c" x="2325.023438"/>
     <use xlink:href="#DejaVuSans-20" x="2356.810547"/>
     <use xlink:href="#DejaVuSans-76" x="2388.597656"/>
     <use xlink:href="#DejaVuSans-75" x="2447.777344"/>
     <use xlink:href="#DejaVuSans-6c" x="2511.15625"/>
     <use xlink:href="#DejaVuSans-6e" x="2538.939453"/>
     <use xlink:href="#DejaVuSans-65" x="2602.318359"/>
     <use xlink:href="#DejaVuSans-72" x="2663.841797"/>
     <use xlink:href="#DejaVuSans-61" x="2704.955078"/>
     <use xlink:href="#DejaVuSans-62" x="2766.234375"/>
     <use xlink:href="#DejaVuSans-69" x="2829.710938"/>
     <use xlink:href="#DejaVuSans-6c" x="2857.494141"/>
     <use xlink:href="#DejaVuSans-69" x="2885.277344"/>
     <use xlink:href="#DejaVuSans-74" x="2913.060547"/>
     <use xlink:href="#DejaVuSans-79" x="2952.269531"/>
     <use xlink:href="#DejaVuSans-2c" x="3011.449219"/>
     <use xlink:href="#DejaVuSans-20" x="3043.236328"/>
     <use xlink:href="#DejaVuSans-61" x="3075.023438"/>
     <use xlink:href="#DejaVuSans-6e" x="3136.302734"/>
     <use xlink:href="#DejaVuSans-64" x="3199.681641"/>
     <use xlink:href="#DejaVuSans-20" x="3263.158203"/>
     <use xlink:href="#DejaVuSans-61" x="3294.945312"/>
     <use xlink:href="#DejaVuSans-64" x="3356.224609"/>
     <use xlink:href="#DejaVuSans-76" x="3419.701172"/>
     <use xlink:href="#DejaVuSans-69" x="3478.880859"/>
     <use xlink:href="#DejaVuSans-73" x="3506.664062"/>
     <use xlink:href="#DejaVuSans-6f" x="3558.763672"/>
     <use xlink:href="#DejaVuSans-72" x="3619.945312"/>
     <use xlink:href="#DejaVuSans-20" x="3661.058594"/>
     <use xlink:href="#DejaVuSans-73" x="3692.845703"/>
     <use xlink:href="#DejaVuSans-74" x="3744.945312"/>
     <use xlink:href="#DejaVuSans-61" x="3784.154297"/>
     <use xlink:href="#DejaVuSans-74" x="3845.433594"/>
     <use xlink:href="#DejaVuSans-65" x="3884.642578"/>
     <use xlink:href="#DejaVuSans-2e" x="3946.166016"/>
    </g>
    <!-- 5. Verdict reader polls the runtime APIs and escalates actionable findings. -->
    <g style="fill: #6c757d" transform="translate(81.6192 318.936506) scale(0.0792 -0.0792)">
     <defs>
      <path id="DejaVuSans-35" d="M 691 4666 
L 3169 4666 
L 3169 4134 
L 1269 4134 
L 1269 2991 
Q 1406 3038 1543 3061 
Q 1681 3084 1819 3084 
Q 2600 3084 3056 2656 
Q 3513 2228 3513 1497 
Q 3513 744 3044 326 
Q 2575 -91 1722 -91 
Q 1428 -91 1123 -41 
Q 819 9 494 109 
L 494 744 
Q 775 591 1075 516 
Q 1375 441 1709 441 
Q 2250 441 2565 725 
Q 2881 1009 2881 1497 
Q 2881 1984 2565 2268 
Q 2250 2553 1709 2553 
Q 1456 2553 1204 2497 
Q 953 2441 691 2322 
L 691 4666 
z
" transform="scale(0.015625)"/>
      <path id="DejaVuSans-50" d="M 1259 4147 
L 1259 2394 
L 2053 2394 
Q 2494 2394 2734 2622 
Q 2975 2850 2975 3272 
Q 2975 3691 2734 3919 
Q 2494 4147 2053 4147 
L 1259 4147 
z
M 628 4666 
L 2053 4666 
Q 2838 4666 3239 4311 
Q 3641 3956 3641 3272 
Q 3641 2581 3239 2228 
Q 2838 1875 2053 1875 
L 1259 1875 
L 1259 0 
L 628 0 
L 628 4666 
z
" transform="scale(0.015625)"/>
     </defs>
     <use xlink:href="#DejaVuSans-35"/>
     <use xlink:href="#DejaVuSans-2e" x="63.623047"/>
     <use xlink:href="#DejaVuSans-20" x="95.410156"/>
     <use xlink:href="#DejaVuSans-56" x="127.197266"/>
     <use xlink:href="#DejaVuSans-65" x="187.855469"/>
     <use xlink:href="#DejaVuSans-72" x="249.378906"/>
     <use xlink:href="#DejaVuSans-64" x="288.742188"/>
     <use xlink:href="#DejaVuSans-69" x="352.21875"/>
     <use xlink:href="#DejaVuSans-63" x="380.001953"/>
     <use xlink:href="#DejaVuSans-74" x="434.982422"/>
     <use xlink:href="#DejaVuSans-20" x="474.191406"/>
     <use xlink:href="#DejaVuSans-72" x="505.978516"/>
     <use xlink:href="#DejaVuSans-65" x="544.841797"/>
     <use xlink:href="#DejaVuSans-61" x="606.365234"/>
     <use xlink:href="#DejaVuSans-64" x="667.644531"/>
     <use xlink:href="#DejaVuSans-65" x="731.121094"/>
     <use xlink:href="#DejaVuSans-72" x="792.644531"/>
     <use xlink:href="#DejaVuSans-20" x="833.757812"/>
     <use xlink:href="#DejaVuSans-70" x="865.544922"/>
     <use xlink:href="#DejaVuSans-6f" x="929.021484"/>
     <use xlink:href="#DejaVuSans-6c" x="990.203125"/>
     <use xlink:href="#DejaVuSans-6c" x="1017.986328"/>
     <use xlink:href="#DejaVuSans-73" x="1045.769531"/>
     <use xlink:href="#DejaVuSans-20" x="1097.869141"/>
     <use xlink:href="#DejaVuSans-74" x="1129.65625"/>
     <use xlink:href="#DejaVuSans-68" x="1168.865234"/>
     <use xlink:href="#DejaVuSans-65" x="1232.244141"/>
     <use xlink:href="#DejaVuSans-20" x="1293.767578"/>
     <use xlink:href="#DejaVuSans-72" x="1325.554688"/>
     <use xlink:href="#DejaVuSans-75" x="1366.667969"/>
     <use xlink:href="#DejaVuSans-6e" x="1430.046875"/>
     <use xlink:href="#DejaVuSans-74" x="1493.425781"/>
     <use xlink:href="#DejaVuSans-69" x="1532.634766"/>
     <use xlink:href="#DejaVuSans-6d" x="1560.417969"/>
     <use xlink:href="#DejaVuSans-65" x="1657.830078"/>
     <use xlink:href="#DejaVuSans-20" x="1719.353516"/>
     <use xlink:href="#DejaVuSans-41" x="1751.140625"/>
     <use xlink:href="#DejaVuSans-50" x="1819.548828"/>
     <use xlink:href="#DejaVuSans-49" x="1879.851562"/>
     <use xlink:href="#DejaVuSans-73" x="1909.34375"/>
     <use xlink:href="#DejaVuSans-20" x="1961.443359"/>
     <use xlink:href="#DejaVuSans-61" x="1993.230469"/>
     <use xlink:href="#DejaVuSans-6e" x="2054.509766"/>
     <use xlink:href="#DejaVuSans-64" x="2117.888672"/>
     <use xlink:href="#DejaVuSans-20" x="2181.365234"/>
     <use xlink:href="#DejaVuSans-65" x="2213.152344"/>
     <use xlink:href="#DejaVuSans-73" x="2274.675781"/>
     <use xlink:href="#DejaVuSans-63" x="2326.775391"/>
     <use xlink:href="#DejaVuSans-61" x="2381.755859"/>
     <use xlink:href="#DejaVuSans-6c" x="2443.035156"/>
     <use xlink:href="#DejaVuSans-61" x="2470.818359"/>
     <use xlink:href="#DejaVuSans-74" x="2532.097656"/>
     <use xlink:href="#DejaVuSans-65" x="2571.306641"/>
     <use xlink:href="#DejaVuSans-73" x="2632.830078"/>
     <use xlink:href="#DejaVuSans-20" x="2684.929688"/>
     <use xlink:href="#DejaVuSans-61" x="2716.716797"/>
     <use xlink:href="#DejaVuSans-63" x="2777.996094"/>
     <use xlink:href="#DejaVuSans-74" x="2832.976562"/>
     <use xlink:href="#DejaVuSans-69" x="2872.185547"/>
     <use xlink:href="#DejaVuSans-6f" x="2899.96875"/>
     <use xlink:href="#DejaVuSans-6e" x="2961.150391"/>
     <use xlink:href="#DejaVuSans-61" x="3024.529297"/>
     <use xlink:href="#DejaVuSans-62" x="3085.808594"/>
     <use xlink:href="#DejaVuSans-6c" x="3149.285156"/>
     <use xlink:href="#DejaVuSans-65" x="3177.068359"/>
     <use xlink:href="#DejaVuSans-20" x="3238.591797"/>
     <use xlink:href="#DejaVuSans-66" x="3270.378906"/>
     <use xlink:href="#DejaVuSans-69" x="3305.583984"/>
     <use xlink:href="#DejaVuSans-6e" x="3333.367188"/>
     <use xlink:href="#DejaVuSans-64" x="3396.746094"/>
     <use xlink:href="#DejaVuSans-69" x="3460.222656"/>
     <use xlink:href="#DejaVuSans-6e" x="3488.005859"/>
     <use xlink:href="#DejaVuSans-67" x="3551.384766"/>
     <use xlink:href="#DejaVuSans-73" x="3614.861328"/>
     <use xlink:href="#DejaVuSans-2e" x="3666.960938"/>
    </g>
    <!-- 6. Scenario script polls the verdict and asserts the expected outcome. -->
    <g style="fill: #6c757d" transform="translate(81.6192 328.28661) scale(0.0792 -0.0792)">
     <defs>
      <path id="DejaVuSans-36" d="M 2113 2584 
Q 1688 2584 1439 2293 
Q 1191 2003 1191 1497 
Q 1191 994 1439 701 
Q 1688 409 2113 409 
Q 2538 409 2786 701 
Q 3034 994 3034 1497 
Q 3034 2003 2786 2293 
Q 2538 2584 2113 2584 
z
M 3366 4563 
L 3366 3988 
Q 3128 4100 2886 4159 
Q 2644 4219 2406 4219 
Q 1781 4219 1451 3797 
Q 1122 3375 1075 2522 
Q 1259 2794 1537 2939 
Q 1816 3084 2150 3084 
Q 2853 3084 3261 2657 
Q 3669 2231 3669 1497 
Q 3669 778 3244 343 
Q 2819 -91 2113 -91 
Q 1303 -91 875 529 
Q 447 1150 447 2328 
Q 447 3434 972 4092 
Q 1497 4750 2381 4750 
Q 2619 4750 2861 4703 
Q 3103 4656 3366 4563 
z
" transform="scale(0.015625)"/>
     </defs>
     <use xlink:href="#DejaVuSans-36"/>
     <use xlink:href="#DejaVuSans-2e" x="63.623047"/>
     <use xlink:href="#DejaVuSans-20" x="95.410156"/>
     <use xlink:href="#DejaVuSans-53" x="127.197266"/>
     <use xlink:href="#DejaVuSans-63" x="190.673828"/>
     <use xlink:href="#DejaVuSans-65" x="245.654297"/>
     <use xlink:href="#DejaVuSans-6e" x="307.177734"/>
     <use xlink:href="#DejaVuSans-61" x="370.556641"/>
     <use xlink:href="#DejaVuSans-72" x="431.835938"/>
     <use xlink:href="#DejaVuSans-69" x="472.949219"/>
     <use xlink:href="#DejaVuSans-6f" x="500.732422"/>
     <use xlink:href="#DejaVuSans-20" x="561.914062"/>
     <use xlink:href="#DejaVuSans-73" x="593.701172"/>
     <use xlink:href="#DejaVuSans-63" x="645.800781"/>
     <use xlink:href="#DejaVuSans-72" x="700.78125"/>
     <use xlink:href="#DejaVuSans-69" x="741.894531"/>
     <use xlink:href="#DejaVuSans-70" x="769.677734"/>
     <use xlink:href="#DejaVuSans-74" x="833.154297"/>
     <use xlink:href="#DejaVuSans-20" x="872.363281"/>
     <use xlink:href="#DejaVuSans-70" x="904.150391"/>
     <use xlink:href="#DejaVuSans-6f" x="967.626953"/>
     <use xlink:href="#DejaVuSans-6c" x="1028.808594"/>
     <use xlink:href="#DejaVuSans-6c" x="1056.591797"/>
     <use xlink:href="#DejaVuSans-73" x="1084.375"/>
     <use xlink:href="#DejaVuSans-20" x="1136.474609"/>
     <use xlink:href="#DejaVuSans-74" x="1168.261719"/>
     <use xlink:href="#DejaVuSans-68" x="1207.470703"/>
     <use xlink:href="#DejaVuSans-65" x="1270.849609"/>
     <use xlink:href="#DejaVuSans-20" x="1332.373047"/>
     <use xlink:href="#DejaVuSans-76" x="1364.160156"/>
     <use xlink:href="#DejaVuSans-65" x="1423.339844"/>
     <use xlink:href="#DejaVuSans-72" x="1484.863281"/>
     <use xlink:href="#DejaVuSans-64" x="1524.226562"/>
     <use xlink:href="#DejaVuSans-69" x="1587.703125"/>
     <use xlink:href="#DejaVuSans-63" x="1615.486328"/>
     <use xlink:href="#DejaVuSans-74" x="1670.466797"/>
     <use xlink:href="#DejaVuSans-20" x="1709.675781"/>
     <use xlink:href="#DejaVuSans-61" x="1741.462891"/>
     <use xlink:href="#DejaVuSans-6e" x="1802.742188"/>
     <use xlink:href="#DejaVuSans-64" x="1866.121094"/>
     <use xlink:href="#DejaVuSans-20" x="1929.597656"/>
     <use xlink:href="#DejaVuSans-61" x="1961.384766"/>
     <use xlink:href="#DejaVuSans-73" x="2022.664062"/>
     <use xlink:href="#DejaVuSans-73" x="2074.763672"/>
     <use xlink:href="#DejaVuSans-65" x="2126.863281"/>
     <use xlink:href="#DejaVuSans-72" x="2188.386719"/>
     <use xlink:href="#DejaVuSans-74" x="2229.5"/>
     <use xlink:href="#DejaVuSans-73" x="2268.708984"/>
     <use xlink:href="#DejaVuSans-20" x="2320.808594"/>
     <use xlink:href="#DejaVuSans-74" x="2352.595703"/>
     <use xlink:href="#DejaVuSans-68" x="2391.804688"/>
     <use xlink:href="#DejaVuSans-65" x="2455.183594"/>
     <use xlink:href="#DejaVuSans-20" x="2516.707031"/>
     <use xlink:href="#DejaVuSans-65" x="2548.494141"/>
     <use xlink:href="#DejaVuSans-78" x="2608.267578"/>
     <use xlink:href="#DejaVuSans-70" x="2667.447266"/>
     <use xlink:href="#DejaVuSans-65" x="2730.923828"/>
     <use xlink:href="#DejaVuSans-63" x="2792.447266"/>
     <use xlink:href="#DejaVuSans-74" x="2847.427734"/>
     <use xlink:href="#DejaVuSans-65" x="2886.636719"/>
     <use xlink:href="#DejaVuSans-64" x="2948.160156"/>
     <use xlink:href="#DejaVuSans-20" x="3011.636719"/>
     <use xlink:href="#DejaVuSans-6f" x="3043.423828"/>
     <use xlink:href="#DejaVuSans-75" x="3104.605469"/>
     <use xlink:href="#DejaVuSans-74" x="3167.984375"/>
     <use xlink:href="#DejaVuSans-63" x="3207.193359"/>
     <use xlink:href="#DejaVuSans-6f" x="3262.173828"/>
     <use xlink:href="#DejaVuSans-6d" x="3323.355469"/>
     <use xlink:href="#DejaVuSans-65" x="3420.767578"/>
     <use xlink:href="#DejaVuSans-2e" x="3482.291016"/>
    </g>
    <!-- 7. Clean up the injected threat and transient residue. -->
    <g style="fill: #6c757d" transform="translate(81.6192 337.636715) scale(0.0792 -0.0792)">
     <defs>
      <path id="DejaVuSans-43" d="M 4122 4306 
L 4122 3641 
Q 3803 3938 3442 4084 
Q 3081 4231 2675 4231 
Q 1875 4231 1450 3742 
Q 1025 3253 1025 2328 
Q 1025 1406 1450 917 
Q 1875 428 2675 428 
Q 3081 428 3442 575 
Q 3803 722 4122 1019 
L 4122 359 
Q 3791 134 3420 21 
Q 3050 -91 2638 -91 
Q 1578 -91 968 557 
Q 359 1206 359 2328 
Q 359 3453 968 4101 
Q 1578 4750 2638 4750 
Q 3056 4750 3426 4639 
Q 3797 4528 4122 4306 
z
" transform="scale(0.015625)"/>
     </defs>
     <use xlink:href="#DejaVuSans-37"/>
     <use xlink:href="#DejaVuSans-2e" x="63.623047"/>
     <use xlink:href="#DejaVuSans-20" x="95.410156"/>
     <use xlink:href="#DejaVuSans-43" x="127.197266"/>
     <use xlink:href="#DejaVuSans-6c" x="197.021484"/>
     <use xlink:href="#DejaVuSans-65" x="224.804688"/>
     <use xlink:href="#DejaVuSans-61" x="286.328125"/>
     <use xlink:href="#DejaVuSans-6e" x="347.607422"/>
     <use xlink:href="#DejaVuSans-20" x="410.986328"/>
     <use xlink:href="#DejaVuSans-75" x="442.773438"/>
     <use xlink:href="#DejaVuSans-70" x="506.152344"/>
     <use xlink:href="#DejaVuSans-20" x="569.628906"/>
     <use xlink:href="#DejaVuSans-74" x="601.416016"/>
     <use xlink:href="#DejaVuSans-68" x="640.625"/>
     <use xlink:href="#DejaVuSans-65" x="704.003906"/>
     <use xlink:href="#DejaVuSans-20" x="765.527344"/>
     <use xlink:href="#DejaVuSans-69" x="797.314453"/>
     <use xlink:href="#DejaVuSans-6e" x="825.097656"/>
     <use xlink:href="#DejaVuSans-6a" x="888.476562"/>
     <use xlink:href="#DejaVuSans-65" x="916.259766"/>
     <use xlink:href="#DejaVuSans-63" x="977.783203"/>
     <use xlink:href="#DejaVuSans-74" x="1032.763672"/>
     <use xlink:href="#DejaVuSans-65" x="1071.972656"/>
     <use xlink:href="#DejaVuSans-64" x="1133.496094"/>
     <use xlink:href="#DejaVuSans-20" x="1196.972656"/>
     <use xlink:href="#DejaVuSans-74" x="1228.759766"/>
     <use xlink:href="#DejaVuSans-68" x="1267.96875"/>
     <use xlink:href="#DejaVuSans-72" x="1331.347656"/>
     <use xlink:href="#DejaVuSans-65" x="1370.210938"/>
     <use xlink:href="#DejaVuSans-61" x="1431.734375"/>
     <use xlink:href="#DejaVuSans-74" x="1493.013672"/>
     <use xlink:href="#DejaVuSans-20" x="1532.222656"/>
     <use xlink:href="#DejaVuSans-61" x="1564.009766"/>
     <use xlink:href="#DejaVuSans-6e" x="1625.289062"/>
     <use xlink:href="#DejaVuSans-64" x="1688.667969"/>
     <use xlink:href="#DejaVuSans-20" x="1752.144531"/>
     <use xlink:href="#DejaVuSans-74" x="1783.931641"/>
     <use xlink:href="#DejaVuSans-72" x="1823.140625"/>
     <use xlink:href="#DejaVuSans-61" x="1864.253906"/>
     <use xlink:href="#DejaVuSans-6e" x="1925.533203"/>
     <use xlink:href="#DejaVuSans-73" x="1988.912109"/>
     <use xlink:href="#DejaVuSans-69" x="2041.011719"/>
     <use xlink:href="#DejaVuSans-65" x="2068.794922"/>
     <use xlink:href="#DejaVuSans-6e" x="2130.318359"/>
     <use xlink:href="#DejaVuSans-74" x="2193.697266"/>
     <use xlink:href="#DejaVuSans-20" x="2232.90625"/>
     <use xlink:href="#DejaVuSans-72" x="2264.693359"/>
     <use xlink:href="#DejaVuSans-65" x="2303.556641"/>
     <use xlink:href="#DejaVuSans-73" x="2365.080078"/>
     <use xlink:href="#DejaVuSans-69" x="2417.179688"/>
     <use xlink:href="#DejaVuSans-64" x="2444.962891"/>
     <use xlink:href="#DejaVuSans-75" x="2508.439453"/>
     <use xlink:href="#DejaVuSans-65" x="2571.818359"/>
     <use xlink:href="#DejaVuSans-2e" x="2633.341797"/>
    </g>
    <!-- 8. Write scenario verification artifacts. -->
    <g style="fill: #6c757d" transform="translate(81.6192 346.986819) scale(0.0792 -0.0792)">
     <defs>
      <path id="DejaVuSans-38" d="M 2034 2216 
Q 1584 2216 1326 1975 
Q 1069 1734 1069 1313 
Q 1069 891 1326 650 
Q 1584 409 2034 409 
Q 2484 409 2743 651 
Q 3003 894 3003 1313 
Q 3003 1734 2745 1975 
Q 2488 2216 2034 2216 
z
M 1403 2484 
Q 997 2584 770 2862 
Q 544 3141 544 3541 
Q 544 4100 942 4425 
Q 1341 4750 2034 4750 
Q 2731 4750 3128 4425 
Q 3525 4100 3525 3541 
Q 3525 3141 3298 2862 
Q 3072 2584 2669 2484 
Q 3125 2378 3379 2068 
Q 3634 1759 3634 1313 
Q 3634 634 3220 271 
Q 2806 -91 2034 -91 
Q 1263 -91 848 271 
Q 434 634 434 1313 
Q 434 1759 690 2068 
Q 947 2378 1403 2484 
z
M 1172 3481 
Q 1172 3119 1398 2916 
Q 1625 2713 2034 2713 
Q 2441 2713 2670 2916 
Q 2900 3119 2900 3481 
Q 2900 3844 2670 4047 
Q 2441 4250 2034 4250 
Q 1625 4250 1398 4047 
Q 1172 3844 1172 3481 
z
" transform="scale(0.015625)"/>
     </defs>
     <use xlink:href="#DejaVuSans-38"/>
     <use xlink:href="#DejaVuSans-2e" x="63.623047"/>
     <use xlink:href="#DejaVuSans-20" x="95.410156"/>
     <use xlink:href="#DejaVuSans-57" x="127.197266"/>
     <use xlink:href="#DejaVuSans-72" x="221.574219"/>
     <use xlink:href="#DejaVuSans-69" x="262.6875"/>
     <use xlink:href="#DejaVuSans-74" x="290.470703"/>
     <use xlink:href="#DejaVuSans-65" x="329.679688"/>
     <use xlink:href="#DejaVuSans-20" x="391.203125"/>
     <use xlink:href="#DejaVuSans-73" x="422.990234"/>
     <use xlink:href="#DejaVuSans-63" x="475.089844"/>
     <use xlink:href="#DejaVuSans-65" x="530.070312"/>
     <use xlink:href="#DejaVuSans-6e" x="591.59375"/>
     <use xlink:href="#DejaVuSans-61" x="654.972656"/>
     <use xlink:href="#DejaVuSans-72" x="716.251953"/>
     <use xlink:href="#DejaVuSans-69" x="757.365234"/>
     <use xlink:href="#DejaVuSans-6f" x="785.148438"/>
     <use xlink:href="#DejaVuSans-20" x="846.330078"/>
     <use xlink:href="#DejaVuSans-76" x="878.117188"/>
     <use xlink:href="#DejaVuSans-65" x="937.296875"/>
     <use xlink:href="#DejaVuSans-72" x="998.820312"/>
     <use xlink:href="#DejaVuSans-69" x="1039.933594"/>
     <use xlink:href="#DejaVuSans-66" x="1067.716797"/>
     <use xlink:href="#DejaVuSans-69" x="1102.921875"/>
     <use xlink:href="#DejaVuSans-63" x="1130.705078"/>
     <use xlink:href="#DejaVuSans-61" x="1185.685547"/>
     <use xlink:href="#DejaVuSans-74" x="1246.964844"/>
     <use xlink:href="#DejaVuSans-69" x="1286.173828"/>
     <use xlink:href="#DejaVuSans-6f" x="1313.957031"/>
     <use xlink:href="#DejaVuSans-6e" x="1375.138672"/>
     <use xlink:href="#DejaVuSans-20" x="1438.517578"/>
     <use xlink:href="#DejaVuSans-61" x="1470.304688"/>
     <use xlink:href="#DejaVuSans-72" x="1531.583984"/>
     <use xlink:href="#DejaVuSans-74" x="1572.697266"/>
     <use xlink:href="#DejaVuSans-69" x="1611.90625"/>
     <use xlink:href="#DejaVuSans-66" x="1639.689453"/>
     <use xlink:href="#DejaVuSans-61" x="1674.894531"/>
     <use xlink:href="#DejaVuSans-63" x="1736.173828"/>
     <use xlink:href="#DejaVuSans-74" x="1791.154297"/>
     <use xlink:href="#DejaVuSans-73" x="1830.363281"/>
     <use xlink:href="#DejaVuSans-2e" x="1882.462891"/>
    </g>
   </g>
   <g id="text_10">
    <!-- Restore production cadence -->
    <g style="fill: #4caf50" transform="translate(81.6192 375.49076) scale(0.0935 -0.0935)">
     <defs>
      <path id="DejaVuSans-Bold-73" d="M 3272 3391 
L 3272 2541 
Q 2913 2691 2578 2766 
Q 2244 2841 1947 2841 
Q 1628 2841 1473 2761 
Q 1319 2681 1319 2516 
Q 1319 2381 1436 2309 
Q 1553 2238 1856 2203 
L 2053 2175 
Q 2913 2066 3209 1816 
Q 3506 1566 3506 1031 
Q 3506 472 3093 190 
Q 2681 -91 1863 -91 
Q 1516 -91 1145 -36 
Q 775 19 384 128 
L 384 978 
Q 719 816 1070 734 
Q 1422 653 1784 653 
Q 2113 653 2278 743 
Q 2444 834 2444 1013 
Q 2444 1163 2330 1236 
Q 2216 1309 1875 1350 
L 1678 1375 
Q 931 1469 631 1722 
Q 331 1975 331 2491 
Q 331 3047 712 3315 
Q 1094 3584 1881 3584 
Q 2191 3584 2531 3537 
Q 2872 3491 3272 3391 
z
" transform="scale(0.015625)"/>
     </defs>
     <use xlink:href="#DejaVuSans-Bold-52"/>
     <use xlink:href="#DejaVuSans-Bold-65" x="77.001953"/>
     <use xlink:href="#DejaVuSans-Bold-73" x="144.824219"/>
     <use xlink:href="#DejaVuSans-Bold-74" x="204.345703"/>
     <use xlink:href="#DejaVuSans-Bold-6f" x="252.148438"/>
     <use xlink:href="#DejaVuSans-Bold-72" x="320.849609"/>
     <use xlink:href="#DejaVuSans-Bold-65" x="370.166016"/>
     <use xlink:href="#DejaVuSans-Bold-20" x="437.988281"/>
     <use xlink:href="#DejaVuSans-Bold-70" x="472.802734"/>
     <use xlink:href="#DejaVuSans-Bold-72" x="544.384766"/>
     <use xlink:href="#DejaVuSans-Bold-6f" x="593.701172"/>
     <use xlink:href="#DejaVuSans-Bold-64" x="662.402344"/>
     <use xlink:href="#DejaVuSans-Bold-75" x="733.984375"/>
     <use xlink:href="#DejaVuSans-Bold-63" x="805.175781"/>
     <use xlink:href="#DejaVuSans-Bold-74" x="864.453125"/>
     <use xlink:href="#DejaVuSans-Bold-69" x="912.255859"/>
     <use xlink:href="#DejaVuSans-Bold-6f" x="946.533203"/>
     <use xlink:href="#DejaVuSans-Bold-6e" x="1015.234375"/>
     <use xlink:href="#DejaVuSans-Bold-20" x="1086.425781"/>
     <use xlink:href="#DejaVuSans-Bold-63" x="1121.240234"/>
     <use xlink:href="#DejaVuSans-Bold-61" x="1180.517578"/>
     <use xlink:href="#DejaVuSans-Bold-64" x="1247.998047"/>
     <use xlink:href="#DejaVuSans-Bold-65" x="1319.580078"/>
     <use xlink:href="#DejaVuSans-Bold-6e" x="1387.402344"/>
     <use xlink:href="#DejaVuSans-Bold-63" x="1458.59375"/>
     <use xlink:href="#DejaVuSans-Bold-65" x="1517.871094"/>
    </g>
   </g>
   <g id="text_11">
    <!-- 1. Restore extrapolator production cadence. -->
    <g style="fill: #6c757d" transform="translate(81.6192 388.463259) scale(0.081 -0.081)">
     <defs>
      <path id="DejaVuSans-52" d="M 2841 2188 
Q 3044 2119 3236 1894 
Q 3428 1669 3622 1275 
L 4263 0 
L 3584 0 
L 2988 1197 
Q 2756 1666 2539 1819 
Q 2322 1972 1947 1972 
L 1259 1972 
L 1259 0 
L 628 0 
L 628 4666 
L 2053 4666 
Q 2853 4666 3247 4331 
Q 3641 3997 3641 3322 
Q 3641 2881 3436 2590 
Q 3231 2300 2841 2188 
z
M 1259 4147 
L 1259 2491 
L 2053 2491 
Q 2509 2491 2742 2702 
Q 2975 2913 2975 3322 
Q 2975 3731 2742 3939 
Q 2509 4147 2053 4147 
L 1259 4147 
z
" transform="scale(0.015625)"/>
     </defs>
     <use xlink:href="#DejaVuSans-31"/>
     <use xlink:href="#DejaVuSans-2e" x="63.623047"/>
     <use xlink:href="#DejaVuSans-20" x="95.410156"/>
     <use xlink:href="#DejaVuSans-52" x="127.197266"/>
     <use xlink:href="#DejaVuSans-65" x="192.179688"/>
     <use xlink:href="#DejaVuSans-73" x="253.703125"/>
     <use xlink:href="#DejaVuSans-74" x="305.802734"/>
     <use xlink:href="#DejaVuSans-6f" x="345.011719"/>
     <use xlink:href="#DejaVuSans-72" x="406.193359"/>
     <use xlink:href="#DejaVuSans-65" x="445.056641"/>
     <use xlink:href="#DejaVuSans-20" x="506.580078"/>
     <use xlink:href="#DejaVuSans-65" x="538.367188"/>
     <use xlink:href="#DejaVuSans-78" x="598.140625"/>
     <use xlink:href="#DejaVuSans-74" x="657.320312"/>
     <use xlink:href="#DejaVuSans-72" x="696.529297"/>
     <use xlink:href="#DejaVuSans-61" x="737.642578"/>
     <use xlink:href="#DejaVuSans-70" x="798.921875"/>
     <use xlink:href="#DejaVuSans-6f" x="862.398438"/>
     <use xlink:href="#DejaVuSans-6c" x="923.580078"/>
     <use xlink:href="#DejaVuSans-61" x="951.363281"/>
     <use xlink:href="#DejaVuSans-74" x="1012.642578"/>
     <use xlink:href="#DejaVuSans-6f" x="1051.851562"/>
     <use xlink:href="#DejaVuSans-72" x="1113.033203"/>
     <use xlink:href="#DejaVuSans-20" x="1154.146484"/>
     <use xlink:href="#DejaVuSans-70" x="1185.933594"/>
     <use xlink:href="#DejaVuSans-72" x="1249.410156"/>
     <use xlink:href="#DejaVuSans-6f" x="1288.273438"/>
     <use xlink:href="#DejaVuSans-64" x="1349.455078"/>
     <use xlink:href="#DejaVuSans-75" x="1412.931641"/>
     <use xlink:href="#DejaVuSans-63" x="1476.310547"/>
     <use xlink:href="#DejaVuSans-74" x="1531.291016"/>
     <use xlink:href="#DejaVuSans-69" x="1570.5"/>
     <use xlink:href="#DejaVuSans-6f" x="1598.283203"/>
     <use xlink:href="#DejaVuSans-6e" x="1659.464844"/>
     <use xlink:href="#DejaVuSans-20" x="1722.84375"/>
     <use xlink:href="#DejaVuSans-63" x="1754.630859"/>
     <use xlink:href="#DejaVuSans-61" x="1809.611328"/>
     <use xlink:href="#DejaVuSans-64" x="1870.890625"/>
     <use xlink:href="#DejaVuSans-65" x="1934.367188"/>
     <use xlink:href="#DejaVuSans-6e" x="1995.890625"/>
     <use xlink:href="#DejaVuSans-63" x="2059.269531"/>
     <use xlink:href="#DejaVuSans-65" x="2114.25"/>
     <use xlink:href="#DejaVuSans-2e" x="2175.773438"/>
    </g>
    <!-- 2. Restore verdict-reader production cadence. -->
    <g style="fill: #6c757d" transform="translate(81.6192 398.025866) scale(0.081 -0.081)">
     <use xlink:href="#DejaVuSans-32"/>
     <use xlink:href="#DejaVuSans-2e" x="63.623047"/>
     <use xlink:href="#DejaVuSans-20" x="95.410156"/>
     <use xlink:href="#DejaVuSans-52" x="127.197266"/>
     <use xlink:href="#DejaVuSans-65" x="192.179688"/>
     <use xlink:href="#DejaVuSans-73" x="253.703125"/>
     <use xlink:href="#DejaVuSans-74" x="305.802734"/>
     <use xlink:href="#DejaVuSans-6f" x="345.011719"/>
     <use xlink:href="#DejaVuSans-72" x="406.193359"/>
     <use xlink:href="#DejaVuSans-65" x="445.056641"/>
     <use xlink:href="#DejaVuSans-20" x="506.580078"/>
     <use xlink:href="#DejaVuSans-76" x="538.367188"/>
     <use xlink:href="#DejaVuSans-65" x="597.546875"/>
     <use xlink:href="#DejaVuSans-72" x="659.070312"/>
     <use xlink:href="#DejaVuSans-64" x="698.433594"/>
     <use xlink:href="#DejaVuSans-69" x="761.910156"/>
     <use xlink:href="#DejaVuSans-63" x="789.693359"/>
     <use xlink:href="#DejaVuSans-74" x="844.673828"/>
     <use xlink:href="#DejaVuSans-2d" x="883.882812"/>
     <use xlink:href="#DejaVuSans-72" x="919.966797"/>
     <use xlink:href="#DejaVuSans-65" x="958.830078"/>
     <use xlink:href="#DejaVuSans-61" x="1020.353516"/>
     <use xlink:href="#DejaVuSans-64" x="1081.632812"/>
     <use xlink:href="#DejaVuSans-65" x="1145.109375"/>
     <use xlink:href="#DejaVuSans-72" x="1206.632812"/>
     <use xlink:href="#DejaVuSans-20" x="1247.746094"/>
     <use xlink:href="#DejaVuSans-70" x="1279.533203"/>
     <use xlink:href="#DejaVuSans-72" x="1343.009766"/>
     <use xlink:href="#DejaVuSans-6f" x="1381.873047"/>
     <use xlink:href="#DejaVuSans-64" x="1443.054688"/>
     <use xlink:href="#DejaVuSans-75" x="1506.53125"/>
     <use xlink:href="#DejaVuSans-63" x="1569.910156"/>
     <use xlink:href="#DejaVuSans-74" x="1624.890625"/>
     <use xlink:href="#DejaVuSans-69" x="1664.099609"/>
     <use xlink:href="#DejaVuSans-6f" x="1691.882812"/>
     <use xlink:href="#DejaVuSans-6e" x="1753.064453"/>
     <use xlink:href="#DejaVuSans-20" x="1816.443359"/>
     <use xlink:href="#DejaVuSans-63" x="1848.230469"/>
     <use xlink:href="#DejaVuSans-61" x="1903.210938"/>
     <use xlink:href="#DejaVuSans-64" x="1964.490234"/>
     <use xlink:href="#DejaVuSans-65" x="2027.966797"/>
     <use xlink:href="#DejaVuSans-6e" x="2089.490234"/>
     <use xlink:href="#DejaVuSans-63" x="2152.869141"/>
     <use xlink:href="#DejaVuSans-65" x="2207.849609"/>
     <use xlink:href="#DejaVuSans-2e" x="2269.373047"/>
    </g>
   </g>
   <g id="text_12">
    <!-- Cron-Driven Engine Verdict Sequence -->
    <g transform="translate(186.334687 16.318125) scale(0.12 -0.12)">
     <defs>
      <path id="DejaVuSans-Bold-2d" d="M 347 2297 
L 2309 2297 
L 2309 1388 
L 347 1388 
L 347 2297 
z
" transform="scale(0.015625)"/>
      <path id="DejaVuSans-Bold-76" d="M 97 3500 
L 1216 3500 
L 2088 1081 
L 2956 3500 
L 4078 3500 
L 2700 0 
L 1472 0 
L 97 3500 
z
" transform="scale(0.015625)"/>
      <path id="DejaVuSans-Bold-67" d="M 2919 594 
Q 2688 288 2409 144 
Q 2131 0 1766 0 
Q 1125 0 706 504 
Q 288 1009 288 1791 
Q 288 2575 706 3076 
Q 1125 3578 1766 3578 
Q 2131 3578 2409 3434 
Q 2688 3291 2919 2981 
L 2919 3500 
L 4044 3500 
L 4044 353 
Q 4044 -491 3511 -936 
Q 2978 -1381 1966 -1381 
Q 1638 -1381 1331 -1331 
Q 1025 -1281 716 -1178 
L 716 -306 
Q 1009 -475 1290 -558 
Q 1572 -641 1856 -641 
Q 2406 -641 2662 -400 
Q 2919 -159 2919 353 
L 2919 594 
z
M 2181 2772 
Q 1834 2772 1640 2515 
Q 1447 2259 1447 1791 
Q 1447 1309 1634 1061 
Q 1822 813 2181 813 
Q 2531 813 2725 1069 
Q 2919 1325 2919 1791 
Q 2919 2259 2725 2515 
Q 2531 2772 2181 2772 
z
" transform="scale(0.015625)"/>
      <path id="DejaVuSans-Bold-71" d="M 2181 2772 
Q 1825 2772 1636 2509 
Q 1447 2247 1447 1747 
Q 1447 1247 1636 984 
Q 1825 722 2181 722 
Q 2541 722 2730 984 
Q 2919 1247 2919 1747 
Q 2919 2247 2730 2509 
Q 2541 2772 2181 2772 
z
M 2919 506 
Q 2688 197 2409 53 
Q 2131 -91 1766 -91 
Q 1119 -91 703 423 
Q 288 938 288 1747 
Q 288 2556 703 3067 
Q 1119 3578 1766 3578 
Q 2131 3578 2409 3434 
Q 2688 3291 2919 2981 
L 2919 3500 
L 4044 3500 
L 4044 -1331 
L 2919 -1331 
L 2919 506 
z
" transform="scale(0.015625)"/>
     </defs>
     <use xlink:href="#DejaVuSans-Bold-43"/>
     <use xlink:href="#DejaVuSans-Bold-72" x="73.388672"/>
     <use xlink:href="#DejaVuSans-Bold-6f" x="122.705078"/>
     <use xlink:href="#DejaVuSans-Bold-6e" x="191.40625"/>
     <use xlink:href="#DejaVuSans-Bold-2d" x="262.597656"/>
     <use xlink:href="#DejaVuSans-Bold-44" x="304.101562"/>
     <use xlink:href="#DejaVuSans-Bold-72" x="387.109375"/>
     <use xlink:href="#DejaVuSans-Bold-69" x="436.425781"/>
     <use xlink:href="#DejaVuSans-Bold-76" x="470.703125"/>
     <use xlink:href="#DejaVuSans-Bold-65" x="535.888672"/>
     <use xlink:href="#DejaVuSans-Bold-6e" x="603.710938"/>
     <use xlink:href="#DejaVuSans-Bold-20" x="674.902344"/>
     <use xlink:href="#DejaVuSans-Bold-45" x="709.716797"/>
     <use xlink:href="#DejaVuSans-Bold-6e" x="778.027344"/>
     <use xlink:href="#DejaVuSans-Bold-67" x="849.21875"/>
     <use xlink:href="#DejaVuSans-Bold-69" x="920.800781"/>
     <use xlink:href="#DejaVuSans-Bold-6e" x="955.078125"/>
     <use xlink:href="#DejaVuSans-Bold-65" x="1026.269531"/>
     <use xlink:href="#DejaVuSans-Bold-20" x="1094.091797"/>
     <use xlink:href="#DejaVuSans-Bold-56" x="1128.90625"/>
     <use xlink:href="#DejaVuSans-Bold-65" x="1200.798828"/>
     <use xlink:href="#DejaVuSans-Bold-72" x="1268.621094"/>
     <use xlink:href="#DejaVuSans-Bold-64" x="1317.9375"/>
     <use xlink:href="#DejaVuSans-Bold-69" x="1389.519531"/>
     <use xlink:href="#DejaVuSans-Bold-63" x="1423.796875"/>
     <use xlink:href="#DejaVuSans-Bold-74" x="1483.074219"/>
     <use xlink:href="#DejaVuSans-Bold-20" x="1530.876953"/>
     <use xlink:href="#DejaVuSans-Bold-53" x="1565.691406"/>
     <use xlink:href="#DejaVuSans-Bold-65" x="1637.712891"/>
     <use xlink:href="#DejaVuSans-Bold-71" x="1705.535156"/>
     <use xlink:href="#DejaVuSans-Bold-75" x="1777.117188"/>
     <use xlink:href="#DejaVuSans-Bold-65" x="1848.308594"/>
     <use xlink:href="#DejaVuSans-Bold-6e" x="1916.130859"/>
     <use xlink:href="#DejaVuSans-Bold-63" x="1987.322266"/>
     <use xlink:href="#DejaVuSans-Bold-65" x="2046.599609"/>
    </g>
   </g>
  </g>
 </g>
 <defs>
  <clipPath id="pe8bc51c0c1">
   <rect x="7.2" y="28.318125" width="612" height="395.52"/>
  </clipPath>
 </defs>
</svg>
